# https://github.com/mikedh/trimesh
mtllib material.mtl
usemtl material_0
v 0.53466300 -0.70943800 0.40472000
v 0.44946800 -0.53904900 0.40472000
v -0.48767100 -0.70943800 0.40472000
v -0.40247700 -0.53904900 0.40472000
v 0.44946800 0.68775200 -0.53242000
v -0.40247700 -0.53904900 -0.53242000
v 0.44946800 -0.53904900 -0.53242000
v -0.40247700 0.68775200 -0.53242000
v 0.44946800 -0.53904900 0.40472000
v -0.40247700 -0.53904900 -0.53242000
v -0.40247700 -0.53904900 0.40472000
v 0.44946800 -0.53904900 -0.53242000
v 0.44946800 0.68775200 -0.53242000
v 0.44946800 -0.53904900 0.40472000
v 0.44946800 0.68775200 0.40472000
v 0.44946800 -0.53904900 -0.53242000
v 0.44946800 0.68775200 -0.53242000
v -0.40247700 0.68775200 0.40472000
v -0.40247700 0.68775200 -0.53242000
v 0.44946800 0.68775200 0.40472000
v -0.40247700 -0.53904900 -0.53242000
v -0.40247700 0.68775200 0.40472000
v -0.40247700 -0.53904900 0.40472000
v -0.40247700 0.68775200 -0.53242000
v 0.53466300 -0.70943800 -0.44501000
v -0.48767100 -0.70943800 0.40472000
v -0.48767100 -0.70943800 -0.44501000
v 0.53466300 -0.70943800 0.40472000
v -0.48767100 0.77294700 -0.44501000
v 0.53466300 -0.70943800 -0.44501000
v -0.48767100 -0.70943800 -0.44501000
v 0.53466300 0.77294700 -0.44501000
v 0.53466300 -0.70943800 -0.44501000
v 0.53466300 0.77294700 0.40472000
v 0.53466300 -0.70943800 0.40472000
v 0.53466300 0.77294700 -0.44501000
v 0.53466300 -0.70943800 0.40472000
v 0.44946800 -0.53904900 0.40472000
v -0.48767100 -0.70943800 0.40472000
v 0.53466300 0.77294700 0.40472000
v 0.44946800 0.68775200 0.40472000
v -0.40247700 0.68775200 0.40472000
v -0.40247700 -0.53904900 0.40472000
v -0.48767100 0.77294700 0.40472000
v -0.48767100 0.77294700 -0.44501000
v -0.48767100 -0.70943800 0.40472000
v -0.48767100 0.77294700 0.40472000
v -0.48767100 -0.70943800 -0.44501000
v 0.53466300 0.77294700 0.40472000
v -0.48767100 0.77294700 -0.44501000
v -0.48767100 0.77294700 0.40472000
v 0.53466300 0.77294700 -0.44501000
vn 0.00000000 0.00000000 1.00000000
vn 0.00000000 0.00000000 1.00000000
vn 0.00000000 0.00000000 1.00000000
vn 0.00000000 0.00000000 1.00000000
vn 0.00000000 0.00000000 1.00000000
vn 0.00000000 0.00000000 1.00000000
vn 0.00000000 0.00000000 1.00000000
vn 0.00000000 0.00000000 1.00000000
vn 0.00000000 1.00000000 0.00000000
vn 0.00000000 1.00000000 0.00000000
vn 0.00000000 1.00000000 0.00000000
vn 0.00000000 1.00000000 0.00000000
vn -1.00000000 0.00000000 0.00000000
vn -1.00000000 0.00000000 0.00000000
vn -1.00000000 0.00000000 0.00000000
vn -1.00000000 0.00000000 0.00000000
vn 0.00000000 -1.00000000 0.00000000
vn 0.00000000 -1.00000000 0.00000000
vn 0.00000000 -1.00000000 0.00000000
vn 0.00000000 -1.00000000 0.00000000
vn 1.00000000 0.00000000 0.00000000
vn 1.00000000 0.00000000 0.00000000
vn 1.00000000 0.00000000 0.00000000
vn 1.00000000 0.00000000 0.00000000
vn 0.00000000 -1.00000000 0.00000000
vn 0.00000000 -1.00000000 0.00000000
vn 0.00000000 -1.00000000 0.00000000
vn 0.00000000 -1.00000000 0.00000000
vn 0.00000000 0.00000000 -1.00000000
vn 0.00000000 0.00000000 -1.00000000
vn 0.00000000 0.00000000 -1.00000000
vn 0.00000000 0.00000000 -1.00000000
vn 1.00000000 0.00000000 0.00000000
vn 1.00000000 0.00000000 0.00000000
vn 1.00000000 0.00000000 0.00000000
vn 1.00000000 0.00000000 0.00000000
vn 0.00000000 0.00000000 1.00000000
vn 0.00000000 0.00000000 1.00000000
vn 0.00000000 0.00000000 1.00000000
vn 0.00000000 0.00000000 1.00000000
vn 0.00000000 0.00000000 1.00000000
vn 0.00000000 0.00000000 1.00000000
vn 0.00000000 0.00000000 1.00000000
vn 0.00000000 0.00000000 1.00000000
vn -1.00000000 0.00000000 0.00000000
vn -1.00000000 0.00000000 0.00000000
vn -1.00000000 0.00000000 0.00000000
vn -1.00000000 0.00000000 0.00000000
vn 0.00000000 1.00000000 0.00000000
vn 0.00000000 1.00000000 0.00000000
vn 0.00000000 1.00000000 0.00000000
vn 0.00000000 1.00000000 0.00000000
vt 0.50000000 0.50000000
vt 0.50000000 0.50000000
vt 0.50000000 0.50000000
vt 0.50000000 0.50000000
vt 0.50000000 0.50000000
vt 0.50000000 0.50000000
vt 0.50000000 0.50000000
vt 0.50000000 0.50000000
vt 0.50000000 0.50000000
vt 0.50000000 0.50000000
vt 0.50000000 0.50000000
vt 0.50000000 0.50000000
vt 0.50000000 0.50000000
vt 0.50000000 0.50000000
vt 0.50000000 0.50000000
vt 0.50000000 0.50000000
vt 0.50000000 0.50000000
vt 0.50000000 0.50000000
vt 0.50000000 0.50000000
vt 0.50000000 0.50000000
vt 0.50000000 0.50000000
vt 0.50000000 0.50000000
vt 0.50000000 0.50000000
vt 0.50000000 0.50000000
vt 0.50000000 0.50000000
vt 0.50000000 0.50000000
vt 0.50000000 0.50000000
vt 0.50000000 0.50000000
vt 0.50000000 0.50000000
vt 0.50000000 0.50000000
vt 0.50000000 0.50000000
vt 0.50000000 0.50000000
vt 0.50000000 0.50000000
vt 0.50000000 0.50000000
vt 0.50000000 0.50000000
vt 0.50000000 0.50000000
vt 0.50000000 0.50000000
vt 0.50000000 0.50000000
vt 0.50000000 0.50000000
vt 0.50000000 0.50000000
vt 0.50000000 0.50000000
vt 0.50000000 0.50000000
vt 0.50000000 0.50000000
vt 0.50000000 0.50000000
vt 0.50000000 0.50000000
vt 0.50000000 0.50000000
vt 0.50000000 0.50000000
vt 0.50000000 0.50000000
vt 0.50000000 0.50000000
vt 0.50000000 0.50000000
vt 0.50000000 0.50000000
vt 0.50000000 0.50000000
f 1/1/1 2/2/2 3/3/3
f 4/4/4 3/3/3 2/2/2
f 5/5/5 6/6/6 7/7/7
f 6/6/6 5/5/5 8/8/8
f 9/9/9 10/10/10 11/11/11
f 10/10/10 9/9/9 12/12/12
f 13/13/13 14/14/14 15/15/15
f 14/14/14 13/13/13 16/16/16
f 17/17/17 18/18/18 19/19/19
f 18/18/18 17/17/17 20/20/20
f 21/21/21 22/22/22 23/23/23
f 22/22/22 21/21/21 24/24/24
f 25/25/25 26/26/26 27/27/27
f 26/26/26 25/25/25 28/28/28
f 29/29/29 30/30/30 31/31/31
f 30/30/30 29/29/29 32/32/32
f 33/33/33 34/34/34 35/35/35
f 34/34/34 33/33/33 36/36/36
f 38/38/38 37/37/37 40/40/40
f 38/38/38 40/40/40 41/41/41
f 41/41/41 40/40/40 42/42/42
f 39/39/39 43/43/43 44/44/44
f 44/44/44 43/43/43 42/42/42
f 44/44/44 42/42/42 40/40/40
f 45/45/45 46/46/46 47/47/47
f 46/46/46 45/45/45 48/48/48
f 49/49/49 50/50/50 51/51/51
f 50/50/50 49/49/49 52/52/52

