# https://github.com/mikedh/trimesh
mtllib material.mtl
usemtl material_0
v 0.32597000 0.34887900 0.25488900
v 0.32597000 0.34887900 0.25488900
v 0.32597000 0.34887900 0.25488900
v 0.32597000 -0.81718500 0.27508500
v 0.32597000 -0.81718500 0.27508500
v 0.32597000 -0.81718500 0.27508500
v 0.32597000 -0.81718500 0.25488900
v 0.32597000 -0.81718500 0.25488900
v 0.32597000 -0.81718500 0.25488900
v 0.32597000 0.34887900 0.27508500
v 0.32597000 0.34887900 0.27508500
v 0.32597000 0.34887900 0.27508500
v -0.30755300 -0.81718500 0.25488900
v -0.30755300 -0.81718500 0.25488900
v -0.30755300 -0.81718500 0.25488900
v -0.30755300 0.34887900 0.27508500
v -0.30755300 0.34887900 0.27508500
v -0.30755300 0.34887900 0.27508500
v -0.30755300 -0.81718500 0.27508500
v -0.30755300 -0.81718500 0.27508500
v -0.30755300 -0.81718500 0.27508500
v -0.30755300 0.34887900 0.25488900
v -0.30755300 0.34887900 0.25488900
v -0.30755300 0.34887900 0.25488900
v 0.32597000 0.34887900 0.25488900
v 0.32597000 0.34887900 0.25488900
v 0.32597000 0.34887900 0.25488900
v 0.32597000 -0.81718500 0.27508500
v 0.32597000 -0.81718500 0.27508500
v 0.32597000 -0.81718500 0.27508500
v 0.32597000 -0.81718500 0.25488900
v 0.32597000 -0.81718500 0.25488900
v 0.32597000 -0.81718500 0.25488900
v 0.32597000 0.34887900 0.27508500
v 0.32597000 0.34887900 0.27508500
v 0.32597000 0.34887900 0.27508500
v -0.30755300 -0.81718500 0.25488900
v -0.30755300 -0.81718500 0.25488900
v -0.30755300 -0.81718500 0.25488900
v -0.30755300 0.34887900 0.27508500
v -0.30755300 0.34887900 0.27508500
v -0.30755300 0.34887900 0.27508500
v -0.30755300 -0.81718500 0.27508500
v -0.30755300 -0.81718500 0.27508500
v -0.30755300 -0.81718500 0.27508500
v -0.30755300 0.34887900 0.25488900
v -0.30755300 0.34887900 0.25488900
v -0.30755300 0.34887900 0.25488900
v -0.27779000 -0.74809300 0.21024400
v -0.27779000 -0.74809300 0.21024400
v -0.27779000 -0.74809300 0.21024400
v -0.27779000 -0.74809300 0.21024400
v -0.27779000 0.34462700 0.21024400
v -0.27779000 0.34462700 0.21024400
v 0.29620700 0.34462700 0.21024400
v 0.29620700 0.34462700 0.21024400
v 0.29620700 -0.74809300 0.21024400
v 0.29620700 -0.74809300 0.21024400
v 0.29620700 -0.74809300 0.21024400
v 0.29620700 -0.74809300 0.21024400
v -0.27779000 -0.74809300 0.25276300
v -0.27779000 -0.74809300 0.25276300
v -0.27779000 -0.74809300 0.25276300
v -0.27779000 -0.74809300 0.25276300
v 0.29620700 -0.74809300 0.25276300
v 0.29620700 -0.74809300 0.25276300
v 0.29620700 -0.74809300 0.25276300
v 0.29620700 -0.74809300 0.25276300
v 0.29620700 0.34462700 0.25276300
v 0.29620700 0.34462700 0.25276300
v -0.27779000 0.34462700 0.25276300
v -0.27779000 0.34462700 0.25276300
v 0.27813600 0.30104600 0.30697300
v 0.27813600 0.30104600 0.30697300
v 0.27813600 0.30104600 0.30697300
v 0.28876600 0.07357300 0.30697300
v 0.28876600 0.07357300 0.30697300
v 0.28876600 0.07357300 0.30697300
v 0.27813600 0.07357300 0.30697300
v 0.27813600 0.07357300 0.30697300
v 0.27813600 0.07357300 0.30697300
v 0.28876600 0.30104600 0.30697300
v 0.28876600 0.30104600 0.30697300
v 0.28876600 0.30104600 0.30697300
v 0.27813600 0.07357300 0.27508500
v 0.27813600 0.07357300 0.27508500
v 0.27813600 0.07357300 0.27508500
v 0.27813600 0.06294300 0.31760300
v 0.27813600 0.06294300 0.31760300
v 0.27813600 0.06294300 0.31760300
v 0.28876600 0.30104600 0.27508500
v 0.28876600 0.30104600 0.27508500
v 0.28876600 0.30104600 0.27508500
v 0.28876600 0.31167500 0.31760300
v 0.28876600 0.31167500 0.31760300
v 0.28876600 0.31167500 0.31760300
v 0.28876600 0.07357300 0.27508500
v 0.28876600 0.07357300 0.27508500
v 0.28876600 0.07357300 0.27508500
v 0.27813600 0.31167500 0.31760300
v 0.27813600 0.31167500 0.31760300
v 0.27813600 0.31167500 0.31760300
v 0.27813600 0.30104600 0.27508500
v 0.27813600 0.30104600 0.27508500
v 0.27813600 0.30104600 0.27508500
v 0.28876600 0.06294300 0.31760300
v 0.28876600 0.06294300 0.31760300
v 0.28876600 0.06294300 0.31760300
v 0.28876600 0.06294300 0.27508500
v 0.28876600 0.06294300 0.27508500
v 0.28876600 0.06294300 0.27508500
v 0.27813600 0.06294300 0.27508500
v 0.27813600 0.06294300 0.27508500
v 0.27813600 0.06294300 0.27508500
v 0.27813600 0.31167500 0.27508500
v 0.27813600 0.31167500 0.27508500
v 0.27813600 0.31167500 0.27508500
v 0.28876600 0.31167500 0.27508500
v 0.28876600 0.31167500 0.27508500
v 0.28876600 0.31167500 0.27508500
v 0.27813600 0.30104600 0.30697300
v 0.27813600 0.30104600 0.30697300
v 0.27813600 0.30104600 0.30697300
v 0.28876600 0.07357300 0.30697300
v 0.28876600 0.07357300 0.30697300
v 0.28876600 0.07357300 0.30697300
v 0.27813600 0.07357300 0.30697300
v 0.27813600 0.07357300 0.30697300
v 0.27813600 0.07357300 0.30697300
v 0.28876600 0.30104600 0.30697300
v 0.28876600 0.30104600 0.30697300
v 0.28876600 0.30104600 0.30697300
v 0.27813600 0.07357300 0.27508500
v 0.27813600 0.07357300 0.27508500
v 0.27813600 0.07357300 0.27508500
v 0.27813600 0.06294300 0.31760300
v 0.27813600 0.06294300 0.31760300
v 0.27813600 0.06294300 0.31760300
v 0.28876600 0.30104600 0.27508500
v 0.28876600 0.30104600 0.27508500
v 0.28876600 0.30104600 0.27508500
v 0.28876600 0.31167500 0.31760300
v 0.28876600 0.31167500 0.31760300
v 0.28876600 0.31167500 0.31760300
v 0.28876600 0.07357300 0.27508500
v 0.28876600 0.07357300 0.27508500
v 0.28876600 0.07357300 0.27508500
v 0.27813600 0.31167500 0.31760300
v 0.27813600 0.31167500 0.31760300
v 0.27813600 0.31167500 0.31760300
v 0.27813600 0.30104600 0.27508500
v 0.27813600 0.30104600 0.27508500
v 0.27813600 0.30104600 0.27508500
v 0.28876600 0.06294300 0.31760300
v 0.28876600 0.06294300 0.31760300
v 0.28876600 0.06294300 0.31760300
v 0.28876600 0.06294300 0.27508500
v 0.28876600 0.06294300 0.27508500
v 0.28876600 0.06294300 0.27508500
v 0.27813600 0.06294300 0.27508500
v 0.27813600 0.06294300 0.27508500
v 0.27813600 0.06294300 0.27508500
v 0.27813600 0.31167500 0.27508500
v 0.27813600 0.31167500 0.27508500
v 0.27813600 0.31167500 0.27508500
v 0.28876600 0.31167500 0.27508500
v 0.28876600 0.31167500 0.27508500
v 0.28876600 0.31167500 0.27508500
vn -1.00000000 0.00000000 0.00000000
vn 0.00000000 -1.00000000 0.00000000
vn 0.00000000 0.00000000 1.00000000
vn -1.00000000 0.00000000 0.00000000
vn 0.00000000 0.00000000 -1.00000000
vn 0.00000000 1.00000000 0.00000000
vn 0.00000000 0.00000000 1.00000000
vn -1.00000000 0.00000000 0.00000000
vn 0.00000000 1.00000000 0.00000000
vn -1.00000000 0.00000000 0.00000000
vn 0.00000000 -1.00000000 0.00000000
vn 0.00000000 0.00000000 -1.00000000
vn 0.00000000 0.00000000 1.00000000
vn 0.00000000 1.00000000 0.00000000
vn 1.00000000 0.00000000 0.00000000
vn 0.00000000 -1.00000000 0.00000000
vn 1.00000000 0.00000000 0.00000000
vn 0.00000000 0.00000000 -1.00000000
vn 0.00000000 1.00000000 0.00000000
vn 1.00000000 0.00000000 0.00000000
vn 0.00000000 0.00000000 -1.00000000
vn 0.00000000 -1.00000000 0.00000000
vn 1.00000000 0.00000000 0.00000000
vn 0.00000000 0.00000000 1.00000000
vn 1.00000000 0.00000000 0.00000000
vn 0.00000000 0.00000000 -1.00000000
vn 0.00000000 1.00000000 0.00000000
vn 1.00000000 0.00000000 0.00000000
vn 0.00000000 -1.00000000 0.00000000
vn 0.00000000 0.00000000 1.00000000
vn 1.00000000 0.00000000 0.00000000
vn 0.00000000 -1.00000000 0.00000000
vn 0.00000000 0.00000000 -1.00000000
vn 1.00000000 0.00000000 0.00000000
vn 0.00000000 0.00000000 1.00000000
vn 0.00000000 1.00000000 0.00000000
vn 0.00000000 0.00000000 -1.00000000
vn 0.00000000 -1.00000000 0.00000000
vn -1.00000000 0.00000000 0.00000000
vn 0.00000000 1.00000000 0.00000000
vn -1.00000000 0.00000000 0.00000000
vn 0.00000000 0.00000000 1.00000000
vn 0.00000000 0.00000000 1.00000000
vn 0.00000000 -1.00000000 0.00000000
vn -1.00000000 0.00000000 0.00000000
vn 0.00000000 0.00000000 -1.00000000
vn 0.00000000 1.00000000 0.00000000
vn -1.00000000 0.00000000 0.00000000
vn 0.00000000 1.00000000 0.00000000
vn 0.00000000 -1.00000000 0.00000000
vn 0.00000000 0.00000000 -1.00000000
vn 0.00000000 0.00000000 1.00000000
vn 0.00000000 0.00000000 -1.00000000
vn 0.00000000 0.00000000 1.00000000
vn 0.00000000 0.00000000 -1.00000000
vn 0.00000000 0.00000000 1.00000000
vn 0.00000000 0.00000000 -1.00000000
vn 0.00000000 0.00000000 1.00000000
vn 0.00000000 -1.00000000 0.00000000
vn 0.00000000 1.00000000 0.00000000
vn 0.00000000 -1.00000000 0.00000000
vn 0.00000000 0.00000000 1.00000000
vn 0.00000000 1.00000000 0.00000000
vn 0.00000000 0.00000000 -1.00000000
vn 0.00000000 0.00000000 1.00000000
vn 0.00000000 1.00000000 0.00000000
vn 0.00000000 0.00000000 -1.00000000
vn 0.00000000 -1.00000000 0.00000000
vn 0.00000000 0.00000000 -1.00000000
vn 0.00000000 0.00000000 1.00000000
vn 0.00000000 0.00000000 1.00000000
vn 0.00000000 0.00000000 -1.00000000
vn 0.00000000 0.00000000 1.00000000
vn 1.00000000 0.00000000 0.00000000
vn 0.00000000 1.00000000 0.00000000
vn -1.00000000 0.00000000 0.00000000
vn 0.00000000 0.00000000 1.00000000
vn 0.00000000 -1.00000000 0.00000000
vn 0.00000000 0.00000000 1.00000000
vn 0.00000000 -1.00000000 0.00000000
vn 1.00000000 0.00000000 0.00000000
vn 0.00000000 0.00000000 1.00000000
vn -1.00000000 0.00000000 0.00000000
vn 0.00000000 1.00000000 0.00000000
vn 0.00000000 0.00000000 1.00000000
vn 1.00000000 0.00000000 0.00000000
vn 0.00000000 -1.00000000 0.00000000
vn 0.00000000 1.00000000 0.00000000
vn 1.00000000 0.00000000 0.00000000
vn 0.00000000 0.00000000 -1.00000000
vn 0.00000000 1.00000000 0.00000000
vn -1.00000000 0.00000000 0.00000000
vn 0.00000000 0.00000000 1.00000000
vn 0.00000000 -1.00000000 0.00000000
vn -1.00000000 0.00000000 0.00000000
vn 0.00000000 0.00000000 -1.00000000
vn 0.00000000 -1.00000000 0.00000000
vn -1.00000000 0.00000000 0.00000000
vn 0.00000000 0.00000000 1.00000000
vn 0.00000000 -1.00000000 0.00000000
vn 0.00000000 0.00000000 -1.00000000
vn 1.00000000 0.00000000 0.00000000
vn 0.00000000 0.00000000 1.00000000
vn 0.00000000 1.00000000 0.00000000
vn 1.00000000 0.00000000 0.00000000
vn 0.00000000 1.00000000 0.00000000
vn 0.00000000 0.00000000 -1.00000000
vn -1.00000000 0.00000000 0.00000000
vn 0.00000000 0.00000000 1.00000000
vn 0.00000000 1.00000000 0.00000000
vn -1.00000000 0.00000000 0.00000000
vn 0.00000000 0.00000000 1.00000000
vn 1.00000000 0.00000000 0.00000000
vn 0.00000000 1.00000000 0.00000000
vn 0.00000000 -1.00000000 0.00000000
vn 0.00000000 0.00000000 1.00000000
vn 1.00000000 0.00000000 0.00000000
vn -1.00000000 0.00000000 0.00000000
vn 0.00000000 -1.00000000 0.00000000
vn 0.00000000 0.00000000 1.00000000
vn 0.00000000 0.00000000 -1.00000000
vn 0.00000000 -1.00000000 0.00000000
vn -1.00000000 0.00000000 0.00000000
vn 1.00000000 0.00000000 0.00000000
vn 0.00000000 0.00000000 -1.00000000
vn 0.00000000 1.00000000 0.00000000
vn 0.00000000 0.00000000 -1.00000000
vn -1.00000000 0.00000000 0.00000000
vn 0.00000000 1.00000000 0.00000000
vn 1.00000000 0.00000000 0.00000000
vn 0.00000000 -1.00000000 0.00000000
vn 0.00000000 0.00000000 -1.00000000
vn 0.00000000 1.00000000 0.00000000
vn -1.00000000 0.00000000 0.00000000
vn 0.00000000 0.00000000 -1.00000000
vn 0.00000000 0.00000000 1.00000000
vn -1.00000000 0.00000000 0.00000000
vn 0.00000000 -1.00000000 0.00000000
vn 0.00000000 -1.00000000 0.00000000
vn 0.00000000 0.00000000 -1.00000000
vn 1.00000000 0.00000000 0.00000000
vn 0.00000000 0.00000000 1.00000000
vn 0.00000000 1.00000000 0.00000000
vn 1.00000000 0.00000000 0.00000000
vn 0.00000000 0.00000000 -1.00000000
vn 0.00000000 1.00000000 0.00000000
vn 1.00000000 0.00000000 0.00000000
vn 0.00000000 0.00000000 1.00000000
vn -1.00000000 0.00000000 0.00000000
vn 0.00000000 1.00000000 0.00000000
vn 0.00000000 0.00000000 -1.00000000
vn -1.00000000 0.00000000 0.00000000
vn 0.00000000 -1.00000000 0.00000000
vn 0.00000000 0.00000000 1.00000000
vn 0.00000000 -1.00000000 0.00000000
vn 1.00000000 0.00000000 0.00000000
vn 1.00000000 0.00000000 0.00000000
vn 0.00000000 -1.00000000 0.00000000
vn 0.00000000 0.00000000 -1.00000000
vn -1.00000000 0.00000000 0.00000000
vn 0.00000000 0.00000000 -1.00000000
vn 0.00000000 -1.00000000 0.00000000
vn -1.00000000 0.00000000 0.00000000
vn 0.00000000 0.00000000 -1.00000000
vn 0.00000000 1.00000000 0.00000000
vn 0.00000000 0.00000000 -1.00000000
vn 1.00000000 0.00000000 0.00000000
vn 0.00000000 1.00000000 0.00000000
vt 0.51369672 0.01663214
vt 0.51369672 0.01663214
vt 0.51369672 0.01663214
vt 0.51369672 0.01663214
vt 0.51369672 0.01663214
vt 0.51369672 0.01663214
vt 0.51369672 0.01663214
vt 0.51369672 0.01663214
vt 0.51369672 0.01663214
vt 0.51369672 0.01663214
vt 0.51369672 0.01663214
vt 0.51369672 0.01663214
vt 0.51369672 0.01663214
vt 0.51369672 0.01663214
vt 0.51369672 0.01663214
vt 0.51369672 0.01663214
vt 0.51369672 0.01663214
vt 0.51369672 0.01663214
vt 0.51369672 0.01663214
vt 0.51369672 0.01663214
vt 0.51369672 0.01663214
vt 0.51369672 0.01663214
vt 0.51369672 0.01663214
vt 0.51369672 0.01663214
vt 0.51369672 0.00489046
vt 0.51369672 0.00489046
vt 0.51369672 0.00489046
vt 0.51369672 0.00489046
vt 0.51369672 0.00489046
vt 0.51369672 0.00489046
vt 0.51369672 0.00489046
vt 0.51369672 0.00489046
vt 0.51369672 0.00489046
vt 0.51369672 0.00489046
vt 0.51369672 0.00489046
vt 0.51369672 0.00489046
vt 0.51369672 0.00489046
vt 0.51369672 0.00489046
vt 0.51369672 0.00489046
vt 0.51369672 0.00489046
vt 0.51369672 0.00489046
vt 0.51369672 0.00489046
vt 0.51369672 0.00489046
vt 0.51369672 0.00489046
vt 0.51369672 0.00489046
vt 0.51369672 0.00489046
vt 0.51369672 0.00489046
vt 0.51369672 0.00489046
vt 0.51369672 0.01663214
vt 0.51369672 0.01663214
vt 0.51369672 0.01663214
vt 0.51369672 0.01663214
vt 0.51369672 0.01663214
vt 0.51369672 0.01663214
vt 0.51369672 0.01663214
vt 0.51369672 0.01663214
vt 0.51369672 0.01663214
vt 0.51369672 0.01663214
vt 0.51369672 0.01663214
vt 0.51369672 0.01663214
vt 0.51369672 0.01663214
vt 0.51369672 0.01663214
vt 0.51369672 0.01663214
vt 0.51369672 0.01663214
vt 0.51369672 0.01663214
vt 0.51369672 0.01663214
vt 0.51369672 0.01663214
vt 0.51369672 0.01663214
vt 0.51369672 0.01663214
vt 0.51369672 0.01663214
vt 0.51369672 0.01663214
vt 0.51369672 0.01663214
vt 0.51369672 0.01663214
vt 0.51369672 0.01663214
vt 0.51369672 0.01663214
vt 0.51369672 0.01663214
vt 0.51369672 0.01663214
vt 0.51369672 0.01663214
vt 0.51369672 0.01663214
vt 0.51369672 0.01663214
vt 0.51369672 0.01663214
vt 0.51369672 0.01663214
vt 0.51369672 0.01663214
vt 0.51369672 0.01663214
vt 0.51369672 0.01663214
vt 0.51369672 0.01663214
vt 0.51369672 0.01663214
vt 0.51369672 0.01663214
vt 0.51369672 0.01663214
vt 0.51369672 0.01663214
vt 0.51369672 0.01663214
vt 0.51369672 0.01663214
vt 0.51369672 0.01663214
vt 0.51369672 0.01663214
vt 0.51369672 0.01663214
vt 0.51369672 0.01663214
vt 0.51369672 0.01663214
vt 0.51369672 0.01663214
vt 0.51369672 0.01663214
vt 0.51369672 0.01663214
vt 0.51369672 0.01663214
vt 0.51369672 0.01663214
vt 0.51369672 0.01663214
vt 0.51369672 0.01663214
vt 0.51369672 0.01663214
vt 0.51369672 0.01663214
vt 0.51369672 0.01663214
vt 0.51369672 0.01663214
vt 0.51369672 0.01663214
vt 0.51369672 0.01663214
vt 0.51369672 0.01663214
vt 0.51369672 0.01663214
vt 0.51369672 0.01663214
vt 0.51369672 0.01663214
vt 0.51369672 0.01663214
vt 0.51369672 0.01663214
vt 0.51369672 0.01663214
vt 0.51369672 0.01663214
vt 0.51369672 0.01663214
vt 0.51369672 0.01663214
vt 0.30551614 0.30348262
vt 0.22505019 0.30348262
vt 0.22505019 0.20035852
vt 0.28082447 0.12265225
vt 0.38322241 0.29985185
vt 0.28082447 0.29985185
vt 0.38322241 0.30348262
vt 0.22505019 0.12265225
vt 0.28082447 0.30348262
vt 0.28082447 0.20035852
vt 0.22505019 0.29985185
vt 0.30551614 0.29985185
vt 0.29171775 0.30348262
vt 0.21415691 0.12265225
vt 0.38322241 0.30348262
vt 0.11902099 0.30348262
vt 0.22868145 0.11902099
vt 0.22868145 0.30348262
vt 0.21415691 0.29985185
vt 0.30551614 0.29985185
vt 0.29171775 0.20035852
vt 0.20398978 0.29985185
vt 0.27719321 0.29985185
vt 0.27719321 0.20398978
vt 0.38322241 0.29985185
vt 0.29171775 0.29985185
vt 0.29171775 0.12265225
vt 0.20398978 0.30348262
vt 0.22868145 0.20398978
vt 0.27719321 0.30348262
vt 0.30551614 0.30348262
vt 0.21415691 0.20035852
vt 0.21415691 0.30348262
vt 0.11902099 0.29985185
vt 0.22868145 0.29985185
vt 0.27719321 0.11902099
vt 0.29171775 0.11902099
vt 0.21415691 0.29985185
vt 0.38685367 0.29985185
vt 0.21415691 0.11902099
vt 0.38685367 0.30348262
vt 0.21415691 0.30348262
vt 0.21415691 0.20398978
vt 0.30188488 0.30348262
vt 0.29171775 0.30348262
vt 0.30188488 0.29985185
vt 0.29171775 0.20398978
vt 0.29171775 0.29985185
f 8/8/8 4/4/4 1/1/1
f 10/10/10 1/1/1 4/4/4
f 9/9/9 14/14/14 6/6/6
f 7/7/7 3/3/3 13/13/13
f 11/11/11 16/16/16 2/2/2
f 12/12/12 5/5/5 18/18/18
f 19/19/19 6/6/6 14/14/14
f 24/24/24 13/13/13 3/3/3
f 22/22/22 2/2/2 16/16/16
f 21/21/21 18/18/18 5/5/5
f 20/20/20 15/15/15 17/17/17
f 23/23/23 17/17/17 15/15/15
f 25/25/25 28/28/28 31/31/31
f 28/28/28 25/25/25 34/34/34
f 29/29/29 38/38/38 32/32/32
f 37/37/37 26/26/26 33/33/33
f 27/27/27 40/40/40 36/36/36
f 42/42/42 30/30/30 35/35/35
f 38/38/38 29/29/29 44/44/44
f 26/26/26 37/37/37 46/46/46
f 40/40/40 27/27/27 47/47/47
f 30/30/30 42/42/42 43/43/43
f 41/41/41 39/39/39 45/45/45
f 39/39/39 41/41/41 48/48/48
f 53/53/53 57/57/57 51/51/51
f 52/52/52 58/58/58 54/54/54
f 49/49/49 66/66/66 60/60/60
f 59/59/59 68/68/68 50/50/50
f 57/57/57 53/53/53 55/55/55
f 56/56/56 54/54/54 58/58/58
f 66/66/66 49/49/49 63/63/63
f 61/61/61 50/50/50 68/68/68
f 62/62/62 70/70/70 71/71/71
f 72/72/72 69/69/69 64/64/64
f 70/70/70 62/62/62 65/65/65
f 67/67/67 64/64/64 69/69/69
f 79/79/79 77/77/77 73/73/73
f 82/82/82 73/73/73 77/77/77
f 80/80/80 87/87/87 78/78/78
f 74/74/74 89/89/89 81/81/81
f 84/84/84 91/91/91 75/75/75
f 76/76/76 95/95/95 83/83/83
f 97/97/97 78/78/78 87/87/87
f 81/81/81 89/89/89 86/86/86
f 89/89/89 74/74/74 102/102/102
f 104/104/104 75/75/75 91/91/91
f 83/83/83 95/95/95 92/92/92
f 95/95/95 76/76/76 108/108/108
f 98/98/98 111/111/111 76/76/76
f 99/99/99 85/85/85 109/109/109
f 113/113/113 86/86/86 89/89/89
f 102/102/102 74/74/74 117/117/117
f 101/101/101 96/96/96 90/90/90
f 105/105/105 117/117/117 74/74/74
f 103/103/103 93/93/93 116/116/116
f 118/118/118 92/92/92 95/95/95
f 108/108/108 76/76/76 111/111/111
f 107/107/107 90/90/90 96/96/96
f 112/112/112 109/109/109 85/85/85
f 114/114/114 88/88/88 110/110/110
f 100/100/100 115/115/115 94/94/94
f 120/120/120 116/116/116 93/93/93
f 119/119/119 94/94/94 115/115/115
f 106/106/106 110/110/110 88/88/88
f 121/121/121 125/125/125 127/127/127
f 125/125/125 121/121/121 132/132/132
f 126/126/126 133/133/133 129/129/129
f 128/128/128 137/137/137 123/123/123
f 122/122/122 139/139/139 131/131/131
f 130/130/130 144/144/144 124/124/124
f 133/133/133 126/126/126 146/146/146
f 134/134/134 137/137/137 128/128/128
f 149/149/149 123/123/123 137/137/137
f 139/139/139 122/122/122 153/153/153
f 141/141/141 144/144/144 130/130/130
f 156/156/156 124/124/124 144/144/144
f 124/124/124 157/157/157 147/147/147
f 159/159/159 135/135/135 145/145/145
f 137/137/137 134/134/134 160/160/160
f 163/163/163 123/123/123 149/149/149
f 136/136/136 142/142/142 148/148/148
f 123/123/123 163/163/163 152/152/152
f 164/164/164 140/140/140 151/151/151
f 144/144/144 141/141/141 167/167/167
f 157/157/157 124/124/124 156/156/156
f 142/142/142 136/136/136 154/154/154
f 135/135/135 159/159/159 161/161/161
f 158/158/158 138/138/138 162/162/162
f 143/143/143 165/165/165 150/150/150
f 140/140/140 164/164/164 166/166/166
f 165/165/165 143/143/143 168/168/168
f 138/138/138 158/158/158 155/155/155

