# https://github.com/mikedh/trimesh
mtllib material.mtl
usemtl material_0
v -0.30628600 -0.15202400 0.37639500
v -0.30628600 -0.15202400 0.37639500
v -0.30628600 -0.00012000 0.37639500
v -0.30628600 -0.00012000 0.37639500
v -0.32009500 -0.00012000 0.37639500
v -0.32009500 -0.00012000 0.37639500
v -0.32009500 -0.13821500 0.37639500
v -0.32009500 -0.13821500 0.37639500
v -0.30628600 0.01829300 0.37639500
v -0.30628600 0.01829300 0.37639500
v -0.30628600 0.01829300 0.37639500
v -0.30628600 0.01829300 0.37639500
v -0.55485700 -0.15202400 0.37639500
v -0.55485700 -0.15202400 0.37639500
v -0.55485700 -0.15202400 0.37639500
v -0.55485700 -0.15202400 0.37639500
v -0.29247600 0.01829300 0.37639500
v -0.29247600 0.01829300 0.37639500
v -0.29247600 0.01829300 0.37639500
v -0.29247600 0.01829300 0.37639500
v -0.29247600 0.01829300 0.37639500
v -0.29247600 0.01829300 0.37639500
v -0.55485700 -0.16583400 0.37639500
v -0.55485700 -0.16583400 0.37639500
v -0.55485700 -0.16583400 0.37639500
v -0.55485700 -0.16583400 0.37639500
v -0.55485700 -0.16583400 0.37639500
v -0.55485700 -0.16583400 0.37639500
v -0.55485700 -0.00012000 0.37639500
v -0.55485700 -0.00012000 0.37639500
v -0.55485700 -0.00012000 0.37639500
v -0.55485700 -0.00012000 0.37639500
v -0.32009500 0.01829300 0.37639500
v -0.32009500 0.01829300 0.37639500
v -0.32009500 0.01829300 0.37639500
v -0.32009500 0.01829300 0.37639500
v -0.54104800 -0.13821500 0.37639500
v -0.54104800 -0.13821500 0.37639500
v -0.29247600 -0.15202400 0.37639500
v -0.29247600 -0.15202400 0.37639500
v -0.29247600 -0.15202400 0.37639500
v -0.29247600 -0.15202400 0.37639500
v -0.55485700 0.01829300 0.39020500
v -0.55485700 0.01829300 0.39020500
v -0.55485700 0.01829300 0.39020500
v -0.55485700 0.01829300 0.39020500
v -0.55485700 0.01829300 0.39020500
v -0.55485700 0.01829300 0.39020500
v -0.54104800 -0.00012000 0.37639500
v -0.54104800 -0.00012000 0.37639500
v -0.54104800 0.01829300 0.37639500
v -0.54104800 0.01829300 0.37639500
v -0.54104800 0.01829300 0.37639500
v -0.54104800 0.01829300 0.37639500
v -0.29247600 0.01829300 0.39020500
v -0.29247600 0.01829300 0.39020500
v -0.29247600 0.01829300 0.39020500
v -0.29247600 0.01829300 0.39020500
v -0.29247600 0.01829300 0.39020500
v -0.29247600 0.01829300 0.39020500
v -0.29247600 -0.16583400 0.37639500
v -0.29247600 -0.16583400 0.37639500
v -0.29247600 -0.16583400 0.37639500
v -0.29247600 -0.16583400 0.37639500
v -0.29247600 -0.16583400 0.37639500
v -0.29247600 -0.16583400 0.37639500
v -0.55485700 -0.16583400 0.39020500
v -0.55485700 -0.16583400 0.39020500
v -0.55485700 -0.16583400 0.39020500
v -0.55485700 -0.16583400 0.39020500
v -0.55485700 -0.16583400 0.39020500
v -0.55485700 -0.16583400 0.39020500
v -0.55485700 0.01829300 0.37639500
v -0.55485700 0.01829300 0.37639500
v -0.55485700 0.01829300 0.37639500
v -0.55485700 0.01829300 0.37639500
v -0.55485700 0.01829300 0.37639500
v -0.55485700 0.01829300 0.37639500
v -0.29247600 -0.16583400 0.39020500
v -0.29247600 -0.16583400 0.39020500
v -0.29247600 -0.16583400 0.39020500
v -0.29247600 -0.16583400 0.39020500
v -0.29247600 -0.16583400 0.39020500
v -0.29247600 -0.16583400 0.39020500
v -0.55485700 -0.15202400 -0.10751300
v -0.55485700 -0.15202400 -0.10751300
v -0.55485700 -0.15202400 0.37639500
v -0.55485700 -0.15202400 0.37639500
v -0.55485700 -0.00012000 -0.10751300
v -0.55485700 -0.00012000 -0.10751300
v -0.55485700 -0.00012000 -0.10751300
v -0.55485700 -0.00012000 -0.10751300
v -0.55485700 -0.00012000 0.37639500
v -0.55485700 -0.00012000 0.37639500
v -0.55485700 -0.00012000 0.37639500
v -0.55485700 -0.00012000 0.37639500
v -0.54104800 -0.00012000 -0.09370400
v -0.54104800 -0.00012000 -0.09370400
v -0.54104800 -0.00012000 -0.09370400
v -0.54104800 -0.00012000 -0.09370400
v -0.54104800 -0.13821500 0.37639500
v -0.54104800 -0.13821500 0.37639500
v -0.54104800 -0.13821500 0.37639500
v -0.54104800 -0.13821500 0.37639500
v -0.54104800 -0.00012000 0.37639500
v -0.54104800 -0.00012000 0.37639500
v -0.54104800 -0.00012000 0.37639500
v -0.54104800 -0.00012000 0.37639500
v -0.54104800 -0.00012000 0.37639500
v -0.54104800 -0.00012000 0.37639500
v -0.54104800 0.01829300 0.37639500
v -0.54104800 0.01829300 0.37639500
v -0.54104800 -0.13821500 -0.09370400
v -0.54104800 -0.13821500 -0.09370400
v -0.30628600 -0.00012000 -0.10751300
v -0.30628600 -0.00012000 -0.10751300
v -0.30628600 -0.00012000 -0.10751300
v -0.30628600 -0.00012000 -0.10751300
v -0.30628600 -0.15202400 0.37639500
v -0.30628600 -0.15202400 0.37639500
v -0.30628600 -0.15202400 -0.10751300
v -0.30628600 -0.15202400 -0.10751300
v -0.30628600 -0.00012000 0.37639500
v -0.30628600 -0.00012000 0.37639500
v -0.30628600 -0.00012000 0.37639500
v -0.30628600 -0.00012000 0.37639500
v -0.32009500 -0.00012000 0.37639500
v -0.32009500 -0.00012000 0.37639500
v -0.32009500 -0.00012000 0.37639500
v -0.32009500 -0.00012000 0.37639500
v -0.32009500 -0.13821500 0.37639500
v -0.32009500 -0.13821500 0.37639500
v -0.32009500 -0.00012000 -0.09370400
v -0.32009500 -0.00012000 -0.09370400
v -0.32009500 -0.00012000 -0.09370400
v -0.32009500 -0.00012000 -0.09370400
v -0.32009500 -0.13821500 -0.09370400
v -0.32009500 -0.13821500 -0.09370400
v -0.30628600 -0.00012000 -0.10751300
v -0.30628600 -0.00012000 -0.10751300
v -0.30628600 -0.00012000 -0.10751300
v -0.30628600 -0.00012000 -0.10751300
v -0.30628600 -0.15202400 -0.10751300
v -0.30628600 -0.15202400 -0.10751300
v -0.55485700 -0.15202400 -0.10751300
v -0.55485700 -0.15202400 -0.10751300
v -0.55485700 -0.00012000 -0.10751300
v -0.55485700 -0.00012000 -0.10751300
v -0.55485700 -0.00012000 -0.10751300
v -0.55485700 -0.00012000 -0.10751300
v -0.32009500 -0.00012000 -0.09370400
v -0.32009500 -0.00012000 -0.09370400
v -0.32009500 -0.00012000 -0.09370400
v -0.32009500 -0.00012000 -0.09370400
v -0.54104800 -0.00012000 -0.09370400
v -0.54104800 -0.00012000 -0.09370400
v -0.54104800 -0.00012000 -0.09370400
v -0.54104800 -0.00012000 -0.09370400
v -0.32009500 -0.13821500 -0.09370400
v -0.32009500 -0.13821500 -0.09370400
v -0.54104800 -0.13821500 -0.09370400
v -0.54104800 -0.13821500 -0.09370400
v -0.32009500 -0.13821500 0.37639500
v -0.32009500 -0.13821500 0.37639500
v -0.32009500 -0.13821500 -0.09370400
v -0.32009500 -0.13821500 -0.09370400
v -0.54104800 -0.13821500 0.37639500
v -0.54104800 -0.13821500 0.37639500
v -0.54104800 -0.13821500 -0.09370400
v -0.54104800 -0.13821500 -0.09370400
v -0.30628600 -0.15202400 0.37639500
v -0.30628600 -0.15202400 0.37639500
v -0.30628600 -0.15202400 -0.10751300
v -0.30628600 -0.15202400 -0.10751300
v -0.55485700 -0.15202400 -0.10751300
v -0.55485700 -0.15202400 -0.10751300
v -0.55485700 -0.15202400 0.37639500
v -0.55485700 -0.15202400 0.37639500
vn 0.00000000 0.00000000 1.00000000
vn 0.00000000 0.00000000 -1.00000000
vn 0.00000000 0.00000000 -1.00000000
vn 0.00000000 0.00000000 1.00000000
vn 0.00000000 0.00000000 1.00000000
vn 0.00000000 0.00000000 -1.00000000
vn 0.00000000 0.00000000 1.00000000
vn 0.00000000 0.00000000 -1.00000000
vn 0.00000000 0.00000000 1.00000000
vn 0.00000000 0.00000000 -1.00000000
vn 0.00000000 -1.00000000 0.00000000
vn 0.00000000 1.00000000 0.00000000
vn 1.00000000 0.00000000 0.00000000
vn 0.00000000 0.00000000 1.00000000
vn 0.00000000 0.00000000 -1.00000000
vn -1.00000000 0.00000000 0.00000000
vn 1.00000000 0.00000000 0.00000000
vn 0.00000000 0.00000000 -1.00000000
vn 0.00000000 0.00000000 1.00000000
vn 0.00000000 1.00000000 0.00000000
vn 0.00000000 -1.00000000 0.00000000
vn -1.00000000 0.00000000 0.00000000
vn 0.00000000 1.00000000 0.00000000
vn 0.00000000 0.00000000 -1.00000000
vn 0.00000000 -1.00000000 0.00000000
vn 0.00000000 0.00000000 1.00000000
vn -1.00000000 0.00000000 0.00000000
vn 1.00000000 0.00000000 0.00000000
vn 0.00000000 0.00000000 -1.00000000
vn 1.00000000 0.00000000 0.00000000
vn 0.00000000 0.00000000 1.00000000
vn -1.00000000 0.00000000 0.00000000
vn 0.00000000 0.00000000 1.00000000
vn 0.00000000 0.00000000 -1.00000000
vn 0.00000000 -1.00000000 0.00000000
vn 0.00000000 1.00000000 0.00000000
vn 0.00000000 0.00000000 1.00000000
vn 0.00000000 0.00000000 -1.00000000
vn -1.00000000 0.00000000 0.00000000
vn 0.00000000 0.00000000 -1.00000000
vn 1.00000000 0.00000000 0.00000000
vn 0.00000000 0.00000000 1.00000000
vn 0.00000000 -1.00000000 0.00000000
vn 0.00000000 0.00000000 1.00000000
vn 0.00000000 0.00000000 -1.00000000
vn 1.00000000 0.00000000 0.00000000
vn 0.00000000 1.00000000 0.00000000
vn -1.00000000 0.00000000 0.00000000
vn 0.00000000 0.00000000 1.00000000
vn 0.00000000 0.00000000 -1.00000000
vn 0.00000000 1.00000000 0.00000000
vn 0.00000000 0.00000000 1.00000000
vn 0.00000000 -1.00000000 0.00000000
vn 0.00000000 0.00000000 -1.00000000
vn 0.00000000 0.00000000 -1.00000000
vn 0.00000000 0.00000000 1.00000000
vn 0.00000000 1.00000000 0.00000000
vn -1.00000000 0.00000000 0.00000000
vn 0.00000000 -1.00000000 0.00000000
vn 1.00000000 0.00000000 0.00000000
vn 1.00000000 0.00000000 0.00000000
vn 0.00000000 1.00000000 0.00000000
vn 0.00000000 0.00000000 -1.00000000
vn -1.00000000 0.00000000 0.00000000
vn 0.00000000 0.00000000 1.00000000
vn 0.00000000 -1.00000000 0.00000000
vn 0.00000000 0.00000000 1.00000000
vn 0.00000000 1.00000000 0.00000000
vn 0.00000000 0.00000000 -1.00000000
vn 0.00000000 -1.00000000 0.00000000
vn -1.00000000 0.00000000 0.00000000
vn 1.00000000 0.00000000 0.00000000
vn 0.00000000 0.00000000 -1.00000000
vn 0.00000000 1.00000000 0.00000000
vn 0.00000000 0.00000000 1.00000000
vn 0.00000000 -1.00000000 0.00000000
vn -1.00000000 0.00000000 0.00000000
vn 1.00000000 0.00000000 0.00000000
vn 0.00000000 1.00000000 0.00000000
vn 0.00000000 -1.00000000 0.00000000
vn -1.00000000 0.00000000 0.00000000
vn 1.00000000 0.00000000 0.00000000
vn 0.00000000 0.00000000 -1.00000000
vn 0.00000000 0.00000000 1.00000000
vn 1.00000000 0.00000000 0.00000000
vn -1.00000000 0.00000000 0.00000000
vn 1.00000000 0.00000000 0.00000000
vn -1.00000000 0.00000000 0.00000000
vn 0.00000000 -1.00000000 0.00000000
vn 0.00000000 1.00000000 0.00000000
vn -1.00000000 0.00000000 0.00000000
vn 1.00000000 0.00000000 0.00000000
vn 1.00000000 0.00000000 0.00000000
vn -1.00000000 0.00000000 0.00000000
vn 0.00000000 -1.00000000 0.00000000
vn 0.00000000 1.00000000 0.00000000
vn 1.00000000 0.00000000 0.00000000
vn -1.00000000 0.00000000 0.00000000
vn 0.00000000 -1.00000000 0.00000000
vn 0.00000000 1.00000000 0.00000000
vn 1.00000000 0.00000000 0.00000000
vn -1.00000000 0.00000000 0.00000000
vn 0.00000000 0.00000000 -1.00000000
vn 0.00000000 0.00000000 1.00000000
vn 0.00000000 0.00000000 -1.00000000
vn 0.00000000 1.00000000 0.00000000
vn -1.00000000 0.00000000 0.00000000
vn 0.00000000 0.00000000 1.00000000
vn 1.00000000 0.00000000 0.00000000
vn 0.00000000 -1.00000000 0.00000000
vn 0.00000000 0.00000000 -1.00000000
vn 0.00000000 0.00000000 1.00000000
vn -1.00000000 0.00000000 0.00000000
vn 1.00000000 0.00000000 0.00000000
vn 1.00000000 0.00000000 0.00000000
vn 0.00000000 1.00000000 0.00000000
vn 0.00000000 -1.00000000 0.00000000
vn -1.00000000 0.00000000 0.00000000
vn 1.00000000 0.00000000 0.00000000
vn -1.00000000 0.00000000 0.00000000
vn 1.00000000 0.00000000 0.00000000
vn -1.00000000 0.00000000 0.00000000
vn 0.00000000 1.00000000 0.00000000
vn 0.00000000 -1.00000000 0.00000000
vn -1.00000000 0.00000000 0.00000000
vn 1.00000000 0.00000000 0.00000000
vn 0.00000000 1.00000000 0.00000000
vn -1.00000000 0.00000000 0.00000000
vn 0.00000000 -1.00000000 0.00000000
vn 1.00000000 0.00000000 0.00000000
vn -1.00000000 0.00000000 0.00000000
vn 1.00000000 0.00000000 0.00000000
vn -1.00000000 0.00000000 0.00000000
vn 1.00000000 0.00000000 0.00000000
vn 0.00000000 -1.00000000 0.00000000
vn 0.00000000 1.00000000 0.00000000
vn -1.00000000 0.00000000 0.00000000
vn 1.00000000 0.00000000 0.00000000
vn 0.00000000 -1.00000000 0.00000000
vn 0.00000000 1.00000000 0.00000000
vn 0.00000000 0.00000000 1.00000000
vn 0.00000000 0.00000000 -1.00000000
vn 0.00000000 0.00000000 1.00000000
vn 0.00000000 0.00000000 -1.00000000
vn 0.00000000 0.00000000 1.00000000
vn 0.00000000 0.00000000 -1.00000000
vn 0.00000000 0.00000000 1.00000000
vn 0.00000000 0.00000000 -1.00000000
vn 0.00000000 1.00000000 0.00000000
vn 0.00000000 -1.00000000 0.00000000
vn 0.00000000 1.00000000 0.00000000
vn 0.00000000 0.00000000 -1.00000000
vn 0.00000000 -1.00000000 0.00000000
vn 0.00000000 0.00000000 1.00000000
vn 0.00000000 0.00000000 -1.00000000
vn 0.00000000 -1.00000000 0.00000000
vn 0.00000000 0.00000000 1.00000000
vn 0.00000000 1.00000000 0.00000000
vn 0.00000000 0.00000000 1.00000000
vn 0.00000000 0.00000000 -1.00000000
vn 0.00000000 0.00000000 -1.00000000
vn 0.00000000 0.00000000 1.00000000
vn 0.00000000 -1.00000000 0.00000000
vn 0.00000000 1.00000000 0.00000000
vn 0.00000000 -1.00000000 0.00000000
vn 0.00000000 1.00000000 0.00000000
vn 0.00000000 -1.00000000 0.00000000
vn 0.00000000 1.00000000 0.00000000
vn 0.00000000 -1.00000000 0.00000000
vn 0.00000000 1.00000000 0.00000000
vn 0.00000000 -1.00000000 0.00000000
vn 0.00000000 1.00000000 0.00000000
vn 0.00000000 -1.00000000 0.00000000
vn 0.00000000 1.00000000 0.00000000
vn 0.00000000 -1.00000000 0.00000000
vn 0.00000000 1.00000000 0.00000000
vn 0.00000000 -1.00000000 0.00000000
vn 0.00000000 1.00000000 0.00000000
vt 0.50000000 0.50000000
vt 0.50000000 0.50000000
vt 0.50000000 0.50000000
vt 0.50000000 0.50000000
vt 0.50000000 0.50000000
vt 0.50000000 0.50000000
vt 0.50000000 0.50000000
vt 0.50000000 0.50000000
vt 0.50000000 0.50000000
vt 0.50000000 0.50000000
vt 0.50000000 0.50000000
vt 0.50000000 0.50000000
vt 0.50000000 0.50000000
vt 0.50000000 0.50000000
vt 0.50000000 0.50000000
vt 0.50000000 0.50000000
vt 0.50000000 0.50000000
vt 0.50000000 0.50000000
vt 0.50000000 0.50000000
vt 0.50000000 0.50000000
vt 0.50000000 0.50000000
vt 0.50000000 0.50000000
vt 0.50000000 0.50000000
vt 0.50000000 0.50000000
vt 0.50000000 0.50000000
vt 0.50000000 0.50000000
vt 0.50000000 0.50000000
vt 0.50000000 0.50000000
vt 0.50000000 0.50000000
vt 0.50000000 0.50000000
vt 0.50000000 0.50000000
vt 0.50000000 0.50000000
vt 0.50000000 0.50000000
vt 0.50000000 0.50000000
vt 0.50000000 0.50000000
vt 0.50000000 0.50000000
vt 0.50000000 0.50000000
vt 0.50000000 0.50000000
vt 0.50000000 0.50000000
vt 0.50000000 0.50000000
vt 0.50000000 0.50000000
vt 0.50000000 0.50000000
vt 0.50000000 0.50000000
vt 0.50000000 0.50000000
vt 0.50000000 0.50000000
vt 0.50000000 0.50000000
vt 0.50000000 0.50000000
vt 0.50000000 0.50000000
vt 0.50000000 0.50000000
vt 0.50000000 0.50000000
vt 0.50000000 0.50000000
vt 0.50000000 0.50000000
vt 0.50000000 0.50000000
vt 0.50000000 0.50000000
vt 0.50000000 0.50000000
vt 0.50000000 0.50000000
vt 0.50000000 0.50000000
vt 0.50000000 0.50000000
vt 0.50000000 0.50000000
vt 0.50000000 0.50000000
vt 0.50000000 0.50000000
vt 0.50000000 0.50000000
vt 0.50000000 0.50000000
vt 0.50000000 0.50000000
vt 0.50000000 0.50000000
vt 0.50000000 0.50000000
vt 0.50000000 0.50000000
vt 0.50000000 0.50000000
vt 0.50000000 0.50000000
vt 0.50000000 0.50000000
vt 0.50000000 0.50000000
vt 0.50000000 0.50000000
vt 0.50000000 0.50000000
vt 0.50000000 0.50000000
vt 0.50000000 0.50000000
vt 0.50000000 0.50000000
vt 0.50000000 0.50000000
vt 0.50000000 0.50000000
vt 0.50000000 0.50000000
vt 0.50000000 0.50000000
vt 0.50000000 0.50000000
vt 0.50000000 0.50000000
vt 0.50000000 0.50000000
vt 0.50000000 0.50000000
vt 0.50000000 0.50000000
vt 0.50000000 0.50000000
vt 0.50000000 0.50000000
vt 0.50000000 0.50000000
vt 0.50000000 0.50000000
vt 0.50000000 0.50000000
vt 0.50000000 0.50000000
vt 0.50000000 0.50000000
vt 0.50000000 0.50000000
vt 0.50000000 0.50000000
vt 0.50000000 0.50000000
vt 0.50000000 0.50000000
vt 0.50000000 0.50000000
vt 0.50000000 0.50000000
vt 0.50000000 0.50000000
vt 0.50000000 0.50000000
vt 0.50000000 0.50000000
vt 0.50000000 0.50000000
vt 0.50000000 0.50000000
vt 0.50000000 0.50000000
vt 0.50000000 0.50000000
vt 0.50000000 0.50000000
vt 0.50000000 0.50000000
vt 0.50000000 0.50000000
vt 0.50000000 0.50000000
vt 0.50000000 0.50000000
vt 0.50000000 0.50000000
vt 0.50000000 0.50000000
vt 0.50000000 0.50000000
vt 0.50000000 0.50000000
vt 0.50000000 0.50000000
vt 0.50000000 0.50000000
vt 0.50000000 0.50000000
vt 0.50000000 0.50000000
vt 0.50000000 0.50000000
vt 0.50000000 0.50000000
vt 0.50000000 0.50000000
vt 0.50000000 0.50000000
vt 0.50000000 0.50000000
vt 0.50000000 0.50000000
vt 0.50000000 0.50000000
vt 0.50000000 0.50000000
vt 0.50000000 0.50000000
vt 0.50000000 0.50000000
vt 0.50000000 0.50000000
vt 0.50000000 0.50000000
vt 0.50000000 0.50000000
vt 0.50000000 0.50000000
vt 0.50000000 0.50000000
vt 0.50000000 0.50000000
vt 0.50000000 0.50000000
vt 0.50000000 0.50000000
vt 0.50000000 0.50000000
vt 0.50000000 0.50000000
vt 0.50000000 0.50000000
vt 0.50000000 0.50000000
vt 0.50000000 0.50000000
vt 0.50000000 0.50000000
vt 0.50000000 0.50000000
vt 0.50000000 0.50000000
vt 0.50000000 0.50000000
vt 0.50000000 0.50000000
vt 0.50000000 0.50000000
vt 0.50000000 0.50000000
vt 0.50000000 0.50000000
vt 0.50000000 0.50000000
vt 0.50000000 0.50000000
vt 0.50000000 0.50000000
vt 0.50000000 0.50000000
vt 0.50000000 0.50000000
vt 0.50000000 0.50000000
vt 0.50000000 0.50000000
vt 0.50000000 0.50000000
vt 0.50000000 0.50000000
vt 0.50000000 0.50000000
vt 0.50000000 0.50000000
vt 0.50000000 0.50000000
vt 0.50000000 0.50000000
vt 0.50000000 0.50000000
vt 0.50000000 0.50000000
vt 0.50000000 0.50000000
vt 0.50000000 0.50000000
vt 0.50000000 0.50000000
vt 0.50000000 0.50000000
vt 0.50000000 0.50000000
vt 0.50000000 0.50000000
vt 0.50000000 0.50000000
vt 0.50000000 0.50000000
vt 0.50000000 0.50000000
vt 0.50000000 0.50000000
vt 0.50000000 0.50000000
vt 0.50000000 0.50000000
vt 0.50000000 0.50000000
vt 0.50000000 0.50000000
f 2/2/2 8/8/8 3/3/3
f 4/4/4 7/7/7 1/1/1
f 10/10/10 2/2/2 3/3/3
f 4/4/4 1/1/1 9/9/9
f 6/6/6 10/10/10 3/3/3
f 4/4/4 9/9/9 5/5/5
f 6/6/6 3/3/3 8/8/8
f 7/7/7 4/4/4 5/5/5
f 8/8/8 2/2/2 15/15/15
f 14/14/14 1/1/1 7/7/7
f 18/18/18 2/2/2 10/10/10
f 9/9/9 1/1/1 19/19/19
f 2/2/2 24/24/24 15/15/15
f 14/14/14 26/26/26 1/1/1
f 10/10/10 6/6/6 34/34/34
f 33/33/33 5/5/5 9/9/9
f 38/38/38 6/6/6 8/8/8
f 7/7/7 5/5/5 37/37/37
f 8/8/8 15/15/15 38/38/38
f 37/37/37 14/14/14 7/7/7
f 2/2/2 18/18/18 40/40/40
f 42/42/42 19/19/19 1/1/1
f 47/47/47 20/20/20 12/12/12
f 11/11/11 21/21/21 43/43/43
f 40/40/40 24/24/24 2/2/2
f 1/1/1 26/26/26 42/42/42
f 27/27/27 48/48/48 16/16/16
f 13/13/13 46/46/46 28/28/28
f 16/16/16 48/48/48 32/32/32
f 30/30/30 46/46/46 13/13/13
f 50/50/50 15/15/15 29/29/29
f 31/31/31 14/14/14 49/49/49
f 6/6/6 38/38/38 34/34/34
f 33/33/33 37/37/37 5/5/5
f 51/51/51 12/12/12 36/36/36
f 35/35/35 11/11/11 53/53/53
f 38/38/38 15/15/15 50/50/50
f 49/49/49 14/14/14 37/37/37
f 60/60/60 41/41/41 17/17/17
f 22/22/22 39/39/39 58/58/58
f 20/20/20 47/47/47 57/57/57
f 59/59/59 43/43/43 21/21/21
f 47/47/47 12/12/12 51/51/51
f 53/53/53 11/11/11 43/43/43
f 24/24/24 40/40/40 63/63/63
f 65/65/65 42/42/42 26/26/26
f 48/48/48 27/27/27 71/71/71
f 72/72/72 28/28/28 46/46/46
f 32/32/32 48/48/48 77/77/77
f 78/78/78 46/46/46 30/30/30
f 29/29/29 54/54/54 50/50/50
f 49/49/49 52/52/52 31/31/31
f 34/34/34 38/38/38 54/54/54
f 52/52/52 37/37/37 33/33/33
f 82/82/82 41/41/41 60/60/60
f 58/58/58 39/39/39 81/81/81
f 44/44/44 84/84/84 56/56/56
f 55/55/55 83/83/83 45/45/45
f 47/47/47 51/51/51 74/74/74
f 76/76/76 53/53/53 43/43/43
f 41/41/41 82/82/82 61/61/61
f 64/64/64 81/81/81 39/39/39
f 80/80/80 25/25/25 66/66/66
f 62/62/62 23/23/23 79/79/79
f 25/25/25 80/80/80 70/70/70
f 68/68/68 79/79/79 23/23/23
f 84/84/84 44/44/44 67/67/67
f 69/69/69 45/45/45 83/83/83
f 54/54/54 29/29/29 73/73/73
f 75/75/75 31/31/31 52/52/52
f 94/94/94 86/86/86 88/88/88
f 87/87/87 85/85/85 93/93/93
f 86/86/86 94/94/94 91/91/91
f 92/92/92 93/93/93 85/85/85
f 96/96/96 100/100/100 90/90/90
f 89/89/89 99/99/99 95/95/95
f 100/100/100 96/96/96 106/106/106
f 110/110/110 95/95/95 99/99/99
f 111/111/111 103/103/103 105/105/105
f 108/108/108 104/104/104 112/112/112
f 101/101/101 97/97/97 109/109/109
f 107/107/107 98/98/98 102/102/102
f 97/97/97 101/101/101 114/114/114
f 113/113/113 102/102/102 98/98/98
f 115/115/115 119/119/119 121/121/121
f 119/119/119 115/115/115 126/126/126
f 122/122/122 120/120/120 118/118/118
f 125/125/125 118/118/118 120/120/120
f 116/116/116 127/127/127 123/123/123
f 124/124/124 129/129/129 117/117/117
f 127/127/127 116/116/116 136/136/136
f 135/135/135 117/117/117 129/129/129
f 137/137/137 128/128/128 133/133/133
f 134/134/134 130/130/130 138/138/138
f 128/128/128 137/137/137 131/131/131
f 132/132/132 138/138/138 130/130/130
f 146/146/146 142/142/142 144/144/144
f 143/143/143 141/141/141 145/145/145
f 142/142/142 146/146/146 148/148/148
f 147/147/147 145/145/145 141/141/141
f 149/149/149 158/158/158 140/140/140
f 139/139/139 156/156/156 150/150/150
f 151/151/151 140/140/140 158/158/158
f 156/156/156 139/139/139 153/153/153
f 157/157/157 159/159/159 154/154/154
f 152/152/152 160/160/160 155/155/155
f 159/159/159 157/157/157 162/162/162
f 161/161/161 155/155/155 160/160/160
f 166/166/166 168/168/168 164/164/164
f 163/163/163 167/167/167 165/165/165
f 168/168/168 166/166/166 170/170/170
f 169/169/169 165/165/165 167/167/167
f 171/171/171 175/175/175 173/173/173
f 174/174/174 176/176/176 172/172/172
f 175/175/175 171/171/171 177/177/177
f 178/178/178 172/172/172 176/176/176

