# https://github.com/mikedh/trimesh
mtllib material.mtl
usemtl material_0
v -0.30628600 -0.39139000 0.43295200
v -0.30628600 -0.39139000 0.43295200
v -0.30628600 -0.19345300 0.43295200
v -0.30628600 -0.19345300 0.43295200
v -0.32009500 -0.19345300 0.43295200
v -0.32009500 -0.19345300 0.43295200
v -0.32009500 -0.37758000 0.43295200
v -0.32009500 -0.37758000 0.43295200
v -0.29247600 -0.19345300 0.43295200
v -0.29247600 -0.19345300 0.43295200
v -0.29247600 -0.19345300 0.43295200
v -0.29247600 -0.19345300 0.43295200
v -0.55485700 -0.39139000 0.43295200
v -0.55485700 -0.39139000 0.43295200
v -0.55485700 -0.39139000 0.43295200
v -0.55485700 -0.39139000 0.43295200
v -0.32009500 -0.16583400 0.43295200
v -0.32009500 -0.16583400 0.43295200
v -0.32009500 -0.16583400 0.43295200
v -0.32009500 -0.16583400 0.43295200
v -0.29247600 -0.39139000 0.43295200
v -0.29247600 -0.39139000 0.43295200
v -0.29247600 -0.39139000 0.43295200
v -0.29247600 -0.39139000 0.43295200
v -0.29247600 -0.16583400 0.43295200
v -0.29247600 -0.16583400 0.43295200
v -0.29247600 -0.16583400 0.43295200
v -0.29247600 -0.16583400 0.43295200
v -0.29247600 -0.16583400 0.43295200
v -0.29247600 -0.16583400 0.43295200
v -0.55485700 -0.40519900 0.43295200
v -0.55485700 -0.40519900 0.43295200
v -0.55485700 -0.40519900 0.43295200
v -0.55485700 -0.40519900 0.43295200
v -0.55485700 -0.40519900 0.43295200
v -0.55485700 -0.40519900 0.43295200
v -0.55485700 -0.19345300 0.43295200
v -0.55485700 -0.19345300 0.43295200
v -0.55485700 -0.19345300 0.43295200
v -0.55485700 -0.19345300 0.43295200
v -0.54104800 -0.37758000 0.43295200
v -0.54104800 -0.37758000 0.43295200
v -0.29247600 -0.16583400 0.44676100
v -0.29247600 -0.16583400 0.44676100
v -0.29247600 -0.16583400 0.44676100
v -0.29247600 -0.16583400 0.44676100
v -0.29247600 -0.16583400 0.44676100
v -0.29247600 -0.16583400 0.44676100
v -0.55485700 -0.16583400 0.44676100
v -0.55485700 -0.16583400 0.44676100
v -0.55485700 -0.16583400 0.44676100
v -0.55485700 -0.16583400 0.44676100
v -0.55485700 -0.16583400 0.44676100
v -0.55485700 -0.16583400 0.44676100
v -0.54104800 -0.19345300 0.43295200
v -0.54104800 -0.19345300 0.43295200
v -0.54104800 -0.16583400 0.43295200
v -0.54104800 -0.16583400 0.43295200
v -0.54104800 -0.16583400 0.43295200
v -0.54104800 -0.16583400 0.43295200
v -0.29247600 -0.40519900 0.44676100
v -0.29247600 -0.40519900 0.44676100
v -0.29247600 -0.40519900 0.44676100
v -0.29247600 -0.40519900 0.44676100
v -0.29247600 -0.40519900 0.44676100
v -0.29247600 -0.40519900 0.44676100
v -0.29247600 -0.40519900 0.43295200
v -0.29247600 -0.40519900 0.43295200
v -0.29247600 -0.40519900 0.43295200
v -0.29247600 -0.40519900 0.43295200
v -0.29247600 -0.40519900 0.43295200
v -0.29247600 -0.40519900 0.43295200
v -0.55485700 -0.40519900 0.44676100
v -0.55485700 -0.40519900 0.44676100
v -0.55485700 -0.40519900 0.44676100
v -0.55485700 -0.40519900 0.44676100
v -0.55485700 -0.40519900 0.44676100
v -0.55485700 -0.40519900 0.44676100
v -0.55485700 -0.16583400 0.43295200
v -0.55485700 -0.16583400 0.43295200
v -0.55485700 -0.16583400 0.43295200
v -0.55485700 -0.16583400 0.43295200
v -0.55485700 -0.16583400 0.43295200
v -0.55485700 -0.16583400 0.43295200
v -0.30628600 -0.19345300 -0.05095700
v -0.30628600 -0.19345300 -0.05095700
v -0.30628600 -0.19345300 -0.05095700
v -0.30628600 -0.19345300 -0.05095700
v -0.30628600 -0.39139000 0.43295200
v -0.30628600 -0.39139000 0.43295200
v -0.30628600 -0.39139000 -0.05095700
v -0.30628600 -0.39139000 -0.05095700
v -0.30628600 -0.19345300 0.43295200
v -0.30628600 -0.19345300 0.43295200
v -0.30628600 -0.19345300 0.43295200
v -0.30628600 -0.19345300 0.43295200
v -0.30628600 -0.19345300 0.43295200
v -0.30628600 -0.19345300 0.43295200
v -0.32009500 -0.19345300 0.43295200
v -0.32009500 -0.19345300 0.43295200
v -0.32009500 -0.19345300 0.43295200
v -0.32009500 -0.19345300 0.43295200
v -0.32009500 -0.19345300 0.43295200
v -0.32009500 -0.19345300 0.43295200
v -0.32009500 -0.37758000 0.43295200
v -0.32009500 -0.37758000 0.43295200
v -0.32009500 -0.37758000 0.43295200
v -0.32009500 -0.37758000 0.43295200
v -0.32009500 -0.19345300 -0.03714700
v -0.32009500 -0.19345300 -0.03714700
v -0.32009500 -0.19345300 -0.03714700
v -0.32009500 -0.19345300 -0.03714700
v -0.32009500 -0.37758000 -0.03714700
v -0.32009500 -0.37758000 -0.03714700
v -0.55485700 -0.39139000 -0.05095700
v -0.55485700 -0.39139000 -0.05095700
v -0.55485700 -0.39139000 0.43295200
v -0.55485700 -0.39139000 0.43295200
v -0.55485700 -0.19345300 -0.05095700
v -0.55485700 -0.19345300 -0.05095700
v -0.55485700 -0.19345300 -0.05095700
v -0.55485700 -0.19345300 -0.05095700
v -0.55485700 -0.19345300 0.43295200
v -0.55485700 -0.19345300 0.43295200
v -0.55485700 -0.19345300 0.43295200
v -0.55485700 -0.19345300 0.43295200
v -0.54104800 -0.19345300 -0.03714700
v -0.54104800 -0.19345300 -0.03714700
v -0.54104800 -0.19345300 -0.03714700
v -0.54104800 -0.19345300 -0.03714700
v -0.54104800 -0.37758000 0.43295200
v -0.54104800 -0.37758000 0.43295200
v -0.54104800 -0.19345300 0.43295200
v -0.54104800 -0.19345300 0.43295200
v -0.54104800 -0.19345300 0.43295200
v -0.54104800 -0.19345300 0.43295200
v -0.54104800 -0.37758000 -0.03714700
v -0.54104800 -0.37758000 -0.03714700
v -0.30628600 -0.19345300 -0.05095700
v -0.30628600 -0.19345300 -0.05095700
v -0.30628600 -0.19345300 -0.05095700
v -0.30628600 -0.19345300 -0.05095700
v -0.30628600 -0.39139000 -0.05095700
v -0.30628600 -0.39139000 -0.05095700
v -0.55485700 -0.39139000 -0.05095700
v -0.55485700 -0.39139000 -0.05095700
v -0.55485700 -0.19345300 -0.05095700
v -0.55485700 -0.19345300 -0.05095700
v -0.55485700 -0.19345300 -0.05095700
v -0.55485700 -0.19345300 -0.05095700
v -0.32009500 -0.19345300 -0.03714700
v -0.32009500 -0.19345300 -0.03714700
v -0.32009500 -0.19345300 -0.03714700
v -0.32009500 -0.19345300 -0.03714700
v -0.54104800 -0.19345300 -0.03714700
v -0.54104800 -0.19345300 -0.03714700
v -0.54104800 -0.19345300 -0.03714700
v -0.54104800 -0.19345300 -0.03714700
v -0.32009500 -0.37758000 -0.03714700
v -0.32009500 -0.37758000 -0.03714700
v -0.54104800 -0.37758000 -0.03714700
v -0.54104800 -0.37758000 -0.03714700
v -0.30628600 -0.39139000 0.43295200
v -0.30628600 -0.39139000 0.43295200
v -0.30628600 -0.39139000 -0.05095700
v -0.30628600 -0.39139000 -0.05095700
v -0.55485700 -0.39139000 -0.05095700
v -0.55485700 -0.39139000 -0.05095700
v -0.32009500 -0.37758000 0.43295200
v -0.32009500 -0.37758000 0.43295200
v -0.32009500 -0.37758000 0.43295200
v -0.32009500 -0.37758000 0.43295200
v -0.55485700 -0.39139000 0.43295200
v -0.55485700 -0.39139000 0.43295200
v -0.55485700 -0.39139000 0.43295200
v -0.55485700 -0.39139000 0.43295200
v -0.32009500 -0.37758000 -0.03714700
v -0.32009500 -0.37758000 -0.03714700
v -0.54104800 -0.37758000 0.43295200
v -0.54104800 -0.37758000 0.43295200
v -0.54104800 -0.37758000 0.43295200
v -0.54104800 -0.37758000 0.43295200
v -0.54104800 -0.37758000 -0.03714700
v -0.54104800 -0.37758000 -0.03714700
vn 0.00000000 0.00000000 1.00000000
vn 0.00000000 0.00000000 -1.00000000
vn 0.00000000 0.00000000 -1.00000000
vn 0.00000000 0.00000000 1.00000000
vn 0.00000000 0.00000000 1.00000000
vn 0.00000000 0.00000000 -1.00000000
vn 0.00000000 0.00000000 1.00000000
vn 0.00000000 0.00000000 -1.00000000
vn 0.00000000 0.00000000 1.00000000
vn 0.00000000 0.00000000 -1.00000000
vn -1.00000000 0.00000000 0.00000000
vn 1.00000000 0.00000000 0.00000000
vn 0.00000000 0.00000000 1.00000000
vn -1.00000000 0.00000000 0.00000000
vn 0.00000000 0.00000000 -1.00000000
vn 1.00000000 0.00000000 0.00000000
vn 0.00000000 -1.00000000 0.00000000
vn 0.00000000 0.00000000 1.00000000
vn 0.00000000 0.00000000 -1.00000000
vn 0.00000000 1.00000000 0.00000000
vn -1.00000000 0.00000000 0.00000000
vn 0.00000000 0.00000000 1.00000000
vn 1.00000000 0.00000000 0.00000000
vn 0.00000000 0.00000000 -1.00000000
vn 0.00000000 0.00000000 -1.00000000
vn 0.00000000 1.00000000 0.00000000
vn -1.00000000 0.00000000 0.00000000
vn 0.00000000 -1.00000000 0.00000000
vn 0.00000000 0.00000000 1.00000000
vn 1.00000000 0.00000000 0.00000000
vn 0.00000000 0.00000000 -1.00000000
vn 0.00000000 1.00000000 0.00000000
vn 1.00000000 0.00000000 0.00000000
vn 0.00000000 0.00000000 1.00000000
vn -1.00000000 0.00000000 0.00000000
vn 0.00000000 -1.00000000 0.00000000
vn 0.00000000 0.00000000 -1.00000000
vn -1.00000000 0.00000000 0.00000000
vn 1.00000000 0.00000000 0.00000000
vn 0.00000000 0.00000000 1.00000000
vn 0.00000000 0.00000000 -1.00000000
vn 0.00000000 0.00000000 1.00000000
vn -1.00000000 0.00000000 0.00000000
vn 1.00000000 0.00000000 0.00000000
vn 0.00000000 0.00000000 -1.00000000
vn 0.00000000 0.00000000 1.00000000
vn 0.00000000 -1.00000000 0.00000000
vn 0.00000000 1.00000000 0.00000000
vn 0.00000000 0.00000000 1.00000000
vn -1.00000000 0.00000000 0.00000000
vn 0.00000000 1.00000000 0.00000000
vn 0.00000000 -1.00000000 0.00000000
vn 0.00000000 0.00000000 -1.00000000
vn 1.00000000 0.00000000 0.00000000
vn 0.00000000 0.00000000 -1.00000000
vn 0.00000000 0.00000000 1.00000000
vn 0.00000000 0.00000000 -1.00000000
vn 0.00000000 1.00000000 0.00000000
vn 0.00000000 0.00000000 1.00000000
vn 0.00000000 -1.00000000 0.00000000
vn 0.00000000 1.00000000 0.00000000
vn 0.00000000 0.00000000 -1.00000000
vn 0.00000000 -1.00000000 0.00000000
vn -1.00000000 0.00000000 0.00000000
vn 1.00000000 0.00000000 0.00000000
vn 0.00000000 0.00000000 1.00000000
vn 0.00000000 0.00000000 1.00000000
vn 0.00000000 1.00000000 0.00000000
vn 0.00000000 0.00000000 -1.00000000
vn 0.00000000 -1.00000000 0.00000000
vn -1.00000000 0.00000000 0.00000000
vn 1.00000000 0.00000000 0.00000000
vn 0.00000000 0.00000000 -1.00000000
vn 0.00000000 1.00000000 0.00000000
vn 0.00000000 0.00000000 1.00000000
vn 0.00000000 -1.00000000 0.00000000
vn -1.00000000 0.00000000 0.00000000
vn 1.00000000 0.00000000 0.00000000
vn 0.00000000 1.00000000 0.00000000
vn 0.00000000 -1.00000000 0.00000000
vn -1.00000000 0.00000000 0.00000000
vn 1.00000000 0.00000000 0.00000000
vn 0.00000000 0.00000000 -1.00000000
vn 0.00000000 0.00000000 1.00000000
vn 1.00000000 0.00000000 0.00000000
vn 0.00000000 -1.00000000 0.00000000
vn -1.00000000 0.00000000 0.00000000
vn 0.00000000 1.00000000 0.00000000
vn -1.00000000 0.00000000 0.00000000
vn 1.00000000 0.00000000 0.00000000
vn -1.00000000 0.00000000 0.00000000
vn 1.00000000 0.00000000 0.00000000
vn 0.00000000 0.00000000 1.00000000
vn 0.00000000 -1.00000000 0.00000000
vn 0.00000000 1.00000000 0.00000000
vn -1.00000000 0.00000000 0.00000000
vn 1.00000000 0.00000000 0.00000000
vn 0.00000000 0.00000000 -1.00000000
vn 0.00000000 -1.00000000 0.00000000
vn 1.00000000 0.00000000 0.00000000
vn 0.00000000 0.00000000 1.00000000
vn 0.00000000 0.00000000 -1.00000000
vn 0.00000000 1.00000000 0.00000000
vn -1.00000000 0.00000000 0.00000000
vn 0.00000000 0.00000000 -1.00000000
vn 0.00000000 0.00000000 1.00000000
vn -1.00000000 0.00000000 0.00000000
vn 1.00000000 0.00000000 0.00000000
vn 0.00000000 1.00000000 0.00000000
vn 1.00000000 0.00000000 0.00000000
vn 0.00000000 -1.00000000 0.00000000
vn -1.00000000 0.00000000 0.00000000
vn -1.00000000 0.00000000 0.00000000
vn 1.00000000 0.00000000 0.00000000
vn 1.00000000 0.00000000 0.00000000
vn -1.00000000 0.00000000 0.00000000
vn 1.00000000 0.00000000 0.00000000
vn -1.00000000 0.00000000 0.00000000
vn 1.00000000 0.00000000 0.00000000
vn 0.00000000 1.00000000 0.00000000
vn 0.00000000 -1.00000000 0.00000000
vn -1.00000000 0.00000000 0.00000000
vn 0.00000000 1.00000000 0.00000000
vn 0.00000000 -1.00000000 0.00000000
vn -1.00000000 0.00000000 0.00000000
vn 1.00000000 0.00000000 0.00000000
vn 0.00000000 1.00000000 0.00000000
vn -1.00000000 0.00000000 0.00000000
vn 0.00000000 -1.00000000 0.00000000
vn 1.00000000 0.00000000 0.00000000
vn -1.00000000 0.00000000 0.00000000
vn 1.00000000 0.00000000 0.00000000
vn -1.00000000 0.00000000 0.00000000
vn 1.00000000 0.00000000 0.00000000
vn 0.00000000 -1.00000000 0.00000000
vn 0.00000000 1.00000000 0.00000000
vn -1.00000000 0.00000000 0.00000000
vn 1.00000000 0.00000000 0.00000000
vn 0.00000000 -1.00000000 0.00000000
vn 0.00000000 1.00000000 0.00000000
vn 0.00000000 0.00000000 1.00000000
vn 0.00000000 0.00000000 -1.00000000
vn 0.00000000 0.00000000 1.00000000
vn 0.00000000 0.00000000 -1.00000000
vn 0.00000000 0.00000000 1.00000000
vn 0.00000000 0.00000000 -1.00000000
vn 0.00000000 0.00000000 1.00000000
vn 0.00000000 0.00000000 -1.00000000
vn 0.00000000 1.00000000 0.00000000
vn 0.00000000 -1.00000000 0.00000000
vn 0.00000000 1.00000000 0.00000000
vn 0.00000000 0.00000000 -1.00000000
vn 0.00000000 -1.00000000 0.00000000
vn 0.00000000 0.00000000 1.00000000
vn 0.00000000 0.00000000 -1.00000000
vn 0.00000000 -1.00000000 0.00000000
vn 0.00000000 0.00000000 1.00000000
vn 0.00000000 1.00000000 0.00000000
vn 0.00000000 0.00000000 1.00000000
vn 0.00000000 0.00000000 -1.00000000
vn 0.00000000 0.00000000 -1.00000000
vn 0.00000000 0.00000000 1.00000000
vn 0.00000000 -1.00000000 0.00000000
vn 0.00000000 1.00000000 0.00000000
vn 0.00000000 -1.00000000 0.00000000
vn 0.00000000 1.00000000 0.00000000
vn 0.00000000 1.00000000 0.00000000
vn 0.00000000 -1.00000000 0.00000000
vn 0.00000000 0.00000000 1.00000000
vn 0.00000000 -1.00000000 0.00000000
vn 0.00000000 1.00000000 0.00000000
vn 0.00000000 0.00000000 -1.00000000
vn 0.00000000 0.00000000 -1.00000000
vn 0.00000000 0.00000000 1.00000000
vn 0.00000000 1.00000000 0.00000000
vn 0.00000000 -1.00000000 0.00000000
vn 0.00000000 -1.00000000 0.00000000
vn 0.00000000 1.00000000 0.00000000
vn 0.00000000 1.00000000 0.00000000
vn 0.00000000 0.00000000 -1.00000000
vn 0.00000000 -1.00000000 0.00000000
vn 0.00000000 0.00000000 1.00000000
vn 0.00000000 -1.00000000 0.00000000
vn 0.00000000 1.00000000 0.00000000
vt 0.50000000 0.50000000
vt 0.50000000 0.50000000
vt 0.50000000 0.50000000
vt 0.50000000 0.50000000
vt 0.50000000 0.50000000
vt 0.50000000 0.50000000
vt 0.50000000 0.50000000
vt 0.50000000 0.50000000
vt 0.50000000 0.50000000
vt 0.50000000 0.50000000
vt 0.50000000 0.50000000
vt 0.50000000 0.50000000
vt 0.50000000 0.50000000
vt 0.50000000 0.50000000
vt 0.50000000 0.50000000
vt 0.50000000 0.50000000
vt 0.50000000 0.50000000
vt 0.50000000 0.50000000
vt 0.50000000 0.50000000
vt 0.50000000 0.50000000
vt 0.50000000 0.50000000
vt 0.50000000 0.50000000
vt 0.50000000 0.50000000
vt 0.50000000 0.50000000
vt 0.50000000 0.50000000
vt 0.50000000 0.50000000
vt 0.50000000 0.50000000
vt 0.50000000 0.50000000
vt 0.50000000 0.50000000
vt 0.50000000 0.50000000
vt 0.50000000 0.50000000
vt 0.50000000 0.50000000
vt 0.50000000 0.50000000
vt 0.50000000 0.50000000
vt 0.50000000 0.50000000
vt 0.50000000 0.50000000
vt 0.50000000 0.50000000
vt 0.50000000 0.50000000
vt 0.50000000 0.50000000
vt 0.50000000 0.50000000
vt 0.50000000 0.50000000
vt 0.50000000 0.50000000
vt 0.50000000 0.50000000
vt 0.50000000 0.50000000
vt 0.50000000 0.50000000
vt 0.50000000 0.50000000
vt 0.50000000 0.50000000
vt 0.50000000 0.50000000
vt 0.50000000 0.50000000
vt 0.50000000 0.50000000
vt 0.50000000 0.50000000
vt 0.50000000 0.50000000
vt 0.50000000 0.50000000
vt 0.50000000 0.50000000
vt 0.50000000 0.50000000
vt 0.50000000 0.50000000
vt 0.50000000 0.50000000
vt 0.50000000 0.50000000
vt 0.50000000 0.50000000
vt 0.50000000 0.50000000
vt 0.50000000 0.50000000
vt 0.50000000 0.50000000
vt 0.50000000 0.50000000
vt 0.50000000 0.50000000
vt 0.50000000 0.50000000
vt 0.50000000 0.50000000
vt 0.50000000 0.50000000
vt 0.50000000 0.50000000
vt 0.50000000 0.50000000
vt 0.50000000 0.50000000
vt 0.50000000 0.50000000
vt 0.50000000 0.50000000
vt 0.50000000 0.50000000
vt 0.50000000 0.50000000
vt 0.50000000 0.50000000
vt 0.50000000 0.50000000
vt 0.50000000 0.50000000
vt 0.50000000 0.50000000
vt 0.50000000 0.50000000
vt 0.50000000 0.50000000
vt 0.50000000 0.50000000
vt 0.50000000 0.50000000
vt 0.50000000 0.50000000
vt 0.50000000 0.50000000
vt 0.50000000 0.50000000
vt 0.50000000 0.50000000
vt 0.50000000 0.50000000
vt 0.50000000 0.50000000
vt 0.50000000 0.50000000
vt 0.50000000 0.50000000
vt 0.50000000 0.50000000
vt 0.50000000 0.50000000
vt 0.50000000 0.50000000
vt 0.50000000 0.50000000
vt 0.50000000 0.50000000
vt 0.50000000 0.50000000
vt 0.50000000 0.50000000
vt 0.50000000 0.50000000
vt 0.50000000 0.50000000
vt 0.50000000 0.50000000
vt 0.50000000 0.50000000
vt 0.50000000 0.50000000
vt 0.50000000 0.50000000
vt 0.50000000 0.50000000
vt 0.50000000 0.50000000
vt 0.50000000 0.50000000
vt 0.50000000 0.50000000
vt 0.50000000 0.50000000
vt 0.50000000 0.50000000
vt 0.50000000 0.50000000
vt 0.50000000 0.50000000
vt 0.50000000 0.50000000
vt 0.50000000 0.50000000
vt 0.50000000 0.50000000
vt 0.50000000 0.50000000
vt 0.50000000 0.50000000
vt 0.50000000 0.50000000
vt 0.50000000 0.50000000
vt 0.50000000 0.50000000
vt 0.50000000 0.50000000
vt 0.50000000 0.50000000
vt 0.50000000 0.50000000
vt 0.50000000 0.50000000
vt 0.50000000 0.50000000
vt 0.50000000 0.50000000
vt 0.50000000 0.50000000
vt 0.50000000 0.50000000
vt 0.50000000 0.50000000
vt 0.50000000 0.50000000
vt 0.50000000 0.50000000
vt 0.50000000 0.50000000
vt 0.50000000 0.50000000
vt 0.50000000 0.50000000
vt 0.50000000 0.50000000
vt 0.50000000 0.50000000
vt 0.50000000 0.50000000
vt 0.50000000 0.50000000
vt 0.50000000 0.50000000
vt 0.50000000 0.50000000
vt 0.50000000 0.50000000
vt 0.50000000 0.50000000
vt 0.50000000 0.50000000
vt 0.50000000 0.50000000
vt 0.50000000 0.50000000
vt 0.50000000 0.50000000
vt 0.50000000 0.50000000
vt 0.50000000 0.50000000
vt 0.50000000 0.50000000
vt 0.50000000 0.50000000
vt 0.50000000 0.50000000
vt 0.50000000 0.50000000
vt 0.50000000 0.50000000
vt 0.50000000 0.50000000
vt 0.50000000 0.50000000
vt 0.50000000 0.50000000
vt 0.50000000 0.50000000
vt 0.50000000 0.50000000
vt 0.50000000 0.50000000
vt 0.50000000 0.50000000
vt 0.50000000 0.50000000
vt 0.50000000 0.50000000
vt 0.50000000 0.50000000
vt 0.50000000 0.50000000
vt 0.50000000 0.50000000
vt 0.50000000 0.50000000
vt 0.50000000 0.50000000
vt 0.50000000 0.50000000
vt 0.50000000 0.50000000
vt 0.50000000 0.50000000
vt 0.50000000 0.50000000
vt 0.50000000 0.50000000
vt 0.50000000 0.50000000
vt 0.50000000 0.50000000
vt 0.50000000 0.50000000
vt 0.50000000 0.50000000
vt 0.50000000 0.50000000
vt 0.50000000 0.50000000
vt 0.50000000 0.50000000
vt 0.50000000 0.50000000
vt 0.50000000 0.50000000
vt 0.50000000 0.50000000
vt 0.50000000 0.50000000
vt 0.50000000 0.50000000
vt 0.50000000 0.50000000
f 2/2/2 8/8/8 3/3/3
f 4/4/4 7/7/7 1/1/1
f 10/10/10 2/2/2 3/3/3
f 4/4/4 1/1/1 9/9/9
f 19/19/19 3/3/3 6/6/6
f 5/5/5 4/4/4 18/18/18
f 8/8/8 2/2/2 15/15/15
f 13/13/13 1/1/1 7/7/7
f 2/2/2 10/10/10 24/24/24
f 22/22/22 9/9/9 1/1/1
f 3/3/3 25/25/25 10/10/10
f 9/9/9 29/29/29 4/4/4
f 2/2/2 31/31/31 15/15/15
f 13/13/13 34/34/34 1/1/1
f 25/25/25 3/3/3 19/19/19
f 18/18/18 4/4/4 29/29/29
f 6/6/6 41/41/41 19/19/19
f 18/18/18 42/42/42 5/5/5
f 41/41/41 6/6/6 8/8/8
f 7/7/7 5/5/5 42/42/42
f 44/44/44 23/23/23 12/12/12
f 11/11/11 21/21/21 43/43/43
f 24/24/24 31/31/31 2/2/2
f 1/1/1 34/34/34 22/22/22
f 44/44/44 12/12/12 30/30/30
f 27/27/27 11/11/11 43/43/43
f 35/35/35 50/50/50 14/14/14
f 16/16/16 54/54/54 33/33/33
f 14/14/14 50/50/50 38/38/38
f 39/39/39 54/54/54 16/16/16
f 55/55/55 15/15/15 37/37/37
f 40/40/40 13/13/13 56/56/56
f 58/58/58 26/26/26 20/20/20
f 17/17/17 28/28/28 60/60/60
f 19/19/19 41/41/41 57/57/57
f 59/59/59 42/42/42 18/18/18
f 41/41/41 15/15/15 55/55/55
f 56/56/56 13/13/13 42/42/42
f 65/65/65 23/23/23 44/44/44
f 43/43/43 21/21/21 64/64/64
f 31/31/31 24/24/24 69/69/69
f 67/67/67 22/22/22 34/34/34
f 26/26/26 51/51/51 48/48/48
f 47/47/47 52/52/52 28/28/28
f 50/50/50 35/35/35 77/77/77
f 78/78/78 33/33/33 54/54/54
f 38/38/38 50/50/50 81/81/81
f 82/82/82 54/54/54 39/39/39
f 37/37/37 57/57/57 55/55/55
f 56/56/56 59/59/59 40/40/40
f 51/51/51 26/26/26 58/58/58
f 60/60/60 28/28/28 52/52/52
f 57/57/57 41/41/41 55/55/55
f 56/56/56 42/42/42 59/59/59
f 23/23/23 65/65/65 72/72/72
f 71/71/71 64/64/64 21/21/21
f 49/49/49 66/66/66 46/46/46
f 45/45/45 62/62/62 53/53/53
f 63/63/63 36/36/36 70/70/70
f 68/68/68 32/32/32 61/61/61
f 36/36/36 63/63/63 76/76/76
f 74/74/74 61/61/61 32/32/32
f 66/66/66 49/49/49 75/75/75
f 73/73/73 53/53/53 62/62/62
f 51/51/51 58/58/58 79/79/79
f 80/80/80 60/60/60 52/52/52
f 57/57/57 37/37/37 83/83/83
f 84/84/84 40/40/40 59/59/59
f 85/85/85 90/90/90 92/92/92
f 90/90/90 85/85/85 97/97/97
f 91/91/91 89/89/89 87/87/87
f 96/96/96 87/87/87 89/89/89
f 88/88/88 103/103/103 95/95/95
f 94/94/94 99/99/99 86/86/86
f 103/103/103 88/88/88 109/109/109
f 111/111/111 86/86/86 99/99/99
f 102/102/102 98/98/98 105/105/105
f 106/106/106 93/93/93 101/101/101
f 113/113/113 104/104/104 112/112/112
f 110/110/110 100/100/100 114/114/114
f 104/104/104 113/113/113 107/107/107
f 108/108/108 114/114/114 100/100/100
f 125/125/125 116/116/116 118/118/118
f 117/117/117 115/115/115 126/126/126
f 116/116/116 125/125/125 122/122/122
f 119/119/119 126/126/126 115/115/115
f 123/123/123 127/127/127 120/120/120
f 121/121/121 129/129/129 124/124/124
f 127/127/127 123/123/123 136/136/136
f 135/135/135 124/124/124 129/129/129
f 132/132/132 130/130/130 134/134/134
f 133/133/133 128/128/128 131/131/131
f 130/130/130 132/132/132 138/138/138
f 137/137/137 131/131/131 128/128/128
f 146/146/146 142/142/142 144/144/144
f 143/143/143 141/141/141 145/145/145
f 142/142/142 146/146/146 148/148/148
f 147/147/147 145/145/145 141/141/141
f 149/149/149 158/158/158 140/140/140
f 139/139/139 156/156/156 150/150/150
f 151/151/151 140/140/140 158/158/158
f 156/156/156 139/139/139 153/153/153
f 157/157/157 159/159/159 154/154/154
f 152/152/152 160/160/160 155/155/155
f 159/159/159 157/157/157 162/162/162
f 161/161/161 155/155/155 160/160/160
f 163/163/163 168/168/168 165/165/165
f 166/166/166 167/167/167 164/164/164
f 168/168/168 163/163/163 176/176/176
f 175/175/175 164/164/164 167/167/167
f 172/172/172 173/173/173 180/180/180
f 182/182/182 174/174/174 169/169/169
f 178/178/178 179/179/179 171/171/171
f 170/170/170 181/181/181 177/177/177
f 179/179/179 178/178/178 184/184/184
f 183/183/183 177/177/177 181/181/181

