# https://github.com/mikedh/trimesh
mtllib material.mtl
usemtl material_0
v -0.38473000 0.88536800 0.29008900
v -0.38473000 0.88536800 0.29008900
v 0.35474900 0.88536800 0.29008900
v 0.35474900 0.88536800 0.29008900
v -0.38473000 0.44083400 0.29008900
v -0.38473000 0.44083400 0.29008900
v 0.35474900 0.83763200 0.29008900
v 0.35474900 0.83763200 0.29008900
v -0.38473000 0.83763200 0.29008900
v -0.38473000 0.83763200 0.29008900
v 0.35474900 0.44083400 0.29008900
v 0.35474900 0.44083400 0.29008900
v -0.38473000 0.45470900 0.29008900
v -0.38473000 0.45470900 0.29008900
v 0.13175700 0.44083400 0.29008900
v 0.13175700 0.44083400 0.29008900
v -0.33153000 0.73784300 0.29008900
v -0.33153000 0.73784300 0.29008900
v 0.35474900 0.45470900 0.29008900
v 0.35474900 0.45470900 0.29008900
v -0.33153000 0.57765300 0.29008900
v -0.33153000 0.57765300 0.29008900
v -0.33153000 0.57765300 0.29008900
v -0.33153000 0.57765300 0.29008900
v -0.31021400 0.73784300 0.29008900
v -0.31021400 0.73784300 0.29008900
v -0.33153000 0.58820100 0.29008900
v -0.33153000 0.58820100 0.29008900
v -0.31021400 0.72921000 0.29008900
v -0.31021400 0.72921000 0.29008900
v -0.31021400 0.57765300 0.29008900
v -0.31021400 0.57765300 0.29008900
v -0.31021400 0.57765300 0.29008900
v -0.31021400 0.57765300 0.29008900
v -0.31021400 0.57765300 0.29008900
v -0.31021400 0.57765300 0.29008900
v -0.33153000 0.72921000 0.29008900
v -0.33153000 0.72921000 0.29008900
v -0.31021400 0.58820100 0.29008900
v -0.31021400 0.58820100 0.29008900
v -0.31021400 0.58820100 0.29008900
v -0.31021400 0.58820100 0.29008900
v -0.31021400 0.57765300 0.33108000
v -0.31021400 0.57765300 0.33108000
v -0.31021400 0.57765300 0.33108000
v -0.31021400 0.57765300 0.33108000
v -0.33153000 0.73784300 0.29008900
v -0.33153000 0.73784300 0.29008900
v -0.33153000 0.73784300 0.29008900
v -0.33153000 0.73784300 0.29008900
v -0.33153000 0.73784300 0.29008900
v -0.33153000 0.73784300 0.29008900
v -0.33153000 0.57765300 0.29008900
v -0.33153000 0.57765300 0.29008900
v -0.33153000 0.57765300 0.29008900
v -0.33153000 0.57765300 0.29008900
v -0.31021400 0.73784300 0.29008900
v -0.31021400 0.73784300 0.29008900
v -0.31021400 0.73784300 0.29008900
v -0.31021400 0.73784300 0.29008900
v -0.31021400 0.73784300 0.29008900
v -0.31021400 0.73784300 0.29008900
v -0.33153000 0.58820100 0.29008900
v -0.33153000 0.58820100 0.29008900
v -0.33153000 0.58820100 0.29008900
v -0.33153000 0.58820100 0.29008900
v -0.33153000 0.73784300 0.33108000
v -0.33153000 0.73784300 0.33108000
v -0.33153000 0.73784300 0.33108000
v -0.33153000 0.73784300 0.33108000
v -0.33153000 0.73784300 0.33108000
v -0.33153000 0.73784300 0.33108000
v -0.31021400 0.72921000 0.29008900
v -0.31021400 0.72921000 0.29008900
v -0.31021400 0.72921000 0.29008900
v -0.31021400 0.72921000 0.29008900
v -0.31021400 0.72921000 0.29008900
v -0.31021400 0.72921000 0.29008900
v -0.33153000 0.58820100 0.32124200
v -0.33153000 0.58820100 0.32124200
v -0.33153000 0.58820100 0.32124200
v -0.33153000 0.58820100 0.32124200
v -0.33153000 0.58820100 0.32124200
v -0.33153000 0.58820100 0.32124200
v -0.33153000 0.72921000 0.29008900
v -0.33153000 0.72921000 0.29008900
v -0.33153000 0.72921000 0.29008900
v -0.33153000 0.72921000 0.29008900
v -0.33153000 0.72921000 0.29008900
v -0.33153000 0.72921000 0.29008900
v -0.31021400 0.73784300 0.33108000
v -0.31021400 0.73784300 0.33108000
v -0.31021400 0.73784300 0.33108000
v -0.31021400 0.73784300 0.33108000
v -0.31021400 0.73784300 0.33108000
v -0.31021400 0.73784300 0.33108000
v -0.31021400 0.72921000 0.32124200
v -0.31021400 0.72921000 0.32124200
v -0.31021400 0.72921000 0.32124200
v -0.31021400 0.72921000 0.32124200
v -0.31021400 0.72921000 0.32124200
v -0.31021400 0.72921000 0.32124200
v -0.31021400 0.58820100 0.29008900
v -0.31021400 0.58820100 0.29008900
v -0.31021400 0.58820100 0.29008900
v -0.31021400 0.58820100 0.29008900
v -0.31021400 0.57765300 0.33108000
v -0.31021400 0.57765300 0.33108000
v -0.31021400 0.57765300 0.33108000
v -0.31021400 0.57765300 0.33108000
v -0.31021400 0.57765300 0.33108000
v -0.31021400 0.57765300 0.33108000
v -0.33153000 0.57765300 0.33108000
v -0.33153000 0.57765300 0.33108000
v -0.33153000 0.57765300 0.33108000
v -0.33153000 0.57765300 0.33108000
v -0.33153000 0.57765300 0.33108000
v -0.33153000 0.57765300 0.33108000
v -0.33153000 0.72921000 0.32124200
v -0.33153000 0.72921000 0.32124200
v -0.33153000 0.72921000 0.32124200
v -0.33153000 0.72921000 0.32124200
v -0.33153000 0.72921000 0.32124200
v -0.33153000 0.72921000 0.32124200
v -0.31021400 0.58820100 0.32124200
v -0.31021400 0.58820100 0.32124200
v -0.31021400 0.58820100 0.32124200
v -0.31021400 0.58820100 0.32124200
v -0.31021400 0.58820100 0.32124200
v -0.31021400 0.58820100 0.32124200
vn 0.00000000 0.00000000 1.00000000
vn 0.00000000 0.00000000 -1.00000000
vn 0.00000000 0.00000000 1.00000000
vn 0.00000000 0.00000000 -1.00000000
vn 0.00000000 0.00000000 -1.00000000
vn 0.00000000 0.00000000 1.00000000
vn 0.00000000 0.00000000 1.00000000
vn 0.00000000 0.00000000 -1.00000000
vn 0.00000000 0.00000000 1.00000000
vn 0.00000000 0.00000000 -1.00000000
vn 0.00000000 0.00000000 -1.00000000
vn 0.00000000 0.00000000 1.00000000
vn 0.00000000 0.00000000 -1.00000000
vn 0.00000000 0.00000000 1.00000000
vn 0.00000000 0.00000000 -1.00000000
vn 0.00000000 0.00000000 1.00000000
vn 0.00000000 0.00000000 1.00000000
vn 0.00000000 0.00000000 -1.00000000
vn 0.00000000 0.00000000 1.00000000
vn 0.00000000 0.00000000 -1.00000000
vn 0.00000000 0.00000000 -1.00000000
vn 0.00000000 0.00000000 1.00000000
vn 0.00000000 1.00000000 0.00000000
vn 0.00000000 -1.00000000 0.00000000
vn 0.00000000 0.00000000 1.00000000
vn 0.00000000 0.00000000 -1.00000000
vn 0.00000000 0.00000000 -1.00000000
vn 0.00000000 0.00000000 1.00000000
vn 0.00000000 0.00000000 1.00000000
vn 0.00000000 0.00000000 -1.00000000
vn 0.00000000 0.00000000 -1.00000000
vn 0.00000000 0.00000000 1.00000000
vn 0.00000000 1.00000000 0.00000000
vn -1.00000000 0.00000000 0.00000000
vn 0.00000000 -1.00000000 0.00000000
vn 1.00000000 0.00000000 0.00000000
vn 0.00000000 0.00000000 -1.00000000
vn 0.00000000 0.00000000 1.00000000
vn 1.00000000 0.00000000 0.00000000
vn 0.00000000 0.00000000 -1.00000000
vn -1.00000000 0.00000000 0.00000000
vn 0.00000000 0.00000000 1.00000000
vn 0.00000000 1.00000000 0.00000000
vn 1.00000000 0.00000000 0.00000000
vn 0.00000000 -1.00000000 0.00000000
vn -1.00000000 0.00000000 0.00000000
vn 0.00000000 -1.00000000 0.00000000
vn 0.00000000 0.00000000 -1.00000000
vn 0.00000000 1.00000000 0.00000000
vn -1.00000000 0.00000000 0.00000000
vn 0.00000000 0.00000000 1.00000000
vn 1.00000000 0.00000000 0.00000000
vn 0.00000000 1.00000000 0.00000000
vn 1.00000000 0.00000000 0.00000000
vn -1.00000000 0.00000000 0.00000000
vn 0.00000000 -1.00000000 0.00000000
vn 0.00000000 1.00000000 0.00000000
vn 1.00000000 0.00000000 0.00000000
vn -1.00000000 0.00000000 0.00000000
vn 0.00000000 -1.00000000 0.00000000
vn 0.00000000 0.00000000 1.00000000
vn 0.00000000 0.00000000 -1.00000000
vn -1.00000000 0.00000000 0.00000000
vn 1.00000000 0.00000000 0.00000000
vn 0.00000000 -1.00000000 0.00000000
vn 0.00000000 1.00000000 0.00000000
vn 0.00000000 0.00000000 1.00000000
vn 1.00000000 0.00000000 0.00000000
vn 0.00000000 1.00000000 0.00000000
vn 0.00000000 -1.00000000 0.00000000
vn -1.00000000 0.00000000 0.00000000
vn 0.00000000 0.00000000 -1.00000000
vn 0.00000000 0.00000000 -1.00000000
vn 0.00000000 0.00000000 1.00000000
vn 0.00000000 -1.00000000 0.00000000
vn 0.00000000 1.00000000 0.00000000
vn -1.00000000 0.00000000 0.00000000
vn 1.00000000 0.00000000 0.00000000
vn 1.00000000 0.00000000 0.00000000
vn 0.00000000 -1.00000000 0.00000000
vn 0.00000000 0.00000000 1.00000000
vn -1.00000000 0.00000000 0.00000000
vn 0.00000000 0.00000000 -1.00000000
vn 0.00000000 1.00000000 0.00000000
vn 0.00000000 -1.00000000 0.00000000
vn -1.00000000 0.00000000 0.00000000
vn 0.00000000 0.00000000 1.00000000
vn 1.00000000 0.00000000 0.00000000
vn 0.00000000 0.00000000 -1.00000000
vn 0.00000000 1.00000000 0.00000000
vn 0.00000000 0.00000000 1.00000000
vn 1.00000000 0.00000000 0.00000000
vn -1.00000000 0.00000000 0.00000000
vn 0.00000000 1.00000000 0.00000000
vn 0.00000000 -1.00000000 0.00000000
vn 0.00000000 0.00000000 -1.00000000
vn 0.00000000 0.00000000 1.00000000
vn 0.00000000 -1.00000000 0.00000000
vn 0.00000000 0.00000000 -1.00000000
vn -1.00000000 0.00000000 0.00000000
vn 1.00000000 0.00000000 0.00000000
vn 0.00000000 1.00000000 0.00000000
vn 0.00000000 -1.00000000 0.00000000
vn -1.00000000 0.00000000 0.00000000
vn 1.00000000 0.00000000 0.00000000
vn 0.00000000 1.00000000 0.00000000
vn 0.00000000 -1.00000000 0.00000000
vn 1.00000000 0.00000000 0.00000000
vn 0.00000000 0.00000000 -1.00000000
vn 0.00000000 1.00000000 0.00000000
vn -1.00000000 0.00000000 0.00000000
vn 0.00000000 0.00000000 1.00000000
vn 0.00000000 1.00000000 0.00000000
vn 1.00000000 0.00000000 0.00000000
vn -1.00000000 0.00000000 0.00000000
vn 0.00000000 -1.00000000 0.00000000
vn 0.00000000 0.00000000 1.00000000
vn 0.00000000 0.00000000 -1.00000000
vn 0.00000000 1.00000000 0.00000000
vn 1.00000000 0.00000000 0.00000000
vn 0.00000000 -1.00000000 0.00000000
vn 0.00000000 0.00000000 1.00000000
vn -1.00000000 0.00000000 0.00000000
vn 0.00000000 0.00000000 -1.00000000
vn 0.00000000 0.00000000 -1.00000000
vn 0.00000000 0.00000000 1.00000000
vn 0.00000000 1.00000000 0.00000000
vn 0.00000000 -1.00000000 0.00000000
vn 1.00000000 0.00000000 0.00000000
vn -1.00000000 0.00000000 0.00000000
vt 0.50000000 0.50000000
vt 0.50000000 0.50000000
vt 0.50000000 0.50000000
vt 0.50000000 0.50000000
vt 0.50000000 0.50000000
vt 0.50000000 0.50000000
vt 0.50000000 0.50000000
vt 0.50000000 0.50000000
vt 0.50000000 0.50000000
vt 0.50000000 0.50000000
vt 0.50000000 0.50000000
vt 0.50000000 0.50000000
vt 0.50000000 0.50000000
vt 0.50000000 0.50000000
vt 0.50000000 0.50000000
vt 0.50000000 0.50000000
vt 0.50000000 0.50000000
vt 0.50000000 0.50000000
vt 0.50000000 0.50000000
vt 0.50000000 0.50000000
vt 0.50000000 0.50000000
vt 0.50000000 0.50000000
vt 0.50000000 0.50000000
vt 0.50000000 0.50000000
vt 0.50000000 0.50000000
vt 0.50000000 0.50000000
vt 0.50000000 0.50000000
vt 0.50000000 0.50000000
vt 0.50000000 0.50000000
vt 0.50000000 0.50000000
vt 0.50000000 0.50000000
vt 0.50000000 0.50000000
vt 0.50000000 0.50000000
vt 0.50000000 0.50000000
vt 0.50000000 0.50000000
vt 0.50000000 0.50000000
vt 0.50000000 0.50000000
vt 0.50000000 0.50000000
vt 0.50000000 0.50000000
vt 0.50000000 0.50000000
vt 0.50000000 0.50000000
vt 0.50000000 0.50000000
vt 0.50000000 0.50000000
vt 0.50000000 0.50000000
vt 0.50000000 0.50000000
vt 0.50000000 0.50000000
vt 0.50000000 0.50000000
vt 0.50000000 0.50000000
vt 0.50000000 0.50000000
vt 0.50000000 0.50000000
vt 0.50000000 0.50000000
vt 0.50000000 0.50000000
vt 0.50000000 0.50000000
vt 0.50000000 0.50000000
vt 0.50000000 0.50000000
vt 0.50000000 0.50000000
vt 0.50000000 0.50000000
vt 0.50000000 0.50000000
vt 0.50000000 0.50000000
vt 0.50000000 0.50000000
vt 0.50000000 0.50000000
vt 0.50000000 0.50000000
vt 0.50000000 0.50000000
vt 0.50000000 0.50000000
vt 0.50000000 0.50000000
vt 0.50000000 0.50000000
vt 0.50000000 0.50000000
vt 0.50000000 0.50000000
vt 0.50000000 0.50000000
vt 0.50000000 0.50000000
vt 0.50000000 0.50000000
vt 0.50000000 0.50000000
vt 0.50000000 0.50000000
vt 0.50000000 0.50000000
vt 0.50000000 0.50000000
vt 0.50000000 0.50000000
vt 0.50000000 0.50000000
vt 0.50000000 0.50000000
vt 0.50000000 0.50000000
vt 0.50000000 0.50000000
vt 0.50000000 0.50000000
vt 0.50000000 0.50000000
vt 0.50000000 0.50000000
vt 0.50000000 0.50000000
vt 0.50000000 0.50000000
vt 0.50000000 0.50000000
vt 0.50000000 0.50000000
vt 0.50000000 0.50000000
vt 0.50000000 0.50000000
vt 0.50000000 0.50000000
vt 0.50000000 0.50000000
vt 0.50000000 0.50000000
vt 0.50000000 0.50000000
vt 0.50000000 0.50000000
vt 0.50000000 0.50000000
vt 0.50000000 0.50000000
vt 0.50000000 0.50000000
vt 0.50000000 0.50000000
vt 0.50000000 0.50000000
vt 0.50000000 0.50000000
vt 0.50000000 0.50000000
vt 0.50000000 0.50000000
vt 0.50000000 0.50000000
vt 0.50000000 0.50000000
vt 0.50000000 0.50000000
vt 0.50000000 0.50000000
vt 0.50000000 0.50000000
vt 0.50000000 0.50000000
vt 0.50000000 0.50000000
vt 0.50000000 0.50000000
vt 0.50000000 0.50000000
vt 0.50000000 0.50000000
vt 0.50000000 0.50000000
vt 0.50000000 0.50000000
vt 0.50000000 0.50000000
vt 0.50000000 0.50000000
vt 0.50000000 0.50000000
vt 0.50000000 0.50000000
vt 0.50000000 0.50000000
vt 0.50000000 0.50000000
vt 0.50000000 0.50000000
vt 0.50000000 0.50000000
vt 0.50000000 0.50000000
vt 0.50000000 0.50000000
vt 0.50000000 0.50000000
vt 0.50000000 0.50000000
vt 0.50000000 0.50000000
vt 0.50000000 0.50000000
vt 0.50000000 0.50000000
vt 0.50000000 0.50000000
f 1/1/1 7/7/7 3/3/3
f 4/4/4 8/8/8 2/2/2
f 7/7/7 1/1/1 9/9/9
f 10/10/10 2/2/2 8/8/8
f 16/16/16 14/14/14 6/6/6
f 5/5/5 13/13/13 15/15/15
f 9/9/9 17/17/17 7/7/7
f 8/8/8 18/18/18 10/10/10
f 19/19/19 16/16/16 12/12/12
f 11/11/11 15/15/15 20/20/20
f 14/14/14 16/16/16 19/19/19
f 20/20/20 15/15/15 13/13/13
f 14/14/14 22/22/22 9/9/9
f 10/10/10 21/21/21 13/13/13
f 17/17/17 9/9/9 22/22/22
f 21/21/21 10/10/10 18/18/18
f 7/7/7 17/17/17 25/25/25
f 26/26/26 18/18/18 8/8/8
f 7/7/7 25/25/25 19/19/19
f 20/20/20 26/26/26 8/8/8
f 22/22/22 14/14/14 19/19/19
f 20/20/20 13/13/13 21/21/21
f 17/17/17 22/22/22 28/28/28
f 27/27/27 21/21/21 18/18/18
f 29/29/29 19/19/19 25/25/25
f 26/26/26 20/20/20 30/30/30
f 22/22/22 19/19/19 32/32/32
f 31/31/31 20/20/20 21/21/21
f 32/32/32 28/28/28 22/22/22
f 21/21/21 27/27/27 31/31/31
f 17/17/17 28/28/28 38/38/38
f 37/37/37 27/27/27 18/18/18
f 42/42/42 19/19/19 29/29/29
f 30/30/30 20/20/20 40/40/40
f 32/32/32 19/19/19 42/42/42
f 40/40/40 20/20/20 31/31/31
f 45/45/45 24/24/24 35/35/35
f 33/33/33 23/23/23 43/43/43
f 28/28/28 32/32/32 42/42/42
f 40/40/40 31/31/31 27/27/27
f 42/42/42 38/38/38 28/28/28
f 27/27/27 37/37/37 40/40/40
f 38/38/38 42/42/42 29/29/29
f 30/30/30 40/40/40 37/37/37
f 39/39/39 44/44/44 36/36/36
f 34/34/34 46/46/46 41/41/41
f 69/69/69 57/57/57 49/49/49
f 47/47/47 60/60/60 70/70/70
f 51/51/51 74/74/74 61/61/61
f 62/62/62 73/73/73 48/48/48
f 63/63/63 55/55/55 82/82/82
f 79/79/79 54/54/54 64/64/64
f 57/57/57 69/69/69 94/94/94
f 95/95/95 70/70/70 60/60/60
f 86/86/86 71/71/71 50/50/50
f 52/52/52 68/68/68 88/88/88
f 74/74/74 51/51/51 87/87/87
f 89/89/89 48/48/48 73/73/73
f 58/58/58 101/101/101 78/78/78
f 77/77/77 100/100/100 59/59/59
f 115/115/115 82/82/82 55/55/55
f 54/54/54 79/79/79 114/114/114
f 84/84/84 106/106/106 66/66/66
f 65/65/65 103/103/103 80/80/80
f 67/67/67 112/112/112 91/91/91
f 96/96/96 109/109/109 72/72/72
f 92/92/92 101/101/101 58/58/58
f 59/59/59 100/100/100 93/93/93
f 123/123/123 71/71/71 86/86/86
f 88/88/88 68/68/68 120/120/120
f 98/98/98 85/85/85 75/75/75
f 76/76/76 90/90/90 102/102/102
f 56/56/56 107/107/107 116/116/116
f 113/113/113 110/110/110 53/53/53
f 82/82/82 115/115/115 71/71/71
f 68/68/68 114/114/114 79/79/79
f 106/106/106 84/84/84 127/127/127
f 128/128/128 80/80/80 103/103/103
f 112/112/112 67/67/67 117/117/117
f 118/118/118 72/72/72 109/109/109
f 108/108/108 129/129/129 92/92/92
f 93/93/93 130/130/130 111/111/111
f 92/92/92 129/129/129 101/101/101
f 100/100/100 130/130/130 93/93/93
f 82/82/82 71/71/71 123/123/123
f 120/120/120 68/68/68 79/79/79
f 85/85/85 98/98/98 121/121/121
f 119/119/119 102/102/102 90/90/90
f 108/108/108 105/105/105 129/129/129
f 130/130/130 104/104/104 111/111/111
f 126/126/126 122/122/122 81/81/81
f 83/83/83 124/124/124 125/125/125
f 122/122/122 126/126/126 97/97/97
f 99/99/99 125/125/125 124/124/124

