# https://github.com/mikedh/trimesh
mtllib material.mtl
usemtl material_0
v 0.57250900 -0.83374100 -0.02918300
v 0.57250900 -0.83374100 -0.02918300
v -0.57438300 -0.83374100 -0.09457600
v -0.57438300 -0.83374100 -0.09457600
v 0.57250900 -0.83374100 -0.09457600
v 0.57250900 -0.83374100 -0.09457600
v -0.57438300 -0.83374100 -0.02918300
v -0.57438300 -0.83374100 -0.02918300
v -0.57438300 0.84635500 -0.09457600
v -0.57438300 0.84635500 -0.09457600
v -0.51910700 0.79107900 -0.09457600
v -0.51910700 0.79107900 -0.09457600
v -0.57438300 -0.83374100 -0.09457600
v -0.57438300 -0.83374100 -0.09457600
v 0.57250900 0.84635500 -0.09457600
v 0.57250900 0.84635500 -0.09457600
v 0.51723300 0.79107900 -0.09457600
v 0.51723300 0.79107900 -0.09457600
v 0.51723300 -0.77846500 -0.09457600
v 0.51723300 -0.77846500 -0.09457600
v -0.51910700 -0.77846500 -0.09457600
v -0.51910700 -0.77846500 -0.09457600
v 0.57250900 -0.83374100 -0.09457600
v 0.57250900 -0.83374100 -0.09457600
v 0.57250900 0.84635500 -0.09457600
v 0.57250900 0.84635500 -0.09457600
v 0.57250900 -0.83374100 -0.02918300
v 0.57250900 -0.83374100 -0.02918300
v 0.57250900 -0.83374100 -0.09457600
v 0.57250900 -0.83374100 -0.09457600
v 0.57250900 0.84635500 -0.02918300
v 0.57250900 0.84635500 -0.02918300
v -0.57438300 -0.83374100 -0.02918300
v -0.57438300 -0.83374100 -0.02918300
v -0.51910700 -0.77846500 -0.02918300
v -0.51910700 -0.77846500 -0.02918300
v -0.57438300 0.84635500 -0.02918300
v -0.57438300 0.84635500 -0.02918300
v 0.57250900 -0.83374100 -0.02918300
v 0.57250900 -0.83374100 -0.02918300
v 0.51723300 -0.77846500 -0.02918300
v 0.51723300 -0.77846500 -0.02918300
v 0.51723300 0.79107900 -0.02918300
v 0.51723300 0.79107900 -0.02918300
v -0.51910700 0.79107900 -0.02918300
v -0.51910700 0.79107900 -0.02918300
v 0.57250900 0.84635500 -0.02918300
v 0.57250900 0.84635500 -0.02918300
v -0.57438300 0.84635500 -0.02918300
v -0.57438300 0.84635500 -0.02918300
v -0.57438300 -0.83374100 -0.09457600
v -0.57438300 -0.83374100 -0.09457600
v -0.57438300 -0.83374100 -0.02918300
v -0.57438300 -0.83374100 -0.02918300
v -0.57438300 0.84635500 -0.09457600
v -0.57438300 0.84635500 -0.09457600
v -0.57438300 0.84635500 -0.02918300
v -0.57438300 0.84635500 -0.02918300
v 0.57250900 0.84635500 -0.09457600
v 0.57250900 0.84635500 -0.09457600
v -0.57438300 0.84635500 -0.09457600
v -0.57438300 0.84635500 -0.09457600
v 0.57250900 0.84635500 -0.02918300
v 0.57250900 0.84635500 -0.02918300
v -0.51910700 0.79107900 -0.09457600
v -0.51910700 0.79107900 -0.09457600
v -0.51910700 -0.77846500 -0.02918300
v -0.51910700 -0.77846500 -0.02918300
v -0.51910700 -0.77846500 -0.09457600
v -0.51910700 -0.77846500 -0.09457600
v -0.51910700 0.79107900 -0.02918300
v -0.51910700 0.79107900 -0.02918300
v 0.51723300 0.79107900 -0.02918300
v 0.51723300 0.79107900 -0.02918300
v -0.51910700 0.79107900 -0.09457600
v -0.51910700 0.79107900 -0.09457600
v 0.51723300 0.79107900 -0.09457600
v 0.51723300 0.79107900 -0.09457600
v -0.51910700 0.79107900 -0.02918300
v -0.51910700 0.79107900 -0.02918300
v -0.51910700 -0.77846500 -0.02918300
v -0.51910700 -0.77846500 -0.02918300
v 0.51723300 -0.77846500 -0.09457600
v 0.51723300 -0.77846500 -0.09457600
v -0.51910700 -0.77846500 -0.09457600
v -0.51910700 -0.77846500 -0.09457600
v 0.51723300 -0.77846500 -0.02918300
v 0.51723300 -0.77846500 -0.02918300
v 0.51723300 0.79107900 -0.02918300
v 0.51723300 0.79107900 -0.02918300
v 0.51723300 -0.77846500 -0.09457600
v 0.51723300 -0.77846500 -0.09457600
v 0.51723300 -0.77846500 -0.02918300
v 0.51723300 -0.77846500 -0.02918300
v 0.51723300 0.79107900 -0.09457600
v 0.51723300 0.79107900 -0.09457600
vn 0.00000000 -1.00000000 0.00000000
vn 0.00000000 1.00000000 0.00000000
vn 0.00000000 1.00000000 0.00000000
vn 0.00000000 -1.00000000 0.00000000
vn 0.00000000 -1.00000000 0.00000000
vn 0.00000000 1.00000000 0.00000000
vn 0.00000000 -1.00000000 0.00000000
vn 0.00000000 1.00000000 0.00000000
vn 0.00000000 0.00000000 1.00000000
vn 0.00000000 0.00000000 -1.00000000
vn 0.00000000 0.00000000 1.00000000
vn 0.00000000 0.00000000 -1.00000000
vn 0.00000000 0.00000000 1.00000000
vn 0.00000000 0.00000000 -1.00000000
vn 0.00000000 0.00000000 1.00000000
vn 0.00000000 0.00000000 -1.00000000
vn 0.00000000 0.00000000 1.00000000
vn 0.00000000 0.00000000 -1.00000000
vn 0.00000000 0.00000000 -1.00000000
vn 0.00000000 0.00000000 1.00000000
vn 0.00000000 0.00000000 -1.00000000
vn 0.00000000 0.00000000 1.00000000
vn 0.00000000 0.00000000 -1.00000000
vn 0.00000000 0.00000000 1.00000000
vn 1.00000000 0.00000000 0.00000000
vn -1.00000000 0.00000000 0.00000000
vn -1.00000000 0.00000000 0.00000000
vn 1.00000000 0.00000000 0.00000000
vn 1.00000000 0.00000000 0.00000000
vn -1.00000000 0.00000000 0.00000000
vn -1.00000000 0.00000000 0.00000000
vn 1.00000000 0.00000000 0.00000000
vn 0.00000000 0.00000000 -1.00000000
vn 0.00000000 0.00000000 1.00000000
vn 0.00000000 0.00000000 1.00000000
vn 0.00000000 0.00000000 -1.00000000
vn 0.00000000 0.00000000 -1.00000000
vn 0.00000000 0.00000000 1.00000000
vn 0.00000000 0.00000000 -1.00000000
vn 0.00000000 0.00000000 1.00000000
vn 0.00000000 0.00000000 -1.00000000
vn 0.00000000 0.00000000 1.00000000
vn 0.00000000 0.00000000 -1.00000000
vn 0.00000000 0.00000000 1.00000000
vn 0.00000000 0.00000000 -1.00000000
vn 0.00000000 0.00000000 1.00000000
vn 0.00000000 0.00000000 1.00000000
vn 0.00000000 0.00000000 -1.00000000
vn 1.00000000 0.00000000 0.00000000
vn -1.00000000 0.00000000 0.00000000
vn 1.00000000 0.00000000 0.00000000
vn -1.00000000 0.00000000 0.00000000
vn 1.00000000 0.00000000 0.00000000
vn -1.00000000 0.00000000 0.00000000
vn 1.00000000 0.00000000 0.00000000
vn -1.00000000 0.00000000 0.00000000
vn 0.00000000 1.00000000 0.00000000
vn 0.00000000 -1.00000000 0.00000000
vn 0.00000000 1.00000000 0.00000000
vn 0.00000000 -1.00000000 0.00000000
vn 0.00000000 1.00000000 0.00000000
vn 0.00000000 -1.00000000 0.00000000
vn 0.00000000 1.00000000 0.00000000
vn 0.00000000 -1.00000000 0.00000000
vn 1.00000000 0.00000000 0.00000000
vn -1.00000000 0.00000000 0.00000000
vn 1.00000000 0.00000000 0.00000000
vn -1.00000000 0.00000000 0.00000000
vn 1.00000000 0.00000000 0.00000000
vn -1.00000000 0.00000000 0.00000000
vn -1.00000000 0.00000000 0.00000000
vn 1.00000000 0.00000000 0.00000000
vn 0.00000000 1.00000000 0.00000000
vn 0.00000000 -1.00000000 0.00000000
vn 0.00000000 1.00000000 0.00000000
vn 0.00000000 -1.00000000 0.00000000
vn 0.00000000 -1.00000000 0.00000000
vn 0.00000000 1.00000000 0.00000000
vn 0.00000000 1.00000000 0.00000000
vn 0.00000000 -1.00000000 0.00000000
vn 0.00000000 1.00000000 0.00000000
vn 0.00000000 -1.00000000 0.00000000
vn 0.00000000 1.00000000 0.00000000
vn 0.00000000 -1.00000000 0.00000000
vn 0.00000000 1.00000000 0.00000000
vn 0.00000000 -1.00000000 0.00000000
vn 0.00000000 -1.00000000 0.00000000
vn 0.00000000 1.00000000 0.00000000
vn 1.00000000 0.00000000 0.00000000
vn -1.00000000 0.00000000 0.00000000
vn -1.00000000 0.00000000 0.00000000
vn 1.00000000 0.00000000 0.00000000
vn -1.00000000 0.00000000 0.00000000
vn 1.00000000 0.00000000 0.00000000
vn 1.00000000 0.00000000 0.00000000
vn -1.00000000 0.00000000 0.00000000
vt 3.74015700 0.21325460
vt 3.74015700 0.21325460
vt 0.00000000 0.00000000
vt 0.00000000 0.00000000
vt 3.74015700 0.00000000
vt 3.74015700 0.00000000
vt 0.00000000 0.21325460
vt 0.00000000 0.21325460
vt 0.00000000 5.47900300
vt 0.00000000 5.47900300
vt -0.18026080 5.29874200
vt -0.18026080 5.29874200
vt 0.00000000 0.00000000
vt 0.00000000 0.00000000
vt -3.74015700 5.47900300
vt -3.74015700 5.47900300
vt -3.55989700 5.29874200
vt -3.55989700 5.29874200
vt -3.55989700 0.18026080
vt -3.55989700 0.18026080
vt -0.18026080 0.18026080
vt -0.18026080 0.18026080
vt -3.74015700 0.00000000
vt -3.74015700 0.00000000
vt 5.47900300 0.00000000
vt 5.47900300 0.00000000
vt 0.00000000 0.21325460
vt 0.00000000 0.21325460
vt 0.00000000 0.00000000
vt 0.00000000 0.00000000
vt 5.47900300 0.21325460
vt 5.47900300 0.21325460
vt 0.00000000 0.00000000
vt 0.00000000 0.00000000
vt 0.18026080 0.18026080
vt 0.18026080 0.18026080
vt 0.00000000 5.47900300
vt 0.00000000 5.47900300
vt 3.74015700 0.00000000
vt 3.74015700 0.00000000
vt 3.55989700 0.18026080
vt 3.55989700 0.18026080
vt 3.55989700 5.29874200
vt 3.55989700 5.29874200
vt 0.18026080 5.29874200
vt 0.18026080 5.29874200
vt 3.74015700 5.47900300
vt 3.74015700 5.47900300
vt -5.47900300 0.21325460
vt -5.47900300 0.21325460
vt 0.00000000 0.00000000
vt 0.00000000 0.00000000
vt 0.00000000 0.21325460
vt 0.00000000 0.21325460
vt -5.47900300 0.00000000
vt -5.47900300 0.00000000
vt 0.00000000 0.21325460
vt 0.00000000 0.21325460
vt -3.74015700 0.00000000
vt -3.74015700 0.00000000
vt 0.00000000 0.00000000
vt 0.00000000 0.00000000
vt -3.74015700 0.21325460
vt -3.74015700 0.21325460
vt 5.29874200 0.00000000
vt 5.29874200 0.00000000
vt 0.18026080 0.21325460
vt 0.18026080 0.21325460
vt 0.18026080 0.00000000
vt 0.18026080 0.00000000
vt 5.29874200 0.21325460
vt 5.29874200 0.21325460
vt 3.55989700 0.21325460
vt 3.55989700 0.21325460
vt 0.18026080 0.00000000
vt 0.18026080 0.00000000
vt 3.55989700 0.00000000
vt 3.55989700 0.00000000
vt 0.18026080 0.21325460
vt 0.18026080 0.21325460
vt -0.18026080 0.21325460
vt -0.18026080 0.21325460
vt -3.55989700 0.00000000
vt -3.55989700 0.00000000
vt -0.18026080 0.00000000
vt -0.18026080 0.00000000
vt -3.55989700 0.21325460
vt -3.55989700 0.21325460
vt -5.29874200 0.21325460
vt -5.29874200 0.21325460
vt -0.18026080 0.00000000
vt -0.18026080 0.00000000
vt -0.18026080 0.21325460
vt -0.18026080 0.21325460
vt -5.29874200 0.00000000
vt -5.29874200 0.00000000
f 1/1/1 4/4/4 5/5/5
f 6/6/6 3/3/3 2/2/2
f 4/4/4 1/1/1 7/7/7
f 8/8/8 2/2/2 3/3/3
f 10/10/10 12/12/12 14/14/14
f 13/13/13 11/11/11 9/9/9
f 12/12/12 10/10/10 16/16/16
f 15/15/15 9/9/9 11/11/11
f 12/12/12 16/16/16 18/18/18
f 17/17/17 15/15/15 11/11/11
f 18/18/18 16/16/16 19/19/19
f 20/20/20 15/15/15 17/17/17
f 14/14/14 21/21/21 23/23/23
f 24/24/24 22/22/22 13/13/13
f 21/21/21 14/14/14 12/12/12
f 11/11/11 13/13/13 22/22/22
f 23/23/23 21/21/21 19/19/19
f 20/20/20 22/22/22 24/24/24
f 23/23/23 19/19/19 16/16/16
f 15/15/15 20/20/20 24/24/24
f 25/25/25 28/28/28 29/29/29
f 30/30/30 27/27/27 26/26/26
f 28/28/28 25/25/25 32/32/32
f 31/31/31 26/26/26 27/27/27
f 34/34/34 35/35/35 38/38/38
f 37/37/37 36/36/36 33/33/33
f 35/35/35 34/34/34 40/40/40
f 39/39/39 33/33/33 36/36/36
f 35/35/35 40/40/40 42/42/42
f 41/41/41 39/39/39 36/36/36
f 42/42/42 40/40/40 44/44/44
f 43/43/43 39/39/39 41/41/41
f 38/38/38 46/46/46 47/47/47
f 48/48/48 45/45/45 37/37/37
f 46/46/46 38/38/38 35/35/35
f 36/36/36 37/37/37 45/45/45
f 47/47/47 46/46/46 44/44/44
f 43/43/43 45/45/45 48/48/48
f 47/47/47 44/44/44 40/40/40
f 39/39/39 43/43/43 48/48/48
f 50/50/50 52/52/52 54/54/54
f 53/53/53 51/51/51 49/49/49
f 52/52/52 50/50/50 56/56/56
f 55/55/55 49/49/49 51/51/51
f 57/57/57 59/59/59 61/61/61
f 62/62/62 60/60/60 58/58/58
f 59/59/59 57/57/57 63/63/63
f 64/64/64 58/58/58 60/60/60
f 65/65/65 67/67/67 69/69/69
f 70/70/70 68/68/68 66/66/66
f 67/67/67 65/65/65 72/72/72
f 71/71/71 66/66/66 68/68/68
f 74/74/74 76/76/76 77/77/77
f 78/78/78 75/75/75 73/73/73
f 76/76/76 74/74/74 80/80/80
f 79/79/79 73/73/73 75/75/75
f 81/81/81 83/83/83 85/85/85
f 86/86/86 84/84/84 82/82/82
f 83/83/83 81/81/81 88/88/88
f 87/87/87 82/82/82 84/84/84
f 90/90/90 91/91/91 93/93/93
f 94/94/94 92/92/92 89/89/89
f 91/91/91 90/90/90 96/96/96
f 95/95/95 89/89/89 92/92/92

