# https://github.com/mikedh/trimesh
mtllib material.mtl
usemtl material_0
v 0.47651600 -0.65037400 0.44536100
v -0.47116500 -0.81264900 0.44536100
v 0.47651600 -0.81264900 0.44536100
v -0.47116500 -0.65037400 0.44536100
v 0.47651600 -0.81264900 -0.47160700
v 0.47651600 -0.65037400 0.44536100
v 0.47651600 -0.81264900 0.44536100
v 0.47648700 -0.65037400 0.40173600
v 0.47648700 -0.65037400 0.39651700
v 0.47651600 -0.65037400 -0.47160700
v -0.47114400 -0.65037400 0.40173600
v -0.47116500 -0.81264900 0.44536100
v -0.47116500 -0.65037400 0.44536100
v -0.47116500 -0.81264900 -0.47160700
v -0.47114400 -0.65037400 0.39651700
v -0.47116500 -0.65037400 -0.47160700
v -0.47116500 -0.65037400 -0.47160700
v 0.47651600 -0.81264900 -0.47160700
v -0.47116500 -0.81264900 -0.47160700
v 0.47651600 -0.65037400 -0.47160700
v 0.47651600 -0.65037400 -0.47160700
v 0.49991200 -0.65037400 0.39651700
v 0.47648700 -0.65037400 0.39651700
v 0.49991200 -0.65037400 -0.49021600
v 0.49991200 -0.65037400 -0.49021600
v 0.47651600 -0.65037400 -0.47160700
v 0.49991200 -0.65037400 0.39651700
v 0.47648700 -0.65037400 0.39651700
v 0.49991200 -0.65037400 -0.49021600
v 0.49991200 0.55789000 0.39651700
v 0.49991200 -0.65037400 0.39651700
v 0.49991200 0.55789000 -0.49021600
v 0.49991200 0.55789000 -0.49021600
v 0.49991200 -0.65037400 -0.49021600
v 0.49991200 0.55789000 0.39651700
v 0.49991200 -0.65037400 0.39651700
v 0.49518400 -0.64564600 0.39651700
v 0.47648700 -0.65037400 0.39651700
v 0.49991200 -0.65037400 0.39651700
v 0.47648700 -0.64368800 0.39651700
v 0.47648700 -0.64368800 0.39651700
v 0.49518400 -0.64564600 0.39651700
v 0.47648700 -0.65037400 0.39651700
v 0.49991200 -0.65037400 0.39651700
v -0.47116500 -0.65037400 -0.47160700
v -0.49456500 -0.65037400 -0.49021600
v -0.47116500 -0.65037400 -0.47160700
v -0.49456500 -0.65037400 -0.49021600
v 0.49991200 0.55789000 0.39651700
v -0.49456500 0.55789000 -0.49021600
v -0.49456500 0.55789000 0.39651700
v 0.49991200 0.55789000 -0.49021600
v 0.49991200 0.55789000 -0.49021600
v 0.49991200 0.55789000 0.39651700
v -0.49456500 0.55789000 -0.49021600
v -0.49456500 0.55789000 0.39651700
v 0.49991200 0.55789000 0.39651700
v 0.49518400 0.55316300 0.39651700
v 0.49518400 0.55316300 0.39651700
v 0.49991200 0.55789000 0.39651700
v -0.49456500 0.55789000 -0.49021600
v 0.49991200 -0.65037400 -0.49021600
v -0.49456500 -0.65037400 -0.49021600
v 0.49991200 0.55789000 -0.49021600
v 0.49991200 0.55789000 -0.49021600
v -0.49456500 0.55789000 -0.49021600
v 0.49991200 -0.65037400 -0.49021600
v -0.49456500 -0.65037400 -0.49021600
v -0.49456500 -0.65037400 0.39651700
v -0.47114400 -0.65037400 0.39651700
v -0.47114400 -0.65037400 0.39651700
v -0.49456500 -0.65037400 0.39651700
v -0.49456500 0.55789000 -0.49021600
v -0.49456500 -0.65037400 0.39651700
v -0.49456500 0.55789000 0.39651700
v -0.49456500 -0.65037400 -0.49021600
v -0.49456500 -0.65037400 -0.49021600
v -0.49456500 0.55789000 -0.49021600
v -0.49456500 -0.65037400 0.39651700
v -0.49456500 0.55789000 0.39651700
v -0.48983700 0.55316300 0.39651700
v -0.49456500 0.55789000 0.39651700
v -0.49456500 0.55789000 0.39651700
v -0.48983700 0.55316300 0.39651700
v -0.47114400 -0.64368800 0.39651700
v -0.49456500 -0.65037400 0.39651700
v -0.47114400 -0.65037400 0.39651700
v -0.48983700 -0.64564600 0.39651700
v -0.48983700 -0.64564600 0.39651700
v -0.47114400 -0.64368800 0.39651700
v -0.49456500 -0.65037400 0.39651700
v -0.47114400 -0.65037400 0.39651700
vn 0.00000000 0.00000000 1.00000000
vn 0.00000000 0.00000000 1.00000000
vn 0.00000000 0.00000000 1.00000000
vn 0.00000000 0.00000000 1.00000000
vn 1.00000000 0.00000000 0.00000000
vn 1.00000000 0.00000000 0.00000000
vn 1.00000000 0.00000000 0.00000000
vn 1.00000000 0.00000000 0.00000000
vn 1.00000000 0.00000000 0.00000000
vn 1.00000000 0.00000000 0.00000000
vn -1.00000000 0.00000000 0.00000000
vn -1.00000000 0.00000000 0.00000000
vn -1.00000000 0.00000000 0.00000000
vn -1.00000000 0.00000000 0.00000000
vn -1.00000000 0.00000000 0.00000000
vn -1.00000000 0.00000000 0.00000000
vn 0.00000000 0.00000000 -1.00000000
vn 0.00000000 0.00000000 -1.00000000
vn 0.00000000 0.00000000 -1.00000000
vn 0.00000000 0.00000000 -1.00000000
vn -0.00000001 -1.00000000 -0.00000003
vn -0.00000001 -1.00000000 -0.00000003
vn -0.00000001 -1.00000000 -0.00000003
vn -0.00000001 -1.00000000 -0.00000003
vn 0.00000001 1.00000000 0.00000003
vn 0.00000001 1.00000000 0.00000003
vn 0.00000001 1.00000000 0.00000003
vn 0.00000001 1.00000000 0.00000003
vn 1.00000000 0.00000000 0.00000000
vn 1.00000000 0.00000000 0.00000000
vn 1.00000000 0.00000000 0.00000000
vn 1.00000000 0.00000000 0.00000000
vn -1.00000000 0.00000000 0.00000000
vn -1.00000000 0.00000000 0.00000000
vn -1.00000000 0.00000000 0.00000000
vn -1.00000000 0.00000000 0.00000000
vn 0.00000000 0.00000000 1.00000000
vn 0.00000000 0.00000000 1.00000000
vn 0.00000000 0.00000000 1.00000000
vn 0.00000000 0.00000000 1.00000000
vn 0.00000000 0.00000000 -1.00000000
vn 0.00000000 0.00000000 -1.00000000
vn 0.00000000 0.00000000 -1.00000000
vn 0.00000000 0.00000000 -1.00000000
vn 0.00000000 -1.00000000 0.00000000
vn 0.00000000 -1.00000000 0.00000000
vn 0.00000000 1.00000000 0.00000000
vn 0.00000000 1.00000000 0.00000000
vn 0.00000000 1.00000000 0.00000000
vn 0.00000000 1.00000000 0.00000000
vn 0.00000000 1.00000000 0.00000000
vn 0.00000000 1.00000000 0.00000000
vn 0.00000000 -1.00000000 0.00000000
vn 0.00000000 -1.00000000 0.00000000
vn 0.00000000 -1.00000000 0.00000000
vn 0.00000000 -1.00000000 0.00000000
vn 0.00000000 0.00000000 1.00000000
vn 0.00000000 0.00000000 1.00000000
vn 0.00000000 0.00000000 -1.00000000
vn 0.00000000 0.00000000 -1.00000000
vn 0.00000000 0.00000000 -1.00000000
vn 0.00000000 0.00000000 -1.00000000
vn 0.00000000 0.00000000 -1.00000000
vn 0.00000000 0.00000000 -1.00000000
vn 0.00000000 0.00000000 1.00000000
vn 0.00000000 0.00000000 1.00000000
vn 0.00000000 0.00000000 1.00000000
vn 0.00000000 0.00000000 1.00000000
vn 0.00000001 -1.00000000 -0.00000003
vn 0.00000001 -1.00000000 -0.00000003
vn -0.00000001 1.00000000 0.00000003
vn -0.00000001 1.00000000 0.00000003
vn -1.00000000 0.00000000 0.00000000
vn -1.00000000 0.00000000 0.00000000
vn -1.00000000 0.00000000 0.00000000
vn -1.00000000 0.00000000 0.00000000
vn 1.00000000 0.00000000 0.00000000
vn 1.00000000 0.00000000 0.00000000
vn 1.00000000 0.00000000 0.00000000
vn 1.00000000 0.00000000 0.00000000
vn 0.00000010 0.00000000 1.00000000
vn 0.00000010 0.00000000 1.00000000
vn -0.00000010 0.00000000 -1.00000000
vn -0.00000010 0.00000000 -1.00000000
vn 0.00000000 0.00000000 1.00000000
vn 0.00000000 0.00000000 1.00000000
vn 0.00000000 0.00000000 1.00000000
vn 0.00000000 0.00000000 1.00000000
vn 0.00000000 0.00000000 -1.00000000
vn 0.00000000 0.00000000 -1.00000000
vn 0.00000000 0.00000000 -1.00000000
vn 0.00000000 0.00000000 -1.00000000
vt 0.52744332 0.00979626
vt 0.52744332 0.00979626
vt 0.52744332 0.00979626
vt 0.52744332 0.00979626
vt 0.52744332 0.00979626
vt 0.52744332 0.00979626
vt 0.52744332 0.00979626
vt 0.52744332 0.00979626
vt 0.52744332 0.00979626
vt 0.52744332 0.00979626
vt 0.52744332 0.00979626
vt 0.52744332 0.00979626
vt 0.52744332 0.00979626
vt 0.52744332 0.00979626
vt 0.52744332 0.00979626
vt 0.52744332 0.00979626
vt 0.52744332 0.00979626
vt 0.52744332 0.00979626
vt 0.52744332 0.00979626
vt 0.52744332 0.00979626
vt 0.42356772 0.02709455
vt 0.40967907 0.00978100
vt 0.42358458 0.00978100
vt 0.40967907 0.03814107
vt 0.40967907 0.03814107
vt 0.42356772 0.02709455
vt 0.40967907 0.00978100
vt 0.42358458 0.00978100
vt 0.03814107 0.00978100
vt 0.00978100 0.22901165
vt 0.00978100 0.00978100
vt 0.03814107 0.22901165
vt 0.03814107 0.22901165
vt 0.03814107 0.00978100
vt 0.00978100 0.22901165
vt 0.00978100 0.00978100
vt 0.09929455 0.01064947
vt 0.08819544 0.00978100
vt 0.10210095 0.00978100
vt 0.08819544 0.01181189
vt 0.08819544 0.01181189
vt 0.09929455 0.01064947
vt 0.08819544 0.00978100
vt 0.10210095 0.00978100
vt 0.49004608 0.02709455
vt 0.00978100 0.03814107
vt 0.49004608 0.02709455
vt 0.00978100 0.03814107
vt 0.10210095 0.00978100
vt 0.00978100 0.03814107
vt 0.00978100 0.00978100
vt 0.10210095 0.03814107
vt 0.10210095 0.03814107
vt 0.10210095 0.00978100
vt 0.00978100 0.03814107
vt 0.00978100 0.00978100
vt 0.10210095 0.22901165
vt 0.09929455 0.22620525
vt 0.09929455 0.22620525
vt 0.10210095 0.22901165
vt 0.00978100 0.22901165
vt 0.40967907 0.00978100
vt 0.00978100 0.00978100
vt 0.40967907 0.22901165
vt 0.40967907 0.22901165
vt 0.00978100 0.22901165
vt 0.40967907 0.00978100
vt 0.00978100 0.00978100
vt 0.00978100 0.00978100
vt 0.49003336 0.00978100
vt 0.49003336 0.00978100
vt 0.00978100 0.00978100
vt 0.47363895 0.22901165
vt 0.00978100 0.00978100
vt 0.00978100 0.22901165
vt 0.47363895 0.00978100
vt 0.47363895 0.00978100
vt 0.47363895 0.22901165
vt 0.00978100 0.00978100
vt 0.00978100 0.22901165
vt 0.01064947 0.22620525
vt 0.00978100 0.22901165
vt 0.00978100 0.22901165
vt 0.01064947 0.22620525
vt 0.02174666 0.01181189
vt 0.00978100 0.00978100
vt 0.02174666 0.00978100
vt 0.01064947 0.01064947
vt 0.01064947 0.01064947
vt 0.02174666 0.01181189
vt 0.00978100 0.00978100
vt 0.02174666 0.00978100
f 1/1/1 2/2/2 3/3/3
f 2/2/2 1/1/1 4/4/4
f 5/5/5 6/6/6 7/7/7
f 6/6/6 5/5/5 8/8/8
f 8/8/8 5/5/5 9/9/9
f 9/9/9 5/5/5 10/10/10
f 11/11/11 12/12/12 13/13/13
f 12/12/12 11/11/11 14/14/14
f 14/14/14 11/11/11 15/15/15
f 14/14/14 15/15/15 16/16/16
f 17/17/17 18/18/18 19/19/19
f 18/18/18 17/17/17 20/20/20
f 21/21/21 22/22/22 23/23/23
f 22/22/22 21/21/21 24/24/24
f 25/25/25 26/26/26 27/27/27
f 28/28/28 27/27/27 26/26/26
f 29/29/29 30/30/30 31/31/31
f 30/30/30 29/29/29 32/32/32
f 33/33/33 34/34/34 35/35/35
f 36/36/36 35/35/35 34/34/34
f 37/37/37 38/38/38 39/39/39
f 38/38/38 37/37/37 40/40/40
f 41/41/41 42/42/42 43/43/43
f 44/44/44 43/43/43 42/42/42
f 24/24/24 45/45/45 46/46/46
f 45/45/45 24/24/24 21/21/21
f 26/26/26 25/25/25 47/47/47
f 48/48/48 47/47/47 25/25/25
f 49/49/49 50/50/50 51/51/51
f 50/50/50 49/49/49 52/52/52
f 53/53/53 54/54/54 55/55/55
f 56/56/56 55/55/55 54/54/54
f 57/57/57 37/37/37 39/39/39
f 37/37/37 57/57/57 58/58/58
f 59/59/59 60/60/60 42/42/42
f 44/44/44 42/42/42 60/60/60
f 61/61/61 62/62/62 63/63/63
f 62/62/62 61/61/61 64/64/64
f 65/65/65 66/66/66 67/67/67
f 68/68/68 67/67/67 66/66/66
f 45/45/45 69/69/69 46/46/46
f 69/69/69 45/45/45 70/70/70
f 71/71/71 47/47/47 72/72/72
f 48/48/48 72/72/72 47/47/47
f 73/73/73 74/74/74 75/75/75
f 74/74/74 73/73/73 76/76/76
f 77/77/77 78/78/78 79/79/79
f 80/80/80 79/79/79 78/78/78
f 57/57/57 81/81/81 58/58/58
f 81/81/81 57/57/57 82/82/82
f 83/83/83 60/60/60 84/84/84
f 59/59/59 84/84/84 60/60/60
f 85/85/85 86/86/86 87/87/87
f 86/86/86 85/85/85 88/88/88
f 89/89/89 90/90/90 91/91/91
f 92/92/92 91/91/91 90/90/90
f 88/88/88 82/82/82 86/86/86
f 82/82/82 88/88/88 81/81/81
f 84/84/84 89/89/89 83/83/83
f 91/91/91 83/83/83 89/89/89

