# https://github.com/mikedh/trimesh
mtllib material.mtl
usemtl material_0
v 0.18300200 -0.83165900 0.35311400
v -0.16924900 -0.73015100 0.35311400
v -0.16917500 -0.83191500 0.35311400
v 0.18292800 -0.72989600 0.35311300
v 0.36929500 -0.83152400 0.35311300
v -0.36460000 -0.83205700 0.35311300
v 0.36929500 -0.83205700 0.35311300
v -0.36460000 -0.83152400 0.35311300
v -0.36460000 0.63310500 -0.38078200
v -0.36460000 -0.83205700 -0.38078200
v -0.36460000 0.63310500 0.35311300
v -0.36460000 0.63310500 0.35311300
v -0.36460000 -0.83152400 0.35311300
v -0.36460000 0.63310500 -0.38078200
v -0.36460000 -0.83205700 -0.38078200
v -0.36460000 0.63310500 -0.38078200
v 0.36929500 -0.83152400 -0.38078200
v -0.36460000 -0.83205700 -0.38078200
v 0.36929500 0.63310500 -0.38078200
v 0.36929500 0.63310500 -0.38078200
v -0.36460000 0.63310500 -0.38078200
v 0.36929500 -0.83152400 -0.38078200
v -0.36460000 -0.83205700 -0.38078200
v 0.36929500 -0.83152400 0.35311300
v 0.18292800 -0.72989600 0.35311300
v 0.18300200 -0.83165900 0.35311400
v 0.36929500 0.63310500 0.35311300
v -0.16917500 -0.83191500 0.35311400
v -0.36460000 -0.83152400 0.35311300
v -0.36460000 -0.83205700 0.35311300
v -0.16924900 -0.73015100 0.35311400
v -0.36460000 0.63310500 0.35311300
v 0.36929500 0.63310500 0.35311300
v 0.18292800 -0.72989600 0.35311300
v -0.36460000 0.63310500 0.35311300
v -0.16924900 -0.73015100 0.35311400
v -0.36460000 -0.83152400 0.35311300
v -0.16917500 -0.83191500 0.35311400
v -0.36460000 -0.83205700 0.35311300
v 0.36929500 -0.83152400 0.35311300
v 0.18300200 -0.83165900 0.35311400
v 0.36929500 -0.83152400 0.35311300
v -0.36460000 -0.83205700 -0.38078200
v 0.36929500 -0.83152400 -0.38078200
v 0.18300200 -0.83165900 0.35311400
v -0.36460000 -0.83205700 0.35311300
v -0.16917500 -0.83191500 0.35311400
v -0.16917500 -0.83191500 0.35311400
v 0.18300200 -0.83165900 0.35311400
v -0.36460000 -0.83205700 0.35311300
v -0.36460000 -0.83205700 -0.38078200
v 0.36929500 -0.83152400 0.35311300
v 0.36929500 -0.83152400 -0.38078200
v 0.36929500 -0.83152400 -0.38078200
v 0.36929500 0.63310500 0.35311300
v 0.36929500 -0.83152400 0.35311300
v 0.36929500 0.63310500 -0.38078200
v 0.36929500 0.63310500 -0.38078200
v 0.36929500 -0.83152400 -0.38078200
v 0.36929500 0.63310500 0.35311300
v 0.36929500 -0.83152400 0.35311300
v -0.36460000 -0.83152400 0.35311300
v -0.36460000 -0.83205700 -0.38078200
v -0.36460000 -0.83205700 0.35311300
vn 0.00000000 0.00000000 1.00000000
vn 0.00000000 0.00000000 1.00000000
vn 0.00000000 0.00000000 1.00000000
vn 0.00000000 0.00000000 1.00000000
vn 0.00000000 0.00000000 1.00000000
vn 0.00000000 0.00000000 1.00000000
vn 0.00000000 0.00000000 1.00000000
vn -1.00000000 0.00000000 0.00000000
vn -1.00000000 0.00000000 0.00000000
vn -1.00000000 0.00000000 0.00000000
vn -1.00000000 0.00000000 0.00000000
vn 1.00000000 0.00000000 0.00000000
vn 1.00000000 0.00000000 0.00000000
vn 1.00000000 0.00000000 0.00000000
vn 1.00000000 0.00000000 0.00000000
vn 0.00000000 0.00000000 -1.00000000
vn 0.00000000 0.00000000 -1.00000000
vn 0.00000000 0.00000000 -1.00000000
vn 0.00000000 0.00000000 -1.00000000
vn 0.00000000 0.00000000 1.00000000
vn 0.00000000 0.00000000 1.00000000
vn 0.00000000 0.00000000 1.00000000
vn 0.00000000 0.00000000 1.00000000
vn 0.00000000 0.00000000 1.00000000
vn 0.00000000 0.00000000 1.00000000
vn 0.00000000 0.00000000 1.00000000
vn 0.00000000 0.00000000 1.00000000
vn 0.00000000 0.00000000 1.00000000
vn 0.00000000 0.00000000 1.00000000
vn 0.00000000 0.00000000 1.00000000
vn 0.00000000 0.00000000 1.00000000
vn 0.00000000 0.00000000 1.00000000
vn 0.00000000 0.00000000 -1.00000000
vn 0.00000000 0.00000000 -1.00000000
vn 0.00000000 0.00000000 -1.00000000
vn 0.00000000 0.00000000 -1.00000000
vn 0.00000000 0.00000000 -1.00000000
vn 0.00000000 0.00000000 -1.00000000
vn 0.00000000 0.00000000 -1.00000000
vn 0.00000000 0.00000000 -1.00000000
vn 0.00000000 0.00000000 -1.00000000
vn 0.00072598 -0.99999974 0.00000000
vn 0.00072598 -0.99999974 0.00000000
vn 0.00072598 -0.99999974 0.00000000
vn 0.00072598 -0.99999974 0.00000000
vn 0.00072598 -0.99999974 0.00000000
vn 0.00072598 -0.99999974 0.00000000
vn -0.00072598 0.99999974 0.00000000
vn -0.00072598 0.99999974 0.00000000
vn -0.00072598 0.99999974 0.00000000
vn -0.00072598 0.99999974 0.00000000
vn -0.00072598 0.99999974 0.00000000
vn -0.00072598 0.99999974 0.00000000
vn 1.00000000 0.00000000 0.00000000
vn 1.00000000 0.00000000 0.00000000
vn 1.00000000 0.00000000 0.00000000
vn 1.00000000 0.00000000 0.00000000
vn -1.00000000 0.00000000 0.00000000
vn -1.00000000 0.00000000 0.00000000
vn -1.00000000 0.00000000 0.00000000
vn -1.00000000 0.00000000 0.00000000
vn -1.00000000 0.00000000 0.00000000
vn -1.00000000 0.00000000 0.00000000
vn -1.00000000 0.00000000 0.00000000
vt 0.00489046 0.01663214
vt 0.00489046 0.01663214
vt 0.00489046 0.01663214
vt 0.00489046 0.01663214
vt 0.00489046 0.01663214
vt 0.00489046 0.01663214
vt 0.00489046 0.01663214
vt 0.45903965 0.00488802
vt 0.12017254 0.67683441
vt 0.12017254 0.00488802
vt 0.45903965 0.67683441
vt 0.45903965 0.67683441
vt 0.45903965 0.00488802
vt 0.12017254 0.67683441
vt 0.12017254 0.00488802
vt 0.47039479 0.67683441
vt 0.13152767 0.00488802
vt 0.47039479 0.00488802
vt 0.13152767 0.67683441
vt 0.13152767 0.67683441
vt 0.47039479 0.67683441
vt 0.13152767 0.00488802
vt 0.47039479 0.00488802
vt 0.67908036 0.00488802
vt 0.39513185 0.15875543
vt 0.39524485 0.00488802
vt 0.67908036 0.67683441
vt 0.63796310 0.00488802
vt 0.34021324 0.00488802
vt 0.34021324 0.00488802
vt 0.63785088 0.15836586
vt 0.34021324 0.67683441
vt 0.67908036 0.67683441
vt 0.39513185 0.15875543
vt 0.34021324 0.67683441
vt 0.63785088 0.15836586
vt 0.34021324 0.00488802
vt 0.63796310 0.00488802
vt 0.34021324 0.00488802
vt 0.67908036 0.00488802
vt 0.39524485 0.00488802
vt 0.34411674 0.10179514
vt 0.34411596 0.07906539
vt 0.35548123 0.09043065
vt 0.14341429 0.68038956
vt 0.33275148 0.09043065
vt 0.54329255 0.30097173
vt 0.54329255 0.30097173
vt 0.14341429 0.68038956
vt 0.33275148 0.09043065
vt 0.34411596 0.07906539
vt 0.34411674 0.10179514
vt 0.35548123 0.09043065
vt 0.69043549 0.00488802
vt 0.35156838 0.67683441
vt 0.35156838 0.00488802
vt 0.69043549 0.67683441
vt 0.69043549 0.67683441
vt 0.69043549 0.00488802
vt 0.35156838 0.67683441
vt 0.35156838 0.00488802
vt 0.00489046 0.01663214
vt 0.00489046 0.01663214
vt 0.00489046 0.01663214
f 1/1/1 2/2/2 3/3/3
f 2/2/2 1/1/1 4/4/4
f 5/5/5 6/6/6 7/7/7
f 6/6/6 5/5/5 3/3/3
f 3/3/3 5/5/5 1/1/1
f 8/8/8 9/9/9 10/10/10
f 9/9/9 8/8/8 11/11/11
f 12/12/12 13/13/13 14/14/14
f 15/15/15 14/14/14 13/13/13
f 16/16/16 17/17/17 18/18/18
f 17/17/17 16/16/16 19/19/19
f 20/20/20 21/21/21 22/22/22
f 23/23/23 22/22/22 21/21/21
f 24/24/24 25/25/25 26/26/26
f 25/25/25 24/24/24 27/27/27
f 28/28/28 29/29/29 30/30/30
f 29/29/29 28/28/28 31/31/31
f 29/29/29 31/31/31 32/32/32
f 32/32/32 31/31/31 25/25/25
f 32/32/32 25/25/25 27/27/27
f 33/33/33 34/34/34 35/35/35
f 34/34/34 36/36/36 35/35/35
f 35/35/35 36/36/36 37/37/37
f 36/36/36 38/38/38 37/37/37
f 39/39/39 37/37/37 38/38/38
f 33/33/33 40/40/40 34/34/34
f 41/41/41 34/34/34 40/40/40
f 42/42/42 43/43/43 44/44/44
f 43/43/43 42/42/42 45/45/45
f 43/43/43 45/45/45 46/46/46
f 46/46/46 45/45/45 47/47/47
f 48/48/48 49/49/49 50/50/50
f 50/50/50 49/49/49 51/51/51
f 49/49/49 52/52/52 51/51/51
f 53/53/53 51/51/51 52/52/52
f 54/54/54 55/55/55 56/56/56
f 55/55/55 54/54/54 57/57/57
f 58/58/58 59/59/59 60/60/60
f 61/61/61 60/60/60 59/59/59
f 62/62/62 63/63/63 64/64/64

