# https://github.com/mikedh/trimesh
mtllib material.mtl
usemtl material_0
v 0.41029500 -0.85175500 0.08750300
v 0.41029500 -0.85175500 0.08750300
v 0.38875100 -0.83021000 0.08750300
v 0.38875100 -0.83021000 0.08750300
v -0.40840000 -0.85175500 0.08750300
v -0.40840000 -0.85175500 0.08750300
v 0.41029500 0.91490400 0.08750300
v 0.41029500 0.91490400 0.08750300
v 0.38875100 0.89336000 0.08750300
v 0.38875100 0.89336000 0.08750300
v -0.38685600 0.89336000 0.08750300
v -0.38685600 0.89336000 0.08750300
v -0.38685600 -0.83021000 0.08750300
v -0.38685600 -0.83021000 0.08750300
v -0.40840000 0.91490400 0.08750300
v -0.40840000 0.91490400 0.08750300
v 0.41029500 -0.85175500 -0.09024000
v 0.41029500 -0.85175500 -0.09024000
v -0.40840000 -0.85175500 0.08750300
v -0.40840000 -0.85175500 0.08750300
v -0.40840000 -0.85175500 -0.09024000
v -0.40840000 -0.85175500 -0.09024000
v 0.41029500 -0.85175500 0.08750300
v 0.41029500 -0.85175500 0.08750300
v 0.41029500 -0.85175500 -0.09024000
v 0.41029500 -0.85175500 -0.09024000
v 0.41029500 0.91490400 0.08750300
v 0.41029500 0.91490400 0.08750300
v 0.41029500 -0.85175500 0.08750300
v 0.41029500 -0.85175500 0.08750300
v 0.41029500 0.91490400 -0.09024000
v 0.41029500 0.91490400 -0.09024000
v 0.41029500 0.91490400 0.08750300
v 0.41029500 0.91490400 0.08750300
v -0.40840000 0.91490400 -0.09024000
v -0.40840000 0.91490400 -0.09024000
v -0.40840000 0.91490400 0.08750300
v -0.40840000 0.91490400 0.08750300
v 0.41029500 0.91490400 -0.09024000
v 0.41029500 0.91490400 -0.09024000
v -0.40840000 0.91490400 0.08750300
v -0.40840000 0.91490400 0.08750300
v -0.40840000 -0.85175500 -0.09024000
v -0.40840000 -0.85175500 -0.09024000
v -0.40840000 -0.85175500 0.08750300
v -0.40840000 -0.85175500 0.08750300
v -0.40840000 0.91490400 -0.09024000
v -0.40840000 0.91490400 -0.09024000
v -0.40840000 -0.85175500 -0.09024000
v -0.40840000 -0.85175500 -0.09024000
v -0.38685600 -0.83021000 -0.09024000
v -0.38685600 -0.83021000 -0.09024000
v 0.41029500 -0.85175500 -0.09024000
v 0.41029500 -0.85175500 -0.09024000
v -0.40840000 0.91490400 -0.09024000
v -0.40840000 0.91490400 -0.09024000
v -0.38685600 0.89336000 -0.09024000
v -0.38685600 0.89336000 -0.09024000
v 0.38875100 0.89336000 -0.09024000
v 0.38875100 0.89336000 -0.09024000
v 0.41029500 0.91490400 -0.09024000
v 0.41029500 0.91490400 -0.09024000
v 0.38875100 -0.83021000 -0.09024000
v 0.38875100 -0.83021000 -0.09024000
v 0.38875100 -0.83021000 0.08750300
v 0.38875100 -0.83021000 0.08750300
v -0.38685600 -0.83021000 -0.09024000
v -0.38685600 -0.83021000 -0.09024000
v -0.38685600 -0.83021000 0.08750300
v -0.38685600 -0.83021000 0.08750300
v 0.38875100 -0.83021000 -0.09024000
v 0.38875100 -0.83021000 -0.09024000
v 0.38875100 0.89336000 -0.09024000
v 0.38875100 0.89336000 -0.09024000
v 0.38875100 -0.83021000 0.08750300
v 0.38875100 -0.83021000 0.08750300
v 0.38875100 0.89336000 0.08750300
v 0.38875100 0.89336000 0.08750300
v 0.38875100 -0.83021000 -0.09024000
v 0.38875100 -0.83021000 -0.09024000
v -0.38685600 -0.83021000 -0.09024000
v -0.38685600 -0.83021000 -0.09024000
v -0.38685600 0.89336000 0.08750300
v -0.38685600 0.89336000 0.08750300
v -0.38685600 -0.83021000 0.08750300
v -0.38685600 -0.83021000 0.08750300
v -0.38685600 0.89336000 -0.09024000
v -0.38685600 0.89336000 -0.09024000
v 0.38875100 0.89336000 -0.09024000
v 0.38875100 0.89336000 -0.09024000
v -0.38685600 0.89336000 0.08750300
v -0.38685600 0.89336000 0.08750300
v -0.38685600 0.89336000 -0.09024000
v -0.38685600 0.89336000 -0.09024000
v 0.38875100 0.89336000 0.08750300
v 0.38875100 0.89336000 0.08750300
vn 0.00000000 0.00000000 1.00000000
vn 0.00000000 0.00000000 -1.00000000
vn 0.00000000 0.00000000 1.00000000
vn 0.00000000 0.00000000 -1.00000000
vn 0.00000000 0.00000000 1.00000000
vn 0.00000000 0.00000000 -1.00000000
vn 0.00000000 0.00000000 1.00000000
vn 0.00000000 0.00000000 -1.00000000
vn 0.00000000 0.00000000 1.00000000
vn 0.00000000 0.00000000 -1.00000000
vn 0.00000000 0.00000000 1.00000000
vn 0.00000000 0.00000000 -1.00000000
vn 0.00000000 0.00000000 1.00000000
vn 0.00000000 0.00000000 -1.00000000
vn 0.00000000 0.00000000 -1.00000000
vn 0.00000000 0.00000000 1.00000000
vn 0.00000000 -1.00000000 0.00000000
vn 0.00000000 1.00000000 0.00000000
vn 0.00000000 1.00000000 0.00000000
vn 0.00000000 -1.00000000 0.00000000
vn 0.00000000 -1.00000000 0.00000000
vn 0.00000000 1.00000000 0.00000000
vn 0.00000000 -1.00000000 0.00000000
vn 0.00000000 1.00000000 0.00000000
vn 1.00000000 0.00000000 0.00000000
vn -1.00000000 0.00000000 0.00000000
vn 1.00000000 0.00000000 0.00000000
vn -1.00000000 0.00000000 0.00000000
vn 1.00000000 0.00000000 0.00000000
vn -1.00000000 0.00000000 0.00000000
vn -1.00000000 0.00000000 0.00000000
vn 1.00000000 0.00000000 0.00000000
vn 0.00000000 1.00000000 0.00000000
vn 0.00000000 -1.00000000 0.00000000
vn 0.00000000 1.00000000 0.00000000
vn 0.00000000 -1.00000000 0.00000000
vn 0.00000000 1.00000000 0.00000000
vn 0.00000000 -1.00000000 0.00000000
vn 0.00000000 -1.00000000 0.00000000
vn 0.00000000 1.00000000 0.00000000
vn 1.00000000 0.00000000 0.00000000
vn -1.00000000 0.00000000 0.00000000
vn 1.00000000 0.00000000 0.00000000
vn -1.00000000 0.00000000 0.00000000
vn -1.00000000 0.00000000 0.00000000
vn 1.00000000 0.00000000 0.00000000
vn 1.00000000 0.00000000 0.00000000
vn -1.00000000 0.00000000 0.00000000
vn 0.00000000 0.00000000 -1.00000000
vn 0.00000000 0.00000000 1.00000000
vn 0.00000000 0.00000000 -1.00000000
vn 0.00000000 0.00000000 1.00000000
vn 0.00000000 0.00000000 -1.00000000
vn 0.00000000 0.00000000 1.00000000
vn 0.00000000 0.00000000 -1.00000000
vn 0.00000000 0.00000000 1.00000000
vn 0.00000000 0.00000000 -1.00000000
vn 0.00000000 0.00000000 1.00000000
vn 0.00000000 0.00000000 -1.00000000
vn 0.00000000 0.00000000 1.00000000
vn 0.00000000 0.00000000 1.00000000
vn 0.00000000 0.00000000 -1.00000000
vn 0.00000000 0.00000000 1.00000000
vn 0.00000000 0.00000000 -1.00000000
vn 0.00000000 1.00000000 0.00000000
vn 0.00000000 -1.00000000 0.00000000
vn 0.00000000 1.00000000 0.00000000
vn 0.00000000 -1.00000000 0.00000000
vn 0.00000000 1.00000000 0.00000000
vn 0.00000000 -1.00000000 0.00000000
vn 0.00000000 -1.00000000 0.00000000
vn 0.00000000 1.00000000 0.00000000
vn 1.00000000 0.00000000 0.00000000
vn -1.00000000 0.00000000 0.00000000
vn 1.00000000 0.00000000 0.00000000
vn -1.00000000 0.00000000 0.00000000
vn 1.00000000 0.00000000 0.00000000
vn -1.00000000 0.00000000 0.00000000
vn -1.00000000 0.00000000 0.00000000
vn 1.00000000 0.00000000 0.00000000
vn 1.00000000 0.00000000 0.00000000
vn -1.00000000 0.00000000 0.00000000
vn 1.00000000 0.00000000 0.00000000
vn -1.00000000 0.00000000 0.00000000
vn 1.00000000 0.00000000 0.00000000
vn -1.00000000 0.00000000 0.00000000
vn -1.00000000 0.00000000 0.00000000
vn 1.00000000 0.00000000 0.00000000
vn 0.00000000 -1.00000000 0.00000000
vn 0.00000000 1.00000000 0.00000000
vn 0.00000000 -1.00000000 0.00000000
vn 0.00000000 1.00000000 0.00000000
vn 0.00000000 1.00000000 0.00000000
vn 0.00000000 -1.00000000 0.00000000
vn 0.00000000 1.00000000 0.00000000
vn 0.00000000 -1.00000000 0.00000000
vt 0.50000000 0.50000000
vt 0.50000000 0.50000000
vt 0.50000000 0.50000000
vt 0.50000000 0.50000000
vt 0.50000000 0.50000000
vt 0.50000000 0.50000000
vt 0.50000000 0.50000000
vt 0.50000000 0.50000000
vt 0.50000000 0.50000000
vt 0.50000000 0.50000000
vt 0.50000000 0.50000000
vt 0.50000000 0.50000000
vt 0.50000000 0.50000000
vt 0.50000000 0.50000000
vt 0.50000000 0.50000000
vt 0.50000000 0.50000000
vt 0.50000000 0.50000000
vt 0.50000000 0.50000000
vt 0.50000000 0.50000000
vt 0.50000000 0.50000000
vt 0.50000000 0.50000000
vt 0.50000000 0.50000000
vt 0.50000000 0.50000000
vt 0.50000000 0.50000000
vt 0.50000000 0.50000000
vt 0.50000000 0.50000000
vt 0.50000000 0.50000000
vt 0.50000000 0.50000000
vt 0.50000000 0.50000000
vt 0.50000000 0.50000000
vt 0.50000000 0.50000000
vt 0.50000000 0.50000000
vt 0.50000000 0.50000000
vt 0.50000000 0.50000000
vt 0.50000000 0.50000000
vt 0.50000000 0.50000000
vt 0.50000000 0.50000000
vt 0.50000000 0.50000000
vt 0.50000000 0.50000000
vt 0.50000000 0.50000000
vt 0.50000000 0.50000000
vt 0.50000000 0.50000000
vt 0.50000000 0.50000000
vt 0.50000000 0.50000000
vt 0.50000000 0.50000000
vt 0.50000000 0.50000000
vt 0.50000000 0.50000000
vt 0.50000000 0.50000000
vt 0.50000000 0.50000000
vt 0.50000000 0.50000000
vt 0.50000000 0.50000000
vt 0.50000000 0.50000000
vt 0.50000000 0.50000000
vt 0.50000000 0.50000000
vt 0.50000000 0.50000000
vt 0.50000000 0.50000000
vt 0.50000000 0.50000000
vt 0.50000000 0.50000000
vt 0.50000000 0.50000000
vt 0.50000000 0.50000000
vt 0.50000000 0.50000000
vt 0.50000000 0.50000000
vt 0.50000000 0.50000000
vt 0.50000000 0.50000000
vt 0.50000000 0.50000000
vt 0.50000000 0.50000000
vt 0.50000000 0.50000000
vt 0.50000000 0.50000000
vt 0.50000000 0.50000000
vt 0.50000000 0.50000000
vt 0.50000000 0.50000000
vt 0.50000000 0.50000000
vt 0.50000000 0.50000000
vt 0.50000000 0.50000000
vt 0.50000000 0.50000000
vt 0.50000000 0.50000000
vt 0.50000000 0.50000000
vt 0.50000000 0.50000000
vt 0.50000000 0.50000000
vt 0.50000000 0.50000000
vt 0.50000000 0.50000000
vt 0.50000000 0.50000000
vt 0.50000000 0.50000000
vt 0.50000000 0.50000000
vt 0.50000000 0.50000000
vt 0.50000000 0.50000000
vt 0.50000000 0.50000000
vt 0.50000000 0.50000000
vt 0.50000000 0.50000000
vt 0.50000000 0.50000000
vt 0.50000000 0.50000000
vt 0.50000000 0.50000000
vt 0.50000000 0.50000000
vt 0.50000000 0.50000000
vt 0.50000000 0.50000000
vt 0.50000000 0.50000000
f 1/1/1 3/3/3 5/5/5
f 6/6/6 4/4/4 2/2/2
f 3/3/3 1/1/1 7/7/7
f 8/8/8 2/2/2 4/4/4
f 3/3/3 7/7/7 9/9/9
f 10/10/10 8/8/8 4/4/4
f 9/9/9 7/7/7 11/11/11
f 12/12/12 8/8/8 10/10/10
f 5/5/5 13/13/13 16/16/16
f 15/15/15 14/14/14 6/6/6
f 13/13/13 5/5/5 3/3/3
f 4/4/4 6/6/6 14/14/14
f 16/16/16 13/13/13 11/11/11
f 12/12/12 14/14/14 15/15/15
f 16/16/16 11/11/11 7/7/7
f 8/8/8 12/12/12 15/15/15
f 17/17/17 20/20/20 21/21/21
f 22/22/22 19/19/19 18/18/18
f 20/20/20 17/17/17 23/23/23
f 24/24/24 18/18/18 19/19/19
f 25/25/25 27/27/27 29/29/29
f 30/30/30 28/28/28 26/26/26
f 27/27/27 25/25/25 32/32/32
f 31/31/31 26/26/26 28/28/28
f 33/33/33 35/35/35 37/37/37
f 38/38/38 36/36/36 34/34/34
f 35/35/35 33/33/33 40/40/40
f 39/39/39 34/34/34 36/36/36
f 42/42/42 44/44/44 45/45/45
f 46/46/46 43/43/43 41/41/41
f 44/44/44 42/42/42 48/48/48
f 47/47/47 41/41/41 43/43/43
f 49/49/49 51/51/51 53/53/53
f 54/54/54 52/52/52 50/50/50
f 51/51/51 49/49/49 55/55/55
f 56/56/56 50/50/50 52/52/52
f 51/51/51 55/55/55 57/57/57
f 58/58/58 56/56/56 52/52/52
f 57/57/57 55/55/55 59/59/59
f 60/60/60 56/56/56 58/58/58
f 59/59/59 55/55/55 62/62/62
f 61/61/61 56/56/56 60/60/60
f 53/53/53 64/64/64 62/62/62
f 61/61/61 63/63/63 54/54/54
f 64/64/64 53/53/53 51/51/51
f 52/52/52 54/54/54 63/63/63
f 62/62/62 64/64/64 59/59/59
f 60/60/60 63/63/63 61/61/61
f 65/65/65 67/67/67 69/69/69
f 70/70/70 68/68/68 66/66/66
f 67/67/67 65/65/65 72/72/72
f 71/71/71 66/66/66 68/68/68
f 74/74/74 76/76/76 78/78/78
f 77/77/77 75/75/75 73/73/73
f 76/76/76 74/74/74 79/79/79
f 80/80/80 73/73/73 75/75/75
f 81/81/81 83/83/83 85/85/85
f 86/86/86 84/84/84 82/82/82
f 83/83/83 81/81/81 88/88/88
f 87/87/87 82/82/82 84/84/84
f 89/89/89 91/91/91 94/94/94
f 93/93/93 92/92/92 90/90/90
f 91/91/91 89/89/89 96/96/96
f 95/95/95 90/90/90 92/92/92

