# https://github.com/mikedh/trimesh
mtllib material.mtl
usemtl material_0
v -0.33144400 0.86743900 0.33260900
v -0.33144400 0.86743900 0.33260900
v -0.33144400 0.86743900 0.33260900
v -0.33144400 0.86743900 0.33260900
v 0.39729400 -0.88202200 0.33260900
v 0.39729400 -0.88202200 0.33260900
v 0.39729400 -0.88202200 0.33260900
v 0.39729400 -0.88202200 0.33260900
v -0.33144400 -0.88202200 0.33260900
v -0.33144400 -0.88202200 0.33260900
v -0.33144400 -0.88202200 0.33260900
v -0.33144400 -0.88202200 0.33260900
v 0.39729400 0.86743900 0.33260900
v 0.39729400 0.86743900 0.33260900
v 0.39729400 0.86743900 0.33260900
v 0.39729400 0.86743900 0.33260900
v -0.33144400 -0.88202200 0.37677500
v -0.33144400 -0.88202200 0.37677500
v -0.33144400 -0.88202200 0.37677500
v -0.33144400 -0.88202200 0.37677500
v 0.39729400 0.86743900 0.37677500
v 0.39729400 0.86743900 0.37677500
v 0.39729400 0.86743900 0.37677500
v 0.39729400 0.86743900 0.37677500
v 0.39729400 -0.88202200 0.37677500
v 0.39729400 -0.88202200 0.37677500
v 0.39729400 -0.88202200 0.37677500
v 0.39729400 -0.88202200 0.37677500
v -0.33144400 0.86743900 0.37677500
v -0.33144400 0.86743900 0.37677500
v -0.33144400 0.86743900 0.37677500
v -0.33144400 0.86743900 0.37677500
v -0.33144400 0.86743900 0.33260900
v -0.33144400 0.86743900 0.33260900
v 0.39729400 -0.88202200 0.33260900
v 0.39729400 -0.88202200 0.33260900
v -0.33144400 -0.88202200 0.33260900
v -0.33144400 -0.88202200 0.33260900
v 0.39729400 0.86743900 0.33260900
v 0.39729400 0.86743900 0.33260900
v -0.33144400 -0.88202200 0.37677500
v -0.33144400 -0.88202200 0.37677500
v 0.39729400 0.86743900 0.37677500
v 0.39729400 0.86743900 0.37677500
v 0.39729400 -0.88202200 0.37677500
v 0.39729400 -0.88202200 0.37677500
v -0.33144400 0.86743900 0.37677500
v -0.33144400 0.86743900 0.37677500
v 0.28687900 -0.74707000 0.42570400
v 0.28687900 -0.74707000 0.42570400
v 0.28687900 -0.74707000 0.42570400
v 0.28687900 -0.26124500 0.45024000
v 0.28687900 -0.26124500 0.45024000
v 0.28687900 -0.26124500 0.45024000
v 0.28687900 -0.26124500 0.42570400
v 0.28687900 -0.26124500 0.42570400
v 0.28687900 -0.26124500 0.42570400
v 0.28687900 -0.74707000 0.45024000
v 0.28687900 -0.74707000 0.45024000
v 0.28687900 -0.74707000 0.45024000
v 0.31141600 -0.26124500 0.42570400
v 0.31141600 -0.26124500 0.42570400
v 0.31141600 -0.26124500 0.42570400
v 0.31141600 -0.74707000 0.45024000
v 0.31141600 -0.74707000 0.45024000
v 0.31141600 -0.74707000 0.45024000
v 0.31141600 -0.26124500 0.45024000
v 0.31141600 -0.26124500 0.45024000
v 0.31141600 -0.26124500 0.45024000
v 0.31141600 -0.74707000 0.42570400
v 0.31141600 -0.74707000 0.42570400
v 0.31141600 -0.74707000 0.42570400
v 0.28687900 -0.74707000 0.42570400
v 0.28687900 -0.74707000 0.42570400
v 0.28687900 -0.74707000 0.42570400
v 0.28687900 -0.26124500 0.45024000
v 0.28687900 -0.26124500 0.45024000
v 0.28687900 -0.26124500 0.45024000
v 0.28687900 -0.26124500 0.42570400
v 0.28687900 -0.26124500 0.42570400
v 0.28687900 -0.26124500 0.42570400
v 0.28687900 -0.74707000 0.45024000
v 0.28687900 -0.74707000 0.45024000
v 0.28687900 -0.74707000 0.45024000
v 0.31141600 -0.26124500 0.42570400
v 0.31141600 -0.26124500 0.42570400
v 0.31141600 -0.26124500 0.42570400
v 0.31141600 -0.74707000 0.45024000
v 0.31141600 -0.74707000 0.45024000
v 0.31141600 -0.74707000 0.45024000
v 0.31141600 -0.26124500 0.45024000
v 0.31141600 -0.26124500 0.45024000
v 0.31141600 -0.26124500 0.45024000
v 0.31141600 -0.74707000 0.42570400
v 0.31141600 -0.74707000 0.42570400
v 0.31141600 -0.74707000 0.42570400
v 0.31141600 -0.28578200 0.42570400
v 0.31141600 -0.28578200 0.42570400
v 0.31141600 -0.28578200 0.42570400
v 0.31141600 -0.26124500 0.37663100
v 0.31141600 -0.26124500 0.37663100
v 0.31141600 -0.26124500 0.37663100
v 0.31141600 -0.26124500 0.42570400
v 0.31141600 -0.26124500 0.42570400
v 0.31141600 -0.26124500 0.42570400
v 0.31141600 -0.28578200 0.37663100
v 0.31141600 -0.28578200 0.37663100
v 0.31141600 -0.28578200 0.37663100
v 0.28687900 -0.26124500 0.42570400
v 0.28687900 -0.26124500 0.42570400
v 0.28687900 -0.26124500 0.42570400
v 0.28687900 -0.28578200 0.37663100
v 0.28687900 -0.28578200 0.37663100
v 0.28687900 -0.28578200 0.37663100
v 0.28687900 -0.26124500 0.37663100
v 0.28687900 -0.26124500 0.37663100
v 0.28687900 -0.26124500 0.37663100
v 0.28687900 -0.28578200 0.42570400
v 0.28687900 -0.28578200 0.42570400
v 0.28687900 -0.28578200 0.42570400
v 0.31141600 -0.28578200 0.42570400
v 0.31141600 -0.28578200 0.42570400
v 0.31141600 -0.28578200 0.42570400
v 0.31141600 -0.26124500 0.37663100
v 0.31141600 -0.26124500 0.37663100
v 0.31141600 -0.26124500 0.37663100
v 0.31141600 -0.26124500 0.42570400
v 0.31141600 -0.26124500 0.42570400
v 0.31141600 -0.26124500 0.42570400
v 0.31141600 -0.28578200 0.37663100
v 0.31141600 -0.28578200 0.37663100
v 0.31141600 -0.28578200 0.37663100
v 0.28687900 -0.26124500 0.42570400
v 0.28687900 -0.26124500 0.42570400
v 0.28687900 -0.26124500 0.42570400
v 0.28687900 -0.28578200 0.37663100
v 0.28687900 -0.28578200 0.37663100
v 0.28687900 -0.28578200 0.37663100
v 0.28687900 -0.26124500 0.37663100
v 0.28687900 -0.26124500 0.37663100
v 0.28687900 -0.26124500 0.37663100
v 0.28687900 -0.28578200 0.42570400
v 0.28687900 -0.28578200 0.42570400
v 0.28687900 -0.28578200 0.42570400
v 0.28687900 -0.74707000 0.37663100
v 0.28687900 -0.74707000 0.37663100
v 0.28687900 -0.74707000 0.37663100
v 0.28687900 -0.74707000 0.37663100
v 0.28687900 -0.74707000 0.37663100
v 0.28687900 -0.74707000 0.37663100
v 0.31141600 -0.74707000 0.42570400
v 0.31141600 -0.74707000 0.42570400
v 0.31141600 -0.74707000 0.42570400
v 0.31141600 -0.74707000 0.42570400
v 0.31141600 -0.74707000 0.42570400
v 0.31141600 -0.74707000 0.42570400
v 0.28687900 -0.74707000 0.42570400
v 0.28687900 -0.74707000 0.42570400
v 0.28687900 -0.74707000 0.42570400
v 0.28687900 -0.74707000 0.42570400
v 0.28687900 -0.74707000 0.42570400
v 0.28687900 -0.74707000 0.42570400
v 0.31141600 -0.74707000 0.37663100
v 0.31141600 -0.74707000 0.37663100
v 0.31141600 -0.74707000 0.37663100
v 0.31141600 -0.74707000 0.37663100
v 0.31141600 -0.74707000 0.37663100
v 0.31141600 -0.74707000 0.37663100
v 0.28687900 -0.72253400 0.42570400
v 0.28687900 -0.72253400 0.42570400
v 0.28687900 -0.72253400 0.42570400
v 0.28687900 -0.72253400 0.42570400
v 0.28687900 -0.72253400 0.42570400
v 0.28687900 -0.72253400 0.42570400
v 0.31141600 -0.72253400 0.37663100
v 0.31141600 -0.72253400 0.37663100
v 0.31141600 -0.72253400 0.37663100
v 0.31141600 -0.72253400 0.37663100
v 0.31141600 -0.72253400 0.37663100
v 0.31141600 -0.72253400 0.37663100
v 0.31141600 -0.72253400 0.42570400
v 0.31141600 -0.72253400 0.42570400
v 0.31141600 -0.72253400 0.42570400
v 0.31141600 -0.72253400 0.42570400
v 0.31141600 -0.72253400 0.42570400
v 0.31141600 -0.72253400 0.42570400
v 0.28687900 -0.72253400 0.37663100
v 0.28687900 -0.72253400 0.37663100
v 0.28687900 -0.72253400 0.37663100
v 0.28687900 -0.72253400 0.37663100
v 0.28687900 -0.72253400 0.37663100
v 0.28687900 -0.72253400 0.37663100
vn 0.00000000 1.00000000 0.00000000
vn 0.00000000 -1.00000000 0.00000000
vn -1.00000000 0.00000000 0.00000000
vn 1.00000000 0.00000000 0.00000000
vn 0.00000000 -1.00000000 0.00000000
vn -1.00000000 0.00000000 0.00000000
vn 1.00000000 0.00000000 0.00000000
vn 0.00000000 1.00000000 0.00000000
vn -1.00000000 0.00000000 0.00000000
vn 0.00000000 -1.00000000 0.00000000
vn 0.00000000 1.00000000 0.00000000
vn 1.00000000 0.00000000 0.00000000
vn -1.00000000 0.00000000 0.00000000
vn 1.00000000 0.00000000 0.00000000
vn 0.00000000 -1.00000000 0.00000000
vn 0.00000000 1.00000000 0.00000000
vn 0.00000000 1.00000000 0.00000000
vn 1.00000000 0.00000000 0.00000000
vn 0.00000000 -1.00000000 0.00000000
vn -1.00000000 0.00000000 0.00000000
vn -1.00000000 0.00000000 0.00000000
vn 1.00000000 0.00000000 0.00000000
vn 0.00000000 1.00000000 0.00000000
vn 0.00000000 -1.00000000 0.00000000
vn -1.00000000 0.00000000 0.00000000
vn 0.00000000 1.00000000 0.00000000
vn 0.00000000 -1.00000000 0.00000000
vn 1.00000000 0.00000000 0.00000000
vn 0.00000000 -1.00000000 0.00000000
vn 1.00000000 0.00000000 0.00000000
vn -1.00000000 0.00000000 0.00000000
vn 0.00000000 1.00000000 0.00000000
vn 0.00000000 0.00000000 -1.00000000
vn 0.00000000 0.00000000 1.00000000
vn 0.00000000 0.00000000 -1.00000000
vn 0.00000000 0.00000000 1.00000000
vn 0.00000000 0.00000000 -1.00000000
vn 0.00000000 0.00000000 1.00000000
vn 0.00000000 0.00000000 -1.00000000
vn 0.00000000 0.00000000 1.00000000
vn 0.00000000 0.00000000 -1.00000000
vn 0.00000000 0.00000000 1.00000000
vn 0.00000000 0.00000000 -1.00000000
vn 0.00000000 0.00000000 1.00000000
vn 0.00000000 0.00000000 -1.00000000
vn 0.00000000 0.00000000 1.00000000
vn 0.00000000 0.00000000 -1.00000000
vn 0.00000000 0.00000000 1.00000000
vn 1.00000000 0.00000000 0.00000000
vn 0.00000000 1.00000000 0.00000000
vn 0.00000000 0.00000000 1.00000000
vn 1.00000000 0.00000000 0.00000000
vn 0.00000000 0.00000000 -1.00000000
vn 0.00000000 -1.00000000 0.00000000
vn 0.00000000 0.00000000 1.00000000
vn 1.00000000 0.00000000 0.00000000
vn 0.00000000 -1.00000000 0.00000000
vn 1.00000000 0.00000000 0.00000000
vn 0.00000000 1.00000000 0.00000000
vn 0.00000000 0.00000000 -1.00000000
vn 0.00000000 0.00000000 1.00000000
vn 0.00000000 -1.00000000 0.00000000
vn -1.00000000 0.00000000 0.00000000
vn 0.00000000 1.00000000 0.00000000
vn -1.00000000 0.00000000 0.00000000
vn 0.00000000 0.00000000 -1.00000000
vn 0.00000000 -1.00000000 0.00000000
vn -1.00000000 0.00000000 0.00000000
vn 0.00000000 0.00000000 -1.00000000
vn 0.00000000 1.00000000 0.00000000
vn -1.00000000 0.00000000 0.00000000
vn 0.00000000 0.00000000 1.00000000
vn -1.00000000 0.00000000 0.00000000
vn 0.00000000 -1.00000000 0.00000000
vn 0.00000000 0.00000000 -1.00000000
vn 0.00000000 1.00000000 0.00000000
vn 0.00000000 0.00000000 1.00000000
vn -1.00000000 0.00000000 0.00000000
vn 0.00000000 1.00000000 0.00000000
vn 0.00000000 0.00000000 -1.00000000
vn -1.00000000 0.00000000 0.00000000
vn -1.00000000 0.00000000 0.00000000
vn 0.00000000 -1.00000000 0.00000000
vn 0.00000000 0.00000000 1.00000000
vn 0.00000000 1.00000000 0.00000000
vn 0.00000000 0.00000000 -1.00000000
vn 1.00000000 0.00000000 0.00000000
vn 1.00000000 0.00000000 0.00000000
vn 0.00000000 -1.00000000 0.00000000
vn 0.00000000 0.00000000 1.00000000
vn 0.00000000 0.00000000 1.00000000
vn 1.00000000 0.00000000 0.00000000
vn 0.00000000 1.00000000 0.00000000
vn 1.00000000 0.00000000 0.00000000
vn 0.00000000 -1.00000000 0.00000000
vn 0.00000000 0.00000000 -1.00000000
vn -1.00000000 0.00000000 0.00000000
vn 0.00000000 1.00000000 0.00000000
vn 0.00000000 0.00000000 -1.00000000
vn -1.00000000 0.00000000 0.00000000
vn 0.00000000 0.00000000 1.00000000
vn 0.00000000 -1.00000000 0.00000000
vn 0.00000000 0.00000000 -1.00000000
vn -1.00000000 0.00000000 0.00000000
vn 0.00000000 -1.00000000 0.00000000
vn -1.00000000 0.00000000 0.00000000
vn 0.00000000 1.00000000 0.00000000
vn 0.00000000 0.00000000 1.00000000
vn 0.00000000 0.00000000 -1.00000000
vn 0.00000000 -1.00000000 0.00000000
vn 1.00000000 0.00000000 0.00000000
vn 0.00000000 1.00000000 0.00000000
vn 1.00000000 0.00000000 0.00000000
vn 0.00000000 0.00000000 1.00000000
vn 0.00000000 -1.00000000 0.00000000
vn 1.00000000 0.00000000 0.00000000
vn 0.00000000 0.00000000 1.00000000
vn 0.00000000 1.00000000 0.00000000
vn 1.00000000 0.00000000 0.00000000
vn 0.00000000 0.00000000 -1.00000000
vn 1.00000000 0.00000000 0.00000000
vn 0.00000000 -1.00000000 0.00000000
vn 0.00000000 0.00000000 1.00000000
vn 0.00000000 1.00000000 0.00000000
vn 0.00000000 0.00000000 -1.00000000
vn 1.00000000 0.00000000 0.00000000
vn 0.00000000 1.00000000 0.00000000
vn 0.00000000 0.00000000 1.00000000
vn 1.00000000 0.00000000 0.00000000
vn 1.00000000 0.00000000 0.00000000
vn 0.00000000 0.00000000 -1.00000000
vn 0.00000000 -1.00000000 0.00000000
vn 0.00000000 1.00000000 0.00000000
vn 0.00000000 0.00000000 1.00000000
vn -1.00000000 0.00000000 0.00000000
vn 0.00000000 0.00000000 -1.00000000
vn -1.00000000 0.00000000 0.00000000
vn 0.00000000 -1.00000000 0.00000000
vn 0.00000000 0.00000000 -1.00000000
vn 0.00000000 1.00000000 0.00000000
vn -1.00000000 0.00000000 0.00000000
vn 0.00000000 0.00000000 1.00000000
vn 0.00000000 -1.00000000 0.00000000
vn -1.00000000 0.00000000 0.00000000
vn 0.00000000 -1.00000000 0.00000000
vn -1.00000000 0.00000000 0.00000000
vn 0.00000000 0.00000000 -1.00000000
vn 1.00000000 0.00000000 0.00000000
vn 0.00000000 0.00000000 1.00000000
vn 0.00000000 1.00000000 0.00000000
vn -1.00000000 0.00000000 0.00000000
vn 0.00000000 0.00000000 -1.00000000
vn 0.00000000 0.00000000 1.00000000
vn 1.00000000 0.00000000 0.00000000
vn 0.00000000 -1.00000000 0.00000000
vn 0.00000000 1.00000000 0.00000000
vn 0.00000000 1.00000000 0.00000000
vn 1.00000000 0.00000000 0.00000000
vn -1.00000000 0.00000000 0.00000000
vn 0.00000000 -1.00000000 0.00000000
vn 0.00000000 0.00000000 1.00000000
vn 0.00000000 0.00000000 -1.00000000
vn -1.00000000 0.00000000 0.00000000
vn 1.00000000 0.00000000 0.00000000
vn 0.00000000 0.00000000 -1.00000000
vn 0.00000000 -1.00000000 0.00000000
vn 0.00000000 1.00000000 0.00000000
vn 0.00000000 0.00000000 1.00000000
vn 0.00000000 0.00000000 1.00000000
vn 0.00000000 -1.00000000 0.00000000
vn -1.00000000 0.00000000 0.00000000
vn 0.00000000 0.00000000 -1.00000000
vn 0.00000000 1.00000000 0.00000000
vn 1.00000000 0.00000000 0.00000000
vn -1.00000000 0.00000000 0.00000000
vn 0.00000000 1.00000000 0.00000000
vn 1.00000000 0.00000000 0.00000000
vn 0.00000000 0.00000000 -1.00000000
vn 0.00000000 -1.00000000 0.00000000
vn 0.00000000 0.00000000 1.00000000
vn 0.00000000 1.00000000 0.00000000
vn 0.00000000 0.00000000 -1.00000000
vn 0.00000000 -1.00000000 0.00000000
vn -1.00000000 0.00000000 0.00000000
vn 1.00000000 0.00000000 0.00000000
vn 0.00000000 0.00000000 1.00000000
vn 0.00000000 0.00000000 1.00000000
vn 0.00000000 0.00000000 -1.00000000
vn 0.00000000 1.00000000 0.00000000
vn 0.00000000 -1.00000000 0.00000000
vn -1.00000000 0.00000000 0.00000000
vn 1.00000000 0.00000000 0.00000000
vt 0.19630647 0.43926297
vt 0.19630647 0.43926297
vt 0.00488069 0.43926297
vt 0.00488069 0.43926297
vt 0.19630647 0.43926297
vt 0.00488069 0.43926297
vt 0.00488069 0.43926297
vt 0.19630647 0.43926297
vt 0.19630647 0.43926297
vt 0.00488069 0.43926297
vt 0.00488069 0.43926297
vt 0.19630647 0.43926297
vt 0.19630647 0.43926297
vt 0.19630647 0.43926297
vt 0.00488069 0.43926297
vt 0.00488069 0.43926297
vt 0.00488069 0.46283998
vt 0.19630647 0.46283998
vt 0.00488069 0.46283998
vt 0.19630647 0.46283998
vt 0.19630647 0.46283998
vt 0.19630647 0.46283998
vt 0.00488069 0.46283998
vt 0.00488069 0.46283998
vt 0.00488069 0.46283998
vt 0.19630647 0.46283998
vt 0.19630647 0.46283998
vt 0.00488069 0.46283998
vt 0.19630647 0.46283998
vt 0.00488069 0.46283998
vt 0.00488069 0.46283998
vt 0.19630647 0.46283998
vt 0.25180687 0.10952820
vt 0.25180687 0.10952820
vt 0.00488557 0.04011062
vt 0.00488557 0.04011062
vt 0.00488557 0.10952820
vt 0.00488557 0.10952820
vt 0.25180687 0.04011062
vt 0.25180687 0.04011062
vt 0.14469279 0.04011062
vt 0.14469279 0.04011062
vt 0.00488557 0.10952820
vt 0.00488557 0.10952820
vt 0.14469279 0.10952820
vt 0.14469279 0.10952820
vt 0.00488557 0.04011062
vt 0.00488557 0.04011062
vt 0.00489046 0.47455778
vt 0.00489046 0.47455778
vt 0.00489046 0.47455778
vt 0.00489046 0.47455778
vt 0.00489046 0.47455778
vt 0.00489046 0.47455778
vt 0.00489046 0.47455778
vt 0.00489046 0.47455778
vt 0.00489046 0.47455778
vt 0.00489046 0.47455778
vt 0.00489046 0.47455778
vt 0.00489046 0.47455778
vt 0.00489046 0.47455778
vt 0.00489046 0.47455778
vt 0.00489046 0.47455778
vt 0.00489046 0.47455778
vt 0.00489046 0.47455778
vt 0.00489046 0.47455778
vt 0.00489046 0.47455778
vt 0.00489046 0.47455778
vt 0.00489046 0.47455778
vt 0.00489046 0.47455778
vt 0.00489046 0.47455778
vt 0.00489046 0.47455778
vt 0.88193296 0.00754515
vt 0.40676238 0.50014539
vt 0.88193296 0.50014539
vt 0.40410386 0.50014539
vt 0.88193296 0.50014539
vt 0.42237614 0.00488664
vt 0.89754673 0.50014539
vt 0.42237614 0.50014539
vt 0.42237614 0.00754515
vt 0.88193296 0.00488664
vt 0.40410386 0.50014539
vt 0.42237614 0.50014539
vt 0.89754673 0.00572928
vt 0.42237614 0.00572928
vt 0.88193296 0.00754515
vt 0.42237614 0.00488664
vt 0.40410386 0.00572928
vt 0.42237614 0.00572928
vt 0.88193296 0.00572928
vt 0.88193296 0.00488664
vt 0.40410386 0.00572928
vt 0.42237614 0.00754515
vt 0.40676238 0.00572928
vt 0.88193296 0.00572928
vt 0.00489046 0.47455778
vt 0.00489046 0.47455778
vt 0.00489046 0.47455778
vt 0.00489046 0.47455778
vt 0.00489046 0.47455778
vt 0.00489046 0.47455778
vt 0.00489046 0.47455778
vt 0.00489046 0.47455778
vt 0.00489046 0.47455778
vt 0.00489046 0.47455778
vt 0.00489046 0.47455778
vt 0.00489046 0.47455778
vt 0.00489046 0.47455778
vt 0.00489046 0.47455778
vt 0.00489046 0.47455778
vt 0.00489046 0.47455778
vt 0.00489046 0.47455778
vt 0.00489046 0.47455778
vt 0.00489046 0.47455778
vt 0.00489046 0.47455778
vt 0.00489046 0.47455778
vt 0.00489046 0.47455778
vt 0.00489046 0.47455778
vt 0.00489046 0.47455778
vt 0.40690482 0.49288287
vt 0.89210009 0.00572928
vt 0.40690482 0.00572928
vt 0.40410386 0.00572928
vt 0.40410386 0.00572928
vt 0.40410386 0.00488664
vt 0.41220902 0.00572928
vt 0.40410386 0.00572928
vt 0.40410386 0.49288287
vt 0.40690482 0.00488664
vt 0.89740429 0.00572928
vt 0.40410386 0.00572928
vt 0.41220902 0.50014539
vt 0.40410386 0.50014539
vt 0.40410386 0.49288287
vt 0.89740429 0.50014539
vt 0.89740429 0.00488664
vt 0.40410386 0.50014539
vt 0.40410386 0.50014539
vt 0.40410386 0.50014539
vt 0.40410386 0.00488664
vt 0.40690482 0.50014539
vt 0.89210009 0.50014539
vt 0.89740429 0.49288287
vt 0.00489046 0.47455778
vt 0.00489046 0.47455778
vt 0.00489046 0.47455778
vt 0.00489046 0.47455778
vt 0.00489046 0.47455778
vt 0.00489046 0.47455778
vt 0.00489046 0.47455778
vt 0.00489046 0.47455778
vt 0.00489046 0.47455778
vt 0.00489046 0.47455778
vt 0.00489046 0.47455778
vt 0.00489046 0.47455778
vt 0.00489046 0.47455778
vt 0.00489046 0.47455778
vt 0.00489046 0.47455778
vt 0.00489046 0.47455778
vt 0.00489046 0.47455778
vt 0.00489046 0.47455778
vt 0.00489046 0.47455778
vt 0.00489046 0.47455778
vt 0.00489046 0.47455778
vt 0.00489046 0.47455778
vt 0.00489046 0.47455778
vt 0.00489046 0.47455778
vt 0.00489046 0.47455778
vt 0.00489046 0.47455778
vt 0.00489046 0.47455778
vt 0.00489046 0.47455778
vt 0.00489046 0.47455778
vt 0.00489046 0.47455778
vt 0.00489046 0.47455778
vt 0.00489046 0.47455778
vt 0.00489046 0.47455778
vt 0.00489046 0.47455778
vt 0.00489046 0.47455778
vt 0.00489046 0.47455778
vt 0.00489046 0.47455778
vt 0.00489046 0.47455778
vt 0.00489046 0.47455778
vt 0.00489046 0.47455778
vt 0.00489046 0.47455778
vt 0.00489046 0.47455778
vt 0.00489046 0.47455778
vt 0.00489046 0.47455778
vt 0.00489046 0.47455778
vt 0.00489046 0.47455778
vt 0.00489046 0.47455778
vt 0.00489046 0.47455778
f 5/5/5 19/19/19 10/10/10
f 11/11/11 17/17/17 8/8/8
f 20/20/20 3/3/3 9/9/9
f 12/12/12 4/4/4 18/18/18
f 1/1/1 23/23/23 16/16/16
f 15/15/15 24/24/24 2/2/2
f 22/22/22 7/7/7 14/14/14
f 13/13/13 6/6/6 21/21/21
f 19/19/19 5/5/5 27/27/27
f 26/26/26 8/8/8 17/17/17
f 3/3/3 20/20/20 31/31/31
f 30/30/30 18/18/18 4/4/4
f 23/23/23 1/1/1 32/32/32
f 29/29/29 2/2/2 24/24/24
f 7/7/7 22/22/22 28/28/28
f 25/25/25 21/21/21 6/6/6
f 33/33/33 35/35/35 37/37/37
f 35/35/35 33/33/33 39/39/39
f 38/38/38 36/36/36 34/34/34
f 40/40/40 34/34/34 36/36/36
f 44/44/44 42/42/42 46/46/46
f 45/45/45 41/41/41 43/43/43
f 42/42/42 44/44/44 48/48/48
f 47/47/47 43/43/43 41/41/41
f 56/56/56 52/52/52 49/49/49
f 58/58/58 49/49/49 52/52/52
f 57/57/57 62/62/62 54/54/54
f 55/55/55 51/51/51 61/61/61
f 59/59/59 64/64/64 50/50/50
f 60/60/60 53/53/53 66/66/66
f 67/67/67 54/54/54 62/62/62
f 72/72/72 61/61/61 51/51/51
f 70/70/70 50/50/50 64/64/64
f 69/69/69 66/66/66 53/53/53
f 68/68/68 63/63/63 65/65/65
f 71/71/71 65/65/65 63/63/63
f 73/73/73 78/78/78 81/81/81
f 78/78/78 73/73/73 82/82/82
f 76/76/76 85/85/85 79/79/79
f 86/86/86 75/75/75 80/80/80
f 74/74/74 89/89/89 83/83/83
f 90/90/90 77/77/77 84/84/84
f 85/85/85 76/76/76 93/93/93
f 75/75/75 86/86/86 96/96/96
f 89/89/89 74/74/74 95/95/95
f 77/77/77 90/90/90 91/91/91
f 88/88/88 87/87/87 92/92/92
f 87/87/87 88/88/88 94/94/94
f 104/104/104 100/100/100 97/97/97
f 106/106/106 97/97/97 100/100/100
f 105/105/105 110/110/110 102/102/102
f 103/103/103 99/99/99 109/109/109
f 107/107/107 112/112/112 98/98/98
f 108/108/108 101/101/101 114/114/114
f 115/115/115 102/102/102 110/110/110
f 120/120/120 109/109/109 99/99/99
f 118/118/118 98/98/98 112/112/112
f 117/117/117 114/114/114 101/101/101
f 116/116/116 111/111/111 113/113/113
f 119/119/119 113/113/113 111/111/111
f 121/121/121 126/126/126 129/129/129
f 126/126/126 121/121/121 130/130/130
f 124/124/124 133/133/133 127/127/127
f 134/134/134 123/123/123 128/128/128
f 122/122/122 138/138/138 132/132/132
f 136/136/136 125/125/125 131/131/131
f 133/133/133 124/124/124 140/140/140
f 123/123/123 134/134/134 142/142/142
f 138/138/138 122/122/122 143/143/143
f 125/125/125 136/136/136 139/139/139
f 137/137/137 135/135/135 141/141/141
f 135/135/135 137/137/137 144/144/144
f 145/145/145 155/155/155 160/160/160
f 155/155/155 145/145/145 166/166/166
f 157/157/157 156/156/156 150/150/150
f 167/167/167 150/150/150 156/156/156
f 153/153/153 169/169/169 161/161/161
f 162/162/162 172/172/172 152/152/152
f 171/171/171 146/146/146 159/159/159
f 158/158/158 148/148/148 174/174/174
f 147/147/147 178/178/178 165/165/165
f 168/168/168 180/180/180 149/149/149
f 177/177/177 154/154/154 164/164/164
f 163/163/163 151/151/151 175/175/175
f 169/169/169 153/153/153 186/186/186
f 182/182/182 152/152/152 172/172/172
f 146/146/146 171/171/171 191/191/191
f 192/192/192 174/174/174 148/148/148
f 178/178/178 147/147/147 188/188/188
f 187/187/187 149/149/149 180/180/180
f 154/154/154 177/177/177 185/185/185
f 184/184/184 175/175/175 151/151/151
f 176/176/176 173/173/173 181/181/181
f 183/183/183 170/170/170 179/179/179
f 173/173/173 176/176/176 189/189/189
f 190/190/190 179/179/179 170/170/170

