# https://github.com/mikedh/trimesh
mtllib material.mtl
usemtl material_0
v -0.02125500 0.56242100 0.05094400
v -0.70532100 0.51174900 0.05094400
v -0.02125500 0.51174900 0.05094400
v -0.70532100 0.56242100 0.05094400
v -0.02125500 0.56242100 0.05094400
v -0.70532100 0.56242100 0.00027200
v -0.70532100 0.56242100 0.05094400
v -0.02125500 0.56242100 0.00027200
v -0.70532100 0.56242100 0.00027200
v -0.70532100 0.51174900 0.05094400
v -0.70532100 0.56242100 0.05094400
v -0.70532100 0.51174900 0.00027200
v -0.02125500 0.51174900 0.00027200
v -0.70532100 0.51174900 0.05094400
v -0.70532100 0.51174900 0.00027200
v -0.02125500 0.51174900 0.05094400
v -0.02125500 0.51174900 0.00027200
v -0.02125500 0.56242100 0.05094400
v -0.02125500 0.51174900 0.05094400
v -0.02125500 0.56242100 0.00027200
v -0.70532100 0.56242100 0.00027200
v -0.02125500 0.51174900 0.00027200
v -0.70532100 0.51174900 0.00027200
v -0.02125500 0.56242100 0.00027200
v -0.75599300 0.56242100 0.00027200
v -0.70532100 -0.55235400 0.00027200
v -0.75599300 -0.55235400 0.00027200
v -0.70532100 0.56242100 0.00027200
v -0.75599300 0.56242100 0.00027200
v -0.75599300 -0.55235400 0.05094400
v -0.75599300 0.56242100 0.05094400
v -0.75599300 -0.55235400 0.00027200
v -0.70532100 0.56242100 0.05094400
v -0.75599300 0.56242100 0.00027200
v -0.75599300 0.56242100 0.05094400
v -0.70532100 0.56242100 0.00027200
v -0.70532100 -0.55235400 0.00027200
v -0.70532100 0.56242100 0.05094400
v -0.70532100 -0.55235400 0.05094400
v -0.70532100 0.56242100 0.00027200
v -0.70532100 -0.55235400 0.00027200
v -0.75599300 -0.55235400 0.05094400
v -0.75599300 -0.55235400 0.00027200
v -0.70532100 -0.55235400 0.05094400
v -0.70532100 0.56242100 0.05094400
v -0.75599300 -0.55235400 0.05094400
v -0.70532100 -0.55235400 0.05094400
v -0.75599300 0.56242100 0.05094400
v -0.02125500 0.51174900 0.03067500
v -0.70532100 -0.50168300 0.03067500
v -0.02125500 -0.50168300 0.03067500
v -0.70532100 0.51174900 0.03067500
v -0.70532100 0.51174900 0.03067500
v -0.02125500 0.51174900 0.03067500
v -0.70532100 -0.50168300 0.03067500
v -0.02125500 -0.50168300 0.03067500
v -0.02125500 0.51174900 0.03067500
v -0.70532100 0.51174900 0.02054100
v -0.70532100 0.51174900 0.03067500
v -0.02125500 0.51174900 0.02054100
v -0.02125500 0.51174900 0.02054100
v -0.02125500 0.51174900 0.03067500
v -0.70532100 0.51174900 0.02054100
v -0.70532100 0.51174900 0.03067500
v -0.70532100 0.51174900 0.02054100
v -0.70532100 -0.50168300 0.03067500
v -0.70532100 0.51174900 0.03067500
v -0.70532100 -0.50168300 0.02054100
v -0.70532100 -0.50168300 0.02054100
v -0.70532100 0.51174900 0.02054100
v -0.70532100 -0.50168300 0.03067500
v -0.70532100 0.51174900 0.03067500
v -0.02125500 -0.50168300 0.02054100
v -0.70532100 -0.50168300 0.03067500
v -0.70532100 -0.50168300 0.02054100
v -0.02125500 -0.50168300 0.03067500
v -0.02125500 -0.50168300 0.03067500
v -0.02125500 -0.50168300 0.02054100
v -0.70532100 -0.50168300 0.03067500
v -0.70532100 -0.50168300 0.02054100
v -0.02125500 -0.50168300 0.02054100
v -0.02125500 0.51174900 0.03067500
v -0.02125500 -0.50168300 0.03067500
v -0.02125500 0.51174900 0.02054100
v -0.02125500 0.51174900 0.02054100
v -0.02125500 -0.50168300 0.02054100
v -0.02125500 0.51174900 0.03067500
v -0.02125500 -0.50168300 0.03067500
v -0.70532100 0.51174900 0.02054100
v -0.02125500 -0.50168300 0.02054100
v -0.70532100 -0.50168300 0.02054100
v -0.02125500 0.51174900 0.02054100
v -0.02125500 0.51174900 0.02054100
v -0.70532100 0.51174900 0.02054100
v -0.02125500 -0.50168300 0.02054100
v -0.70532100 -0.50168300 0.02054100
v 0.02941700 0.56242100 0.05094400
v -0.02125500 -0.55235400 0.05094400
v 0.02941700 -0.55235400 0.05094400
v -0.02125500 0.56242100 0.05094400
v -0.02125500 0.56242100 0.00027200
v -0.02125500 -0.55235400 0.05094400
v -0.02125500 0.56242100 0.05094400
v -0.02125500 -0.55235400 0.00027200
v 0.02941700 -0.55235400 0.00027200
v -0.02125500 -0.55235400 0.05094400
v -0.02125500 -0.55235400 0.00027200
v 0.02941700 -0.55235400 0.05094400
v 0.02941700 -0.55235400 0.00027200
v 0.02941700 0.56242100 0.05094400
v 0.02941700 -0.55235400 0.05094400
v 0.02941700 0.56242100 0.00027200
v 0.02941700 0.56242100 0.05094400
v -0.02125500 0.56242100 0.00027200
v -0.02125500 0.56242100 0.05094400
v 0.02941700 0.56242100 0.00027200
v -0.02125500 0.56242100 0.00027200
v 0.02941700 -0.55235400 0.00027200
v -0.02125500 -0.55235400 0.00027200
v 0.02941700 0.56242100 0.00027200
v -0.02125500 -0.50168300 0.05094400
v -0.70532100 -0.55235400 0.05094400
v -0.02125500 -0.55235400 0.05094400
v -0.70532100 -0.50168300 0.05094400
v -0.02125500 -0.50168300 0.05094400
v -0.70532100 -0.50168300 0.00027200
v -0.70532100 -0.50168300 0.05094400
v -0.02125500 -0.50168300 0.00027200
v -0.70532100 -0.50168300 0.00027200
v -0.70532100 -0.55235400 0.05094400
v -0.70532100 -0.50168300 0.05094400
v -0.70532100 -0.55235400 0.00027200
v -0.02125500 -0.55235400 0.00027200
v -0.70532100 -0.55235400 0.05094400
v -0.70532100 -0.55235400 0.00027200
v -0.02125500 -0.55235400 0.05094400
v -0.02125500 -0.55235400 0.00027200
v -0.02125500 -0.50168300 0.05094400
v -0.02125500 -0.55235400 0.05094400
v -0.02125500 -0.50168300 0.00027200
v -0.70532100 -0.50168300 0.00027200
v -0.02125500 -0.55235400 0.00027200
v -0.70532100 -0.55235400 0.00027200
v -0.02125500 -0.50168300 0.00027200
vn 0.00000000 0.00000000 1.00000000
vn 0.00000000 0.00000000 1.00000000
vn 0.00000000 0.00000000 1.00000000
vn 0.00000000 0.00000000 1.00000000
vn 0.00000000 1.00000000 0.00000000
vn 0.00000000 1.00000000 0.00000000
vn 0.00000000 1.00000000 0.00000000
vn 0.00000000 1.00000000 0.00000000
vn -1.00000000 0.00000000 0.00000000
vn -1.00000000 0.00000000 0.00000000
vn -1.00000000 0.00000000 0.00000000
vn -1.00000000 0.00000000 0.00000000
vn 0.00000000 -1.00000000 0.00000000
vn 0.00000000 -1.00000000 0.00000000
vn 0.00000000 -1.00000000 0.00000000
vn 0.00000000 -1.00000000 0.00000000
vn 1.00000000 0.00000000 0.00000000
vn 1.00000000 0.00000000 0.00000000
vn 1.00000000 0.00000000 0.00000000
vn 1.00000000 0.00000000 0.00000000
vn 0.00000000 0.00000000 -1.00000000
vn 0.00000000 0.00000000 -1.00000000
vn 0.00000000 0.00000000 -1.00000000
vn 0.00000000 0.00000000 -1.00000000
vn 0.00000000 0.00000000 -1.00000000
vn 0.00000000 0.00000000 -1.00000000
vn 0.00000000 0.00000000 -1.00000000
vn 0.00000000 0.00000000 -1.00000000
vn -1.00000000 0.00000000 0.00000000
vn -1.00000000 0.00000000 0.00000000
vn -1.00000000 0.00000000 0.00000000
vn -1.00000000 0.00000000 0.00000000
vn 0.00000000 1.00000000 0.00000000
vn 0.00000000 1.00000000 0.00000000
vn 0.00000000 1.00000000 0.00000000
vn 0.00000000 1.00000000 0.00000000
vn 1.00000000 0.00000000 0.00000000
vn 1.00000000 0.00000000 0.00000000
vn 1.00000000 0.00000000 0.00000000
vn 1.00000000 0.00000000 0.00000000
vn 0.00000000 -1.00000000 0.00000000
vn 0.00000000 -1.00000000 0.00000000
vn 0.00000000 -1.00000000 0.00000000
vn 0.00000000 -1.00000000 0.00000000
vn 0.00000000 0.00000000 1.00000000
vn 0.00000000 0.00000000 1.00000000
vn 0.00000000 0.00000000 1.00000000
vn 0.00000000 0.00000000 1.00000000
vn 0.00000000 0.00000000 1.00000000
vn 0.00000000 0.00000000 1.00000000
vn 0.00000000 0.00000000 1.00000000
vn 0.00000000 0.00000000 1.00000000
vn 0.00000000 0.00000000 -1.00000000
vn 0.00000000 0.00000000 -1.00000000
vn 0.00000000 0.00000000 -1.00000000
vn 0.00000000 0.00000000 -1.00000000
vn 0.00000000 1.00000000 0.00000000
vn 0.00000000 1.00000000 0.00000000
vn 0.00000000 1.00000000 0.00000000
vn 0.00000000 1.00000000 0.00000000
vn 0.00000000 -1.00000000 0.00000000
vn 0.00000000 -1.00000000 0.00000000
vn 0.00000000 -1.00000000 0.00000000
vn 0.00000000 -1.00000000 0.00000000
vn -1.00000000 0.00000000 0.00000000
vn -1.00000000 0.00000000 0.00000000
vn -1.00000000 0.00000000 0.00000000
vn -1.00000000 0.00000000 0.00000000
vn 1.00000000 0.00000000 0.00000000
vn 1.00000000 0.00000000 0.00000000
vn 1.00000000 0.00000000 0.00000000
vn 1.00000000 0.00000000 0.00000000
vn 0.00000000 -1.00000000 0.00000000
vn 0.00000000 -1.00000000 0.00000000
vn 0.00000000 -1.00000000 0.00000000
vn 0.00000000 -1.00000000 0.00000000
vn 0.00000000 1.00000000 0.00000000
vn 0.00000000 1.00000000 0.00000000
vn 0.00000000 1.00000000 0.00000000
vn 0.00000000 1.00000000 0.00000000
vn 1.00000000 0.00000000 0.00000000
vn 1.00000000 0.00000000 0.00000000
vn 1.00000000 0.00000000 0.00000000
vn 1.00000000 0.00000000 0.00000000
vn -1.00000000 0.00000000 0.00000000
vn -1.00000000 0.00000000 0.00000000
vn -1.00000000 0.00000000 0.00000000
vn -1.00000000 0.00000000 0.00000000
vn 0.00000000 0.00000000 -1.00000000
vn 0.00000000 0.00000000 -1.00000000
vn 0.00000000 0.00000000 -1.00000000
vn 0.00000000 0.00000000 -1.00000000
vn 0.00000000 0.00000000 1.00000000
vn 0.00000000 0.00000000 1.00000000
vn 0.00000000 0.00000000 1.00000000
vn 0.00000000 0.00000000 1.00000000
vn 0.00000000 0.00000000 1.00000000
vn 0.00000000 0.00000000 1.00000000
vn 0.00000000 0.00000000 1.00000000
vn 0.00000000 0.00000000 1.00000000
vn -1.00000000 0.00000000 0.00000000
vn -1.00000000 0.00000000 0.00000000
vn -1.00000000 0.00000000 0.00000000
vn -1.00000000 0.00000000 0.00000000
vn 0.00000000 -1.00000000 0.00000000
vn 0.00000000 -1.00000000 0.00000000
vn 0.00000000 -1.00000000 0.00000000
vn 0.00000000 -1.00000000 0.00000000
vn 1.00000000 0.00000000 0.00000000
vn 1.00000000 0.00000000 0.00000000
vn 1.00000000 0.00000000 0.00000000
vn 1.00000000 0.00000000 0.00000000
vn 0.00000000 1.00000000 0.00000000
vn 0.00000000 1.00000000 0.00000000
vn 0.00000000 1.00000000 0.00000000
vn 0.00000000 1.00000000 0.00000000
vn 0.00000000 0.00000000 -1.00000000
vn 0.00000000 0.00000000 -1.00000000
vn 0.00000000 0.00000000 -1.00000000
vn 0.00000000 0.00000000 -1.00000000
vn 0.00000000 0.00000000 1.00000000
vn 0.00000000 0.00000000 1.00000000
vn 0.00000000 0.00000000 1.00000000
vn 0.00000000 0.00000000 1.00000000
vn 0.00000000 1.00000000 0.00000000
vn 0.00000000 1.00000000 0.00000000
vn 0.00000000 1.00000000 0.00000000
vn 0.00000000 1.00000000 0.00000000
vn -1.00000000 0.00000000 0.00000000
vn -1.00000000 0.00000000 0.00000000
vn -1.00000000 0.00000000 0.00000000
vn -1.00000000 0.00000000 0.00000000
vn 0.00000000 -1.00000000 0.00000000
vn 0.00000000 -1.00000000 0.00000000
vn 0.00000000 -1.00000000 0.00000000
vn 0.00000000 -1.00000000 0.00000000
vn 1.00000000 0.00000000 0.00000000
vn 1.00000000 0.00000000 0.00000000
vn 1.00000000 0.00000000 0.00000000
vn 1.00000000 0.00000000 0.00000000
vn 0.00000000 0.00000000 -1.00000000
vn 0.00000000 0.00000000 -1.00000000
vn 0.00000000 0.00000000 -1.00000000
vn 0.00000000 0.00000000 -1.00000000
vt 0.16458333 0.34821429
vt 0.16458333 0.34821429
vt 0.16458333 0.34821429
vt 0.16458333 0.34821429
vt 0.16458333 0.34821429
vt 0.16458333 0.34821429
vt 0.16458333 0.34821429
vt 0.16458333 0.34821429
vt 0.16458333 0.34821429
vt 0.16458333 0.34821429
vt 0.16458333 0.34821429
vt 0.16458333 0.34821429
vt 0.16458333 0.34821429
vt 0.16458333 0.34821429
vt 0.16458333 0.34821429
vt 0.16458333 0.34821429
vt 0.16458333 0.34821429
vt 0.16458333 0.34821429
vt 0.16458333 0.34821429
vt 0.16458333 0.34821429
vt 0.16458333 0.34821429
vt 0.16458333 0.34821429
vt 0.16458333 0.34821429
vt 0.16458333 0.34821429
vt 0.16458333 0.34821429
vt 0.16458333 0.34821429
vt 0.16458333 0.34821429
vt 0.16458333 0.34821429
vt 0.16458333 0.34821429
vt 0.16458333 0.34821429
vt 0.16458333 0.34821429
vt 0.16458333 0.34821429
vt 0.16458333 0.34821429
vt 0.16458333 0.34821429
vt 0.16458333 0.34821429
vt 0.16458333 0.34821429
vt 0.16458333 0.34821429
vt 0.16458333 0.34821429
vt 0.16458333 0.34821429
vt 0.16458333 0.34821429
vt 0.16458333 0.34821429
vt 0.16458333 0.34821429
vt 0.16458333 0.34821429
vt 0.16458333 0.34821429
vt 0.16458333 0.34821429
vt 0.16458333 0.34821429
vt 0.16458333 0.34821429
vt 0.16458333 0.34821429
vt 0.56458333 0.34821429
vt 0.56458333 0.34821429
vt 0.56458333 0.34821429
vt 0.56458333 0.34821429
vt 0.56458333 0.34821429
vt 0.56458333 0.34821429
vt 0.56458333 0.34821429
vt 0.56458333 0.34821429
vt 0.56458333 0.34821429
vt 0.56458333 0.34821429
vt 0.56458333 0.34821429
vt 0.56458333 0.34821429
vt 0.56458333 0.34821429
vt 0.56458333 0.34821429
vt 0.56458333 0.34821429
vt 0.56458333 0.34821429
vt 0.56458333 0.34821429
vt 0.56458333 0.34821429
vt 0.56458333 0.34821429
vt 0.56458333 0.34821429
vt 0.56458333 0.34821429
vt 0.56458333 0.34821429
vt 0.56458333 0.34821429
vt 0.56458333 0.34821429
vt 0.56458333 0.34821429
vt 0.56458333 0.34821429
vt 0.56458333 0.34821429
vt 0.56458333 0.34821429
vt 0.56458333 0.34821429
vt 0.56458333 0.34821429
vt 0.56458333 0.34821429
vt 0.56458333 0.34821429
vt 0.56458333 0.34821429
vt 0.56458333 0.34821429
vt 0.56458333 0.34821429
vt 0.56458333 0.34821429
vt 0.56458333 0.34821429
vt 0.56458333 0.34821429
vt 0.56458333 0.34821429
vt 0.56458333 0.34821429
vt 0.56458333 0.34821429
vt 0.56458333 0.34821429
vt 0.56458333 0.34821429
vt 0.56458333 0.34821429
vt 0.56458333 0.34821429
vt 0.56458333 0.34821429
vt 0.56458333 0.34821429
vt 0.56458333 0.34821429
vt 0.16458333 0.34821429
vt 0.16458333 0.34821429
vt 0.16458333 0.34821429
vt 0.16458333 0.34821429
vt 0.16458333 0.34821429
vt 0.16458333 0.34821429
vt 0.16458333 0.34821429
vt 0.16458333 0.34821429
vt 0.16458333 0.34821429
vt 0.16458333 0.34821429
vt 0.16458333 0.34821429
vt 0.16458333 0.34821429
vt 0.16458333 0.34821429
vt 0.16458333 0.34821429
vt 0.16458333 0.34821429
vt 0.16458333 0.34821429
vt 0.16458333 0.34821429
vt 0.16458333 0.34821429
vt 0.16458333 0.34821429
vt 0.16458333 0.34821429
vt 0.16458333 0.34821429
vt 0.16458333 0.34821429
vt 0.16458333 0.34821429
vt 0.16458333 0.34821429
vt 0.16458333 0.34821429
vt 0.16458333 0.34821429
vt 0.16458333 0.34821429
vt 0.16458333 0.34821429
vt 0.16458333 0.34821429
vt 0.16458333 0.34821429
vt 0.16458333 0.34821429
vt 0.16458333 0.34821429
vt 0.16458333 0.34821429
vt 0.16458333 0.34821429
vt 0.16458333 0.34821429
vt 0.16458333 0.34821429
vt 0.16458333 0.34821429
vt 0.16458333 0.34821429
vt 0.16458333 0.34821429
vt 0.16458333 0.34821429
vt 0.16458333 0.34821429
vt 0.16458333 0.34821429
vt 0.16458333 0.34821429
vt 0.16458333 0.34821429
vt 0.16458333 0.34821429
vt 0.16458333 0.34821429
vt 0.16458333 0.34821429
vt 0.16458333 0.34821429
f 1/1/1 2/2/2 3/3/3
f 2/2/2 1/1/1 4/4/4
f 5/5/5 6/6/6 7/7/7
f 6/6/6 5/5/5 8/8/8
f 9/9/9 10/10/10 11/11/11
f 10/10/10 9/9/9 12/12/12
f 13/13/13 14/14/14 15/15/15
f 14/14/14 13/13/13 16/16/16
f 17/17/17 18/18/18 19/19/19
f 18/18/18 17/17/17 20/20/20
f 21/21/21 22/22/22 23/23/23
f 22/22/22 21/21/21 24/24/24
f 25/25/25 26/26/26 27/27/27
f 26/26/26 25/25/25 28/28/28
f 29/29/29 30/30/30 31/31/31
f 30/30/30 29/29/29 32/32/32
f 33/33/33 34/34/34 35/35/35
f 34/34/34 33/33/33 36/36/36
f 37/37/37 38/38/38 39/39/39
f 38/38/38 37/37/37 40/40/40
f 41/41/41 42/42/42 43/43/43
f 42/42/42 41/41/41 44/44/44
f 45/45/45 46/46/46 47/47/47
f 46/46/46 45/45/45 48/48/48
f 49/49/49 50/50/50 51/51/51
f 50/50/50 49/49/49 52/52/52
f 53/53/53 54/54/54 55/55/55
f 56/56/56 55/55/55 54/54/54
f 57/57/57 58/58/58 59/59/59
f 58/58/58 57/57/57 60/60/60
f 61/61/61 62/62/62 63/63/63
f 64/64/64 63/63/63 62/62/62
f 65/65/65 66/66/66 67/67/67
f 66/66/66 65/65/65 68/68/68
f 69/69/69 70/70/70 71/71/71
f 72/72/72 71/71/71 70/70/70
f 73/73/73 74/74/74 75/75/75
f 74/74/74 73/73/73 76/76/76
f 77/77/77 78/78/78 79/79/79
f 80/80/80 79/79/79 78/78/78
f 81/81/81 82/82/82 83/83/83
f 82/82/82 81/81/81 84/84/84
f 85/85/85 86/86/86 87/87/87
f 88/88/88 87/87/87 86/86/86
f 89/89/89 90/90/90 91/91/91
f 90/90/90 89/89/89 92/92/92
f 93/93/93 94/94/94 95/95/95
f 96/96/96 95/95/95 94/94/94
f 97/97/97 98/98/98 99/99/99
f 98/98/98 97/97/97 100/100/100
f 101/101/101 102/102/102 103/103/103
f 102/102/102 101/101/101 104/104/104
f 105/105/105 106/106/106 107/107/107
f 106/106/106 105/105/105 108/108/108
f 109/109/109 110/110/110 111/111/111
f 110/110/110 109/109/109 112/112/112
f 113/113/113 114/114/114 115/115/115
f 114/114/114 113/113/113 116/116/116
f 117/117/117 118/118/118 119/119/119
f 118/118/118 117/117/117 120/120/120
f 121/121/121 122/122/122 123/123/123
f 122/122/122 121/121/121 124/124/124
f 125/125/125 126/126/126 127/127/127
f 126/126/126 125/125/125 128/128/128
f 129/129/129 130/130/130 131/131/131
f 130/130/130 129/129/129 132/132/132
f 133/133/133 134/134/134 135/135/135
f 134/134/134 133/133/133 136/136/136
f 137/137/137 138/138/138 139/139/139
f 138/138/138 137/137/137 140/140/140
f 141/141/141 142/142/142 143/143/143
f 142/142/142 141/141/141 144/144/144

