# https://github.com/mikedh/trimesh
mtllib material.mtl
usemtl material_0
v 0.59296600 -0.60337200 -0.02885300
v 0.01007500 0.56240900 -0.02885300
v 0.01007500 -0.60337200 -0.02885300
v 0.59296600 0.56240900 -0.02885300
v 0.59296600 0.56240900 -0.02885300
v 0.59296600 -0.60337200 -0.02885300
v 0.01007500 0.56240900 -0.02885300
v 0.01007500 -0.60337200 -0.02885300
v -0.04821400 0.62069800 -0.05799700
v 0.01007600 0.56240900 -0.05799700
v -0.04821400 -0.66166100 -0.05799700
v 0.65125500 0.62069800 -0.05799700
v 0.59296600 0.56240900 -0.05799700
v 0.59296600 -0.60337200 -0.05799700
v 0.01007600 -0.60337200 -0.05799700
v 0.65125500 -0.66166100 -0.05799700
v 0.65125500 -0.66166100 0.00029200
v 0.65125500 0.62069800 -0.05799700
v 0.65125500 0.62069800 0.00029200
v 0.65125500 -0.66166100 -0.05799700
v -0.04821400 -0.66166100 -0.05799700
v 0.65125500 -0.66166100 0.00029200
v -0.04821400 -0.66166100 0.00029200
v 0.65125500 -0.66166100 -0.05799700
v -0.04821400 -0.66166100 -0.05799700
v -0.04821400 0.62069800 0.00029200
v -0.04821400 0.62069800 -0.05799700
v -0.04821400 -0.66166100 0.00029200
v 0.65125500 0.62069800 -0.05799700
v -0.04821400 0.62069800 0.00029200
v 0.65125500 0.62069800 0.00029200
v -0.04821400 0.62069800 -0.05799700
v -0.04821400 -0.66166100 0.00029200
v 0.01007600 -0.60337200 0.00029200
v -0.04821400 0.62069800 0.00029200
v 0.65125500 -0.66166100 0.00029200
v 0.59296600 -0.60337200 0.00029200
v 0.59296600 0.56240900 0.00029200
v 0.01007600 0.56240900 0.00029200
v 0.65125500 0.62069800 0.00029200
v 0.01007600 -0.60337200 0.00029200
v 0.01007600 0.56240900 -0.05799700
v 0.01007600 0.56240900 0.00029200
v 0.01007600 -0.60337200 -0.05799700
v 0.01007600 0.56240900 -0.05799700
v 0.59296600 0.56240900 0.00029200
v 0.01007600 0.56240900 0.00029200
v 0.59296600 0.56240900 -0.05799700
v 0.59296600 -0.60337200 -0.05799700
v 0.01007600 -0.60337200 0.00029200
v 0.59296600 -0.60337200 0.00029200
v 0.01007600 -0.60337200 -0.05799700
v 0.59296600 -0.60337200 -0.05799700
v 0.59296600 0.56240900 0.00029200
v 0.59296600 0.56240900 -0.05799700
v 0.59296600 -0.60337200 0.00029200
vn 0.00000000 0.00000000 1.00000000
vn 0.00000000 0.00000000 1.00000000
vn 0.00000000 0.00000000 1.00000000
vn 0.00000000 0.00000000 1.00000000
vn 0.00000000 0.00000000 -1.00000000
vn 0.00000000 0.00000000 -1.00000000
vn 0.00000000 0.00000000 -1.00000000
vn 0.00000000 0.00000000 -1.00000000
vn 0.00000000 0.00000000 -1.00000000
vn 0.00000000 0.00000000 -1.00000000
vn 0.00000000 0.00000000 -1.00000000
vn 0.00000000 0.00000000 -1.00000000
vn 0.00000000 0.00000000 -1.00000000
vn 0.00000000 0.00000000 -1.00000000
vn 0.00000000 0.00000000 -1.00000000
vn 0.00000000 0.00000000 -1.00000000
vn 1.00000000 0.00000000 0.00000000
vn 1.00000000 0.00000000 0.00000000
vn 1.00000000 0.00000000 0.00000000
vn 1.00000000 0.00000000 0.00000000
vn 0.00000000 -1.00000000 0.00000000
vn 0.00000000 -1.00000000 0.00000000
vn 0.00000000 -1.00000000 0.00000000
vn 0.00000000 -1.00000000 0.00000000
vn -1.00000000 0.00000000 0.00000000
vn -1.00000000 0.00000000 0.00000000
vn -1.00000000 0.00000000 0.00000000
vn -1.00000000 0.00000000 0.00000000
vn 0.00000000 1.00000000 0.00000000
vn 0.00000000 1.00000000 0.00000000
vn 0.00000000 1.00000000 0.00000000
vn 0.00000000 1.00000000 0.00000000
vn 0.00000000 0.00000000 1.00000000
vn 0.00000000 0.00000000 1.00000000
vn 0.00000000 0.00000000 1.00000000
vn 0.00000000 0.00000000 1.00000000
vn 0.00000000 0.00000000 1.00000000
vn 0.00000000 0.00000000 1.00000000
vn 0.00000000 0.00000000 1.00000000
vn 0.00000000 0.00000000 1.00000000
vn 1.00000000 0.00000000 0.00000000
vn 1.00000000 0.00000000 0.00000000
vn 1.00000000 0.00000000 0.00000000
vn 1.00000000 0.00000000 0.00000000
vn 0.00000000 -1.00000000 0.00000000
vn 0.00000000 -1.00000000 0.00000000
vn 0.00000000 -1.00000000 0.00000000
vn 0.00000000 -1.00000000 0.00000000
vn 0.00000000 1.00000000 0.00000000
vn 0.00000000 1.00000000 0.00000000
vn 0.00000000 1.00000000 0.00000000
vn 0.00000000 1.00000000 0.00000000
vn -1.00000000 0.00000000 0.00000000
vn -1.00000000 0.00000000 0.00000000
vn -1.00000000 0.00000000 0.00000000
vn -1.00000000 0.00000000 0.00000000
vt 0.16458333 0.34821429
vt 0.16458333 0.34821429
vt 0.16458333 0.34821429
vt 0.16458333 0.34821429
vt 0.16458333 0.34821429
vt 0.16458333 0.34821429
vt 0.16458333 0.34821429
vt 0.16458333 0.34821429
vt 0.56458333 0.34821429
vt 0.56458333 0.34821429
vt 0.56458333 0.34821429
vt 0.56458333 0.34821429
vt 0.56458333 0.34821429
vt 0.56458333 0.34821429
vt 0.56458333 0.34821429
vt 0.56458333 0.34821429
vt 0.56458333 0.34821429
vt 0.56458333 0.34821429
vt 0.56458333 0.34821429
vt 0.56458333 0.34821429
vt 0.56458333 0.34821429
vt 0.56458333 0.34821429
vt 0.56458333 0.34821429
vt 0.56458333 0.34821429
vt 0.56458333 0.34821429
vt 0.56458333 0.34821429
vt 0.56458333 0.34821429
vt 0.56458333 0.34821429
vt 0.56458333 0.34821429
vt 0.56458333 0.34821429
vt 0.56458333 0.34821429
vt 0.56458333 0.34821429
vt 0.56458333 0.34821429
vt 0.56458333 0.34821429
vt 0.56458333 0.34821429
vt 0.56458333 0.34821429
vt 0.56458333 0.34821429
vt 0.56458333 0.34821429
vt 0.56458333 0.34821429
vt 0.56458333 0.34821429
vt 0.56458333 0.34821429
vt 0.56458333 0.34821429
vt 0.56458333 0.34821429
vt 0.56458333 0.34821429
vt 0.56458333 0.34821429
vt 0.56458333 0.34821429
vt 0.56458333 0.34821429
vt 0.56458333 0.34821429
vt 0.56458333 0.34821429
vt 0.56458333 0.34821429
vt 0.56458333 0.34821429
vt 0.56458333 0.34821429
vt 0.56458333 0.34821429
vt 0.56458333 0.34821429
vt 0.56458333 0.34821429
vt 0.56458333 0.34821429
f 1/1/1 2/2/2 3/3/3
f 2/2/2 1/1/1 4/4/4
f 5/5/5 6/6/6 7/7/7
f 8/8/8 7/7/7 6/6/6
f 9/9/9 10/10/10 11/11/11
f 10/10/10 9/9/9 12/12/12
f 10/10/10 12/12/12 13/13/13
f 13/13/13 12/12/12 14/14/14
f 11/11/11 15/15/15 16/16/16
f 15/15/15 11/11/11 10/10/10
f 16/16/16 15/15/15 14/14/14
f 16/16/16 14/14/14 12/12/12
f 17/17/17 18/18/18 19/19/19
f 18/18/18 17/17/17 20/20/20
f 21/21/21 22/22/22 23/23/23
f 22/22/22 21/21/21 24/24/24
f 25/25/25 26/26/26 27/27/27
f 26/26/26 25/25/25 28/28/28
f 29/29/29 30/30/30 31/31/31
f 30/30/30 29/29/29 32/32/32
f 33/33/33 34/34/34 35/35/35
f 34/34/34 33/33/33 36/36/36
f 34/34/34 36/36/36 37/37/37
f 37/37/37 36/36/36 38/38/38
f 35/35/35 39/39/39 40/40/40
f 39/39/39 35/35/35 34/34/34
f 40/40/40 39/39/39 38/38/38
f 40/40/40 38/38/38 36/36/36
f 41/41/41 42/42/42 43/43/43
f 42/42/42 41/41/41 44/44/44
f 45/45/45 46/46/46 47/47/47
f 46/46/46 45/45/45 48/48/48
f 49/49/49 50/50/50 51/51/51
f 50/50/50 49/49/49 52/52/52
f 53/53/53 54/54/54 55/55/55
f 54/54/54 53/53/53 56/56/56

