# https://github.com/mikedh/trimesh
mtllib material.mtl
usemtl material_0
v -0.01386300 -0.76126000 0.02202700
v -0.01386300 -0.76126000 0.02202700
v -0.06396000 -0.28287400 0.02202700
v -0.06396000 -0.28287400 0.02202700
v -0.71535100 -0.76126000 0.02202700
v -0.71535100 -0.76126000 0.02202700
v -0.04600900 -0.02335400 0.02202700
v -0.04600900 -0.02335400 0.02202700
v -0.01386300 0.74431300 0.02202700
v -0.01386300 0.74431300 0.02202700
v -0.06396000 -0.15402900 0.02202700
v -0.06396000 -0.15402900 0.02202700
v -0.12122500 -0.15402900 0.02202700
v -0.12122500 -0.15402900 0.02202700
v -0.04600900 0.59939500 0.02202700
v -0.04600900 0.59939500 0.02202700
v -0.20746300 0.59939500 0.02202700
v -0.20746300 0.59939500 0.02202700
v -0.12122500 -0.28287400 0.02202700
v -0.12122500 -0.28287400 0.02202700
v -0.71535100 0.74431300 0.02202700
v -0.71535100 0.74431300 0.02202700
v -0.20746300 -0.02335400 0.02202700
v -0.20746300 -0.02335400 0.02202700
v -0.01386300 0.74431300 0.02202700
v -0.01386300 0.74431300 0.02202700
v -0.71535100 0.74431300 -0.02384800
v -0.71535100 0.74431300 -0.02384800
v -0.71535100 0.74431300 0.02202700
v -0.71535100 0.74431300 0.02202700
v -0.01386300 0.74431300 -0.02384800
v -0.01386300 0.74431300 -0.02384800
v -0.71535100 0.74431300 -0.02384800
v -0.71535100 0.74431300 -0.02384800
v -0.71535100 -0.76126000 0.02202700
v -0.71535100 -0.76126000 0.02202700
v -0.71535100 0.74431300 0.02202700
v -0.71535100 0.74431300 0.02202700
v -0.71535100 -0.76126000 -0.02384800
v -0.71535100 -0.76126000 -0.02384800
v -0.01386300 -0.76126000 -0.02384800
v -0.01386300 -0.76126000 -0.02384800
v -0.71535100 -0.76126000 0.02202700
v -0.71535100 -0.76126000 0.02202700
v -0.71535100 -0.76126000 -0.02384800
v -0.71535100 -0.76126000 -0.02384800
v -0.01386300 -0.76126000 0.02202700
v -0.01386300 -0.76126000 0.02202700
v -0.01386300 -0.76126000 -0.02384800
v -0.01386300 -0.76126000 -0.02384800
v -0.01386300 0.74431300 0.02202700
v -0.01386300 0.74431300 0.02202700
v -0.01386300 -0.76126000 0.02202700
v -0.01386300 -0.76126000 0.02202700
v -0.01386300 0.74431300 -0.02384800
v -0.01386300 0.74431300 -0.02384800
v -0.71535100 0.74431300 -0.02384800
v -0.71535100 0.74431300 -0.02384800
v -0.01386300 -0.76126000 -0.02384800
v -0.01386300 -0.76126000 -0.02384800
v -0.71535100 -0.76126000 -0.02384800
v -0.71535100 -0.76126000 -0.02384800
v -0.21543700 -0.03444900 -0.02384800
v -0.21543700 -0.03444900 -0.02384800
v -0.21543700 0.62090900 -0.02384800
v -0.21543700 0.62090900 -0.02384800
v -0.04682500 0.62090900 -0.02384800
v -0.04682500 0.62090900 -0.02384800
v -0.04682500 -0.03444900 -0.02384800
v -0.04682500 -0.03444900 -0.02384800
v -0.01386300 0.74431300 -0.02384800
v -0.01386300 0.74431300 -0.02384800
v -0.07636400 0.58486600 -0.02384800
v -0.07636400 0.58486600 -0.02384800
v -0.18771100 0.58486600 0.02202700
v -0.18771100 0.58486600 0.02202700
v -0.18771100 0.58486600 -0.02384800
v -0.18771100 0.58486600 -0.02384800
v -0.07636400 0.58486600 0.02202700
v -0.07636400 0.58486600 0.02202700
v -0.18771100 -0.00288900 -0.02384800
v -0.18771100 -0.00288900 -0.02384800
v -0.18771100 0.58486600 0.02202700
v -0.18771100 0.58486600 0.02202700
v -0.18771100 -0.00288900 0.02202700
v -0.18771100 -0.00288900 0.02202700
v -0.18771100 0.58486600 -0.02384800
v -0.18771100 0.58486600 -0.02384800
v -0.07636400 0.58486600 -0.02384800
v -0.07636400 0.58486600 -0.02384800
v -0.07636400 -0.00288900 0.02202700
v -0.07636400 -0.00288900 0.02202700
v -0.07636400 0.58486600 0.02202700
v -0.07636400 0.58486600 0.02202700
v -0.07636400 -0.00288900 -0.02384800
v -0.07636400 -0.00288900 -0.02384800
v -0.07636400 -0.00288900 0.02202700
v -0.07636400 -0.00288900 0.02202700
v -0.18771100 -0.00288900 -0.02384800
v -0.18771100 -0.00288900 -0.02384800
v -0.18771100 -0.00288900 0.02202700
v -0.18771100 -0.00288900 0.02202700
v -0.07636400 -0.00288900 -0.02384800
v -0.07636400 -0.00288900 -0.02384800
v -0.04600900 -0.02335400 0.02202700
v -0.04600900 -0.02335400 0.02202700
v -0.07636400 -0.00288900 0.02202700
v -0.07636400 -0.00288900 0.02202700
v -0.20746300 -0.02335400 0.02202700
v -0.20746300 -0.02335400 0.02202700
v -0.04600900 0.59939500 0.02202700
v -0.04600900 0.59939500 0.02202700
v -0.07636400 0.58486600 0.02202700
v -0.07636400 0.58486600 0.02202700
v -0.18771100 0.58486600 0.02202700
v -0.18771100 0.58486600 0.02202700
v -0.18771100 -0.00288900 0.02202700
v -0.18771100 -0.00288900 0.02202700
v -0.20746300 0.59939500 0.02202700
v -0.20746300 0.59939500 0.02202700
v -0.21543700 -0.03444900 -0.02384800
v -0.21543700 -0.03444900 -0.02384800
v -0.18771100 -0.00288900 -0.02384800
v -0.18771100 -0.00288900 -0.02384800
v -0.04682500 -0.03444900 -0.02384800
v -0.04682500 -0.03444900 -0.02384800
v -0.21543700 0.62090900 -0.02384800
v -0.21543700 0.62090900 -0.02384800
v -0.18771100 0.58486600 -0.02384800
v -0.18771100 0.58486600 -0.02384800
v -0.07636400 0.58486600 -0.02384800
v -0.07636400 0.58486600 -0.02384800
v -0.07636400 -0.00288900 -0.02384800
v -0.07636400 -0.00288900 -0.02384800
v -0.04682500 0.62090900 -0.02384800
v -0.04682500 0.62090900 -0.02384800
v -0.06396000 -0.15402900 0.04251500
v -0.06396000 -0.15402900 0.04251500
v -0.12122500 -0.28287400 0.04251500
v -0.12122500 -0.28287400 0.04251500
v -0.06396000 -0.28287400 0.04251500
v -0.06396000 -0.28287400 0.04251500
v -0.12122500 -0.15402900 0.04251500
v -0.12122500 -0.15402900 0.04251500
v -0.06396000 -0.28287400 0.02202700
v -0.06396000 -0.28287400 0.02202700
v -0.06396000 -0.15402900 0.04251500
v -0.06396000 -0.15402900 0.04251500
v -0.06396000 -0.28287400 0.04251500
v -0.06396000 -0.28287400 0.04251500
v -0.06396000 -0.15402900 0.02202700
v -0.06396000 -0.15402900 0.02202700
v -0.06396000 -0.15402900 0.04251500
v -0.06396000 -0.15402900 0.04251500
v -0.12122500 -0.15402900 0.02202700
v -0.12122500 -0.15402900 0.02202700
v -0.12122500 -0.15402900 0.04251500
v -0.12122500 -0.15402900 0.04251500
v -0.06396000 -0.15402900 0.02202700
v -0.06396000 -0.15402900 0.02202700
v -0.12122500 -0.15402900 0.02202700
v -0.12122500 -0.15402900 0.02202700
v -0.12122500 -0.28287400 0.04251500
v -0.12122500 -0.28287400 0.04251500
v -0.12122500 -0.15402900 0.04251500
v -0.12122500 -0.15402900 0.04251500
v -0.12122500 -0.28287400 0.02202700
v -0.12122500 -0.28287400 0.02202700
v -0.06396000 -0.28287400 0.02202700
v -0.06396000 -0.28287400 0.02202700
v -0.12122500 -0.28287400 0.04251500
v -0.12122500 -0.28287400 0.04251500
v -0.12122500 -0.28287400 0.02202700
v -0.12122500 -0.28287400 0.02202700
v -0.06396000 -0.28287400 0.04251500
v -0.06396000 -0.28287400 0.04251500
vn 0.00000000 0.00000000 1.00000000
vn 0.00000000 0.00000000 -1.00000000
vn 0.00000000 0.00000000 1.00000000
vn 0.00000000 0.00000000 -1.00000000
vn 0.00000000 0.00000000 1.00000000
vn 0.00000000 0.00000000 -1.00000000
vn 0.00000000 0.00000000 1.00000000
vn 0.00000000 0.00000000 -1.00000000
vn 0.00000000 0.00000000 1.00000000
vn 0.00000000 0.00000000 -1.00000000
vn 0.00000000 0.00000000 1.00000000
vn 0.00000000 0.00000000 -1.00000000
vn 0.00000000 0.00000000 1.00000000
vn 0.00000000 0.00000000 -1.00000000
vn 0.00000000 0.00000000 -1.00000000
vn 0.00000000 0.00000000 1.00000000
vn 0.00000000 0.00000000 -1.00000000
vn 0.00000000 0.00000000 1.00000000
vn 0.00000000 0.00000000 -1.00000000
vn 0.00000000 0.00000000 1.00000000
vn 0.00000000 0.00000000 1.00000000
vn 0.00000000 0.00000000 -1.00000000
vn 0.00000000 0.00000000 1.00000000
vn 0.00000000 0.00000000 -1.00000000
vn 0.00000000 -1.00000000 0.00000000
vn 0.00000000 1.00000000 0.00000000
vn 0.00000000 -1.00000000 0.00000000
vn 0.00000000 1.00000000 0.00000000
vn 0.00000000 1.00000000 0.00000000
vn 0.00000000 -1.00000000 0.00000000
vn 0.00000000 -1.00000000 0.00000000
vn 0.00000000 1.00000000 0.00000000
vn 1.00000000 0.00000000 0.00000000
vn -1.00000000 0.00000000 0.00000000
vn -1.00000000 0.00000000 0.00000000
vn 1.00000000 0.00000000 0.00000000
vn -1.00000000 0.00000000 0.00000000
vn 1.00000000 0.00000000 0.00000000
vn -1.00000000 0.00000000 0.00000000
vn 1.00000000 0.00000000 0.00000000
vn 0.00000000 1.00000000 0.00000000
vn 0.00000000 -1.00000000 0.00000000
vn 0.00000000 -1.00000000 0.00000000
vn 0.00000000 1.00000000 0.00000000
vn 0.00000000 1.00000000 0.00000000
vn 0.00000000 -1.00000000 0.00000000
vn 0.00000000 -1.00000000 0.00000000
vn 0.00000000 1.00000000 0.00000000
vn -1.00000000 0.00000000 0.00000000
vn 1.00000000 0.00000000 0.00000000
vn -1.00000000 0.00000000 0.00000000
vn 1.00000000 0.00000000 0.00000000
vn -1.00000000 0.00000000 0.00000000
vn 1.00000000 0.00000000 0.00000000
vn -1.00000000 0.00000000 0.00000000
vn 1.00000000 0.00000000 0.00000000
vn 0.00000000 0.00000000 -1.00000000
vn 0.00000000 0.00000000 1.00000000
vn 0.00000000 0.00000000 -1.00000000
vn 0.00000000 0.00000000 1.00000000
vn 0.00000000 0.00000000 -1.00000000
vn 0.00000000 0.00000000 1.00000000
vn 0.00000000 0.00000000 1.00000000
vn 0.00000000 0.00000000 -1.00000000
vn 0.00000000 0.00000000 -1.00000000
vn 0.00000000 0.00000000 1.00000000
vn 0.00000000 0.00000000 -1.00000000
vn 0.00000000 0.00000000 1.00000000
vn 0.00000000 0.00000000 -1.00000000
vn 0.00000000 0.00000000 1.00000000
vn 0.00000000 0.00000000 1.00000000
vn 0.00000000 0.00000000 -1.00000000
vn 0.00000000 -1.00000000 0.00000000
vn 0.00000000 1.00000000 0.00000000
vn 0.00000000 -1.00000000 0.00000000
vn 0.00000000 1.00000000 0.00000000
vn 0.00000000 -1.00000000 0.00000000
vn 0.00000000 1.00000000 0.00000000
vn 0.00000000 1.00000000 0.00000000
vn 0.00000000 -1.00000000 0.00000000
vn -1.00000000 0.00000000 0.00000000
vn 1.00000000 0.00000000 0.00000000
vn -1.00000000 0.00000000 0.00000000
vn 1.00000000 0.00000000 0.00000000
vn -1.00000000 0.00000000 0.00000000
vn 1.00000000 0.00000000 0.00000000
vn 1.00000000 0.00000000 0.00000000
vn -1.00000000 0.00000000 0.00000000
vn -1.00000000 0.00000000 0.00000000
vn 1.00000000 0.00000000 0.00000000
vn -1.00000000 0.00000000 0.00000000
vn 1.00000000 0.00000000 0.00000000
vn -1.00000000 0.00000000 0.00000000
vn 1.00000000 0.00000000 0.00000000
vn 1.00000000 0.00000000 0.00000000
vn -1.00000000 0.00000000 0.00000000
vn 0.00000000 1.00000000 0.00000000
vn 0.00000000 -1.00000000 0.00000000
vn 0.00000000 1.00000000 0.00000000
vn 0.00000000 -1.00000000 0.00000000
vn 0.00000000 -1.00000000 0.00000000
vn 0.00000000 1.00000000 0.00000000
vn 0.00000000 -1.00000000 0.00000000
vn 0.00000000 1.00000000 0.00000000
vn 0.00000000 0.00000000 1.00000000
vn 0.00000000 0.00000000 -1.00000000
vn 0.00000000 0.00000000 1.00000000
vn 0.00000000 0.00000000 -1.00000000
vn 0.00000000 0.00000000 1.00000000
vn 0.00000000 0.00000000 -1.00000000
vn 0.00000000 0.00000000 1.00000000
vn 0.00000000 0.00000000 -1.00000000
vn 0.00000000 0.00000000 1.00000000
vn 0.00000000 0.00000000 -1.00000000
vn 0.00000000 0.00000000 1.00000000
vn 0.00000000 0.00000000 -1.00000000
vn 0.00000000 0.00000000 1.00000000
vn 0.00000000 0.00000000 -1.00000000
vn 0.00000000 0.00000000 1.00000000
vn 0.00000000 0.00000000 -1.00000000
vn 0.00000000 0.00000000 -1.00000000
vn 0.00000000 0.00000000 1.00000000
vn 0.00000000 0.00000000 -1.00000000
vn 0.00000000 0.00000000 1.00000000
vn 0.00000000 0.00000000 -1.00000000
vn 0.00000000 0.00000000 1.00000000
vn 0.00000000 0.00000000 -1.00000000
vn 0.00000000 0.00000000 1.00000000
vn 0.00000000 0.00000000 -1.00000000
vn 0.00000000 0.00000000 1.00000000
vn 0.00000000 0.00000000 -1.00000000
vn 0.00000000 0.00000000 1.00000000
vn 0.00000000 0.00000000 -1.00000000
vn 0.00000000 0.00000000 1.00000000
vn 0.00000000 0.00000000 -1.00000000
vn 0.00000000 0.00000000 1.00000000
vn 0.00000000 0.00000000 1.00000000
vn 0.00000000 0.00000000 -1.00000000
vn 0.00000000 0.00000000 1.00000000
vn 0.00000000 0.00000000 -1.00000000
vn 0.00000000 0.00000000 1.00000000
vn 0.00000000 0.00000000 -1.00000000
vn 0.00000000 0.00000000 1.00000000
vn 0.00000000 0.00000000 -1.00000000
vn 1.00000000 0.00000000 0.00000000
vn -1.00000000 0.00000000 0.00000000
vn 1.00000000 0.00000000 0.00000000
vn -1.00000000 0.00000000 0.00000000
vn 1.00000000 0.00000000 0.00000000
vn -1.00000000 0.00000000 0.00000000
vn -1.00000000 0.00000000 0.00000000
vn 1.00000000 0.00000000 0.00000000
vn 0.00000000 1.00000000 0.00000000
vn 0.00000000 -1.00000000 0.00000000
vn 0.00000000 1.00000000 0.00000000
vn 0.00000000 -1.00000000 0.00000000
vn 0.00000000 -1.00000000 0.00000000
vn 0.00000000 1.00000000 0.00000000
vn 0.00000000 1.00000000 0.00000000
vn 0.00000000 -1.00000000 0.00000000
vn 1.00000000 0.00000000 0.00000000
vn -1.00000000 0.00000000 0.00000000
vn 1.00000000 0.00000000 0.00000000
vn -1.00000000 0.00000000 0.00000000
vn -1.00000000 0.00000000 0.00000000
vn 1.00000000 0.00000000 0.00000000
vn 1.00000000 0.00000000 0.00000000
vn -1.00000000 0.00000000 0.00000000
vn 0.00000000 1.00000000 0.00000000
vn 0.00000000 -1.00000000 0.00000000
vn 0.00000000 1.00000000 0.00000000
vn 0.00000000 -1.00000000 0.00000000
vn 0.00000000 -1.00000000 0.00000000
vn 0.00000000 1.00000000 0.00000000
vn 0.00000000 1.00000000 0.00000000
vn 0.00000000 -1.00000000 0.00000000
vt 0.50000000 0.50000000
vt 0.50000000 0.50000000
vt 0.50000000 0.50000000
vt 0.50000000 0.50000000
vt 0.50000000 0.50000000
vt 0.50000000 0.50000000
vt 0.50000000 0.50000000
vt 0.50000000 0.50000000
vt 0.50000000 0.50000000
vt 0.50000000 0.50000000
vt 0.50000000 0.50000000
vt 0.50000000 0.50000000
vt 0.50000000 0.50000000
vt 0.50000000 0.50000000
vt 0.50000000 0.50000000
vt 0.50000000 0.50000000
vt 0.50000000 0.50000000
vt 0.50000000 0.50000000
vt 0.50000000 0.50000000
vt 0.50000000 0.50000000
vt 0.50000000 0.50000000
vt 0.50000000 0.50000000
vt 0.50000000 0.50000000
vt 0.50000000 0.50000000
vt 0.50000000 0.50000000
vt 0.50000000 0.50000000
vt 0.50000000 0.50000000
vt 0.50000000 0.50000000
vt 0.50000000 0.50000000
vt 0.50000000 0.50000000
vt 0.50000000 0.50000000
vt 0.50000000 0.50000000
vt 0.50000000 0.50000000
vt 0.50000000 0.50000000
vt 0.50000000 0.50000000
vt 0.50000000 0.50000000
vt 0.50000000 0.50000000
vt 0.50000000 0.50000000
vt 0.50000000 0.50000000
vt 0.50000000 0.50000000
vt 0.50000000 0.50000000
vt 0.50000000 0.50000000
vt 0.50000000 0.50000000
vt 0.50000000 0.50000000
vt 0.50000000 0.50000000
vt 0.50000000 0.50000000
vt 0.50000000 0.50000000
vt 0.50000000 0.50000000
vt 0.50000000 0.50000000
vt 0.50000000 0.50000000
vt 0.50000000 0.50000000
vt 0.50000000 0.50000000
vt 0.50000000 0.50000000
vt 0.50000000 0.50000000
vt 0.50000000 0.50000000
vt 0.50000000 0.50000000
vt 0.50000000 0.50000000
vt 0.50000000 0.50000000
vt 0.50000000 0.50000000
vt 0.50000000 0.50000000
vt 0.50000000 0.50000000
vt 0.50000000 0.50000000
vt 0.50000000 0.50000000
vt 0.50000000 0.50000000
vt 0.50000000 0.50000000
vt 0.50000000 0.50000000
vt 0.50000000 0.50000000
vt 0.50000000 0.50000000
vt 0.50000000 0.50000000
vt 0.50000000 0.50000000
vt 0.50000000 0.50000000
vt 0.50000000 0.50000000
vt 0.50000000 0.50000000
vt 0.50000000 0.50000000
vt 0.50000000 0.50000000
vt 0.50000000 0.50000000
vt 0.50000000 0.50000000
vt 0.50000000 0.50000000
vt 0.50000000 0.50000000
vt 0.50000000 0.50000000
vt 0.50000000 0.50000000
vt 0.50000000 0.50000000
vt 0.50000000 0.50000000
vt 0.50000000 0.50000000
vt 0.50000000 0.50000000
vt 0.50000000 0.50000000
vt 0.50000000 0.50000000
vt 0.50000000 0.50000000
vt 0.50000000 0.50000000
vt 0.50000000 0.50000000
vt 0.50000000 0.50000000
vt 0.50000000 0.50000000
vt 0.50000000 0.50000000
vt 0.50000000 0.50000000
vt 0.50000000 0.50000000
vt 0.50000000 0.50000000
vt 0.50000000 0.50000000
vt 0.50000000 0.50000000
vt 0.50000000 0.50000000
vt 0.50000000 0.50000000
vt 0.50000000 0.50000000
vt 0.50000000 0.50000000
vt 0.50000000 0.50000000
vt 0.50000000 0.50000000
vt 0.50000000 0.50000000
vt 0.50000000 0.50000000
vt 0.50000000 0.50000000
vt 0.50000000 0.50000000
vt 0.50000000 0.50000000
vt 0.50000000 0.50000000
vt 0.50000000 0.50000000
vt 0.50000000 0.50000000
vt 0.50000000 0.50000000
vt 0.50000000 0.50000000
vt 0.50000000 0.50000000
vt 0.50000000 0.50000000
vt 0.50000000 0.50000000
vt 0.50000000 0.50000000
vt 0.50000000 0.50000000
vt 0.50000000 0.50000000
vt 0.50000000 0.50000000
vt 0.50000000 0.50000000
vt 0.50000000 0.50000000
vt 0.50000000 0.50000000
vt 0.50000000 0.50000000
vt 0.50000000 0.50000000
vt 0.50000000 0.50000000
vt 0.50000000 0.50000000
vt 0.50000000 0.50000000
vt 0.50000000 0.50000000
vt 0.50000000 0.50000000
vt 0.50000000 0.50000000
vt 0.50000000 0.50000000
vt 0.50000000 0.50000000
vt 0.50000000 0.50000000
vt 0.50000000 0.50000000
vt 0.50000000 0.50000000
vt 0.50000000 0.50000000
vt 0.50000000 0.50000000
vt 0.50000000 0.50000000
vt 0.50000000 0.50000000
vt 0.50000000 0.50000000
vt 0.50000000 0.50000000
vt 0.50000000 0.50000000
vt 0.50000000 0.50000000
vt 0.50000000 0.50000000
vt 0.50000000 0.50000000
vt 0.50000000 0.50000000
vt 0.50000000 0.50000000
vt 0.50000000 0.50000000
vt 0.50000000 0.50000000
vt 0.50000000 0.50000000
vt 0.50000000 0.50000000
vt 0.50000000 0.50000000
vt 0.50000000 0.50000000
vt 0.50000000 0.50000000
vt 0.50000000 0.50000000
vt 0.50000000 0.50000000
vt 0.50000000 0.50000000
vt 0.50000000 0.50000000
vt 0.50000000 0.50000000
vt 0.50000000 0.50000000
vt 0.50000000 0.50000000
vt 0.50000000 0.50000000
vt 0.50000000 0.50000000
vt 0.50000000 0.50000000
vt 0.50000000 0.50000000
vt 0.50000000 0.50000000
vt 0.50000000 0.50000000
vt 0.50000000 0.50000000
vt 0.50000000 0.50000000
vt 0.50000000 0.50000000
vt 0.50000000 0.50000000
vt 0.50000000 0.50000000
vt 0.50000000 0.50000000
vt 0.50000000 0.50000000
f 1/1/1 3/3/3 5/5/5
f 6/6/6 4/4/4 2/2/2
f 3/3/3 1/1/1 7/7/7
f 8/8/8 2/2/2 4/4/4
f 7/7/7 1/1/1 9/9/9
f 10/10/10 2/2/2 8/8/8
f 3/3/3 7/7/7 11/11/11
f 12/12/12 8/8/8 4/4/4
f 11/11/11 7/7/7 13/13/13
f 14/14/14 8/8/8 12/12/12
f 7/7/7 9/9/9 16/16/16
f 15/15/15 10/10/10 8/8/8
f 16/16/16 9/9/9 18/18/18
f 17/17/17 10/10/10 15/15/15
f 5/5/5 20/20/20 21/21/21
f 22/22/22 19/19/19 6/6/6
f 20/20/20 5/5/5 3/3/3
f 4/4/4 6/6/6 19/19/19
f 21/21/21 20/20/20 13/13/13
f 14/14/14 19/19/19 22/22/22
f 21/21/21 13/13/13 23/23/23
f 24/24/24 14/14/14 22/22/22
f 23/23/23 13/13/13 7/7/7
f 8/8/8 14/14/14 24/24/24
f 21/21/21 23/23/23 18/18/18
f 17/17/17 24/24/24 22/22/22
f 21/21/21 18/18/18 9/9/9
f 10/10/10 17/17/17 22/22/22
f 26/26/26 28/28/28 29/29/29
f 30/30/30 27/27/27 25/25/25
f 28/28/28 26/26/26 32/32/32
f 31/31/31 25/25/25 27/27/27
f 34/34/34 35/35/35 37/37/37
f 38/38/38 36/36/36 33/33/33
f 35/35/35 34/34/34 39/39/39
f 40/40/40 33/33/33 36/36/36
f 42/42/42 43/43/43 46/46/46
f 45/45/45 44/44/44 41/41/41
f 43/43/43 42/42/42 47/47/47
f 48/48/48 41/41/41 44/44/44
f 50/50/50 52/52/52 54/54/54
f 53/53/53 51/51/51 49/49/49
f 52/52/52 50/50/50 56/56/56
f 55/55/55 49/49/49 51/51/51
f 57/57/57 59/59/59 61/61/61
f 62/62/62 60/60/60 58/58/58
f 59/59/59 57/57/57 64/64/64
f 63/63/63 58/58/58 60/60/60
f 64/64/64 57/57/57 65/65/65
f 66/66/66 58/58/58 63/63/63
f 65/65/65 57/57/57 67/67/67
f 68/68/68 58/58/58 66/66/66
f 59/59/59 69/69/69 72/72/72
f 71/71/71 70/70/70 60/60/60
f 69/69/69 59/59/59 64/64/64
f 63/63/63 60/60/60 70/70/70
f 72/72/72 69/69/69 67/67/67
f 68/68/68 70/70/70 71/71/71
f 72/72/72 67/67/67 57/57/57
f 58/58/58 68/68/68 71/71/71
f 73/73/73 75/75/75 77/77/77
f 78/78/78 76/76/76 74/74/74
f 75/75/75 73/73/73 80/80/80
f 79/79/79 74/74/74 76/76/76
f 82/82/82 84/84/84 86/86/86
f 85/85/85 83/83/83 81/81/81
f 84/84/84 82/82/82 87/87/87
f 88/88/88 81/81/81 83/83/83
f 89/89/89 91/91/91 93/93/93
f 94/94/94 92/92/92 90/90/90
f 91/91/91 89/89/89 96/96/96
f 95/95/95 90/90/90 92/92/92
f 97/97/97 99/99/99 102/102/102
f 101/101/101 100/100/100 98/98/98
f 99/99/99 97/97/97 104/104/104
f 103/103/103 98/98/98 100/100/100
f 105/105/105 107/107/107 109/109/109
f 110/110/110 108/108/108 106/106/106
f 107/107/107 105/105/105 111/111/111
f 112/112/112 106/106/106 108/108/108
f 107/107/107 111/111/111 113/113/113
f 114/114/114 112/112/112 108/108/108
f 113/113/113 111/111/111 115/115/115
f 116/116/116 112/112/112 114/114/114
f 109/109/109 117/117/117 119/119/119
f 120/120/120 118/118/118 110/110/110
f 117/117/117 109/109/109 107/107/107
f 108/108/108 110/110/110 118/118/118
f 119/119/119 117/117/117 115/115/115
f 116/116/116 118/118/118 120/120/120
f 119/119/119 115/115/115 111/111/111
f 112/112/112 116/116/116 120/120/120
f 121/121/121 123/123/123 125/125/125
f 126/126/126 124/124/124 122/122/122
f 123/123/123 121/121/121 127/127/127
f 128/128/128 122/122/122 124/124/124
f 123/123/123 127/127/127 129/129/129
f 130/130/130 128/128/128 124/124/124
f 129/129/129 127/127/127 131/131/131
f 132/132/132 128/128/128 130/130/130
f 125/125/125 133/133/133 135/135/135
f 136/136/136 134/134/134 126/126/126
f 133/133/133 125/125/125 123/123/123
f 124/124/124 126/126/126 134/134/134
f 135/135/135 133/133/133 131/131/131
f 132/132/132 134/134/134 136/136/136
f 135/135/135 131/131/131 127/127/127
f 128/128/128 132/132/132 136/136/136
f 137/137/137 139/139/139 141/141/141
f 142/142/142 140/140/140 138/138/138
f 139/139/139 137/137/137 143/143/143
f 144/144/144 138/138/138 140/140/140
f 145/145/145 147/147/147 149/149/149
f 150/150/150 148/148/148 146/146/146
f 147/147/147 145/145/145 152/152/152
f 151/151/151 146/146/146 148/148/148
f 153/153/153 155/155/155 158/158/158
f 157/157/157 156/156/156 154/154/154
f 155/155/155 153/153/153 159/159/159
f 160/160/160 154/154/154 156/156/156
f 162/162/162 164/164/164 165/165/165
f 166/166/166 163/163/163 161/161/161
f 164/164/164 162/162/162 168/168/168
f 167/167/167 161/161/161 163/163/163
f 170/170/170 172/172/172 173/173/173
f 174/174/174 171/171/171 169/169/169
f 172/172/172 170/170/170 176/176/176
f 175/175/175 169/169/169 171/171/171

