# https://github.com/mikedh/trimesh
mtllib material.mtl
usemtl material_0
v 0.53426300 0.78356900 -0.36713700
v 0.53426300 0.78356900 -0.36713700
v 0.53426300 -0.77635200 0.35038300
v 0.53426300 -0.77635200 0.35038300
v 0.53426300 -0.77635200 -0.36713700
v 0.53426300 -0.77635200 -0.36713700
v 0.53426300 0.78064400 0.35038300
v 0.53426300 0.78064400 0.35038300
v -0.50406000 -0.77635200 -0.36713700
v -0.50406000 -0.77635200 -0.36713700
v 0.53426300 0.78356900 0.35038300
v 0.53426300 0.78356900 0.35038300
v 0.52646300 0.78064400 0.35038300
v 0.52646300 0.78064400 0.35038300
v -0.50406000 -0.77635200 0.35038300
v -0.50406000 -0.77635200 0.35038300
v -0.50406000 0.78356900 -0.36713700
v -0.50406000 0.78356900 -0.36713700
v -0.50406000 0.78356900 0.35038300
v -0.50406000 0.78356900 0.35038300
v 0.52646300 -0.77635200 0.35038300
v 0.52646300 -0.77635200 0.35038300
v -0.50406000 0.30243400 0.35038300
v -0.50406000 0.30243400 0.35038300
v -0.50113500 0.78064400 0.35038300
v -0.50113500 0.78064400 0.35038300
v 0.52646300 -0.77635200 0.35651400
v 0.52646300 -0.77635200 0.35651400
v -0.50113500 -0.77635200 0.35038300
v -0.50113500 -0.77635200 0.35038300
v -0.50406000 0.40758800 0.35038300
v -0.50406000 0.40758800 0.35038300
v -0.50406000 0.78064400 0.35038300
v -0.50406000 0.78064400 0.35038300
v -0.50113500 0.78064400 0.35651400
v -0.50113500 0.78064400 0.35651400
v 0.52646300 0.30243400 0.35651400
v 0.52646300 0.30243400 0.35651400
v -0.50113500 0.30243400 0.35038300
v -0.50113500 0.30243400 0.35038300
v -0.50406000 0.75432100 0.35038300
v -0.50406000 0.75432100 0.35038300
v -0.50113500 0.75432100 0.35038300
v -0.50113500 0.75432100 0.35038300
v 0.52646300 0.78064400 0.35651400
v 0.52646300 0.78064400 0.35651400
v -0.50113500 0.75919600 0.35651400
v -0.50113500 0.75919600 0.35651400
v 0.53426300 0.30243400 0.35651400
v 0.53426300 0.30243400 0.35651400
v -0.50113500 -0.77635200 0.35525800
v -0.50113500 -0.77635200 0.35525800
v -0.50113500 0.30243400 0.35525800
v -0.50113500 0.30243400 0.35525800
v -0.50113500 0.40758800 0.35038300
v -0.50113500 0.40758800 0.35038300
v 0.53426300 0.78356900 0.35651400
v 0.53426300 0.78356900 0.35651400
v -0.50406000 0.75919600 0.35651400
v -0.50406000 0.75919600 0.35651400
v 0.53426300 0.78064400 0.35651400
v 0.53426300 0.78064400 0.35651400
v 0.53426300 -0.77635200 0.35651400
v 0.53426300 -0.77635200 0.35651400
v -0.50113500 -0.77635200 0.35651400
v -0.50113500 -0.77635200 0.35651400
v -0.50113500 0.40758800 0.35651400
v -0.50113500 0.40758800 0.35651400
v -0.50406000 0.78064400 0.35651400
v -0.50406000 0.78064400 0.35651400
v -0.50406000 0.40758800 0.35651400
v -0.50406000 0.40758800 0.35651400
v 0.53426300 -0.77635200 0.37675100
v 0.53426300 -0.77635200 0.37675100
v 0.53426300 0.30243400 0.37675100
v 0.53426300 0.30243400 0.37675100
v -0.50113500 0.30243400 0.35651400
v -0.50113500 0.30243400 0.35651400
v -0.50406000 0.78356900 0.35651400
v -0.50406000 0.78356900 0.35651400
v 0.53426300 0.78356900 0.37675100
v 0.53426300 0.78356900 0.37675100
v -0.50406000 0.78356900 0.37675100
v -0.50406000 0.78356900 0.37675100
v -0.50406000 -0.77635200 0.35651400
v -0.50406000 -0.77635200 0.35651400
v -0.50406000 0.30243400 0.35651400
v -0.50406000 0.30243400 0.35651400
v -0.50406000 -0.77635200 0.37675100
v -0.50406000 -0.77635200 0.37675100
v -0.50406000 0.30243400 0.37675100
v -0.50406000 0.30243400 0.37675100
v -0.42019300 -0.74044300 0.37675100
v -0.42019300 -0.74044300 0.37675100
v -0.44066700 -0.74044300 0.37675100
v -0.44066700 -0.74044300 0.37675100
v -0.44066700 0.34338900 0.37675100
v -0.44066700 0.34338900 0.37675100
v 0.53426300 -0.77635200 0.35038300
v 0.53426300 -0.77635200 0.35038300
v 0.53426300 -0.77635200 -0.36713700
v 0.53426300 -0.77635200 -0.36713700
v -0.50406000 -0.77635200 -0.36713700
v -0.50406000 -0.77635200 -0.36713700
v -0.50406000 -0.77635200 0.35038300
v -0.50406000 -0.77635200 0.35038300
v 0.52646300 -0.77635200 0.35038300
v 0.52646300 -0.77635200 0.35038300
v -0.50113500 -0.77635200 0.35038300
v -0.50113500 -0.77635200 0.35038300
vn 0.57735000 0.57735000 -0.57735000
vn -0.57735000 -0.57735000 0.57735000
vn 0.57735000 -0.57735000 0.57735000
vn -0.57735000 0.57735000 -0.57735000
vn -0.57735000 0.57735000 0.57735000
vn 0.57735000 -0.57735000 -0.57735000
vn -0.44721400 0.00000000 -0.89442700
vn 0.44721400 0.00000000 0.89442700
vn -0.57735000 -0.57735000 -0.57735000
vn 0.57735000 0.57735000 0.57735000
vn -0.57735000 -0.57735000 -0.57735000
vn 0.57735000 0.57735000 0.57735000
vn 0.40824800 0.40824800 0.81649700
vn -0.40824800 -0.40824800 -0.81649700
vn 0.57735000 0.57735000 -0.57735000
vn -0.57735000 -0.57735000 0.57735000
vn -0.57735000 0.57735000 -0.57735000
vn 0.57735000 -0.57735000 0.57735000
vn -0.57735000 0.57735000 0.57735000
vn 0.57735000 -0.57735000 -0.57735000
vn 0.57735000 -0.57735000 0.57735000
vn -0.57735000 0.57735000 -0.57735000
vn 0.44721400 0.00000000 -0.89442700
vn -0.44721400 0.00000000 0.89442700
vn -0.40824800 0.40824800 0.81649700
vn 0.40824800 -0.40824800 -0.81649700
vn -0.57735000 0.57735000 0.57735000
vn 0.57735000 -0.57735000 -0.57735000
vn 0.57735000 0.57735000 -0.57735000
vn -0.57735000 -0.57735000 0.57735000
vn 0.44721400 0.00000000 -0.89442700
vn -0.44721400 0.00000000 0.89442700
vn 0.44721400 0.00000000 -0.89442700
vn -0.44721400 0.00000000 0.89442700
vn -0.40824800 0.40824800 -0.81649700
vn 0.40824800 -0.40824800 0.81649700
vn 0.44721400 0.00000000 -0.89442700
vn -0.44721400 0.00000000 0.89442700
vn 0.70710700 0.00000000 -0.70710700
vn -0.70710700 0.00000000 0.70710700
vn 0.44721400 0.00000000 -0.89442700
vn -0.44721400 0.00000000 0.89442700
vn 0.44721400 0.00000000 -0.89442700
vn -0.44721400 0.00000000 0.89442700
vn -0.40824800 -0.40824800 0.81649700
vn 0.40824800 0.40824800 -0.81649700
vn -0.44721400 0.00000000 -0.89442700
vn 0.44721400 0.00000000 0.89442700
vn -0.70710700 0.00000000 0.70710700
vn 0.70710700 0.00000000 -0.70710700
vn 0.89442700 0.44721400 0.00000000
vn -0.89442700 -0.44721400 0.00000000
vn 1.00000000 0.00000000 0.00000000
vn -1.00000000 0.00000000 0.00000000
vn -0.70710700 0.00000000 0.70710700
vn 0.70710700 0.00000000 -0.70710700
vn 0.57735000 0.57735000 -0.57735000
vn -0.57735000 -0.57735000 0.57735000
vn -0.44721400 0.00000000 -0.89442700
vn 0.44721400 0.00000000 0.89442700
vn 0.44721400 0.00000000 -0.89442700
vn -0.44721400 0.00000000 0.89442700
vn 0.57735000 -0.57735000 -0.57735000
vn -0.57735000 0.57735000 0.57735000
vn 0.57735000 0.57735000 0.57735000
vn -0.57735000 -0.57735000 -0.57735000
vn -0.70710700 0.00000000 -0.70710700
vn 0.70710700 0.00000000 0.70710700
vn 0.44721400 0.00000000 0.89442700
vn -0.44721400 0.00000000 -0.89442700
vn 0.44721400 0.00000000 0.89442700
vn -0.44721400 0.00000000 -0.89442700
vn -0.57735000 0.57735000 -0.57735000
vn 0.57735000 -0.57735000 0.57735000
vn 0.70710700 0.00000000 0.70710700
vn -0.70710700 0.00000000 -0.70710700
vn -0.70710700 0.00000000 -0.70710700
vn 0.70710700 0.00000000 0.70710700
vn 0.57735000 -0.57735000 0.57735000
vn -0.57735000 0.57735000 -0.57735000
vn 0.57735000 0.57735000 0.57735000
vn -0.57735000 -0.57735000 -0.57735000
vn 0.57735000 -0.57735000 -0.57735000
vn -0.57735000 0.57735000 0.57735000
vn 0.57735000 0.57735000 0.57735000
vn -0.57735000 -0.57735000 -0.57735000
vn 0.70710700 0.00000000 0.70710700
vn -0.70710700 0.00000000 -0.70710700
vn -0.57735000 -0.57735000 0.57735000
vn 0.57735000 0.57735000 -0.57735000
vn -0.70710700 0.00000000 0.70710700
vn 0.70710700 0.00000000 -0.70710700
vn 0.44789800 -0.05522100 0.89237800
vn -0.44789800 0.05522100 -0.89237800
vn -0.44789800 -0.05522100 0.89237800
vn 0.44789800 0.05522100 -0.89237800
vn -0.45160400 -0.13875400 0.88136300
vn 0.45160400 0.13875400 -0.88136300
vn 0.57735000 -0.57735000 0.57735000
vn -0.57735000 0.57735000 -0.57735000
vn 0.57735000 -0.57735000 -0.57735000
vn -0.57735000 0.57735000 0.57735000
vn -0.57735000 -0.57735000 -0.57735000
vn 0.57735000 0.57735000 0.57735000
vn 0.57735000 0.57735000 -0.57735000
vn -0.57735000 -0.57735000 0.57735000
vn 0.57735000 -0.57735000 0.57735000
vn -0.57735000 0.57735000 -0.57735000
vn 0.57735000 0.57735000 -0.57735000
vn -0.57735000 -0.57735000 0.57735000
vt 0.50000000 0.50000000
vt 0.50000000 0.50000000
vt 0.50000000 0.50000000
vt 0.50000000 0.50000000
vt 0.50000000 0.50000000
vt 0.50000000 0.50000000
vt 0.50000000 0.50000000
vt 0.50000000 0.50000000
vt 0.50000000 0.50000000
vt 0.50000000 0.50000000
vt 0.50000000 0.50000000
vt 0.50000000 0.50000000
vt 0.50000000 0.50000000
vt 0.50000000 0.50000000
vt 0.50000000 0.50000000
vt 0.50000000 0.50000000
vt 0.50000000 0.50000000
vt 0.50000000 0.50000000
vt 0.50000000 0.50000000
vt 0.50000000 0.50000000
vt 0.50000000 0.50000000
vt 0.50000000 0.50000000
vt 0.50000000 0.50000000
vt 0.50000000 0.50000000
vt 0.50000000 0.50000000
vt 0.50000000 0.50000000
vt 0.50000000 0.50000000
vt 0.50000000 0.50000000
vt 0.50000000 0.50000000
vt 0.50000000 0.50000000
vt 0.50000000 0.50000000
vt 0.50000000 0.50000000
vt 0.50000000 0.50000000
vt 0.50000000 0.50000000
vt 0.50000000 0.50000000
vt 0.50000000 0.50000000
vt 0.50000000 0.50000000
vt 0.50000000 0.50000000
vt 0.50000000 0.50000000
vt 0.50000000 0.50000000
vt 0.50000000 0.50000000
vt 0.50000000 0.50000000
vt 0.50000000 0.50000000
vt 0.50000000 0.50000000
vt 0.50000000 0.50000000
vt 0.50000000 0.50000000
vt 0.50000000 0.50000000
vt 0.50000000 0.50000000
vt 0.50000000 0.50000000
vt 0.50000000 0.50000000
vt 0.50000000 0.50000000
vt 0.50000000 0.50000000
vt 0.50000000 0.50000000
vt 0.50000000 0.50000000
vt 0.50000000 0.50000000
vt 0.50000000 0.50000000
vt 0.50000000 0.50000000
vt 0.50000000 0.50000000
vt 0.50000000 0.50000000
vt 0.50000000 0.50000000
vt 0.50000000 0.50000000
vt 0.50000000 0.50000000
vt 0.50000000 0.50000000
vt 0.50000000 0.50000000
vt 0.50000000 0.50000000
vt 0.50000000 0.50000000
vt 0.50000000 0.50000000
vt 0.50000000 0.50000000
vt 0.50000000 0.50000000
vt 0.50000000 0.50000000
vt 0.50000000 0.50000000
vt 0.50000000 0.50000000
vt 0.50000000 0.50000000
vt 0.50000000 0.50000000
vt 0.50000000 0.50000000
vt 0.50000000 0.50000000
vt 0.50000000 0.50000000
vt 0.50000000 0.50000000
vt 0.50000000 0.50000000
vt 0.50000000 0.50000000
vt 0.50000000 0.50000000
vt 0.50000000 0.50000000
vt 0.50000000 0.50000000
vt 0.50000000 0.50000000
vt 0.50000000 0.50000000
vt 0.50000000 0.50000000
vt 0.50000000 0.50000000
vt 0.50000000 0.50000000
vt 0.50000000 0.50000000
vt 0.50000000 0.50000000
vt 0.50000000 0.50000000
vt 0.50000000 0.50000000
vt 0.50000000 0.50000000
vt 0.50000000 0.50000000
vt 0.50000000 0.50000000
vt 0.50000000 0.50000000
vt 0.50000000 0.50000000
vt 0.50000000 0.50000000
vt 0.50000000 0.50000000
vt 0.50000000 0.50000000
vt 0.50000000 0.50000000
vt 0.50000000 0.50000000
vt 0.50000000 0.50000000
vt 0.50000000 0.50000000
vt 0.50000000 0.50000000
vt 0.50000000 0.50000000
vt 0.50000000 0.50000000
vt 0.50000000 0.50000000
vt 0.50000000 0.50000000
vt 0.50000000 0.50000000
f 1/1/1 3/3/3 6/6/6
f 5/5/5 4/4/4 2/2/2
f 3/3/3 1/1/1 8/8/8
f 7/7/7 2/2/2 4/4/4
f 9/9/9 1/1/1 6/6/6
f 5/5/5 2/2/2 10/10/10
f 8/8/8 1/1/1 12/12/12
f 11/11/11 2/2/2 7/7/7
f 13/13/13 3/3/3 8/8/8
f 7/7/7 4/4/4 14/14/14
f 1/1/1 9/9/9 17/17/17
f 18/18/18 10/10/10 2/2/2
f 1/1/1 19/19/19 12/12/12
f 11/11/11 20/20/20 2/2/2
f 12/12/12 13/13/13 8/8/8
f 7/7/7 14/14/14 11/11/11
f 3/3/3 13/13/13 21/21/21
f 22/22/22 14/14/14 4/4/4
f 24/24/24 9/9/9 16/16/16
f 15/15/15 10/10/10 23/23/23
f 9/9/9 24/24/24 17/17/17
f 18/18/18 23/23/23 10/10/10
f 19/19/19 1/1/1 17/17/17
f 18/18/18 2/2/2 20/20/20
f 19/19/19 25/25/25 12/12/12
f 11/11/11 26/26/26 20/20/20
f 12/12/12 25/25/25 13/13/13
f 14/14/14 26/26/26 11/11/11
f 13/13/13 28/28/28 21/21/21
f 22/22/22 27/27/27 14/14/14
f 30/30/30 24/24/24 16/16/16
f 15/15/15 23/23/23 29/29/29
f 17/17/17 24/24/24 32/32/32
f 31/31/31 23/23/23 18/18/18
f 17/17/17 34/34/34 19/19/19
f 20/20/20 33/33/33 18/18/18
f 25/25/25 19/19/19 34/34/34
f 33/33/33 20/20/20 26/26/26
f 35/35/35 13/13/13 25/25/25
f 26/26/26 14/14/14 36/36/36
f 28/28/28 13/13/13 37/37/37
f 38/38/38 14/14/14 27/27/27
f 28/28/28 30/30/30 21/21/21
f 22/22/22 29/29/29 27/27/27
f 24/24/24 30/30/30 40/40/40
f 39/39/39 29/29/29 23/23/23
f 40/40/40 32/32/32 24/24/24
f 23/23/23 31/31/31 39/39/39
f 17/17/17 32/32/32 42/42/42
f 41/41/41 31/31/31 18/18/18
f 17/17/17 42/42/42 34/34/34
f 33/33/33 41/41/41 18/18/18
f 34/34/34 44/44/44 25/25/25
f 26/26/26 43/43/43 33/33/33
f 13/13/13 35/35/35 46/46/46
f 45/45/45 36/36/36 14/14/14
f 25/25/25 47/47/47 35/35/35
f 36/36/36 48/48/48 26/26/26
f 37/37/37 13/13/13 46/46/46
f 45/45/45 14/14/14 38/38/38
f 50/50/50 28/28/28 37/37/37
f 38/38/38 27/27/27 49/49/49
f 30/30/30 28/28/28 52/52/52
f 51/51/51 27/27/27 29/29/29
f 30/30/30 54/54/54 40/40/40
f 39/39/39 53/53/53 29/29/29
f 32/32/32 40/40/40 55/55/55
f 56/56/56 39/39/39 31/31/31
f 55/55/55 42/42/42 32/32/32
f 31/31/31 41/41/41 56/56/56
f 44/44/44 34/34/34 42/42/42
f 41/41/41 33/33/33 43/43/43
f 44/44/44 47/47/47 25/25/25
f 26/26/26 48/48/48 43/43/43
f 35/35/35 57/57/57 46/46/46
f 45/45/45 58/58/58 36/36/36
f 59/59/59 35/35/35 47/47/47
f 48/48/48 36/36/36 60/60/60
f 61/61/61 37/37/37 46/46/46
f 45/45/45 38/38/38 62/62/62
f 28/28/28 50/50/50 63/63/63
f 64/64/64 49/49/49 27/27/27
f 37/37/37 61/61/61 50/50/50
f 49/49/49 62/62/62 38/38/38
f 52/52/52 28/28/28 66/66/66
f 65/65/65 27/27/27 51/51/51
f 54/54/54 30/30/30 52/52/52
f 51/51/51 29/29/29 53/53/53
f 54/54/54 67/67/67 40/40/40
f 39/39/39 68/68/68 53/53/53
f 40/40/40 67/67/67 55/55/55
f 56/56/56 68/68/68 39/39/39
f 42/42/42 55/55/55 44/44/44
f 43/43/43 56/56/56 41/41/41
f 55/55/55 47/47/47 44/44/44
f 43/43/43 48/48/48 56/56/56
f 70/70/70 57/57/57 35/35/35
f 36/36/36 58/58/58 69/69/69
f 46/46/46 57/57/57 61/61/61
f 62/62/62 58/58/58 45/45/45
f 35/35/35 59/59/59 70/70/70
f 69/69/69 60/60/60 36/36/36
f 47/47/47 72/72/72 59/59/59
f 60/60/60 71/71/71 48/48/48
f 50/50/50 74/74/74 63/63/63
f 64/64/64 73/73/73 49/49/49
f 74/74/74 28/28/28 63/63/63
f 64/64/64 27/27/27 73/73/73
f 61/61/61 75/75/75 50/50/50
f 49/49/49 76/76/76 62/62/62
f 28/28/28 74/74/74 66/66/66
f 65/65/65 73/73/73 27/27/27
f 77/77/77 52/52/52 66/66/66
f 65/65/65 51/51/51 78/78/78
f 52/52/52 77/77/77 54/54/54
f 53/53/53 78/78/78 51/51/51
f 67/67/67 54/54/54 77/77/77
f 78/78/78 53/53/53 68/68/68
f 47/47/47 55/55/55 67/67/67
f 68/68/68 56/56/56 48/48/48
f 57/57/57 70/70/70 80/80/80
f 79/79/79 69/69/69 58/58/58
f 81/81/81 61/61/61 57/57/57
f 58/58/58 62/62/62 82/82/82
f 59/59/59 84/84/84 70/70/70
f 69/69/69 83/83/83 60/60/60
f 72/72/72 47/47/47 67/67/67
f 68/68/68 48/48/48 71/71/71
f 72/72/72 84/84/84 59/59/59
f 60/60/60 83/83/83 71/71/71
f 74/74/74 50/50/50 75/75/75
f 76/76/76 49/49/49 73/73/73
f 75/75/75 61/61/61 81/81/81
f 82/82/82 62/62/62 76/76/76
f 66/66/66 74/74/74 86/86/86
f 85/85/85 73/73/73 65/65/65
f 86/86/86 77/77/77 66/66/66
f 65/65/65 78/78/78 85/85/85
f 88/88/88 67/67/67 77/77/77
f 78/78/78 68/68/68 87/87/87
f 70/70/70 84/84/84 80/80/80
f 79/79/79 83/83/83 69/69/69
f 84/84/84 57/57/57 80/80/80
f 79/79/79 58/58/58 83/83/83
f 57/57/57 84/84/84 81/81/81
f 82/82/82 83/83/83 58/58/58
f 67/67/67 88/88/88 72/72/72
f 71/71/71 87/87/87 68/68/68
f 88/88/88 84/84/84 72/72/72
f 71/71/71 83/83/83 87/87/87
f 86/86/86 74/74/74 89/89/89
f 90/90/90 73/73/73 85/85/85
f 77/77/77 86/86/86 88/88/88
f 87/87/87 85/85/85 78/78/78
f 84/84/84 88/88/88 91/91/91
f 92/92/92 87/87/87 83/83/83
f 95/95/95 89/89/89 74/74/74
f 73/73/73 90/90/90 96/96/96
f 91/91/91 86/86/86 89/89/89
f 90/90/90 85/85/85 92/92/92
f 86/86/86 91/91/91 88/88/88
f 87/87/87 92/92/92 85/85/85
f 91/91/91 97/97/97 84/84/84
f 83/83/83 98/98/98 92/92/92
f 95/95/95 74/74/74 93/93/93
f 94/94/94 73/73/73 96/96/96
f 99/99/99 103/103/103 101/101/101
f 102/102/102 104/104/104 100/100/100
f 103/103/103 99/99/99 106/106/106
f 105/105/105 100/100/100 104/104/104
f 106/106/106 99/99/99 107/107/107
f 108/108/108 100/100/100 105/105/105
f 106/106/106 107/107/107 110/110/110
f 109/109/109 108/108/108 105/105/105

