# https://github.com/mikedh/trimesh
mtllib material.mtl
usemtl material_0
v -0.57033300 -0.55060700 -0.39936600
v -0.57033300 -0.55060700 -0.39936600
v -0.57033300 -0.55060700 -0.39936600
v -0.57033300 -0.55060700 -0.39936600
v -0.57033300 -0.55060700 -0.39936600
v -0.57033300 -0.55060700 -0.39936600
v -0.57033300 0.36899000 -0.36944800
v -0.57033300 0.36899000 -0.36944800
v -0.57033300 0.36899000 -0.36944800
v -0.57033300 0.36899000 -0.36944800
v -0.57033300 0.36899000 -0.36944800
v -0.57033300 0.36899000 -0.36944800
v -0.57033300 0.36899000 -0.39936600
v -0.57033300 0.36899000 -0.39936600
v -0.57033300 0.36899000 -0.39936600
v -0.57033300 0.36899000 -0.39936600
v -0.57033300 0.36899000 -0.39936600
v -0.57033300 0.36899000 -0.39936600
v -0.57033300 -0.55060700 -0.36944800
v -0.57033300 -0.55060700 -0.36944800
v -0.57033300 -0.55060700 -0.36944800
v -0.57033300 -0.55060700 -0.36944800
v -0.57033300 -0.55060700 -0.36944800
v -0.57033300 -0.55060700 -0.36944800
v -0.19399200 0.36899000 -0.39936600
v -0.19399200 0.36899000 -0.39936600
v -0.19399200 0.36899000 -0.39936600
v -0.19399200 0.36899000 -0.39936600
v -0.19399200 0.36899000 -0.39936600
v -0.19399200 0.36899000 -0.39936600
v -0.19399200 -0.55060700 -0.39936600
v -0.19399200 -0.55060700 -0.39936600
v -0.19399200 -0.55060700 -0.39936600
v -0.19399200 -0.55060700 -0.39936600
v -0.19399200 -0.55060700 -0.39936600
v -0.19399200 -0.55060700 -0.39936600
v -0.19399200 0.36899000 -0.36944800
v -0.19399200 0.36899000 -0.36944800
v -0.19399200 0.36899000 -0.36944800
v -0.19399200 0.36899000 -0.36944800
v -0.19399200 0.36899000 -0.36944800
v -0.19399200 0.36899000 -0.36944800
v -0.19399200 -0.55060700 -0.36944800
v -0.19399200 -0.55060700 -0.36944800
v -0.19399200 -0.55060700 -0.36944800
v -0.19399200 -0.55060700 -0.36944800
v -0.19399200 -0.55060700 -0.36944800
v -0.19399200 -0.55060700 -0.36944800
v -0.53884000 0.24931600 -0.42298600
v -0.53884000 0.24931600 -0.42298600
v -0.53884000 0.24931600 -0.42298600
v -0.53884000 0.24931600 -0.42298600
v -0.53884000 0.24931600 -0.42298600
v -0.53884000 0.24931600 -0.42298600
v -0.53884000 0.24931600 -0.42298600
v -0.53884000 0.24931600 -0.42298600
v -0.23020900 0.24931600 -0.41826200
v -0.23020900 0.24931600 -0.41826200
v -0.23020900 0.24931600 -0.41826200
v -0.23020900 0.24931600 -0.41826200
v -0.23020900 0.24931600 -0.41826200
v -0.23020900 0.24931600 -0.41826200
v -0.23020900 0.24931600 -0.41826200
v -0.23020900 0.24931600 -0.41826200
v -0.22548500 0.24931600 -0.42298600
v -0.22548500 0.24931600 -0.42298600
v -0.22548500 0.24931600 -0.42298600
v -0.22548500 0.24931600 -0.42298600
v -0.22548500 0.24931600 -0.42298600
v -0.22548500 0.24931600 -0.42298600
v -0.22548500 0.24931600 -0.42298600
v -0.22548500 0.24931600 -0.42298600
v -0.53411600 0.24931600 -0.41826200
v -0.53411600 0.24931600 -0.41826200
v -0.53411600 0.24931600 -0.41826200
v -0.53411600 0.24931600 -0.41826200
v -0.53411600 0.24931600 -0.41826200
v -0.53411600 0.24931600 -0.41826200
v -0.53411600 0.24931600 -0.41826200
v -0.53411600 0.24931600 -0.41826200
v -0.23020900 0.23357000 -0.41826200
v -0.23020900 0.23357000 -0.41826200
v -0.23020900 0.23357000 -0.41826200
v -0.23020900 0.23357000 -0.41826200
v -0.23020900 0.23357000 -0.41826200
v -0.23020900 0.23357000 -0.41826200
v -0.23020900 0.23357000 -0.41826200
v -0.23020900 0.23357000 -0.41826200
v -0.22548500 0.24931600 -0.37574600
v -0.22548500 0.24931600 -0.37574600
v -0.22548500 0.24931600 -0.37574600
v -0.22548500 0.24931600 -0.37574600
v -0.22548500 0.24931600 -0.37574600
v -0.22548500 0.24931600 -0.37574600
v -0.53884000 0.23357000 -0.42298600
v -0.53884000 0.23357000 -0.42298600
v -0.53884000 0.23357000 -0.42298600
v -0.53884000 0.23357000 -0.42298600
v -0.53884000 0.23357000 -0.42298600
v -0.53884000 0.23357000 -0.42298600
v -0.53884000 0.23357000 -0.42298600
v -0.53884000 0.23357000 -0.42298600
v -0.53411600 0.24931600 -0.37574600
v -0.53411600 0.24931600 -0.37574600
v -0.53411600 0.24931600 -0.37574600
v -0.53411600 0.24931600 -0.37574600
v -0.53411600 0.24931600 -0.37574600
v -0.53411600 0.24931600 -0.37574600
v -0.53411600 0.23357000 -0.41826200
v -0.53411600 0.23357000 -0.41826200
v -0.53411600 0.23357000 -0.41826200
v -0.53411600 0.23357000 -0.41826200
v -0.53411600 0.23357000 -0.41826200
v -0.53411600 0.23357000 -0.41826200
v -0.53411600 0.23357000 -0.41826200
v -0.53411600 0.23357000 -0.41826200
v -0.22548500 0.23357000 -0.42298600
v -0.22548500 0.23357000 -0.42298600
v -0.22548500 0.23357000 -0.42298600
v -0.22548500 0.23357000 -0.42298600
v -0.22548500 0.23357000 -0.42298600
v -0.22548500 0.23357000 -0.42298600
v -0.22548500 0.23357000 -0.42298600
v -0.22548500 0.23357000 -0.42298600
v -0.23020900 0.24931600 -0.37574600
v -0.23020900 0.24931600 -0.37574600
v -0.23020900 0.24931600 -0.37574600
v -0.23020900 0.24931600 -0.37574600
v -0.23020900 0.24931600 -0.37574600
v -0.23020900 0.24931600 -0.37574600
v -0.53884000 0.23357000 -0.37574600
v -0.53884000 0.23357000 -0.37574600
v -0.53884000 0.23357000 -0.37574600
v -0.53884000 0.23357000 -0.37574600
v -0.53884000 0.23357000 -0.37574600
v -0.53884000 0.23357000 -0.37574600
v -0.53884000 0.24931600 -0.37574600
v -0.53884000 0.24931600 -0.37574600
v -0.53884000 0.24931600 -0.37574600
v -0.53884000 0.24931600 -0.37574600
v -0.53884000 0.24931600 -0.37574600
v -0.53884000 0.24931600 -0.37574600
v -0.22548500 0.23357000 -0.37574600
v -0.22548500 0.23357000 -0.37574600
v -0.22548500 0.23357000 -0.37574600
v -0.22548500 0.23357000 -0.37574600
v -0.22548500 0.23357000 -0.37574600
v -0.22548500 0.23357000 -0.37574600
v -0.23020900 0.23357000 -0.37574600
v -0.23020900 0.23357000 -0.37574600
v -0.23020900 0.23357000 -0.37574600
v -0.23020900 0.23357000 -0.37574600
v -0.23020900 0.23357000 -0.37574600
v -0.23020900 0.23357000 -0.37574600
v -0.53411600 0.23357000 -0.37574600
v -0.53411600 0.23357000 -0.37574600
v -0.53411600 0.23357000 -0.37574600
v -0.53411600 0.23357000 -0.37574600
v -0.53411600 0.23357000 -0.37574600
v -0.53411600 0.23357000 -0.37574600
vn -1.00000000 0.00000000 0.00000000
vn 0.00000000 0.00000000 1.00000000
vn 0.00000000 0.00000000 -1.00000000
vn 0.00000000 -1.00000000 0.00000000
vn 0.00000000 1.00000000 0.00000000
vn 1.00000000 0.00000000 0.00000000
vn 0.00000000 0.00000000 -1.00000000
vn 0.00000000 -1.00000000 0.00000000
vn 0.00000000 1.00000000 0.00000000
vn 1.00000000 0.00000000 0.00000000
vn 0.00000000 0.00000000 1.00000000
vn -1.00000000 0.00000000 0.00000000
vn 1.00000000 0.00000000 0.00000000
vn 0.00000000 0.00000000 1.00000000
vn 0.00000000 0.00000000 -1.00000000
vn -1.00000000 0.00000000 0.00000000
vn 0.00000000 1.00000000 0.00000000
vn 0.00000000 -1.00000000 0.00000000
vn 1.00000000 0.00000000 0.00000000
vn 0.00000000 0.00000000 -1.00000000
vn 0.00000000 1.00000000 0.00000000
vn 0.00000000 -1.00000000 0.00000000
vn 0.00000000 0.00000000 1.00000000
vn -1.00000000 0.00000000 0.00000000
vn 0.00000000 0.00000000 1.00000000
vn 0.00000000 0.00000000 -1.00000000
vn -1.00000000 0.00000000 0.00000000
vn 0.00000000 -1.00000000 0.00000000
vn 1.00000000 0.00000000 0.00000000
vn 0.00000000 1.00000000 0.00000000
vn -1.00000000 0.00000000 0.00000000
vn 0.00000000 0.00000000 1.00000000
vn 0.00000000 -1.00000000 0.00000000
vn 0.00000000 1.00000000 0.00000000
vn 0.00000000 0.00000000 -1.00000000
vn 1.00000000 0.00000000 0.00000000
vn -1.00000000 0.00000000 0.00000000
vn 0.00000000 0.00000000 -1.00000000
vn 0.00000000 -1.00000000 0.00000000
vn 1.00000000 0.00000000 0.00000000
vn 0.00000000 0.00000000 1.00000000
vn 0.00000000 1.00000000 0.00000000
vn -1.00000000 0.00000000 0.00000000
vn 0.00000000 -1.00000000 0.00000000
vn 1.00000000 0.00000000 0.00000000
vn 0.00000000 0.00000000 1.00000000
vn 0.00000000 0.00000000 -1.00000000
vn 0.00000000 1.00000000 0.00000000
vn 0.00000000 1.00000000 0.00000000
vn 0.00000000 0.00000000 1.00000000
vn 0.70710678 0.00000000 -0.70710678
vn -1.00000000 0.00000000 0.00000000
vn 0.00000000 0.00000000 -1.00000000
vn 1.00000000 0.00000000 0.00000000
vn 0.00000000 -1.00000000 0.00000000
vn -0.70710678 0.00000000 0.70710678
vn 0.00000000 1.00000000 0.00000000
vn 0.00000000 0.00000000 -1.00000000
vn -0.70710678 0.00000000 -0.70710678
vn 0.00000000 0.00000000 1.00000000
vn 0.70710678 0.00000000 0.70710678
vn 1.00000000 0.00000000 0.00000000
vn -1.00000000 0.00000000 0.00000000
vn 0.00000000 -1.00000000 0.00000000
vn -1.00000000 0.00000000 0.00000000
vn 0.00000000 1.00000000 0.00000000
vn 0.70710678 0.00000000 0.70710678
vn 0.00000000 0.00000000 -1.00000000
vn 1.00000000 0.00000000 0.00000000
vn 0.00000000 0.00000000 1.00000000
vn -0.70710678 0.00000000 -0.70710678
vn 0.00000000 -1.00000000 0.00000000
vn 0.70710678 0.00000000 -0.70710678
vn -1.00000000 0.00000000 0.00000000
vn 0.00000000 1.00000000 0.00000000
vn -0.70710678 0.00000000 0.70710678
vn 0.00000000 -1.00000000 0.00000000
vn 1.00000000 0.00000000 0.00000000
vn 0.00000000 0.00000000 1.00000000
vn 0.00000000 0.00000000 -1.00000000
vn 0.00000000 0.00000000 -1.00000000
vn 0.00000000 1.00000000 0.00000000
vn 0.00000000 0.00000000 1.00000000
vn 0.70710678 0.00000000 0.70710678
vn -0.70710678 0.00000000 -0.70710678
vn 1.00000000 0.00000000 0.00000000
vn 0.00000000 -1.00000000 0.00000000
vn -1.00000000 0.00000000 0.00000000
vn -1.00000000 0.00000000 0.00000000
vn 1.00000000 0.00000000 0.00000000
vn 0.00000000 -1.00000000 0.00000000
vn 0.00000000 0.00000000 -1.00000000
vn 0.00000000 0.00000000 1.00000000
vn 0.00000000 1.00000000 0.00000000
vn 1.00000000 0.00000000 0.00000000
vn -1.00000000 0.00000000 0.00000000
vn 0.00000000 1.00000000 0.00000000
vn -0.70710678 0.00000000 0.70710678
vn 0.00000000 0.00000000 1.00000000
vn 0.70710678 0.00000000 -0.70710678
vn 0.00000000 0.00000000 -1.00000000
vn 0.00000000 -1.00000000 0.00000000
vn 1.00000000 0.00000000 0.00000000
vn -1.00000000 0.00000000 0.00000000
vn 0.00000000 0.00000000 1.00000000
vn 0.00000000 0.00000000 -1.00000000
vn 0.00000000 1.00000000 0.00000000
vn 0.00000000 -1.00000000 0.00000000
vn -0.70710678 0.00000000 0.70710678
vn 0.00000000 0.00000000 1.00000000
vn 1.00000000 0.00000000 0.00000000
vn 0.00000000 0.00000000 -1.00000000
vn 0.00000000 -1.00000000 0.00000000
vn -1.00000000 0.00000000 0.00000000
vn 0.70710678 0.00000000 -0.70710678
vn 0.00000000 1.00000000 0.00000000
vn -1.00000000 0.00000000 0.00000000
vn 1.00000000 0.00000000 0.00000000
vn 0.00000000 1.00000000 0.00000000
vn 0.00000000 -1.00000000 0.00000000
vn -0.70710678 0.00000000 -0.70710678
vn 0.00000000 0.00000000 1.00000000
vn 0.70710678 0.00000000 0.70710678
vn 0.00000000 0.00000000 -1.00000000
vn 0.00000000 0.00000000 -1.00000000
vn 1.00000000 0.00000000 0.00000000
vn 0.00000000 -1.00000000 0.00000000
vn -1.00000000 0.00000000 0.00000000
vn 0.00000000 1.00000000 0.00000000
vn 0.00000000 0.00000000 1.00000000
vn 0.00000000 1.00000000 0.00000000
vn 0.00000000 0.00000000 1.00000000
vn 1.00000000 0.00000000 0.00000000
vn -1.00000000 0.00000000 0.00000000
vn 0.00000000 -1.00000000 0.00000000
vn 0.00000000 0.00000000 -1.00000000
vn 0.00000000 1.00000000 0.00000000
vn -1.00000000 0.00000000 0.00000000
vn 0.00000000 -1.00000000 0.00000000
vn 0.00000000 0.00000000 -1.00000000
vn 1.00000000 0.00000000 0.00000000
vn 0.00000000 0.00000000 1.00000000
vn 0.00000000 -1.00000000 0.00000000
vn -1.00000000 0.00000000 0.00000000
vn 1.00000000 0.00000000 0.00000000
vn 0.00000000 1.00000000 0.00000000
vn 0.00000000 0.00000000 -1.00000000
vn 0.00000000 0.00000000 1.00000000
vn -1.00000000 0.00000000 0.00000000
vn 0.00000000 -1.00000000 0.00000000
vn 0.00000000 1.00000000 0.00000000
vn 0.00000000 0.00000000 -1.00000000
vn 1.00000000 0.00000000 0.00000000
vn 0.00000000 0.00000000 1.00000000
vn 0.00000000 0.00000000 -1.00000000
vn 0.00000000 0.00000000 1.00000000
vn 0.00000000 -1.00000000 0.00000000
vn 0.00000000 1.00000000 0.00000000
vn -1.00000000 0.00000000 0.00000000
vn 1.00000000 0.00000000 0.00000000
vt 0.01662833 0.00488664
vt 0.08074383 0.00488664
vt 0.08074383 0.00488664
vt 0.44861420 0.00488664
vt 0.44861420 0.00488664
vt 0.01662833 0.00488664
vt 0.44861420 0.16295769
vt 0.08074383 0.00908810
vt 0.08074383 0.00908810
vt 0.02082979 0.16295769
vt 0.44861420 0.16295769
vt 0.02082979 0.16295769
vt 0.01662833 0.16295769
vt 0.08074383 0.16295769
vt 0.08074383 0.16295769
vt 0.01662833 0.16295769
vt 0.08074383 0.00488664
vt 0.08074383 0.00488664
vt 0.02082979 0.00488664
vt 0.44861420 0.00488664
vt 0.44861420 0.00908810
vt 0.44861420 0.00908810
vt 0.44861420 0.00488664
vt 0.02082979 0.00488664
vt 0.01662833 0.16295769
vt 0.01662833 0.16295769
vt 0.01662833 0.16295769
vt 0.01662833 0.00488664
vt 0.01662833 0.16295769
vt 0.01662833 0.00488664
vt 0.01662833 0.00488664
vt 0.01662833 0.00488664
vt 0.01662833 0.00488664
vt 0.01662833 0.00488664
vt 0.01662833 0.00488664
vt 0.01662833 0.00488664
vt 0.50852824 0.16295769
vt 0.01662833 0.16295769
vt 0.01662833 0.00908810
vt 0.50852824 0.16295769
vt 0.01662833 0.16295769
vt 0.01662833 0.00908810
vt 0.50852824 0.00488664
vt 0.01662833 0.00908810
vt 0.50852824 0.00488664
vt 0.01662833 0.00488664
vt 0.01662833 0.00488664
vt 0.01662833 0.00908810
vt 0.00489046 0.01663214
vt 0.00489046 0.01663214
vt 0.00489046 0.01663214
vt 0.00489046 0.01663214
vt 0.00489046 0.01663214
vt 0.00489046 0.01663214
vt 0.00489046 0.01663214
vt 0.00489046 0.01663214
vt 0.00489046 0.01663214
vt 0.00489046 0.01663214
vt 0.00489046 0.01663214
vt 0.00489046 0.01663214
vt 0.00489046 0.01663214
vt 0.00489046 0.01663214
vt 0.00489046 0.01663214
vt 0.00489046 0.01663214
vt 0.00489046 0.01663214
vt 0.00489046 0.01663214
vt 0.00489046 0.01663214
vt 0.00489046 0.01663214
vt 0.00489046 0.01663214
vt 0.00489046 0.01663214
vt 0.00489046 0.01663214
vt 0.00489046 0.01663214
vt 0.00489046 0.01663214
vt 0.00489046 0.01663214
vt 0.00489046 0.01663214
vt 0.00489046 0.01663214
vt 0.00489046 0.01663214
vt 0.00489046 0.01663214
vt 0.00489046 0.01663214
vt 0.00489046 0.01663214
vt 0.00489046 0.01663214
vt 0.00489046 0.01663214
vt 0.00489046 0.01663214
vt 0.00489046 0.01663214
vt 0.00489046 0.01663214
vt 0.00489046 0.01663214
vt 0.00489046 0.01663214
vt 0.00489046 0.01663214
vt 0.00489046 0.01663214
vt 0.00489046 0.01663214
vt 0.00489046 0.01663214
vt 0.00489046 0.01663214
vt 0.00489046 0.01663214
vt 0.00489046 0.01663214
vt 0.00489046 0.01663214
vt 0.00489046 0.01663214
vt 0.00489046 0.01663214
vt 0.00489046 0.01663214
vt 0.00489046 0.01663214
vt 0.00489046 0.01663214
vt 0.00489046 0.01663214
vt 0.00489046 0.01663214
vt 0.00489046 0.01663214
vt 0.00489046 0.01663214
vt 0.00489046 0.01663214
vt 0.00489046 0.01663214
vt 0.00489046 0.01663214
vt 0.00489046 0.01663214
vt 0.00489046 0.01663214
vt 0.00489046 0.01663214
vt 0.00489046 0.01663214
vt 0.00489046 0.01663214
vt 0.00489046 0.01663214
vt 0.00489046 0.01663214
vt 0.00489046 0.01663214
vt 0.00489046 0.01663214
vt 0.00489046 0.01663214
vt 0.00489046 0.01663214
vt 0.00489046 0.01663214
vt 0.00489046 0.01663214
vt 0.00489046 0.01663214
vt 0.00489046 0.01663214
vt 0.00489046 0.01663214
vt 0.00489046 0.01663214
vt 0.00489046 0.01663214
vt 0.00489046 0.01663214
vt 0.00489046 0.01663214
vt 0.00489046 0.01663214
vt 0.00489046 0.01663214
vt 0.00489046 0.01663214
vt 0.00489046 0.01663214
vt 0.00489046 0.01663214
vt 0.00489046 0.01663214
vt 0.00489046 0.01663214
vt 0.00489046 0.01663214
vt 0.00489046 0.01663214
vt 0.00489046 0.01663214
vt 0.00489046 0.01663214
vt 0.00489046 0.01663214
vt 0.00489046 0.01663214
vt 0.00489046 0.01663214
vt 0.00489046 0.01663214
vt 0.00489046 0.01663214
vt 0.00489046 0.01663214
vt 0.00489046 0.01663214
vt 0.00489046 0.01663214
vt 0.00489046 0.01663214
vt 0.00489046 0.01663214
vt 0.00489046 0.01663214
vt 0.00489046 0.01663214
vt 0.00489046 0.01663214
vt 0.00489046 0.01663214
vt 0.00489046 0.01663214
vt 0.00489046 0.01663214
vt 0.00489046 0.01663214
vt 0.00489046 0.01663214
vt 0.00489046 0.01663214
vt 0.00489046 0.01663214
vt 0.00489046 0.01663214
vt 0.00489046 0.01663214
f 1/1/1 12/12/12 16/16/16
f 12/12/12 1/1/1 24/24/24
f 13/13/13 10/10/10 6/6/6
f 19/19/19 6/6/6 10/10/10
f 9/9/9 30/30/30 17/17/17
f 18/18/18 28/28/28 8/8/8
f 26/26/26 3/3/3 15/15/15
f 14/14/14 2/2/2 25/25/25
f 33/33/33 22/22/22 4/4/4
f 5/5/5 21/21/21 34/34/34
f 23/23/23 41/41/41 11/11/11
f 7/7/7 38/38/38 20/20/20
f 30/30/30 9/9/9 42/42/42
f 39/39/39 8/8/8 28/28/28
f 3/3/3 26/26/26 35/35/35
f 32/32/32 25/25/25 2/2/2
f 22/22/22 33/33/33 44/44/44
f 48/48/48 34/34/34 21/21/21
f 41/41/41 23/23/23 46/46/46
f 47/47/47 20/20/20 38/38/38
f 40/40/40 36/36/36 29/29/29
f 27/27/27 31/31/31 37/37/37
f 36/36/36 40/40/40 45/45/45
f 43/43/43 37/37/37 31/31/31
f 49/49/49 57/57/57 66/66/66
f 57/57/57 49/49/49 75/75/75
f 72/72/72 64/64/64 55/55/55
f 77/77/77 55/55/55 64/64/64
f 71/71/71 85/85/85 59/59/59
f 61/61/61 84/84/84 67/67/67
f 57/57/57 94/94/94 66/66/66
f 72/72/72 91/91/91 64/64/64
f 68/68/68 101/101/101 53/53/53
f 50/50/50 99/99/99 70/70/70
f 49/49/49 107/107/107 75/75/75
f 77/77/77 108/108/108 55/55/55
f 56/56/56 109/109/109 76/76/76
f 73/73/73 115/115/115 51/51/51
f 110/110/110 60/60/60 79/79/79
f 80/80/80 58/58/58 112/112/112
f 85/85/85 71/71/71 121/121/121
f 123/123/123 67/67/67 84/84/84
f 88/88/88 128/128/128 63/63/63
f 62/62/62 126/126/126 86/86/86
f 60/60/60 110/110/110 83/83/83
f 81/81/81 112/112/112 58/58/58
f 94/94/94 57/57/57 129/129/129
f 127/127/127 64/64/64 91/91/91
f 90/90/90 118/118/118 69/69/69
f 65/65/65 117/117/117 89/89/89
f 101/101/101 68/68/68 124/124/124
f 122/122/122 70/70/70 99/99/99
f 134/134/134 52/52/52 96/96/96
f 95/95/95 54/54/54 133/133/133
f 109/109/109 56/56/56 98/98/98
f 100/100/100 51/51/51 115/115/115
f 107/107/107 49/49/49 137/137/137
f 139/139/139 55/55/55 108/108/108
f 103/103/103 111/111/111 78/78/78
f 74/74/74 114/114/114 104/104/104
f 143/143/143 87/87/87 120/120/120
f 119/119/119 82/82/82 146/146/146
f 87/87/87 102/102/102 120/120/120
f 119/119/119 97/97/97 82/82/82
f 128/128/128 88/88/88 149/149/149
f 153/153/153 86/86/86 126/126/126
f 102/102/102 87/87/87 113/113/113
f 116/116/116 82/82/82 97/97/97
f 154/154/154 93/93/93 130/130/130
f 125/125/125 92/92/92 152/152/152
f 118/118/118 90/90/90 145/145/145
f 144/144/144 89/89/89 117/117/117
f 52/52/52 134/134/134 138/138/138
f 141/141/141 133/133/133 54/54/54
f 102/102/102 157/157/157 135/135/135
f 131/131/131 158/158/158 97/97/97
f 157/157/157 102/102/102 113/113/113
f 116/116/116 97/97/97 158/158/158
f 132/132/132 105/105/105 142/142/142
f 140/140/140 106/106/106 136/136/136
f 111/111/111 103/103/103 160/160/160
f 159/159/159 104/104/104 114/114/114
f 87/87/87 143/143/143 150/150/150
f 151/151/151 146/146/146 82/82/82
f 93/93/93 154/154/154 148/148/148
f 147/147/147 152/152/152 92/92/92
f 105/105/105 132/132/132 156/156/156
f 155/155/155 136/136/136 106/106/106

