# https://github.com/mikedh/trimesh
mtllib material.mtl
usemtl material_0
v 0.35945000 -0.76735000 0.30065500
v -0.33734900 0.77954300 0.30065500
v -0.33734900 -0.76735000 0.30065500
v 0.35945000 0.77954300 0.30065500
v 0.35945000 0.77954300 0.30065500
v 0.35945000 -0.76735000 0.30065500
v -0.33734900 0.77954300 0.30065500
v -0.33734900 -0.76735000 0.30065500
v 0.41519400 0.75810000 0.30065500
v 0.28283500 0.67237300 0.30065500
v 0.28283500 0.75810000 0.30065500
v 0.41519400 0.67237300 0.30065500
v 0.41519400 0.67237300 0.30065500
v 0.41519400 0.75810000 0.31459100
v 0.41519400 0.67237300 0.31459100
v 0.41519400 0.75810000 0.30065500
v 0.41519400 0.67237300 0.31459100
v 0.28283500 0.67237300 0.30065500
v 0.41519400 0.67237300 0.30065500
v 0.29537700 0.67237300 0.31459100
v 0.29537700 0.75810000 0.31459100
v 0.28283500 0.67237300 0.30065500
v 0.29537700 0.67237300 0.31459100
v 0.28283500 0.75810000 0.30065500
v 0.29537700 0.75810000 0.31459100
v 0.41519400 0.75810000 0.30065500
v 0.28283500 0.75810000 0.30065500
v 0.41519400 0.75810000 0.31459100
v 0.41519400 0.67237300 0.31459100
v 0.29537700 0.75810000 0.31459100
v 0.29537700 0.67237300 0.31459100
v 0.41519400 0.75810000 0.31459100
v 0.41519400 -0.58950900 0.30065500
v 0.28283500 -0.67523600 0.30065500
v 0.28283500 -0.58950900 0.30065500
v 0.41519400 -0.67523600 0.30065500
v 0.41519400 -0.67523600 0.30065500
v 0.41519400 -0.58950900 0.31459100
v 0.41519400 -0.67523600 0.31459100
v 0.41519400 -0.58950900 0.30065500
v 0.41519400 -0.67523600 0.31459100
v 0.28283500 -0.67523600 0.30065500
v 0.41519400 -0.67523600 0.30065500
v 0.29537700 -0.67523600 0.31459100
v 0.29537700 -0.58950900 0.31459100
v 0.28283500 -0.67523600 0.30065500
v 0.29537700 -0.67523600 0.31459100
v 0.28283500 -0.58950900 0.30065500
v 0.29537700 -0.58950900 0.31459100
v 0.41519400 -0.58950900 0.30065500
v 0.28283500 -0.58950900 0.30065500
v 0.41519400 -0.58950900 0.31459100
v 0.41519400 -0.67523600 0.31459100
v 0.29537700 -0.58950900 0.31459100
v 0.29537700 -0.67523600 0.31459100
v 0.41519400 -0.58950900 0.31459100
v 0.35945000 0.77954300 0.27278300
v -0.33734900 -0.76735000 0.27278300
v -0.33734900 0.77954300 0.27278300
v 0.35945000 -0.76735000 0.27278300
v 0.35945000 -0.76735000 0.27278300
v 0.35945000 0.77954300 0.27278300
v -0.33734900 -0.76735000 0.27278300
v -0.33734900 0.77954300 0.27278300
v 0.35945000 -0.76735000 0.30065500
v -0.33734900 -0.76735000 0.27278300
v 0.35945000 -0.76735000 0.27278300
v -0.33734900 -0.76735000 0.30065500
v -0.33734900 -0.76735000 0.30065500
v 0.35945000 -0.76735000 0.30065500
v -0.33734900 -0.76735000 0.27278300
v 0.35945000 -0.76735000 0.27278300
v -0.33734900 0.77954300 0.30065500
v -0.33734900 -0.76735000 0.27278300
v -0.33734900 -0.76735000 0.30065500
v -0.33734900 0.77954300 0.27278300
v -0.33734900 0.77954300 0.27278300
v -0.33734900 0.77954300 0.30065500
v -0.33734900 -0.76735000 0.27278300
v -0.33734900 -0.76735000 0.30065500
v -0.33734900 0.77954300 0.27278300
v 0.35945000 0.77954300 0.30065500
v 0.35945000 0.77954300 0.27278300
v -0.33734900 0.77954300 0.30065500
v -0.33734900 0.77954300 0.30065500
v -0.33734900 0.77954300 0.27278300
v 0.35945000 0.77954300 0.30065500
v 0.35945000 0.77954300 0.27278300
v 0.35945000 0.77954300 0.27278300
v 0.35945000 -0.76735000 0.30065500
v 0.35945000 -0.76735000 0.27278300
v 0.35945000 0.77954300 0.30065500
v 0.35945000 0.77954300 0.30065500
v 0.35945000 0.77954300 0.27278300
v 0.35945000 -0.76735000 0.30065500
v 0.35945000 -0.76735000 0.27278300
vn 0.00000000 0.00000000 1.00000000
vn 0.00000000 0.00000000 1.00000000
vn 0.00000000 0.00000000 1.00000000
vn 0.00000000 0.00000000 1.00000000
vn 0.00000000 0.00000000 -1.00000000
vn 0.00000000 0.00000000 -1.00000000
vn 0.00000000 0.00000000 -1.00000000
vn 0.00000000 0.00000000 -1.00000000
vn -0.00000002 0.00000003 -1.00000000
vn -0.00000002 0.00000003 -1.00000000
vn -0.00000002 0.00000003 -1.00000000
vn -0.00000002 0.00000003 -1.00000000
vn 1.00000000 0.00000000 -0.00000002
vn 1.00000000 0.00000000 -0.00000002
vn 1.00000000 0.00000000 -0.00000002
vn 1.00000000 0.00000000 -0.00000002
vn 0.00000000 -1.00000000 -0.00000003
vn 0.00000000 -1.00000000 -0.00000003
vn 0.00000000 -1.00000000 -0.00000003
vn 0.00000000 -1.00000000 -0.00000003
vn -0.74329422 0.00000000 0.66896464
vn -0.74329422 0.00000000 0.66896464
vn -0.74329422 0.00000000 0.66896464
vn -0.74329422 0.00000000 0.66896464
vn 0.00000000 1.00000000 0.00000003
vn 0.00000000 1.00000000 0.00000003
vn 0.00000000 1.00000000 0.00000003
vn 0.00000000 1.00000000 0.00000003
vn 0.00000002 -0.00000003 1.00000000
vn 0.00000002 -0.00000003 1.00000000
vn 0.00000002 -0.00000003 1.00000000
vn 0.00000002 -0.00000003 1.00000000
vn -0.00000002 0.00000003 -1.00000000
vn -0.00000002 0.00000003 -1.00000000
vn -0.00000002 0.00000003 -1.00000000
vn -0.00000002 0.00000003 -1.00000000
vn 1.00000000 0.00000000 -0.00000002
vn 1.00000000 0.00000000 -0.00000002
vn 1.00000000 0.00000000 -0.00000002
vn 1.00000000 0.00000000 -0.00000002
vn 0.00000000 -1.00000000 -0.00000003
vn 0.00000000 -1.00000000 -0.00000003
vn 0.00000000 -1.00000000 -0.00000003
vn 0.00000000 -1.00000000 -0.00000003
vn -0.74329422 0.00000000 0.66896464
vn -0.74329422 0.00000000 0.66896464
vn -0.74329422 0.00000000 0.66896464
vn -0.74329422 0.00000000 0.66896464
vn 0.00000000 1.00000000 0.00000003
vn 0.00000000 1.00000000 0.00000003
vn 0.00000000 1.00000000 0.00000003
vn 0.00000000 1.00000000 0.00000003
vn 0.00000002 -0.00000003 1.00000000
vn 0.00000002 -0.00000003 1.00000000
vn 0.00000002 -0.00000003 1.00000000
vn 0.00000002 -0.00000003 1.00000000
vn -0.00000004 0.00000000 -1.00000000
vn -0.00000004 0.00000000 -1.00000000
vn -0.00000004 0.00000000 -1.00000000
vn -0.00000004 0.00000000 -1.00000000
vn 0.00000004 0.00000000 1.00000000
vn 0.00000004 0.00000000 1.00000000
vn 0.00000004 0.00000000 1.00000000
vn 0.00000004 0.00000000 1.00000000
vn 0.00000000 -1.00000000 0.00000000
vn 0.00000000 -1.00000000 0.00000000
vn 0.00000000 -1.00000000 0.00000000
vn 0.00000000 -1.00000000 0.00000000
vn 0.00000000 1.00000000 0.00000000
vn 0.00000000 1.00000000 0.00000000
vn 0.00000000 1.00000000 0.00000000
vn 0.00000000 1.00000000 0.00000000
vn -1.00000000 0.00000000 0.00000004
vn -1.00000000 0.00000000 0.00000004
vn -1.00000000 0.00000000 0.00000004
vn -1.00000000 0.00000000 0.00000004
vn 1.00000000 0.00000000 -0.00000004
vn 1.00000000 0.00000000 -0.00000004
vn 1.00000000 0.00000000 -0.00000004
vn 1.00000000 0.00000000 -0.00000004
vn 0.00000000 1.00000000 0.00000000
vn 0.00000000 1.00000000 0.00000000
vn 0.00000000 1.00000000 0.00000000
vn 0.00000000 1.00000000 0.00000000
vn 0.00000000 -1.00000000 0.00000000
vn 0.00000000 -1.00000000 0.00000000
vn 0.00000000 -1.00000000 0.00000000
vn 0.00000000 -1.00000000 0.00000000
vn 1.00000000 0.00000000 -0.00000004
vn 1.00000000 0.00000000 -0.00000004
vn 1.00000000 0.00000000 -0.00000004
vn 1.00000000 0.00000000 -0.00000004
vn -1.00000000 0.00000000 0.00000004
vn -1.00000000 0.00000000 0.00000004
vn -1.00000000 0.00000000 0.00000004
vn -1.00000000 0.00000000 0.00000004
vt 0.98305049 0.00333193
vt 0.72181153 0.58221545
vt 0.72181153 0.00333193
vt 0.98305049 0.58221545
vt 0.67855923 0.66114190
vt 0.67855923 0.07299566
vt 0.41383664 0.66114190
vt 0.41383664 0.07299566
vt 0.75556931 0.62956205
vt 0.75273917 0.59098149
vt 0.75273917 0.62956205
vt 0.75556931 0.59098149
vt 0.72568903 0.59098173
vt 0.78365400 0.62956230
vt 0.78365400 0.59098173
vt 0.72568903 0.62956230
vt 0.78365400 0.59098173
vt 0.72203144 0.62670213
vt 0.78365400 0.62670213
vt 0.72787080 0.59098173
vt 0.76146806 0.62956205
vt 0.75273917 0.59098149
vt 0.76146806 0.59098149
vt 0.75273917 0.62956205
vt 0.72787080 0.62956230
vt 0.78365400 0.59384192
vt 0.72203144 0.59384192
vt 0.78365400 0.62956230
vt 0.78365400 0.59098173
vt 0.72787080 0.62956230
vt 0.72787080 0.59098173
vt 0.78365400 0.62956230
vt 0.75556931 0.62956205
vt 0.75273917 0.59098149
vt 0.75273917 0.62956205
vt 0.75556931 0.59098149
vt 0.72568903 0.59098173
vt 0.78365400 0.62956230
vt 0.78365400 0.59098173
vt 0.72568903 0.62956230
vt 0.78365400 0.59098173
vt 0.72203144 0.62670213
vt 0.78365400 0.62670213
vt 0.72787080 0.59098173
vt 0.76146806 0.62956205
vt 0.75273917 0.59098149
vt 0.76146806 0.59098149
vt 0.75273917 0.62956205
vt 0.72787080 0.62956230
vt 0.78365400 0.59384192
vt 0.72203144 0.59384192
vt 0.78365400 0.62956230
vt 0.78365400 0.59098173
vt 0.72787080 0.62956230
vt 0.72787080 0.59098173
vt 0.78365400 0.62956230
vt 0.67430410 0.66107640
vt 0.41332934 0.08125689
vt 0.41332934 0.66107640
vt 0.67430410 0.08125689
vt 0.67855923 0.07299566
vt 0.67855923 0.66114190
vt 0.41383664 0.07299566
vt 0.41383664 0.66114190
vt 0.67430410 0.08125689
vt 0.41332934 0.08125689
vt 0.67430410 0.08125689
vt 0.41332934 0.08125689
vt 0.41383664 0.07299566
vt 0.67855923 0.07299566
vt 0.41383664 0.07299566
vt 0.67855923 0.07299566
vt 0.41332934 0.66107640
vt 0.41332934 0.08125689
vt 0.41332934 0.08125689
vt 0.41332934 0.66107640
vt 0.41383664 0.66114190
vt 0.41383664 0.66114190
vt 0.41383664 0.07299566
vt 0.41383664 0.07299566
vt 0.41332934 0.66107640
vt 0.67430410 0.66107640
vt 0.67430410 0.66107640
vt 0.41332934 0.66107640
vt 0.41383664 0.66114190
vt 0.41383664 0.66114190
vt 0.67855923 0.66114190
vt 0.67855923 0.66114190
vt 0.67430410 0.66107640
vt 0.67430410 0.08125689
vt 0.67430410 0.08125689
vt 0.67430410 0.66107640
vt 0.67855923 0.66114190
vt 0.67855923 0.66114190
vt 0.67855923 0.07299566
vt 0.67855923 0.07299566
f 1/1/1 2/2/2 3/3/3
f 2/2/2 1/1/1 4/4/4
f 5/5/5 6/6/6 7/7/7
f 8/8/8 7/7/7 6/6/6
f 9/9/9 10/10/10 11/11/11
f 10/10/10 9/9/9 12/12/12
f 13/13/13 14/14/14 15/15/15
f 14/14/14 13/13/13 16/16/16
f 17/17/17 18/18/18 19/19/19
f 18/18/18 17/17/17 20/20/20
f 21/21/21 22/22/22 23/23/23
f 22/22/22 21/21/21 24/24/24
f 25/25/25 26/26/26 27/27/27
f 26/26/26 25/25/25 28/28/28
f 29/29/29 30/30/30 31/31/31
f 30/30/30 29/29/29 32/32/32
f 33/33/33 34/34/34 35/35/35
f 34/34/34 33/33/33 36/36/36
f 37/37/37 38/38/38 39/39/39
f 38/38/38 37/37/37 40/40/40
f 41/41/41 42/42/42 43/43/43
f 42/42/42 41/41/41 44/44/44
f 45/45/45 46/46/46 47/47/47
f 46/46/46 45/45/45 48/48/48
f 49/49/49 50/50/50 51/51/51
f 50/50/50 49/49/49 52/52/52
f 53/53/53 54/54/54 55/55/55
f 54/54/54 53/53/53 56/56/56
f 57/57/57 58/58/58 59/59/59
f 58/58/58 57/57/57 60/60/60
f 61/61/61 62/62/62 63/63/63
f 64/64/64 63/63/63 62/62/62
f 65/65/65 66/66/66 67/67/67
f 66/66/66 65/65/65 68/68/68
f 69/69/69 70/70/70 71/71/71
f 72/72/72 71/71/71 70/70/70
f 73/73/73 74/74/74 75/75/75
f 74/74/74 73/73/73 76/76/76
f 77/77/77 78/78/78 79/79/79
f 80/80/80 79/79/79 78/78/78
f 81/81/81 82/82/82 83/83/83
f 82/82/82 81/81/81 84/84/84
f 85/85/85 86/86/86 87/87/87
f 88/88/88 87/87/87 86/86/86
f 89/89/89 90/90/90 91/91/91
f 90/90/90 89/89/89 92/92/92
f 93/93/93 94/94/94 95/95/95
f 96/96/96 95/95/95 94/94/94

