# https://github.com/mikedh/trimesh
mtllib material.mtl
usemtl material_0
v -0.30876300 0.69849300 -0.50540400
v -0.27155700 0.69849300 -0.55151100
v -0.30876300 0.75167500 -0.50540400
v -0.27155700 0.75167500 -0.55151100
v -0.30876300 0.75167500 -0.50540400
v -0.30876300 0.75167500 0.52365300
v -0.30876300 0.69849300 -0.50540400
v -0.22739600 0.75167500 -0.59100600
v -0.30876300 0.69849300 0.52365300
v -0.22739600 0.69849300 -0.59100600
v -0.30876300 0.75167500 0.52365300
v -0.27155700 0.75167500 0.56976000
v -0.30876300 0.69849300 0.52365300
v -0.17743800 0.75167500 -0.62285400
v -0.30876300 0.69736800 0.52365300
v -0.17743800 0.69849300 -0.62285400
v -0.27155700 0.69736800 0.56976000
v -0.22739600 0.75167500 0.60925500
v -0.22739600 0.69736800 0.60925500
v -0.12299400 0.75167500 -0.64621900
v -0.17743800 0.75167500 0.64110300
v -0.17743800 0.69736800 0.64110300
v -0.06549200 0.75167500 -0.66048800
v -0.06549200 0.69849300 -0.66048800
v -0.00644100 0.75167500 -0.66528600
v -0.12299400 0.69849300 -0.64621900
v 0.25867600 0.69849300 -0.55151100
v 0.29588100 0.69849300 -0.50540400
v 0.25867600 0.75167500 -0.55151100
v -0.12299400 0.75167500 0.66446800
v -0.12299400 0.69736800 0.66446800
v -0.00644100 0.69849300 -0.66528600
v 0.29588100 0.69849300 -0.50540400
v 0.29588100 0.69849300 0.52365300
v 0.29588100 0.75167500 -0.50540400
v 0.29588100 0.69736800 0.52365300
v 0.25867600 0.69736800 0.56976000
v 0.29588100 0.69849300 0.52365300
v 0.29588100 0.75167500 -0.50540400
v 0.21451500 0.69849300 -0.59100600
v 0.21451500 0.75167500 -0.59100600
v 0.16455700 0.69849300 -0.62285400
v -0.06549200 0.75167500 0.67873700
v -0.06549200 0.69736800 0.67873700
v -0.00644100 0.75167500 -0.66528600
v -0.00644100 0.69849300 -0.66528600
v 0.05261000 0.75167500 -0.66048800
v 0.29588100 0.75167500 0.52365300
v 0.25867600 0.75167500 0.56976000
v 0.16455700 0.75167500 -0.62285400
v -0.00644100 0.75167500 0.68353500
v -0.00644100 0.69736800 0.68353500
v 0.05261000 0.69849300 -0.66048800
v 0.29588100 0.75167500 0.52365300
v 0.21451500 0.75167500 0.60925500
v 0.21451500 0.69736800 0.60925500
v 0.11011300 0.69849300 -0.64621900
v -0.00644100 0.69736800 0.68353500
v -0.00644100 0.75167500 0.68353500
v 0.05261000 0.69736800 0.67873700
v 0.05261000 0.75167500 0.67873700
v 0.11011300 0.75167500 -0.64621900
v 0.16455700 0.75167500 0.64110300
v 0.16455700 0.69736800 0.64110300
v 0.11011300 0.75167500 0.66446800
v 0.11011300 0.69736800 0.66446800
v -0.30876300 0.75167500 -0.50540400
v -0.27155700 0.69849300 -0.55151100
v -0.30876300 0.69849300 -0.50540400
v -0.27155700 0.75167500 -0.55151100
v -0.30876300 0.69849300 -0.50540400
v -0.30876300 0.75167500 0.52365300
v -0.30876300 0.75167500 -0.50540400
v -0.22739600 0.75167500 -0.59100600
v -0.30876300 0.69849300 0.52365300
v -0.22739600 0.69849300 -0.59100600
v -0.30876300 0.69849300 0.52365300
v -0.27155700 0.75167500 0.56976000
v -0.30876300 0.75167500 0.52365300
v -0.17743800 0.75167500 -0.62285400
v -0.30876300 0.69736800 0.52365300
v -0.17743800 0.69849300 -0.62285400
v -0.27155700 0.69736800 0.56976000
v -0.22739600 0.69736800 0.60925500
v -0.22739600 0.75167500 0.60925500
v -0.12299400 0.75167500 -0.64621900
v -0.17743800 0.69736800 0.64110300
v -0.17743800 0.75167500 0.64110300
v -0.00644100 0.75167500 -0.66528600
v -0.06549200 0.69849300 -0.66048800
v -0.06549200 0.75167500 -0.66048800
v -0.12299400 0.69849300 -0.64621900
v 0.25867600 0.75167500 -0.55151100
v 0.29588100 0.69849300 -0.50540400
v 0.25867600 0.69849300 -0.55151100
v -0.12299400 0.69736800 0.66446800
v -0.12299400 0.75167500 0.66446800
v -0.00644100 0.69849300 -0.66528600
v 0.29588100 0.75167500 -0.50540400
v 0.29588100 0.69849300 0.52365300
v 0.29588100 0.69849300 -0.50540400
v 0.29588100 0.69849300 0.52365300
v 0.25867600 0.69736800 0.56976000
v 0.29588100 0.69736800 0.52365300
v 0.29588100 0.75167500 -0.50540400
v 0.21451500 0.69849300 -0.59100600
v 0.16455700 0.69849300 -0.62285400
v 0.21451500 0.75167500 -0.59100600
v -0.06549200 0.69736800 0.67873700
v -0.06549200 0.75167500 0.67873700
v 0.05261000 0.75167500 -0.66048800
v -0.00644100 0.69849300 -0.66528600
v -0.00644100 0.75167500 -0.66528600
v 0.29588100 0.75167500 0.52365300
v 0.25867600 0.75167500 0.56976000
v 0.16455700 0.75167500 -0.62285400
v -0.00644100 0.69736800 0.68353500
v -0.00644100 0.75167500 0.68353500
v 0.05261000 0.69849300 -0.66048800
v 0.29588100 0.75167500 0.52365300
v 0.21451500 0.75167500 0.60925500
v 0.21451500 0.69736800 0.60925500
v 0.11011300 0.69849300 -0.64621900
v 0.05261000 0.69736800 0.67873700
v -0.00644100 0.75167500 0.68353500
v -0.00644100 0.69736800 0.68353500
v 0.05261000 0.75167500 0.67873700
v 0.11011300 0.75167500 -0.64621900
v 0.16455700 0.75167500 0.64110300
v 0.16455700 0.69736800 0.64110300
v 0.11011300 0.69736800 0.66446800
v 0.11011300 0.75167500 0.66446800
v -0.30876300 0.75167500 -0.50540400
v -0.00644100 0.75167500 -0.66528600
v -0.27155700 0.75167500 -0.55151100
v -0.27155700 0.75167500 -0.55151100
v -0.00644100 0.75167500 -0.66528600
v -0.30876300 0.75167500 -0.50540400
v -0.30876300 0.75167500 0.52365300
v -0.30876300 0.75167500 0.52365300
v -0.22739600 0.75167500 -0.59100600
v -0.22739600 0.75167500 -0.59100600
v -0.27155700 0.75167500 0.56976000
v -0.27155700 0.75167500 0.56976000
v -0.17743800 0.75167500 -0.62285400
v -0.17743800 0.75167500 -0.62285400
v -0.22739600 0.75167500 0.60925500
v -0.22739600 0.75167500 0.60925500
v -0.12299400 0.75167500 -0.64621900
v -0.12299400 0.75167500 -0.64621900
v -0.17743800 0.75167500 0.64110300
v -0.17743800 0.75167500 0.64110300
v -0.06549200 0.75167500 -0.66048800
v -0.06549200 0.75167500 -0.66048800
v -0.12299400 0.75167500 0.66446800
v -0.12299400 0.75167500 0.66446800
v -0.06549200 0.75167500 0.67873700
v -0.06549200 0.75167500 0.67873700
v -0.00644100 0.75167500 0.68353500
v -0.00644100 0.75167500 0.68353500
v 0.29588100 0.75167500 -0.50540400
v 0.25867600 0.75167500 -0.55151100
v 0.25867600 0.75167500 -0.55151100
v 0.29588100 0.75167500 -0.50540400
v 0.05261000 0.75167500 0.67873700
v 0.05261000 0.75167500 0.67873700
v 0.11011300 0.75167500 -0.64621900
v 0.05261000 0.75167500 -0.66048800
v 0.05261000 0.75167500 -0.66048800
v 0.11011300 0.75167500 -0.64621900
v 0.29588100 0.75167500 0.52365300
v 0.29588100 0.75167500 0.52365300
v 0.21451500 0.75167500 -0.59100600
v 0.21451500 0.75167500 -0.59100600
v 0.16455700 0.75167500 -0.62285400
v 0.16455700 0.75167500 -0.62285400
v 0.11011300 0.75167500 0.66446800
v 0.11011300 0.75167500 0.66446800
v 0.25867600 0.75167500 0.56976000
v 0.25867600 0.75167500 0.56976000
v 0.21451500 0.75167500 0.60925500
v 0.21451500 0.75167500 0.60925500
v 0.16455700 0.75167500 0.64110300
v 0.16455700 0.75167500 0.64110300
vn 0.77822384 0.00000000 0.62798699
vn 0.72480835 0.00000000 0.68895055
vn 0.77822384 0.00000000 0.62798699
vn 0.72480835 0.00000000 0.68895055
vn 1.00000000 0.00000000 0.00000000
vn 1.00000000 0.00000000 0.00000000
vn 1.00000000 0.00000000 0.00000000
vn 0.60407699 0.00000000 0.79692597
vn 1.00000000 0.00000000 0.00000000
vn 0.60407699 0.00000000 0.79692597
vn 0.77822384 0.00000000 -0.62798699
vn 0.72480835 0.00000000 -0.68895055
vn 0.77822384 0.00000000 -0.62798699
vn 0.46749968 0.00000000 0.88399324
vn 0.77822384 0.00000000 -0.62798699
vn 0.46749968 0.00000000 0.88399324
vn 0.72480835 0.00000000 -0.68895055
vn 0.60407699 0.00000000 -0.79692597
vn 0.60407699 0.00000000 -0.79692597
vn 0.31865519 0.00000000 0.94787070
vn 0.46749968 0.00000000 -0.88399324
vn 0.46749968 0.00000000 -0.88399324
vn 0.16144454 0.00000000 0.98688179
vn 0.16144454 0.00000000 0.98688179
vn 0.08098491 0.00000000 0.99671533
vn 0.31865519 0.00000000 0.94787070
vn -0.72481288 0.00000000 0.68894579
vn -0.77823209 0.00000000 0.62797677
vn -0.72481288 0.00000000 0.68894579
vn 0.31865519 0.00000000 -0.94787070
vn 0.31865519 0.00000000 -0.94787070
vn 0.08098491 0.00000000 0.99671533
vn -1.00000000 0.00000000 0.00000000
vn -1.00000000 0.00000000 0.00000000
vn -1.00000000 0.00000000 0.00000000
vn -0.77823209 0.00000000 -0.62797677
vn -0.72481288 0.00000000 -0.68894579
vn -0.77823209 0.00000000 -0.62797677
vn -0.77823209 0.00000000 0.62797677
vn -0.60407699 0.00000000 0.79692597
vn -0.60407699 0.00000000 0.79692597
vn -0.46749968 0.00000000 0.88399324
vn 0.16144454 0.00000000 -0.98688179
vn 0.16144454 0.00000000 -0.98688179
vn -0.08098491 0.00000000 0.99671533
vn -0.08098491 0.00000000 0.99671533
vn -0.16144254 0.00000000 0.98688211
vn -1.00000000 0.00000000 0.00000000
vn -0.72481288 0.00000000 -0.68894579
vn -0.46749968 0.00000000 0.88399324
vn 0.08098491 0.00000000 -0.99671533
vn 0.08098491 0.00000000 -0.99671533
vn -0.16144254 0.00000000 0.98688211
vn -0.77823209 0.00000000 -0.62797677
vn -0.60407699 0.00000000 -0.79692597
vn -0.60407699 0.00000000 -0.79692597
vn -0.31865327 0.00000000 0.94787135
vn -0.08098491 0.00000000 -0.99671533
vn -0.08098491 0.00000000 -0.99671533
vn -0.16144254 0.00000000 -0.98688211
vn -0.16144254 0.00000000 -0.98688211
vn -0.31865327 0.00000000 0.94787135
vn -0.46749968 0.00000000 -0.88399324
vn -0.46749968 0.00000000 -0.88399324
vn -0.31865327 0.00000000 -0.94787135
vn -0.31865327 0.00000000 -0.94787135
vn -0.77822384 0.00000000 -0.62798699
vn -0.72480835 0.00000000 -0.68895055
vn -0.77822384 0.00000000 -0.62798699
vn -0.72480835 0.00000000 -0.68895055
vn -1.00000000 0.00000000 0.00000000
vn -1.00000000 0.00000000 0.00000000
vn -1.00000000 0.00000000 0.00000000
vn -0.60407699 0.00000000 -0.79692597
vn -1.00000000 0.00000000 0.00000000
vn -0.60407699 0.00000000 -0.79692597
vn -0.77822384 0.00000000 0.62798699
vn -0.72480835 0.00000000 0.68895055
vn -0.77822384 0.00000000 0.62798699
vn -0.46749968 0.00000000 -0.88399324
vn -0.77822384 0.00000000 0.62798699
vn -0.46749968 0.00000000 -0.88399324
vn -0.72480835 0.00000000 0.68895055
vn -0.60407699 0.00000000 0.79692597
vn -0.60407699 0.00000000 0.79692597
vn -0.31865519 0.00000000 -0.94787070
vn -0.46749968 0.00000000 0.88399324
vn -0.46749968 0.00000000 0.88399324
vn -0.08098491 0.00000000 -0.99671533
vn -0.16144454 0.00000000 -0.98688179
vn -0.16144454 0.00000000 -0.98688179
vn -0.31865519 0.00000000 -0.94787070
vn 0.72481288 0.00000000 -0.68894579
vn 0.77823209 0.00000000 -0.62797677
vn 0.72481288 0.00000000 -0.68894579
vn -0.31865519 0.00000000 0.94787070
vn -0.31865519 0.00000000 0.94787070
vn -0.08098491 0.00000000 -0.99671533
vn 1.00000000 0.00000000 0.00000000
vn 1.00000000 0.00000000 0.00000000
vn 1.00000000 0.00000000 0.00000000
vn 0.77823209 0.00000000 0.62797677
vn 0.72481288 0.00000000 0.68894579
vn 0.77823209 0.00000000 0.62797677
vn 0.77823209 0.00000000 -0.62797677
vn 0.60407699 0.00000000 -0.79692597
vn 0.46749968 0.00000000 -0.88399324
vn 0.60407699 0.00000000 -0.79692597
vn -0.16144454 0.00000000 0.98688179
vn -0.16144454 0.00000000 0.98688179
vn 0.16144254 0.00000000 -0.98688211
vn 0.08098491 0.00000000 -0.99671533
vn 0.08098491 0.00000000 -0.99671533
vn 1.00000000 0.00000000 0.00000000
vn 0.72481288 0.00000000 0.68894579
vn 0.46749968 0.00000000 -0.88399324
vn -0.08098491 0.00000000 0.99671533
vn -0.08098491 0.00000000 0.99671533
vn 0.16144254 0.00000000 -0.98688211
vn 0.77823209 0.00000000 0.62797677
vn 0.60407699 0.00000000 0.79692597
vn 0.60407699 0.00000000 0.79692597
vn 0.31865327 0.00000000 -0.94787135
vn 0.16144254 0.00000000 0.98688211
vn 0.08098491 0.00000000 0.99671533
vn 0.08098491 0.00000000 0.99671533
vn 0.16144254 0.00000000 0.98688211
vn 0.31865327 0.00000000 -0.94787135
vn 0.46749968 0.00000000 0.88399324
vn 0.46749968 0.00000000 0.88399324
vn 0.31865327 0.00000000 0.94787135
vn 0.31865327 0.00000000 0.94787135
vn 0.00000000 1.00000000 0.00000000
vn 0.00000000 1.00000000 0.00000000
vn 0.00000000 1.00000000 0.00000000
vn 0.00000000 -1.00000000 0.00000000
vn 0.00000000 -1.00000000 0.00000000
vn 0.00000000 -1.00000000 0.00000000
vn 0.00000000 1.00000000 0.00000000
vn 0.00000000 -1.00000000 0.00000000
vn 0.00000000 1.00000000 0.00000000
vn 0.00000000 -1.00000000 0.00000000
vn 0.00000000 1.00000000 0.00000000
vn 0.00000000 -1.00000000 0.00000000
vn 0.00000000 1.00000000 0.00000000
vn 0.00000000 -1.00000000 0.00000000
vn 0.00000000 1.00000000 0.00000000
vn 0.00000000 -1.00000000 0.00000000
vn 0.00000000 1.00000000 0.00000000
vn 0.00000000 -1.00000000 0.00000000
vn 0.00000000 1.00000000 0.00000000
vn 0.00000000 -1.00000000 0.00000000
vn 0.00000000 1.00000000 0.00000000
vn 0.00000000 -1.00000000 0.00000000
vn 0.00000000 1.00000000 0.00000000
vn 0.00000000 -1.00000000 0.00000000
vn 0.00000000 1.00000000 0.00000000
vn 0.00000000 -1.00000000 0.00000000
vn 0.00000000 1.00000000 0.00000000
vn 0.00000000 -1.00000000 0.00000000
vn 0.00000000 1.00000000 0.00000000
vn 0.00000000 1.00000000 0.00000000
vn 0.00000000 -1.00000000 0.00000000
vn 0.00000000 -1.00000000 0.00000000
vn 0.00000000 1.00000000 0.00000000
vn 0.00000000 -1.00000000 0.00000000
vn 0.00000000 1.00000000 0.00000000
vn 0.00000000 1.00000000 0.00000000
vn 0.00000000 -1.00000000 0.00000000
vn 0.00000000 -1.00000000 0.00000000
vn 0.00000000 1.00000000 0.00000000
vn 0.00000000 -1.00000000 0.00000000
vn 0.00000000 1.00000000 0.00000000
vn 0.00000000 -1.00000000 0.00000000
vn 0.00000000 1.00000000 0.00000000
vn 0.00000000 -1.00000000 0.00000000
vn 0.00000000 1.00000000 0.00000000
vn 0.00000000 -1.00000000 0.00000000
vn 0.00000000 1.00000000 0.00000000
vn 0.00000000 -1.00000000 0.00000000
vn 0.00000000 1.00000000 0.00000000
vn 0.00000000 -1.00000000 0.00000000
vn 0.00000000 1.00000000 0.00000000
vn 0.00000000 -1.00000000 0.00000000
vt 0.56458333 0.34821429
vt 0.56458333 0.34821429
vt 0.56458333 0.34821429
vt 0.56458333 0.34821429
vt 0.56458333 0.34821429
vt 0.56458333 0.34821429
vt 0.56458333 0.34821429
vt 0.56458333 0.34821429
vt 0.56458333 0.34821429
vt 0.56458333 0.34821429
vt 0.56458333 0.34821429
vt 0.56458333 0.34821429
vt 0.56458333 0.34821429
vt 0.56458333 0.34821429
vt 0.56458333 0.34821429
vt 0.56458333 0.34821429
vt 0.56458333 0.34821429
vt 0.56458333 0.34821429
vt 0.56458333 0.34821429
vt 0.56458333 0.34821429
vt 0.56458333 0.34821429
vt 0.56458333 0.34821429
vt 0.56458333 0.34821429
vt 0.56458333 0.34821429
vt 0.56458333 0.34821429
vt 0.56458333 0.34821429
vt 0.56458333 0.34821429
vt 0.56458333 0.34821429
vt 0.56458333 0.34821429
vt 0.56458333 0.34821429
vt 0.56458333 0.34821429
vt 0.56458333 0.34821429
vt 0.56458333 0.34821429
vt 0.56458333 0.34821429
vt 0.56458333 0.34821429
vt 0.56458333 0.34821429
vt 0.56458333 0.34821429
vt 0.56458333 0.34821429
vt 0.56458333 0.34821429
vt 0.56458333 0.34821429
vt 0.56458333 0.34821429
vt 0.56458333 0.34821429
vt 0.56458333 0.34821429
vt 0.56458333 0.34821429
vt 0.56458333 0.34821429
vt 0.56458333 0.34821429
vt 0.56458333 0.34821429
vt 0.56458333 0.34821429
vt 0.56458333 0.34821429
vt 0.56458333 0.34821429
vt 0.56458333 0.34821429
vt 0.56458333 0.34821429
vt 0.56458333 0.34821429
vt 0.56458333 0.34821429
vt 0.56458333 0.34821429
vt 0.56458333 0.34821429
vt 0.56458333 0.34821429
vt 0.56458333 0.34821429
vt 0.56458333 0.34821429
vt 0.56458333 0.34821429
vt 0.56458333 0.34821429
vt 0.56458333 0.34821429
vt 0.56458333 0.34821429
vt 0.56458333 0.34821429
vt 0.56458333 0.34821429
vt 0.56458333 0.34821429
vt 0.16458333 0.34821429
vt 0.16458333 0.34821429
vt 0.16458333 0.34821429
vt 0.16458333 0.34821429
vt 0.16458333 0.34821429
vt 0.16458333 0.34821429
vt 0.16458333 0.34821429
vt 0.16458333 0.34821429
vt 0.16458333 0.34821429
vt 0.16458333 0.34821429
vt 0.16458333 0.34821429
vt 0.16458333 0.34821429
vt 0.16458333 0.34821429
vt 0.16458333 0.34821429
vt 0.16458333 0.34821429
vt 0.16458333 0.34821429
vt 0.16458333 0.34821429
vt 0.16458333 0.34821429
vt 0.16458333 0.34821429
vt 0.16458333 0.34821429
vt 0.16458333 0.34821429
vt 0.16458333 0.34821429
vt 0.16458333 0.34821429
vt 0.16458333 0.34821429
vt 0.16458333 0.34821429
vt 0.16458333 0.34821429
vt 0.16458333 0.34821429
vt 0.16458333 0.34821429
vt 0.16458333 0.34821429
vt 0.16458333 0.34821429
vt 0.16458333 0.34821429
vt 0.16458333 0.34821429
vt 0.16458333 0.34821429
vt 0.16458333 0.34821429
vt 0.16458333 0.34821429
vt 0.16458333 0.34821429
vt 0.16458333 0.34821429
vt 0.16458333 0.34821429
vt 0.16458333 0.34821429
vt 0.16458333 0.34821429
vt 0.16458333 0.34821429
vt 0.16458333 0.34821429
vt 0.16458333 0.34821429
vt 0.16458333 0.34821429
vt 0.16458333 0.34821429
vt 0.16458333 0.34821429
vt 0.16458333 0.34821429
vt 0.16458333 0.34821429
vt 0.16458333 0.34821429
vt 0.16458333 0.34821429
vt 0.16458333 0.34821429
vt 0.16458333 0.34821429
vt 0.16458333 0.34821429
vt 0.16458333 0.34821429
vt 0.16458333 0.34821429
vt 0.16458333 0.34821429
vt 0.16458333 0.34821429
vt 0.16458333 0.34821429
vt 0.16458333 0.34821429
vt 0.16458333 0.34821429
vt 0.16458333 0.34821429
vt 0.16458333 0.34821429
vt 0.16458333 0.34821429
vt 0.16458333 0.34821429
vt 0.16458333 0.34821429
vt 0.16458333 0.34821429
vt 0.56458333 0.34821429
vt 0.56458333 0.34821429
vt 0.56458333 0.34821429
vt 0.56458333 0.34821429
vt 0.56458333 0.34821429
vt 0.56458333 0.34821429
vt 0.56458333 0.34821429
vt 0.56458333 0.34821429
vt 0.56458333 0.34821429
vt 0.56458333 0.34821429
vt 0.56458333 0.34821429
vt 0.56458333 0.34821429
vt 0.56458333 0.34821429
vt 0.56458333 0.34821429
vt 0.56458333 0.34821429
vt 0.56458333 0.34821429
vt 0.56458333 0.34821429
vt 0.56458333 0.34821429
vt 0.56458333 0.34821429
vt 0.56458333 0.34821429
vt 0.56458333 0.34821429
vt 0.56458333 0.34821429
vt 0.56458333 0.34821429
vt 0.56458333 0.34821429
vt 0.56458333 0.34821429
vt 0.56458333 0.34821429
vt 0.56458333 0.34821429
vt 0.56458333 0.34821429
vt 0.56458333 0.34821429
vt 0.56458333 0.34821429
vt 0.56458333 0.34821429
vt 0.56458333 0.34821429
vt 0.56458333 0.34821429
vt 0.56458333 0.34821429
vt 0.56458333 0.34821429
vt 0.56458333 0.34821429
vt 0.56458333 0.34821429
vt 0.56458333 0.34821429
vt 0.56458333 0.34821429
vt 0.56458333 0.34821429
vt 0.56458333 0.34821429
vt 0.56458333 0.34821429
vt 0.56458333 0.34821429
vt 0.56458333 0.34821429
vt 0.56458333 0.34821429
vt 0.56458333 0.34821429
vt 0.56458333 0.34821429
vt 0.56458333 0.34821429
vt 0.56458333 0.34821429
vt 0.56458333 0.34821429
vt 0.56458333 0.34821429
vt 0.56458333 0.34821429
f 1/1/1 2/2/2 3/3/3
f 4/4/4 3/3/3 2/2/2
f 5/5/5 6/6/6 7/7/7
f 4/4/4 2/2/2 8/8/8
f 9/9/9 7/7/7 6/6/6
f 10/10/10 8/8/8 2/2/2
f 11/11/11 12/12/12 13/13/13
f 8/8/8 10/10/10 14/14/14
f 13/13/13 12/12/12 15/15/15
f 16/16/16 14/14/14 10/10/10
f 17/17/17 15/15/15 12/12/12
f 18/18/18 19/19/19 12/12/12
f 14/14/14 16/16/16 20/20/20
f 17/17/17 12/12/12 19/19/19
f 21/21/21 22/22/22 18/18/18
f 19/19/19 18/18/18 22/22/22
f 23/23/23 24/24/24 25/25/25
f 20/20/20 26/26/26 23/23/23
f 26/26/26 20/20/20 16/16/16
f 27/27/27 28/28/28 29/29/29
f 30/30/30 31/31/31 21/21/21
f 22/22/22 21/21/21 31/31/31
f 32/32/32 25/25/25 24/24/24
f 24/24/24 23/23/23 26/26/26
f 33/33/33 34/34/34 35/35/35
f 36/36/36 37/37/37 38/38/38
f 39/39/39 29/29/29 28/28/28
f 27/27/27 29/29/29 40/40/40
f 40/40/40 41/41/41 42/42/42
f 43/43/43 44/44/44 30/30/30
f 31/31/31 30/30/30 44/44/44
f 45/45/45 46/46/46 47/47/47
f 48/48/48 35/35/35 34/34/34
f 49/49/49 38/38/38 37/37/37
f 41/41/41 40/40/40 29/29/29
f 50/50/50 42/42/42 41/41/41
f 51/51/51 52/52/52 43/43/43
f 44/44/44 43/43/43 52/52/52
f 53/53/53 47/47/47 46/46/46
f 54/54/54 38/38/38 49/49/49
f 49/49/49 37/37/37 55/55/55
f 56/56/56 55/55/55 37/37/37
f 42/42/42 50/50/50 57/57/57
f 58/58/58 59/59/59 60/60/60
f 61/61/61 60/60/60 59/59/59
f 47/47/47 53/53/53 62/62/62
f 55/55/55 56/56/56 63/63/63
f 64/64/64 63/63/63 56/56/56
f 62/62/62 57/57/57 50/50/50
f 65/65/65 66/66/66 61/61/61
f 60/60/60 61/61/61 66/66/66
f 57/57/57 62/62/62 53/53/53
f 66/66/66 65/65/65 64/64/64
f 63/63/63 64/64/64 65/65/65
f 67/67/67 68/68/68 69/69/69
f 68/68/68 67/67/67 70/70/70
f 71/71/71 72/72/72 73/73/73
f 74/74/74 68/68/68 70/70/70
f 72/72/72 71/71/71 75/75/75
f 68/68/68 74/74/74 76/76/76
f 77/77/77 78/78/78 79/79/79
f 80/80/80 76/76/76 74/74/74
f 81/81/81 78/78/78 77/77/77
f 76/76/76 80/80/80 82/82/82
f 78/78/78 81/81/81 83/83/83
f 78/78/78 84/84/84 85/85/85
f 86/86/86 82/82/82 80/80/80
f 84/84/84 78/78/78 83/83/83
f 85/85/85 87/87/87 88/88/88
f 87/87/87 85/85/85 84/84/84
f 89/89/89 90/90/90 91/91/91
f 91/91/91 92/92/92 86/86/86
f 82/82/82 86/86/86 92/92/92
f 93/93/93 94/94/94 95/95/95
f 88/88/88 96/96/96 97/97/97
f 96/96/96 88/88/88 87/87/87
f 90/90/90 89/89/89 98/98/98
f 92/92/92 91/91/91 90/90/90
f 99/99/99 100/100/100 101/101/101
f 102/102/102 103/103/103 104/104/104
f 94/94/94 93/93/93 105/105/105
f 106/106/106 93/93/93 95/95/95
f 107/107/107 108/108/108 106/106/106
f 97/97/97 109/109/109 110/110/110
f 109/109/109 97/97/97 96/96/96
f 111/111/111 112/112/112 113/113/113
f 100/100/100 99/99/99 114/114/114
f 103/103/103 102/102/102 115/115/115
f 93/93/93 106/106/106 108/108/108
f 108/108/108 107/107/107 116/116/116
f 110/110/110 117/117/117 118/118/118
f 117/117/117 110/110/110 109/109/109
f 112/112/112 111/111/111 119/119/119
f 115/115/115 102/102/102 120/120/120
f 121/121/121 103/103/103 115/115/115
f 103/103/103 121/121/121 122/122/122
f 123/123/123 116/116/116 107/107/107
f 124/124/124 125/125/125 126/126/126
f 125/125/125 124/124/124 127/127/127
f 128/128/128 119/119/119 111/111/111
f 129/129/129 122/122/122 121/121/121
f 122/122/122 129/129/129 130/130/130
f 116/116/116 123/123/123 128/128/128
f 127/127/127 131/131/131 132/132/132
f 131/131/131 127/127/127 124/124/124
f 119/119/119 128/128/128 123/123/123
f 130/130/130 132/132/132 131/131/131
f 132/132/132 130/130/130 129/129/129
f 133/133/133 134/134/134 135/135/135
f 136/136/136 137/137/137 138/138/138
f 139/139/139 134/134/134 133/133/133
f 138/138/138 137/137/137 140/140/140
f 135/135/135 134/134/134 141/141/141
f 142/142/142 137/137/137 136/136/136
f 143/143/143 134/134/134 139/139/139
f 140/140/140 137/137/137 144/144/144
f 141/141/141 134/134/134 145/145/145
f 146/146/146 137/137/137 142/142/142
f 147/147/147 134/134/134 143/143/143
f 144/144/144 137/137/137 148/148/148
f 145/145/145 134/134/134 149/149/149
f 150/150/150 137/137/137 146/146/146
f 151/151/151 134/134/134 147/147/147
f 148/148/148 137/137/137 152/152/152
f 149/149/149 134/134/134 153/153/153
f 154/154/154 137/137/137 150/150/150
f 155/155/155 134/134/134 151/151/151
f 152/152/152 137/137/137 156/156/156
f 157/157/157 134/134/134 155/155/155
f 156/156/156 137/137/137 158/158/158
f 134/134/134 157/157/157 159/159/159
f 160/160/160 158/158/158 137/137/137
f 134/134/134 161/161/161 162/162/162
f 163/163/163 164/164/164 137/137/137
f 165/165/165 134/134/134 159/159/159
f 160/160/160 137/137/137 166/166/166
f 134/134/134 167/167/167 168/168/168
f 169/169/169 170/170/170 137/137/137
f 134/134/134 171/171/171 161/161/161
f 164/164/164 172/172/172 137/137/137
f 134/134/134 162/162/162 173/173/173
f 174/174/174 163/163/163 137/137/137
f 134/134/134 173/173/173 175/175/175
f 176/176/176 174/174/174 137/137/137
f 134/134/134 165/165/165 177/177/177
f 178/178/178 166/166/166 137/137/137
f 134/134/134 175/175/175 167/167/167
f 170/170/170 176/176/176 137/137/137
f 134/134/134 179/179/179 171/171/171
f 172/172/172 180/180/180 137/137/137
f 134/134/134 181/181/181 179/179/179
f 180/180/180 182/182/182 137/137/137
f 134/134/134 177/177/177 183/183/183
f 184/184/184 178/178/178 137/137/137
f 134/134/134 183/183/183 181/181/181
f 182/182/182 184/184/184 137/137/137

