# https://github.com/mikedh/trimesh
mtllib material.mtl
usemtl material_0
v -0.13597500 -0.34855100 0.70014500
v -0.13597500 -0.42795400 0.79660600
v -0.13597500 -0.36437900 0.80610300
v -0.13597500 -0.41212600 0.69064800
v 0.12805300 -0.36437900 0.80610300
v -0.13597500 -0.42795400 0.79660600
v 0.12805300 -0.42795400 0.79660600
v -0.13597500 -0.36437900 0.80610300
v 0.12805300 -0.36437900 0.80610300
v -0.13597500 -0.34855100 0.70014500
v -0.13597500 -0.36437900 0.80610300
v 0.12805300 -0.34855100 0.70014500
v -0.13597500 -0.34855100 0.70014500
v 0.12805300 -0.41212600 0.69064800
v -0.13597500 -0.41212600 0.69064800
v 0.12805300 -0.34855100 0.70014500
v 0.12805300 -0.41212600 0.69064800
v -0.13597500 -0.42795400 0.79660600
v -0.13597500 -0.41212600 0.69064800
v 0.12805300 -0.42795400 0.79660600
v 0.12805300 -0.42795400 0.79660600
v 0.12805300 -0.34855100 0.70014500
v 0.12805300 -0.36437900 0.80610300
v 0.12805300 -0.41212600 0.69064800
v 0.70974300 0.06287300 0.00094500
v 0.73561200 0.06318300 -0.05258300
v 0.70276000 0.05568400 -0.00501200
v 0.74259700 0.07037200 -0.04662600
v 0.74259700 0.07037200 -0.04662600
v 0.94873300 -0.17639500 0.06722800
v 0.73561200 0.06318300 -0.05258300
v 0.94213900 -0.18422100 0.06164200
v 0.70276000 0.05568400 -0.00501200
v 0.73561200 0.06318300 -0.05258300
v 0.70974300 0.06287300 0.00094500
v 0.70276000 0.05568400 -0.00501200
v 0.89856500 -0.17421400 0.09905600
v 0.90516200 -0.16639100 0.10464400
v 0.74259700 0.07037200 -0.04662600
v 0.70974300 0.06287300 0.00094500
v 0.94873300 -0.17639500 0.06722800
v 0.74259700 0.07037200 -0.04662600
v 0.90516200 -0.16639100 0.10464400
v 0.73561200 0.06318300 -0.05258300
v 0.94873300 -0.17639500 0.06722800
v 0.94213900 -0.18422100 0.06164200
v 0.94213900 -0.18422100 0.06164200
v 0.89856500 -0.17421400 0.09905600
v 0.70276000 0.05568400 -0.00501200
v 0.70974300 0.06287300 0.00094500
v 0.89856500 -0.17421400 0.09905600
v 0.90516200 -0.16639100 0.10464400
v 0.94873300 -0.17639500 0.06722800
v 0.90516200 -0.16639100 0.10464400
v 0.91128100 -0.28133500 0.33325900
v 0.94213900 -0.18422100 0.06164200
v 0.94873300 -0.17639500 0.06722800
v 0.94861500 -0.32535300 0.34144900
v 0.94222100 -0.33208800 0.33440100
v 0.89856500 -0.17421400 0.09905600
v 0.94213900 -0.18422100 0.06164200
v 0.89856500 -0.17421400 0.09905600
v 0.90488600 -0.28806800 0.32621100
v 0.90516200 -0.16639100 0.10464400
v 0.91128100 -0.28133500 0.33325900
v 0.94873300 -0.17639500 0.06722800
v 0.91128100 -0.28133500 0.33325900
v 0.94861500 -0.32535300 0.34144900
v 0.94222100 -0.33208800 0.33440100
v 0.89856500 -0.17421400 0.09905600
v 0.94222100 -0.33208800 0.33440100
v 0.90488600 -0.28806800 0.32621100
v 0.91128100 -0.28133500 0.33325900
v 0.90488600 -0.28806800 0.32621100
v 0.54894500 -0.35386900 0.57502000
v 0.91128100 -0.28133500 0.33325900
v 0.55273300 -0.34528400 0.58194100
v 0.94861500 -0.32535300 0.34144900
v 0.94861500 -0.32535300 0.34144900
v 0.56912600 -0.38459000 0.62175000
v 0.94222100 -0.33208800 0.33440100
v 0.90488600 -0.28806800 0.32621100
v 0.94222100 -0.33208800 0.33440100
v 0.56534200 -0.39317700 0.61482900
v 0.90488600 -0.28806800 0.32621100
v 0.56534200 -0.39317700 0.61482900
v 0.54894500 -0.35386900 0.57502000
v 0.91128100 -0.28133500 0.33325900
v 0.54894500 -0.35386900 0.57502000
v 0.55273300 -0.34528400 0.58194100
v 0.94861500 -0.32535300 0.34144900
v 0.55273300 -0.34528400 0.58194100
v 0.56912600 -0.38459000 0.62175000
v 0.94222100 -0.33208800 0.33440100
v 0.56912600 -0.38459000 0.62175000
v 0.56534200 -0.39317700 0.61482900
v 0.56534200 -0.39317700 0.61482900
v -0.00480800 -0.40123800 0.78836900
v 0.54894500 -0.35386900 0.57502000
v 0.55273300 -0.34528400 0.58194100
v 0.54894500 -0.35386900 0.57502000
v -0.00671400 -0.38766600 0.73170700
v 0.56912600 -0.38459000 0.62175000
v 0.55273300 -0.34528400 0.58194100
v -0.00650500 -0.37632700 0.73441700
v 0.56912600 -0.38459000 0.62175000
v -0.00459900 -0.38990100 0.79108100
v 0.56534200 -0.39317700 0.61482900
v -0.00459900 -0.38990100 0.79108100
v -0.00480800 -0.40123800 0.78836900
v 0.56534200 -0.39317700 0.61482900
v 0.54894500 -0.35386900 0.57502000
v -0.00480800 -0.40123800 0.78836900
v -0.00671400 -0.38766600 0.73170700
v 0.55273300 -0.34528400 0.58194100
v -0.00671400 -0.38766600 0.73170700
v -0.00650500 -0.37632700 0.73441700
v 0.56912600 -0.38459000 0.62175000
v -0.00650500 -0.37632700 0.73441700
v -0.00459900 -0.38990100 0.79108100
v -0.00459900 -0.38990100 0.79108100
v -0.71058800 -0.39755300 0.66317300
v -0.00480800 -0.40123800 0.78836900
v -0.00480800 -0.40123800 0.78836900
v -0.70685400 -0.40699100 0.65743900
v -0.00671400 -0.38766600 0.73170700
v -0.68807200 -0.37309800 0.61388200
v -0.00650500 -0.37632700 0.73441700
v -0.00671400 -0.38766600 0.73170700
v -0.00459900 -0.38990100 0.79108100
v -0.00650500 -0.37632700 0.73441700
v -0.69180600 -0.36366000 0.61961800
v -0.00459900 -0.38990100 0.79108100
v -0.69180600 -0.36366000 0.61961800
v -0.71058800 -0.39755300 0.66317300
v -0.71058800 -0.39755300 0.66317300
v -0.70685400 -0.40699100 0.65743900
v -0.00480800 -0.40123800 0.78836900
v -0.00671400 -0.38766600 0.73170700
v -0.70685400 -0.40699100 0.65743900
v -0.68807200 -0.37309800 0.61388200
v -0.69180600 -0.36366000 0.61961800
v -0.00650500 -0.37632700 0.73441700
v -0.68807200 -0.37309800 0.61388200
v -0.69180600 -0.36366000 0.61961800
v -0.88697600 -0.24553100 0.33188200
v -0.71058800 -0.39755300 0.66317300
v -0.93135600 -0.28307900 0.32750600
v -0.70685400 -0.40699100 0.65743900
v -0.71058800 -0.39755300 0.66317300
v -0.68807200 -0.37309800 0.61388200
v -0.70685400 -0.40699100 0.65743900
v -0.92443900 -0.29059700 0.32188700
v -0.88006200 -0.25304900 0.32626300
v -0.69180600 -0.36366000 0.61961800
v -0.68807200 -0.37309800 0.61388200
v -0.69180600 -0.36366000 0.61961800
v -0.88006200 -0.25304900 0.32626300
v -0.88697600 -0.24553100 0.33188200
v -0.71058800 -0.39755300 0.66317300
v -0.88697600 -0.24553100 0.33188200
v -0.93135600 -0.28307900 0.32750600
v -0.70685400 -0.40699100 0.65743900
v -0.93135600 -0.28307900 0.32750600
v -0.92443900 -0.29059700 0.32188700
v -0.88006200 -0.25304900 0.32626300
v -0.68807200 -0.37309800 0.61388200
v -0.92443900 -0.29059700 0.32188700
v -0.84644600 -0.13767900 0.09988300
v -0.88697600 -0.24553100 0.33188200
v -0.88006200 -0.25304900 0.32626300
v -0.85331100 -0.12957900 0.10469800
v -0.93135600 -0.28307900 0.32750600
v -0.88697600 -0.24553100 0.33188200
v -0.89563700 -0.14299500 0.06692000
v -0.92443900 -0.29059700 0.32188700
v -0.93135600 -0.28307900 0.32750600
v -0.88006200 -0.25304900 0.32626300
v -0.92443900 -0.29059700 0.32188700
v -0.88877000 -0.15109600 0.06210500
v -0.84644600 -0.13767900 0.09988300
v -0.88006200 -0.25304900 0.32626300
v -0.88877000 -0.15109600 0.06210500
v -0.85331100 -0.12957900 0.10469800
v -0.85331100 -0.12957900 0.10469800
v -0.89563700 -0.14299500 0.06692000
v -0.93135600 -0.28307900 0.32750600
v -0.88877000 -0.15109600 0.06210500
v -0.72932600 0.03933100 -0.04943900
v -0.84644600 -0.13767900 0.09988300
v -0.88877000 -0.15109600 0.06210500
v -0.69684300 0.03687600 -0.00109400
v -0.85331100 -0.12957900 0.10469800
v -0.84644600 -0.13767900 0.09988300
v -0.70414200 0.04427800 0.00418600
v -0.89563700 -0.14299500 0.06692000
v -0.85331100 -0.12957900 0.10469800
v -0.73662500 0.04673200 -0.04415800
v -0.88877000 -0.15109600 0.06210500
v -0.89563700 -0.14299500 0.06692000
v -0.73662500 0.04673200 -0.04415800
v -0.72932600 0.03933100 -0.04943900
v -0.88877000 -0.15109600 0.06210500
v -0.69684300 0.03687600 -0.00109400
v -0.84644600 -0.13767900 0.09988300
v -0.72932600 0.03933100 -0.04943900
v -0.70414200 0.04427800 0.00418600
v -0.85331100 -0.12957900 0.10469800
v -0.69684300 0.03687600 -0.00109400
v -0.70414200 0.04427800 0.00418600
v -0.73662500 0.04673200 -0.04415800
v -0.89563700 -0.14299500 0.06692000
v -0.70414200 0.04427800 0.00418600
v -0.72932600 0.03933100 -0.04943900
v -0.73662500 0.04673200 -0.04415800
v -0.69684300 0.03687600 -0.00109400
vn -1.00000000 0.00000000 0.00000000
vn -1.00000000 0.00000000 0.00000000
vn -1.00000000 0.00000000 0.00000000
vn -1.00000000 0.00000000 0.00000000
vn 0.00000000 -0.14774030 0.98902619
vn 0.00000000 -0.14774030 0.98902619
vn 0.00000000 -0.14774030 0.98902619
vn 0.00000000 -0.14774030 0.98902619
vn 0.00000000 0.98902597 0.14774179
vn 0.00000000 0.98902597 0.14774179
vn 0.00000000 0.98902597 0.14774179
vn 0.00000000 0.98902597 0.14774179
vn 0.00000000 0.14773979 -0.98902627
vn 0.00000000 0.14773979 -0.98902627
vn 0.00000000 0.14773979 -0.98902627
vn 0.00000000 0.14773979 -0.98902627
vn 0.00000000 -0.98902597 -0.14774179
vn 0.00000000 -0.98902597 -0.14774179
vn 0.00000000 -0.98902597 -0.14774179
vn 0.00000000 -0.98902597 -0.14774179
vn 1.00000000 0.00000000 0.00000000
vn 1.00000000 0.00000000 0.00000000
vn 1.00000000 0.00000000 0.00000000
vn 1.00000000 0.00000000 0.00000000
vn -0.56886648 0.77669738 -0.27042949
vn -0.56886648 0.77669738 -0.27042949
vn -0.56886648 0.77669738 -0.27042949
vn -0.56886648 0.77669738 -0.27042949
vn 0.57759440 0.10924200 -0.80898140
vn 0.57759440 0.10924200 -0.80898140
vn 0.57759440 0.10924200 -0.80898140
vn -0.54764737 -0.68136676 -0.48561477
vn -0.54764737 -0.68136676 -0.48561477
vn -0.54764737 -0.68136676 -0.48561477
vn -0.57100412 -0.11860670 0.81233413
vn -0.57100412 -0.11860670 0.81233413
vn -0.57100412 -0.11860670 0.81233413
vn 0.54536729 0.68399729 0.48448139
vn 0.54536729 0.68399729 0.48448139
vn 0.54536729 0.68399729 0.48448139
vn 0.55946352 0.68360062 0.46871181
vn 0.55946352 0.68360062 0.46871181
vn 0.55946352 0.68360062 0.46871181
vn 0.57099197 0.10046629 -0.81478506
vn 0.57099197 0.10046629 -0.81478506
vn 0.57099197 0.10046629 -0.81478506
vn -0.55804231 -0.68638221 -0.46633491
vn -0.55804231 -0.68638221 -0.46633491
vn -0.55804231 -0.68638221 -0.46633491
vn -0.56340618 -0.10986200 0.81884297
vn -0.56340618 -0.10986200 0.81884297
vn -0.56340618 -0.10986200 0.81884297
vn 0.50275009 0.77763518 0.37752599
vn 0.50275009 0.77763518 0.37752599
vn 0.50275009 0.77763518 0.37752599
vn 0.82267832 -0.49970991 -0.27109111
vn 0.82267832 -0.49970991 -0.27109111
vn 0.82267832 -0.49970991 -0.27109111
vn -0.52138470 -0.75024379 -0.40656150
vn -0.52138470 -0.75024379 -0.40656150
vn -0.52138470 -0.75024379 -0.40656150
vn -0.82267172 0.49874851 0.27287571
vn -0.82267172 0.49874851 0.27287571
vn -0.82267172 0.49874851 0.27287571
vn -0.82370884 0.49743103 0.27215091
vn 0.68142920 0.64300330 0.34957260
vn 0.68142920 0.64300330 0.34957260
vn 0.68142920 0.64300330 0.34957260
vn 0.82347391 -0.49867211 -0.27058610
vn -0.69738529 -0.64830779 -0.30553359
vn -0.69738529 -0.64830779 -0.30553359
vn -0.69738529 -0.64830779 -0.30553359
vn -0.42536872 0.81527983 -0.39291252
vn -0.42536872 0.81527983 -0.39291252
vn -0.42536872 0.81527983 -0.39291252
vn 0.42977700 0.50392520 0.74923369
vn 0.42977700 0.50392520 0.74923369
vn 0.42977700 0.50392520 0.74923369
vn 0.42084389 -0.81543477 0.39743749
vn 0.42084389 -0.81543477 0.39743749
vn 0.42084389 -0.81543477 0.39743749
vn -0.45414601 -0.51979291 -0.72357911
vn -0.45414601 -0.51979291 -0.72357911
vn -0.45414601 -0.51979291 -0.72357911
vn -0.28959289 -0.73802809 -0.60946739
vn -0.28959289 -0.73802809 -0.60946739
vn -0.28959289 -0.73802809 -0.60946739
vn -0.50158328 0.66623608 -0.55185478
vn -0.50158328 0.66623608 -0.55185478
vn -0.50158328 0.66623608 -0.55185478
vn 0.32371631 0.73652271 0.59392091
vn 0.32371631 0.73652271 0.59392091
vn 0.32371631 0.73652271 0.59392091
vn 0.51251181 -0.66431881 0.54407001
vn 0.51251181 -0.66431881 0.54407001
vn 0.51251181 -0.66431881 0.54407001
vn -0.18743120 -0.73645938 -0.64999779
vn -0.18743120 -0.73645938 -0.64999779
vn -0.18743120 -0.73645938 -0.64999779
vn -0.23872671 0.67115033 -0.70183103
vn -0.23872671 0.67115033 -0.70183103
vn -0.23872671 0.67115033 -0.70183103
vn 0.14080370 0.73287331 0.66563581
vn 0.14080370 0.73287331 0.66563581
vn 0.14080370 0.73287331 0.66563581
vn 0.21617130 -0.66865509 0.71145649
vn 0.21617130 -0.66865509 0.71145649
vn 0.21617130 -0.66865509 0.71145649
vn 0.28647059 -0.22789959 0.93058926
vn 0.28647059 -0.22789959 0.93058926
vn 0.28647059 -0.22789959 0.93058926
vn -0.00647331 -0.97252058 -0.23272690
vn -0.00647331 -0.97252058 -0.23272690
vn -0.00647331 -0.97252058 -0.23272690
vn -0.26787249 0.22859539 -0.93594256
vn -0.26787249 0.22859539 -0.93594256
vn -0.26787249 0.22859539 -0.93594256
vn 0.05909229 0.97123369 0.23067990
vn 0.05909229 0.97123369 0.23067990
vn 0.05909229 0.97123369 0.23067990
vn -0.17127621 -0.22622651 0.95889834
vn -0.17127621 -0.22622651 0.95889834
vn -0.17127621 -0.22622651 0.95889834
vn 0.05164613 -0.97079889 -0.23426950
vn 0.05164613 -0.97079889 -0.23426950
vn 0.05164613 -0.97079889 -0.23426950
vn 0.17067921 0.22602821 -0.95905154
vn 0.17067921 0.22602821 -0.95905154
vn 0.17067921 0.22602821 -0.95905154
vn -0.02116122 0.97210532 0.23358820
vn -0.02116122 0.97210532 0.23358820
vn -0.02116122 0.97210532 0.23358820
vn -0.11367900 0.80724760 0.57916180
vn -0.11367900 0.80724760 0.57916180
vn -0.11367900 0.80724760 0.57916180
vn -0.14802709 -0.55564338 0.81813716
vn -0.14802709 -0.55564338 0.81813716
vn -0.14802709 -0.55564338 0.81813716
vn 0.08465529 -0.80374529 -0.58892019
vn 0.08465529 -0.80374529 -0.58892019
vn 0.08465529 -0.80374529 -0.58892019
vn 0.14734110 0.55565059 -0.81825609
vn 0.14734110 0.55565059 -0.81825609
vn 0.14734110 0.55565059 -0.81825609
vn -0.26934250 0.81287720 0.51641580
vn -0.26934250 0.81287720 0.51641580
vn -0.26934250 0.81287720 0.51641580
vn -0.78531241 -0.51733731 0.34006841
vn -0.78531241 -0.51733731 0.34006841
vn -0.78531241 -0.51733731 0.34006841
vn 0.32328722 -0.80933485 -0.49036973
vn 0.32328722 -0.80933485 -0.49036973
vn 0.32328722 -0.80933485 -0.49036973
vn 0.79829511 0.51029231 -0.31988541
vn 0.79829511 0.51029231 -0.31988541
vn 0.79829511 0.51029231 -0.31988541
vn 0.66745819 0.72863409 -0.15359660
vn 0.66745819 0.72863409 -0.15359660
vn 0.66745819 0.72863409 -0.15359660
vn -0.56157186 0.59697786 0.57293496
vn -0.56157186 0.59697786 0.57293496
vn -0.56157186 0.59697786 0.57293496
vn -0.65758191 -0.73349241 0.17197360
vn -0.65758191 -0.73349241 0.17197360
vn -0.65758191 -0.73349241 0.17197360
vn 0.54767220 -0.57663220 -0.60625940
vn 0.54767220 -0.57663220 -0.60625940
vn 0.54767220 -0.57663220 -0.60625940
vn 0.80511993 0.47148542 0.35983801
vn 0.80511993 0.47148542 0.35983801
vn 0.80511993 0.47148542 0.35983801
vn -0.63684370 0.72083779 0.27353790
vn -0.63684370 0.72083779 0.27353790
vn -0.63684370 0.72083779 0.27353790
vn -0.80500276 -0.46947287 -0.36271998
vn -0.80500276 -0.46947287 -0.36271998
vn -0.80500276 -0.46947287 -0.36271998
vn 0.63372739 -0.71442538 -0.29662429
vn 0.63372739 -0.71442538 -0.29662429
vn 0.63372739 -0.71442538 -0.29662429
vn 0.53362592 -0.78293813 -0.31976751
vn 0.53362592 -0.78293813 -0.31976751
vn 0.53362592 -0.78293813 -0.31976751
vn 0.80637963 0.46976992 0.35926051
vn -0.54484858 0.76745057 0.33787519
vn -0.54484858 0.76745057 0.33787519
vn -0.54484858 0.76745057 0.33787519
vn -0.80609730 -0.46810750 -0.36205320
vn 0.57806579 -0.71467779 -0.39379639
vn 0.57806579 -0.71467779 -0.39379639
vn 0.57806579 -0.71467779 -0.39379639
vn 0.56686539 -0.00930479 0.82375788
vn 0.56686539 -0.00930479 0.82375788
vn 0.56686539 -0.00930479 0.82375788
vn -0.57557759 0.71902699 0.38950049
vn -0.57557759 0.71902699 0.38950049
vn -0.57557759 0.71902699 0.38950049
vn -0.57340808 0.00092391 -0.81926938
vn -0.57340808 0.00092391 -0.81926938
vn -0.57340808 0.00092391 -0.81926938
vn -0.58024380 0.00879919 -0.81439530
vn -0.58024380 0.00879919 -0.81439530
vn -0.58024380 0.00879919 -0.81439530
vn 0.55983701 -0.71853342 -0.41266481
vn 0.55983701 -0.71853342 -0.41266481
vn 0.55983701 -0.71853342 -0.41266481
vn 0.57355449 -0.01864502 0.81895519
vn 0.57355449 -0.01864502 0.81895519
vn 0.57355449 -0.01864502 0.81895519
vn -0.56316414 0.71476665 0.41467433
vn -0.56316414 0.71476665 0.41467433
vn -0.56316414 0.71476665 0.41467433
vn 0.54550820 0.77152800 -0.32736120
vn 0.54550820 0.77152800 -0.32736120
vn 0.54550820 0.77152800 -0.32736120
vn 0.54550820 0.77152800 -0.32736120
vt 0.16458333 0.34821429
vt 0.16458333 0.34821429
vt 0.16458333 0.34821429
vt 0.16458333 0.34821429
vt 0.16458333 0.34821429
vt 0.16458333 0.34821429
vt 0.16458333 0.34821429
vt 0.16458333 0.34821429
vt 0.16458333 0.34821429
vt 0.16458333 0.34821429
vt 0.16458333 0.34821429
vt 0.16458333 0.34821429
vt 0.16458333 0.34821429
vt 0.16458333 0.34821429
vt 0.16458333 0.34821429
vt 0.16458333 0.34821429
vt 0.16458333 0.34821429
vt 0.16458333 0.34821429
vt 0.16458333 0.34821429
vt 0.16458333 0.34821429
vt 0.16458333 0.34821429
vt 0.16458333 0.34821429
vt 0.16458333 0.34821429
vt 0.16458333 0.34821429
vt 0.56458333 0.34821429
vt 0.56458333 0.34821429
vt 0.56458333 0.34821429
vt 0.56458333 0.34821429
vt 0.56458333 0.34821429
vt 0.56458333 0.34821429
vt 0.56458333 0.34821429
vt 0.56458333 0.34821429
vt 0.56458333 0.34821429
vt 0.56458333 0.34821429
vt 0.56458333 0.34821429
vt 0.56458333 0.34821429
vt 0.56458333 0.34821429
vt 0.56458333 0.34821429
vt 0.56458333 0.34821429
vt 0.56458333 0.34821429
vt 0.56458333 0.34821429
vt 0.56458333 0.34821429
vt 0.56458333 0.34821429
vt 0.56458333 0.34821429
vt 0.56458333 0.34821429
vt 0.56458333 0.34821429
vt 0.56458333 0.34821429
vt 0.56458333 0.34821429
vt 0.56458333 0.34821429
vt 0.56458333 0.34821429
vt 0.56458333 0.34821429
vt 0.56458333 0.34821429
vt 0.56458333 0.34821429
vt 0.56458333 0.34821429
vt 0.56458333 0.34821429
vt 0.56458333 0.34821429
vt 0.56458333 0.34821429
vt 0.56458333 0.34821429
vt 0.56458333 0.34821429
vt 0.56458333 0.34821429
vt 0.56458333 0.34821429
vt 0.56458333 0.34821429
vt 0.56458333 0.34821429
vt 0.56458333 0.34821429
vt 0.56458333 0.34821429
vt 0.56458333 0.34821429
vt 0.56458333 0.34821429
vt 0.56458333 0.34821429
vt 0.56458333 0.34821429
vt 0.56458333 0.34821429
vt 0.56458333 0.34821429
vt 0.56458333 0.34821429
vt 0.56458333 0.34821429
vt 0.56458333 0.34821429
vt 0.56458333 0.34821429
vt 0.56458333 0.34821429
vt 0.56458333 0.34821429
vt 0.56458333 0.34821429
vt 0.56458333 0.34821429
vt 0.56458333 0.34821429
vt 0.56458333 0.34821429
vt 0.56458333 0.34821429
vt 0.56458333 0.34821429
vt 0.56458333 0.34821429
vt 0.56458333 0.34821429
vt 0.56458333 0.34821429
vt 0.56458333 0.34821429
vt 0.56458333 0.34821429
vt 0.56458333 0.34821429
vt 0.56458333 0.34821429
vt 0.56458333 0.34821429
vt 0.56458333 0.34821429
vt 0.56458333 0.34821429
vt 0.56458333 0.34821429
vt 0.56458333 0.34821429
vt 0.56458333 0.34821429
vt 0.56458333 0.34821429
vt 0.56458333 0.34821429
vt 0.56458333 0.34821429
vt 0.56458333 0.34821429
vt 0.56458333 0.34821429
vt 0.56458333 0.34821429
vt 0.56458333 0.34821429
vt 0.56458333 0.34821429
vt 0.56458333 0.34821429
vt 0.56458333 0.34821429
vt 0.56458333 0.34821429
vt 0.56458333 0.34821429
vt 0.56458333 0.34821429
vt 0.56458333 0.34821429
vt 0.56458333 0.34821429
vt 0.56458333 0.34821429
vt 0.56458333 0.34821429
vt 0.56458333 0.34821429
vt 0.56458333 0.34821429
vt 0.56458333 0.34821429
vt 0.56458333 0.34821429
vt 0.56458333 0.34821429
vt 0.56458333 0.34821429
vt 0.56458333 0.34821429
vt 0.56458333 0.34821429
vt 0.56458333 0.34821429
vt 0.56458333 0.34821429
vt 0.56458333 0.34821429
vt 0.56458333 0.34821429
vt 0.56458333 0.34821429
vt 0.56458333 0.34821429
vt 0.56458333 0.34821429
vt 0.56458333 0.34821429
vt 0.56458333 0.34821429
vt 0.56458333 0.34821429
vt 0.56458333 0.34821429
vt 0.56458333 0.34821429
vt 0.56458333 0.34821429
vt 0.56458333 0.34821429
vt 0.56458333 0.34821429
vt 0.56458333 0.34821429
vt 0.56458333 0.34821429
vt 0.56458333 0.34821429
vt 0.56458333 0.34821429
vt 0.56458333 0.34821429
vt 0.56458333 0.34821429
vt 0.56458333 0.34821429
vt 0.56458333 0.34821429
vt 0.56458333 0.34821429
vt 0.56458333 0.34821429
vt 0.56458333 0.34821429
vt 0.56458333 0.34821429
vt 0.56458333 0.34821429
vt 0.56458333 0.34821429
vt 0.56458333 0.34821429
vt 0.56458333 0.34821429
vt 0.56458333 0.34821429
vt 0.56458333 0.34821429
vt 0.56458333 0.34821429
vt 0.56458333 0.34821429
vt 0.56458333 0.34821429
vt 0.56458333 0.34821429
vt 0.56458333 0.34821429
vt 0.56458333 0.34821429
vt 0.56458333 0.34821429
vt 0.56458333 0.34821429
vt 0.56458333 0.34821429
vt 0.56458333 0.34821429
vt 0.56458333 0.34821429
vt 0.56458333 0.34821429
vt 0.56458333 0.34821429
vt 0.56458333 0.34821429
vt 0.56458333 0.34821429
vt 0.56458333 0.34821429
vt 0.56458333 0.34821429
vt 0.56458333 0.34821429
vt 0.56458333 0.34821429
vt 0.56458333 0.34821429
vt 0.56458333 0.34821429
vt 0.56458333 0.34821429
vt 0.56458333 0.34821429
vt 0.56458333 0.34821429
vt 0.56458333 0.34821429
vt 0.56458333 0.34821429
vt 0.56458333 0.34821429
vt 0.56458333 0.34821429
vt 0.56458333 0.34821429
vt 0.56458333 0.34821429
vt 0.56458333 0.34821429
vt 0.56458333 0.34821429
vt 0.56458333 0.34821429
vt 0.56458333 0.34821429
vt 0.56458333 0.34821429
vt 0.56458333 0.34821429
vt 0.56458333 0.34821429
vt 0.56458333 0.34821429
vt 0.56458333 0.34821429
vt 0.56458333 0.34821429
vt 0.56458333 0.34821429
vt 0.56458333 0.34821429
vt 0.56458333 0.34821429
vt 0.56458333 0.34821429
vt 0.56458333 0.34821429
vt 0.56458333 0.34821429
vt 0.56458333 0.34821429
vt 0.56458333 0.34821429
vt 0.56458333 0.34821429
vt 0.56458333 0.34821429
vt 0.56458333 0.34821429
vt 0.56458333 0.34821429
vt 0.56458333 0.34821429
vt 0.56458333 0.34821429
vt 0.56458333 0.34821429
vt 0.56458333 0.34821429
vt 0.56458333 0.34821429
vt 0.56458333 0.34821429
vt 0.56458333 0.34821429
vt 0.56458333 0.34821429
vt 0.56458333 0.34821429
vt 0.56458333 0.34821429
f 1/1/1 2/2/2 3/3/3
f 2/2/2 1/1/1 4/4/4
f 5/5/5 6/6/6 7/7/7
f 6/6/6 5/5/5 8/8/8
f 9/9/9 10/10/10 11/11/11
f 10/10/10 9/9/9 12/12/12
f 13/13/13 14/14/14 15/15/15
f 14/14/14 13/13/13 16/16/16
f 17/17/17 18/18/18 19/19/19
f 18/18/18 17/17/17 20/20/20
f 21/21/21 22/22/22 23/23/23
f 22/22/22 21/21/21 24/24/24
f 25/25/25 26/26/26 27/27/27
f 26/26/26 25/25/25 28/28/28
f 29/29/29 30/30/30 31/31/31
f 32/32/32 33/33/33 34/34/34
f 35/35/35 36/36/36 37/37/37
f 38/38/38 39/39/39 40/40/40
f 41/41/41 42/42/42 43/43/43
f 44/44/44 45/45/45 46/46/46
f 47/47/47 48/48/48 49/49/49
f 50/50/50 51/51/51 52/52/52
f 53/53/53 54/54/54 55/55/55
f 56/56/56 57/57/57 58/58/58
f 59/59/59 60/60/60 61/61/61
f 62/62/62 63/63/63 64/64/64
f 64/64/64 63/63/63 65/65/65
f 66/66/66 67/67/67 68/68/68
f 56/56/56 58/58/58 69/69/69
f 70/70/70 71/71/71 72/72/72
f 73/73/73 74/74/74 75/75/75
f 76/76/76 77/77/77 78/78/78
f 79/79/79 80/80/80 81/81/81
f 82/82/82 83/83/83 84/84/84
f 85/85/85 86/86/86 87/87/87
f 88/88/88 89/89/89 90/90/90
f 91/91/91 92/92/92 93/93/93
f 94/94/94 95/95/95 96/96/96
f 97/97/97 98/98/98 99/99/99
f 100/100/100 101/101/101 102/102/102
f 103/103/103 104/104/104 105/105/105
f 106/106/106 107/107/107 108/108/108
f 109/109/109 110/110/110 111/111/111
f 112/112/112 113/113/113 114/114/114
f 115/115/115 116/116/116 117/117/117
f 118/118/118 119/119/119 120/120/120
f 121/121/121 122/122/122 123/123/123
f 124/124/124 125/125/125 126/126/126
f 127/127/127 128/128/128 129/129/129
f 130/130/130 131/131/131 132/132/132
f 133/133/133 134/134/134 135/135/135
f 136/136/136 137/137/137 138/138/138
f 139/139/139 140/140/140 141/141/141
f 142/142/142 143/143/143 144/144/144
f 145/145/145 146/146/146 147/147/147
f 148/148/148 149/149/149 150/150/150
f 151/151/151 152/152/152 153/153/153
f 154/154/154 155/155/155 156/156/156
f 157/157/157 158/158/158 159/159/159
f 160/160/160 161/161/161 162/162/162
f 163/163/163 164/164/164 165/165/165
f 166/166/166 167/167/167 168/168/168
f 169/169/169 170/170/170 171/171/171
f 172/172/172 173/173/173 174/174/174
f 175/175/175 176/176/176 177/177/177
f 178/178/178 179/179/179 180/180/180
f 181/181/181 182/182/182 183/183/183
f 169/169/169 184/184/184 170/170/170
f 185/185/185 186/186/186 187/187/187
f 188/188/188 176/176/176 175/175/175
f 189/189/189 190/190/190 191/191/191
f 192/192/192 193/193/193 194/194/194
f 195/195/195 196/196/196 197/197/197
f 198/198/198 199/199/199 200/200/200
f 201/201/201 202/202/202 203/203/203
f 204/204/204 205/205/205 206/206/206
f 207/207/207 208/208/208 209/209/209
f 210/210/210 211/211/211 212/212/212
f 213/213/213 214/214/214 215/215/215
f 214/214/214 213/213/213 216/216/216

