# https://github.com/mikedh/trimesh
mtllib material.mtl
usemtl material_0
v -0.41365400 0.83717900 -0.40939500
v -0.41365400 0.83717900 -0.40939500
v -0.41365400 0.06184800 0.28493100
v -0.41365400 0.06184800 0.28493100
v -0.41365400 0.83717900 0.42379600
v -0.41365400 0.83717900 0.42379600
v -0.41365400 -0.77134400 0.42379600
v -0.41365400 -0.77134400 0.42379600
v -0.41365400 -0.77134400 0.28493100
v -0.41365400 -0.77134400 0.28493100
v -0.41365400 0.06184800 0.10327300
v -0.41365400 0.06184800 0.10327300
v -0.41365400 0.06184800 -0.40939500
v -0.41365400 0.06184800 -0.40939500
v -0.41365400 0.83717900 0.42379600
v -0.41365400 0.83717900 0.42379600
v 0.40217900 0.83717900 0.42379600
v 0.40217900 0.83717900 0.42379600
v -0.41365400 0.83717900 -0.40939500
v -0.41365400 0.83717900 -0.40939500
v 0.40217900 0.83717900 -0.40939500
v 0.40217900 0.83717900 -0.40939500
v 0.40217900 0.83717900 -0.40939500
v 0.40217900 0.83717900 -0.40939500
v 0.40217900 0.06184800 0.28493100
v 0.40217900 0.06184800 0.28493100
v 0.40217900 0.06184800 -0.40939500
v 0.40217900 0.06184800 -0.40939500
v 0.40217900 -0.77134400 0.42379600
v 0.40217900 -0.77134400 0.42379600
v 0.40217900 -0.77134400 0.28493100
v 0.40217900 -0.77134400 0.28493100
v 0.40217900 0.83717900 0.42379600
v 0.40217900 0.83717900 0.42379600
v 0.40217900 0.06184800 -0.40939500
v 0.40217900 0.83717900 -0.40939500
v -0.41365400 0.06184800 -0.40939500
v -0.41365400 0.83717900 -0.40939500
v 0.40217900 -0.77134400 -0.40939500
v -0.41365400 -0.77134400 -0.40939500
v -0.41365400 0.06184800 0.10327300
v -0.41365400 0.06184800 -0.40939500
v -0.41365400 0.06184800 0.28493100
v -0.41365400 -0.77134400 0.28493100
v -0.41365400 -0.77134400 -0.40939500
v 0.40217900 0.06184800 0.28493100
v 0.40217900 0.06184800 -0.40939500
v 0.40217900 -0.77134400 0.28493100
v 0.40217900 -0.77134400 -0.40939500
v 0.40217900 0.83717900 -0.40939500
v -0.41365400 0.06184800 -0.40939500
v -0.41365400 0.83717900 -0.40939500
v 0.40217900 0.06184800 -0.40939500
v 0.40217900 -0.77134400 -0.40939500
v -0.41365400 -0.77134400 -0.40939500
v -0.41365400 0.06184800 -0.40939500
v -0.41365400 -0.77134400 0.28493100
v -0.41365400 -0.77134400 -0.40939500
v -0.41365400 0.06184800 0.28493100
v -0.41365400 0.06184800 0.10327300
v 0.40217900 0.06184800 -0.40939500
v 0.40217900 -0.77134400 0.28493100
v 0.40217900 -0.77134400 -0.40939500
v 0.40217900 0.06184800 0.28493100
v -0.05672700 -0.77134400 0.42379600
v -0.05672700 -0.77134400 0.42379600
v 0.40217900 -0.77134400 0.42379600
v 0.40217900 -0.77134400 0.42379600
v -0.41365400 -0.77134400 0.42379600
v -0.41365400 -0.77134400 0.42379600
v -0.41365400 -0.77134400 0.28493100
v -0.41365400 -0.77134400 0.28493100
v 0.40217900 -0.77134400 0.28493100
v 0.40217900 -0.77134400 0.28493100
v -0.41365400 -0.77134400 -0.40939500
v -0.41365400 -0.77134400 -0.40939500
v 0.40217900 -0.77134400 -0.40939500
v 0.40217900 -0.77134400 -0.40939500
vn -1.00000000 0.00000000 0.00000000
vn 1.00000000 0.00000000 0.00000000
vn -1.00000000 0.00000000 0.00000000
vn 1.00000000 0.00000000 0.00000000
vn 1.00000000 0.00000000 0.00000000
vn -1.00000000 0.00000000 0.00000000
vn -1.00000000 0.00000000 0.00000000
vn 1.00000000 0.00000000 0.00000000
vn 1.00000000 0.00000000 0.00000000
vn -1.00000000 0.00000000 0.00000000
vn 1.00000000 0.00000000 0.00000000
vn -1.00000000 0.00000000 0.00000000
vn -1.00000000 0.00000000 0.00000000
vn 1.00000000 0.00000000 0.00000000
vn 0.00000000 1.00000000 0.00000000
vn 0.00000000 -1.00000000 0.00000000
vn 0.00000000 1.00000000 0.00000000
vn 0.00000000 -1.00000000 0.00000000
vn 0.00000000 -1.00000000 0.00000000
vn 0.00000000 1.00000000 0.00000000
vn 0.00000000 1.00000000 0.00000000
vn 0.00000000 -1.00000000 0.00000000
vn 1.00000000 0.00000000 0.00000000
vn -1.00000000 0.00000000 0.00000000
vn -1.00000000 0.00000000 0.00000000
vn 1.00000000 0.00000000 0.00000000
vn 1.00000000 0.00000000 0.00000000
vn -1.00000000 0.00000000 0.00000000
vn 1.00000000 0.00000000 0.00000000
vn -1.00000000 0.00000000 0.00000000
vn 1.00000000 0.00000000 0.00000000
vn -1.00000000 0.00000000 0.00000000
vn -1.00000000 0.00000000 0.00000000
vn 1.00000000 0.00000000 0.00000000
vn 0.00000000 0.00000000 1.00000000
vn 0.00000000 0.00000000 1.00000000
vn 0.00000000 0.00000000 1.00000000
vn 0.00000000 0.00000000 1.00000000
vn 0.00000000 0.00000000 1.00000000
vn 0.00000000 0.00000000 1.00000000
vn 0.00000000 0.00000000 0.00000000
vn -1.00000000 0.00000000 0.00000000
vn -1.00000000 0.00000000 0.00000000
vn -1.00000000 0.00000000 0.00000000
vn -1.00000000 0.00000000 0.00000000
vn -1.00000000 0.00000000 0.00000000
vn -1.00000000 0.00000000 0.00000000
vn -1.00000000 0.00000000 0.00000000
vn -1.00000000 0.00000000 0.00000000
vn 0.00000000 0.00000000 -1.00000000
vn 0.00000000 0.00000000 -1.00000000
vn 0.00000000 0.00000000 -1.00000000
vn 0.00000000 0.00000000 -1.00000000
vn 0.00000000 0.00000000 -1.00000000
vn 0.00000000 0.00000000 -1.00000000
vn 1.00000000 0.00000000 0.00000000
vn 1.00000000 0.00000000 0.00000000
vn 1.00000000 0.00000000 0.00000000
vn 1.00000000 0.00000000 0.00000000
vn 0.00000000 0.00000000 0.00000000
vn 1.00000000 0.00000000 0.00000000
vn 1.00000000 0.00000000 0.00000000
vn 1.00000000 0.00000000 0.00000000
vn 1.00000000 0.00000000 0.00000000
vn 0.00000000 1.00000000 0.00000000
vn 0.00000000 -1.00000000 0.00000000
vn 0.00000000 1.00000000 0.00000000
vn 0.00000000 -1.00000000 0.00000000
vn 0.00000000 1.00000000 0.00000000
vn 0.00000000 -1.00000000 0.00000000
vn 0.00000000 1.00000000 0.00000000
vn 0.00000000 -1.00000000 0.00000000
vn 0.00000000 1.00000000 0.00000000
vn 0.00000000 -1.00000000 0.00000000
vn 0.00000000 1.00000000 0.00000000
vn 0.00000000 -1.00000000 0.00000000
vn 0.00000000 1.00000000 0.00000000
vn 0.00000000 -1.00000000 0.00000000
vt 0.60614526 0.14687178
vt 0.60614526 0.14687178
vt 0.46779880 0.33594531
vt 0.46779880 0.33594531
vt 0.44012955 0.14687178
vt 0.44012955 0.14687178
vt 0.44012955 0.00488664
vt 0.44012955 0.00488664
vt 0.46779880 0.00488664
vt 0.46779880 0.00488664
vt 0.50399460 0.33594531
vt 0.50399460 0.33594531
vt 0.60614526 0.33594531
vt 0.60614526 0.33594531
vt 0.44012955 0.09199448
vt 0.44012955 0.09199448
vt 0.44012955 0.41710852
vt 0.44012955 0.41710852
vt 0.60614526 0.09199448
vt 0.60614526 0.09199448
vt 0.60614526 0.41710852
vt 0.60614526 0.41710852
vt 0.60614526 0.14687178
vt 0.60614526 0.14687178
vt 0.46779880 0.33594531
vt 0.46779880 0.33594531
vt 0.60614526 0.33594531
vt 0.60614526 0.33594531
vt 0.44012955 0.00488664
vt 0.44012955 0.00488664
vt 0.46779880 0.00488664
vt 0.46779880 0.00488664
vt 0.44012955 0.14687178
vt 0.44012955 0.14687178
vt 0.38758506 0.52543840
vt 0.38758506 0.52543840
vt 0.38758506 0.52543840
vt 0.38758506 0.52543840
vt 0.38758506 0.52543840
vt 0.38758506 0.52543840
vt 0.38758506 0.52543840
vt 0.38758506 0.52543840
vt 0.38758506 0.52543840
vt 0.38758506 0.52543840
vt 0.38758506 0.52543840
vt 0.38758506 0.52543840
vt 0.38758506 0.52543840
vt 0.38758506 0.52543840
vt 0.38758506 0.52543840
vt 0.38758506 0.51369672
vt 0.38758506 0.51369672
vt 0.38758506 0.51369672
vt 0.38758506 0.51369672
vt 0.38758506 0.51369672
vt 0.38758506 0.51369672
vt 0.38758506 0.51369672
vt 0.38758506 0.51369672
vt 0.38758506 0.51369672
vt 0.38758506 0.51369672
vt 0.38758506 0.51369672
vt 0.38758506 0.51369672
vt 0.38758506 0.51369672
vt 0.38758506 0.51369672
vt 0.38758506 0.51369672
vt 0.25911713 0.68117309
vt 0.25911713 0.68117309
vt 0.25911713 0.39663850
vt 0.25911713 0.39663850
vt 0.25911713 0.32066686
vt 0.25911713 0.32066686
vt 0.32924653 0.32066686
vt 0.32924653 0.32066686
vt 0.32924653 0.39663850
vt 0.32924653 0.39663850
vt 0.30587006 0.32066686
vt 0.30587006 0.32066686
vt 0.30587006 0.39663850
vt 0.30587006 0.39663850
f 1/1/1 3/3/3 6/6/6
f 5/5/5 4/4/4 2/2/2
f 6/6/6 3/3/3 7/7/7
f 8/8/8 4/4/4 5/5/5
f 10/10/10 7/7/7 3/3/3
f 4/4/4 8/8/8 9/9/9
f 3/3/3 1/1/1 12/12/12
f 11/11/11 2/2/2 4/4/4
f 13/13/13 12/12/12 1/1/1
f 2/2/2 11/11/11 14/14/14
f 15/15/15 17/17/17 20/20/20
f 19/19/19 18/18/18 16/16/16
f 21/21/21 20/20/20 17/17/17
f 18/18/18 19/19/19 22/22/22
f 23/23/23 26/26/26 27/27/27
f 28/28/28 25/25/25 24/24/24
f 26/26/26 29/29/29 31/31/31
f 32/32/32 30/30/30 25/25/25
f 29/29/29 26/26/26 34/34/34
f 33/33/33 25/25/25 30/30/30
f 34/34/34 26/26/26 23/23/23
f 24/24/24 25/25/25 33/33/33
f 35/35/35 36/36/36 37/37/37
f 38/38/38 37/37/37 36/36/36
f 35/35/35 37/37/37 39/39/39
f 40/40/40 39/39/39 37/37/37
f 41/41/41 42/42/42 43/43/43
f 43/43/43 42/42/42 44/44/44
f 45/45/45 44/44/44 42/42/42
f 46/46/46 47/47/47 48/48/48
f 49/49/49 48/48/48 47/47/47
f 50/50/50 51/51/51 52/52/52
f 51/51/51 50/50/50 53/53/53
f 51/51/51 54/54/54 55/55/55
f 54/54/54 51/51/51 53/53/53
f 56/56/56 57/57/57 58/58/58
f 57/57/57 56/56/56 59/59/59
f 59/59/59 56/56/56 60/60/60
f 61/61/61 62/62/62 63/63/63
f 62/62/62 61/61/61 64/64/64
f 65/65/65 67/67/67 69/69/69
f 70/70/70 68/68/68 66/66/66
f 69/69/69 67/67/67 71/71/71
f 72/72/72 68/68/68 70/70/70
f 67/67/67 73/73/73 71/71/71
f 72/72/72 74/74/74 68/68/68
f 71/71/71 73/73/73 75/75/75
f 76/76/76 74/74/74 72/72/72
f 77/77/77 75/75/75 73/73/73
f 74/74/74 76/76/76 78/78/78

