# https://github.com/mikedh/trimesh
mtllib material.mtl
usemtl material_0
v -0.01368200 -0.74548900 0.22153600
v -0.01368200 -0.74548900 0.22153600
v -0.01368200 -0.74548900 0.22153600
v -0.01368200 -0.74548900 0.22153600
v -0.01368200 0.74138800 0.22153600
v -0.01368200 0.74138800 0.22153600
v -0.01368200 0.74138800 0.22153600
v -0.01368200 0.74138800 0.22153600
v -0.02055500 -0.74548900 0.22153600
v -0.02055500 -0.74548900 0.22153600
v -0.02055500 -0.74548900 0.22153600
v -0.02055500 -0.74548900 0.22153600
v -0.01368200 -0.74548900 0.23391000
v -0.01368200 -0.74548900 0.23391000
v -0.01368200 -0.74548900 0.23391000
v -0.01368200 -0.74548900 0.23391000
v -0.01368200 -0.74548900 0.23391000
v -0.01368200 -0.74548900 0.23391000
v -0.02055500 0.74138800 0.22153600
v -0.02055500 0.74138800 0.22153600
v -0.02055500 0.74138800 0.22153600
v -0.02055500 0.74138800 0.22153600
v -0.01368200 0.74138800 0.23391000
v -0.01368200 0.74138800 0.23391000
v -0.01368200 0.74138800 0.23391000
v -0.01368200 0.74138800 0.23391000
v -0.01368200 0.74138800 0.23391000
v -0.01368200 0.74138800 0.23391000
v -0.02055500 -0.74548900 0.23575200
v -0.02055500 -0.74548900 0.23575200
v -0.02055500 -0.74548900 0.23575200
v -0.02055500 -0.74548900 0.23575200
v -0.02055500 -0.74548900 0.23575200
v -0.02055500 -0.74548900 0.23575200
v -0.00826600 0.74138800 0.23245900
v -0.00826600 0.74138800 0.23245900
v -0.00826600 0.74138800 0.23245900
v -0.00826600 0.74138800 0.23245900
v -0.00826600 0.74138800 0.23245900
v -0.00826600 0.74138800 0.23245900
v -0.02055500 0.74138800 0.23575200
v -0.02055500 0.74138800 0.23575200
v -0.02055500 0.74138800 0.23575200
v -0.02055500 0.74138800 0.23575200
v -0.02055500 0.74138800 0.23575200
v -0.02055500 0.74138800 0.23575200
v -0.00776800 -0.74548900 0.23431800
v -0.00776800 -0.74548900 0.23431800
v -0.00776800 -0.74548900 0.23431800
v -0.00776800 -0.74548900 0.23431800
v -0.00776800 -0.74548900 0.23431800
v -0.00776800 -0.74548900 0.23431800
v -0.00826600 -0.74548900 0.23245900
v -0.00826600 -0.74548900 0.23245900
v -0.00826600 -0.74548900 0.23245900
v -0.00826600 -0.74548900 0.23245900
v -0.00826600 -0.74548900 0.23245900
v -0.00826600 -0.74548900 0.23245900
v -0.00776800 0.74138800 0.23431800
v -0.00776800 0.74138800 0.23431800
v -0.00776800 0.74138800 0.23431800
v -0.00776800 0.74138800 0.23431800
v -0.00776800 0.74138800 0.23431800
v -0.00776800 0.74138800 0.23431800
v -0.02597100 -0.74548900 0.23720300
v -0.02597100 -0.74548900 0.23720300
v -0.02597100 -0.74548900 0.23720300
v -0.02597100 -0.74548900 0.23720300
v -0.02597100 -0.74548900 0.23720300
v -0.02597100 -0.74548900 0.23720300
v -0.02547300 -0.74548900 0.23906200
v -0.02547300 -0.74548900 0.23906200
v -0.02547300 -0.74548900 0.23906200
v -0.02547300 -0.74548900 0.23906200
v -0.02547300 -0.74548900 0.23906200
v -0.02547300 -0.74548900 0.23906200
v -0.02547300 0.74138800 0.23906200
v -0.02547300 0.74138800 0.23906200
v -0.02547300 0.74138800 0.23906200
v -0.02547300 0.74138800 0.23906200
v -0.02547300 0.74138800 0.23906200
v -0.02547300 0.74138800 0.23906200
v -0.02597100 0.74138800 0.23720300
v -0.02597100 0.74138800 0.23720300
v -0.02597100 0.74138800 0.23720300
v -0.02597100 0.74138800 0.23720300
v -0.02597100 0.74138800 0.23720300
v -0.02597100 0.74138800 0.23720300
v 0.00203400 -0.74693300 0.20718100
v 0.00203400 -0.74693300 0.20718100
v 0.00203400 -0.74693300 0.20718100
v 0.00203400 -0.74693300 0.20718100
v 0.00203400 -0.74693300 0.20718100
v 0.00203400 -0.74693300 0.20718100
v 0.00203400 0.74283100 0.22153600
v 0.00203400 0.74283100 0.22153600
v 0.00203400 0.74283100 0.22153600
v 0.00203400 0.74283100 0.22153600
v 0.00203400 0.74283100 0.22153600
v 0.00203400 0.74283100 0.22153600
v 0.00203400 -0.74693300 0.22153600
v 0.00203400 -0.74693300 0.22153600
v 0.00203400 -0.74693300 0.22153600
v 0.00203400 -0.74693300 0.22153600
v 0.00203400 -0.74693300 0.22153600
v 0.00203400 -0.74693300 0.22153600
v 0.00203400 0.74283100 0.20718100
v 0.00203400 0.74283100 0.20718100
v 0.00203400 0.74283100 0.20718100
v 0.00203400 0.74283100 0.20718100
v 0.00203400 0.74283100 0.20718100
v 0.00203400 0.74283100 0.20718100
v -0.01368200 -0.74548900 0.22153600
v -0.01368200 -0.74548900 0.22153600
v 0.00183400 -0.74693300 0.20718100
v 0.00183400 -0.74693300 0.20718100
v 0.00183400 -0.74693300 0.20718100
v 0.00183400 -0.74693300 0.20718100
v -0.41954800 0.74283100 0.20718100
v -0.41954800 0.74283100 0.20718100
v -0.41954800 0.74283100 0.20718100
v -0.41954800 0.74283100 0.20718100
v -0.41954800 0.74283100 0.20718100
v -0.41954800 0.74283100 0.20718100
v -0.41954800 -0.74693300 0.22153600
v -0.41954800 -0.74693300 0.22153600
v -0.41954800 -0.74693300 0.22153600
v -0.41954800 -0.74693300 0.22153600
v -0.41954800 -0.74693300 0.22153600
v -0.41954800 -0.74693300 0.22153600
v -0.01368200 0.74138800 0.22153600
v -0.01368200 0.74138800 0.22153600
v -0.41954800 0.74283100 0.22153600
v -0.41954800 0.74283100 0.22153600
v -0.41954800 0.74283100 0.22153600
v -0.41954800 0.74283100 0.22153600
v -0.41954800 0.74283100 0.22153600
v -0.41954800 0.74283100 0.22153600
v -0.02055500 -0.74548900 0.22153600
v -0.02055500 -0.74548900 0.22153600
v -0.01368200 -0.74548900 0.23391000
v -0.01368200 -0.74548900 0.23391000
v -0.41954800 -0.74693300 0.20718100
v -0.41954800 -0.74693300 0.20718100
v -0.41954800 -0.74693300 0.20718100
v -0.41954800 -0.74693300 0.20718100
v -0.41954800 -0.74693300 0.20718100
v -0.41954800 -0.74693300 0.20718100
v -0.02055500 0.74138800 0.22153600
v -0.02055500 0.74138800 0.22153600
v -0.01368200 0.74138800 0.23391000
v -0.01368200 0.74138800 0.23391000
v -0.02055500 -0.74548900 0.23575200
v -0.02055500 -0.74548900 0.23575200
v -0.02055500 0.74138800 0.23575200
v -0.02055500 0.74138800 0.23575200
v -0.22780400 -0.70773400 0.22168700
v -0.22780400 -0.70773400 0.22168700
v -0.38884100 -0.71622600 0.22168700
v -0.38884100 -0.71622600 0.22168700
v -0.22780400 -0.71622600 0.22168700
v -0.22780400 -0.71622600 0.22168700
v -0.38884100 -0.70773400 0.22168700
v -0.38884100 -0.70773400 0.22168700
vn 1.00000000 0.00000000 0.00000000
vn 0.00000000 1.00000000 0.00000000
vn 0.00000000 -1.00000000 0.00000000
vn -1.00000000 0.00000000 0.00000000
vn 1.00000000 0.00000000 0.00000000
vn 0.00000000 1.00000000 0.00000000
vn 0.00000000 -1.00000000 0.00000000
vn -1.00000000 0.00000000 0.00000000
vn 0.00000000 1.00000000 0.00000000
vn 1.00000000 0.00000000 0.00000000
vn 0.00000000 -1.00000000 0.00000000
vn -1.00000000 0.00000000 0.00000000
vn -0.25878363 0.00000000 -0.96593531
vn 0.00000000 -1.00000000 0.00000000
vn 1.00000000 0.00000000 0.00000000
vn 0.25878363 0.00000000 0.96593531
vn -1.00000000 0.00000000 0.00000000
vn 0.00000000 1.00000000 0.00000000
vn 0.00000000 -1.00000000 0.00000000
vn 1.00000000 0.00000000 0.00000000
vn 0.00000000 1.00000000 0.00000000
vn -1.00000000 0.00000000 0.00000000
vn -1.00000000 0.00000000 0.00000000
vn -0.25878363 0.00000000 -0.96593531
vn 0.00000000 -1.00000000 0.00000000
vn 0.25878363 0.00000000 0.96593531
vn 0.00000000 1.00000000 0.00000000
vn 1.00000000 0.00000000 0.00000000
vn -0.25878363 0.00000000 -0.96593531
vn 0.25878363 0.00000000 0.96593531
vn 0.00000000 1.00000000 0.00000000
vn 0.00000000 -1.00000000 0.00000000
vn 1.00000000 0.00000000 0.00000000
vn -1.00000000 0.00000000 0.00000000
vn 0.96594109 0.00000000 -0.25876206
vn -0.25878363 0.00000000 -0.96593531
vn 0.25878363 0.00000000 0.96593531
vn -0.96594109 0.00000000 0.25876206
vn 0.00000000 1.00000000 0.00000000
vn 0.00000000 -1.00000000 0.00000000
vn 0.00000000 1.00000000 0.00000000
vn -0.25878363 0.00000000 -0.96593531
vn 0.25878363 0.00000000 0.96593531
vn -1.00000000 0.00000000 0.00000000
vn 0.00000000 -1.00000000 0.00000000
vn 1.00000000 0.00000000 0.00000000
vn 0.00000000 1.00000000 0.00000000
vn -0.96594109 0.00000000 0.25876206
vn 0.96594109 0.00000000 -0.25876206
vn 0.00000000 -1.00000000 0.00000000
vn 0.25881699 0.00000000 0.96592638
vn -0.25881699 0.00000000 -0.96592638
vn 0.25878363 0.00000000 0.96593531
vn -0.96594109 0.00000000 0.25876206
vn 0.96594109 0.00000000 -0.25876206
vn -0.25878363 0.00000000 -0.96593531
vn 0.00000000 1.00000000 0.00000000
vn 0.00000000 -1.00000000 0.00000000
vn -0.96594109 0.00000000 0.25876206
vn -0.25881699 0.00000000 -0.96592638
vn 0.00000000 1.00000000 0.00000000
vn 0.00000000 -1.00000000 0.00000000
vn 0.96594109 0.00000000 -0.25876206
vn 0.25881699 0.00000000 0.96592638
vn -0.96594109 0.00000000 0.25876206
vn 0.00000000 -1.00000000 0.00000000
vn 0.00000000 1.00000000 0.00000000
vn 0.25878363 0.00000000 0.96593531
vn 0.96594109 0.00000000 -0.25876206
vn -0.25878363 0.00000000 -0.96593531
vn -0.96594109 0.00000000 0.25876206
vn 0.00000000 1.00000000 0.00000000
vn -0.25881699 0.00000000 -0.96592638
vn 0.00000000 -1.00000000 0.00000000
vn 0.25881699 0.00000000 0.96592638
vn 0.96594109 0.00000000 -0.25876206
vn 0.25881699 0.00000000 0.96592638
vn -0.25881699 0.00000000 -0.96592638
vn -0.96594109 0.00000000 0.25876206
vn 0.00000000 1.00000000 0.00000000
vn 0.00000000 -1.00000000 0.00000000
vn 0.96594109 0.00000000 -0.25876206
vn 0.25878363 0.00000000 0.96593531
vn -0.25878363 0.00000000 -0.96593531
vn -0.96594109 0.00000000 0.25876206
vn 0.00000000 1.00000000 0.00000000
vn 0.96594109 0.00000000 -0.25876206
vn 0.00000000 -1.00000000 0.00000000
vn 1.00000000 0.00000000 0.00000000
vn 0.00000000 0.00000000 1.00000000
vn 0.00000000 -1.00000000 0.00000000
vn -1.00000000 0.00000000 0.00000000
vn 0.00000000 1.00000000 0.00000000
vn 0.00000000 0.00000000 -1.00000000
vn 0.00000000 1.00000000 0.00000000
vn 0.00000000 0.00000000 1.00000000
vn 1.00000000 0.00000000 0.00000000
vn 0.00000000 0.00000000 -1.00000000
vn 0.00000000 -1.00000000 0.00000000
vn -1.00000000 0.00000000 0.00000000
vn 0.00000000 -1.00000000 0.00000000
vn 0.00000000 1.00000000 0.00000000
vn 1.00000000 0.00000000 0.00000000
vn 0.00000000 0.00000000 1.00000000
vn 0.00000000 0.00000000 -1.00000000
vn -1.00000000 0.00000000 0.00000000
vn 0.00000000 -1.00000000 0.00000000
vn 1.00000000 0.00000000 0.00000000
vn 0.00000000 1.00000000 0.00000000
vn 0.00000000 0.00000000 1.00000000
vn 0.00000000 0.00000000 -1.00000000
vn -1.00000000 0.00000000 0.00000000
vn 0.00000000 0.00000000 -1.00000000
vn 0.00000000 0.00000000 1.00000000
vn 0.00000000 -1.00000000 0.00000000
vn 0.00000000 0.00000000 -1.00000000
vn 0.00000000 1.00000000 0.00000000
vn 0.00000000 0.00000000 1.00000000
vn 0.00000000 -1.00000000 0.00000000
vn 1.00000000 0.00000000 0.00000000
vn -1.00000000 0.00000000 0.00000000
vn 0.00000000 0.00000000 -1.00000000
vn 0.00000000 1.00000000 0.00000000
vn 0.00000000 0.00000000 1.00000000
vn 0.00000000 0.00000000 1.00000000
vn 0.00000000 0.00000000 -1.00000000
vn 0.00000000 1.00000000 0.00000000
vn 1.00000000 0.00000000 0.00000000
vn 0.00000000 -1.00000000 0.00000000
vn -1.00000000 0.00000000 0.00000000
vn 0.00000000 0.00000000 -1.00000000
vn 0.00000000 0.00000000 1.00000000
vn 1.00000000 0.00000000 0.00000000
vn 0.00000000 -1.00000000 0.00000000
vn 0.00000000 1.00000000 0.00000000
vn 0.00000000 0.00000000 1.00000000
vn 0.00000000 0.00000000 -1.00000000
vn -1.00000000 0.00000000 0.00000000
vn 0.00000000 0.00000000 1.00000000
vn 0.00000000 0.00000000 -1.00000000
vn 0.25886955 0.00000000 0.96591229
vn -0.25886955 0.00000000 -0.96591229
vn -1.00000000 0.00000000 0.00000000
vn 0.00000000 1.00000000 0.00000000
vn 0.00000000 0.00000000 1.00000000
vn 0.00000000 0.00000000 -1.00000000
vn 1.00000000 0.00000000 0.00000000
vn 0.00000000 -1.00000000 0.00000000
vn 0.00000000 0.00000000 -1.00000000
vn 0.00000000 0.00000000 1.00000000
vn -0.25886955 0.00000000 -0.96591229
vn 0.25886955 0.00000000 0.96591229
vn 0.25886955 0.00000000 0.96591229
vn -0.25886955 0.00000000 -0.96591229
vn -0.25886955 0.00000000 -0.96591229
vn 0.25886955 0.00000000 0.96591229
vn 0.00000000 0.00000000 1.00000000
vn 0.00000000 0.00000000 -1.00000000
vn 0.00000000 0.00000000 1.00000000
vn 0.00000000 0.00000000 -1.00000000
vn 0.00000000 0.00000000 1.00000000
vn 0.00000000 0.00000000 -1.00000000
vn 0.00000000 0.00000000 1.00000000
vn 0.00000000 0.00000000 -1.00000000
vt 0.01260204 0.06332703
vt 0.14770490 0.53540103
vt 0.14770490 0.53540103
vt 0.01260204 0.06332703
vt 0.01260204 0.37989653
vt 0.10376090 0.53540103
vt 0.10376090 0.53540103
vt 0.01260204 0.37989653
vt 0.13657194 0.53540103
vt 0.23886376 0.06332703
vt 0.13657194 0.53540103
vt 0.23886376 0.06332703
vt 0.11750525 0.06332703
vt 0.14770490 0.49531603
vt 0.03264432 0.06332703
vt 0.11750525 0.06332703
vt 0.03264432 0.06332703
vt 0.14770490 0.49531603
vt 0.11489386 0.53540103
vt 0.23886376 0.37989653
vt 0.11489386 0.53540103
vt 0.23886376 0.37989653
vt 0.03264432 0.37989653
vt 0.11750525 0.37989653
vt 0.10376090 0.49531603
vt 0.11750525 0.37989653
vt 0.10376090 0.49531603
vt 0.03264432 0.37989653
vt 0.10597980 0.06332703
vt 0.10597980 0.06332703
vt 0.13657194 0.48935003
vt 0.13657194 0.48935003
vt 0.21583832 0.06332703
vt 0.21583832 0.06332703
vt 0.19869811 0.37989653
vt 0.12658623 0.37989653
vt 0.12658623 0.37989653
vt 0.19869811 0.37989653
vt 0.09498956 0.50001653
vt 0.09498956 0.50001653
vt 0.11489386 0.48935003
vt 0.10597980 0.37989653
vt 0.10597980 0.37989653
vt 0.21583832 0.37989653
vt 0.11489386 0.48935003
vt 0.21583832 0.37989653
vt 0.15728316 0.49399503
vt 0.20181526 0.06332703
vt 0.20181526 0.06332703
vt 0.15728316 0.49399503
vt 0.12487957 0.06332703
vt 0.12487957 0.06332703
vt 0.12658623 0.06332703
vt 0.19869811 0.06332703
vt 0.19869811 0.06332703
vt 0.12658623 0.06332703
vt 0.15647624 0.50001653
vt 0.15647624 0.50001653
vt 0.20181526 0.37989653
vt 0.12487957 0.37989653
vt 0.09418264 0.49399503
vt 0.09418264 0.49399503
vt 0.20181526 0.37989653
vt 0.12487957 0.37989653
vt 0.05276769 0.06332703
vt 0.12780060 0.48464953
vt 0.12780060 0.48464953
vt 0.09689883 0.06332703
vt 0.05276769 0.06332703
vt 0.09689883 0.06332703
vt 0.04965054 0.06332703
vt 0.12860727 0.47862753
vt 0.15456697 0.06332703
vt 0.12860727 0.47862753
vt 0.15456697 0.06332703
vt 0.04965054 0.06332703
vt 0.15456697 0.37989653
vt 0.15456697 0.37989653
vt 0.04965054 0.37989653
vt 0.12285852 0.47862753
vt 0.12285852 0.47862753
vt 0.04965054 0.37989653
vt 0.09689883 0.37989653
vt 0.09689883 0.37989653
vt 0.05276769 0.37989653
vt 0.12366520 0.48464953
vt 0.05276769 0.37989653
vt 0.12366520 0.48464953
vt 0.25329739 0.05913931
vt 0.25329739 0.05913931
vt 0.25329739 0.05913931
vt 0.25329739 0.05913931
vt 0.25329739 0.05913931
vt 0.25329739 0.05913931
vt 0.25329739 0.05913931
vt 0.25329739 0.05913931
vt 0.25329739 0.05913931
vt 0.25329739 0.05913931
vt 0.25329739 0.05913931
vt 0.25329739 0.05913931
vt 0.25329739 0.05913931
vt 0.25329739 0.05913931
vt 0.25329739 0.05913931
vt 0.25329739 0.05913931
vt 0.25329739 0.05913931
vt 0.25329739 0.05913931
vt 0.25329739 0.05913931
vt 0.25329739 0.05913931
vt 0.25329739 0.05913931
vt 0.25329739 0.05913931
vt 0.25329739 0.05913931
vt 0.25329739 0.05913931
vt 0.25329739 0.05913931
vt 0.25329739 0.05913931
vt 0.25329739 0.05913931
vt 0.25329739 0.05913931
vt 0.25329739 0.05913931
vt 0.25329739 0.05913931
vt 0.25329739 0.05913931
vt 0.25329739 0.05913931
vt 0.25329739 0.05913931
vt 0.25329739 0.05913931
vt 0.25329739 0.05913931
vt 0.25329739 0.05913931
vt 0.25329739 0.05913931
vt 0.25329739 0.05913931
vt 0.25329739 0.05913931
vt 0.25329739 0.05913931
vt 0.25329739 0.05913931
vt 0.25329739 0.05913931
vt 0.25329739 0.05913931
vt 0.25329739 0.05913931
vt 0.25329739 0.05913931
vt 0.25329739 0.05913931
vt 0.25329739 0.05913931
vt 0.25329739 0.05913931
vt 0.25329739 0.05913931
vt 0.25329739 0.05913931
vt 0.25329739 0.05913931
vt 0.25329739 0.05913931
vt 0.25329739 0.05913931
vt 0.25329739 0.05913931
vt 0.25329739 0.05913931
vt 0.25329739 0.05913931
vt 0.25329739 0.05913931
vt 0.25329739 0.05913931
vt 0.25329739 0.05913931
vt 0.25329739 0.05913931
vt 0.25329739 0.05913931
vt 0.25329739 0.05913931
vt 0.25329739 0.05913931
vt 0.25329739 0.05913931
vt 0.25329739 0.05913931
vt 0.25329739 0.05913931
vt 0.25329739 0.05913931
vt 0.25329739 0.05913931
vt 0.50024486 0.05323361
vt 0.50024486 0.05323361
vt 0.00122094 0.00243427
vt 0.00122094 0.00243427
vt 0.50024486 0.00243427
vt 0.50024486 0.00243427
vt 0.00122094 0.05323361
vt 0.00122094 0.05323361
f 17/17/17 8/8/8 4/4/4
f 1/1/1 5/5/5 15/15/15
f 9/9/9 18/18/18 2/2/2
f 3/3/3 14/14/14 11/11/11
f 8/8/8 17/17/17 23/23/23
f 28/28/28 15/15/15 5/5/5
f 18/18/18 9/9/9 31/31/31
f 32/32/32 11/11/11 14/14/14
f 25/25/25 19/19/19 7/7/7
f 6/6/6 21/21/21 27/27/27
f 16/16/16 37/37/37 26/26/26
f 24/24/24 36/36/36 13/13/13
f 46/46/46 10/10/10 20/20/20
f 22/22/22 12/12/12 44/44/44
f 10/10/10 46/46/46 33/33/33
f 34/34/34 44/44/44 12/12/12
f 31/31/31 47/47/47 18/18/18
f 14/14/14 50/50/50 32/32/32
f 19/19/19 25/25/25 45/45/45
f 41/41/41 27/27/27 21/21/21
f 37/37/37 16/16/16 53/53/53
f 56/56/56 13/13/13 36/36/36
f 62/62/62 25/25/25 40/40/40
f 39/39/39 27/27/27 61/61/61
f 62/62/62 45/45/45 25/25/25
f 27/27/27 41/41/41 61/61/61
f 43/43/43 68/68/68 30/30/30
f 29/29/29 70/70/70 42/42/42
f 31/31/31 72/72/72 47/47/47
f 50/50/50 74/74/74 32/32/32
f 18/18/18 47/47/47 57/57/57
f 58/58/58 50/50/50 14/14/14
f 48/48/48 38/38/38 54/54/54
f 55/55/55 35/35/35 49/49/49
f 38/38/38 48/48/48 59/59/59
f 63/63/63 49/49/49 35/35/35
f 81/81/81 45/45/45 62/62/62
f 61/61/61 41/41/41 80/80/80
f 68/68/68 43/43/43 83/83/83
f 84/84/84 42/42/42 70/70/70
f 72/72/72 31/31/31 67/67/67
f 66/66/66 32/32/32 74/74/74
f 78/78/78 52/52/52 73/73/73
f 75/75/75 51/51/51 77/77/77
f 52/52/52 78/78/78 60/60/60
f 64/64/64 77/77/77 51/51/51
f 45/45/45 81/81/81 88/88/88
f 86/86/86 80/80/80 41/41/41
f 82/82/82 69/69/69 87/87/87
f 85/85/85 65/65/65 79/79/79
f 69/69/69 82/82/82 76/76/76
f 71/71/71 79/79/79 65/65/65
f 89/89/89 97/97/97 103/103/103
f 97/97/97 89/89/89 108/108/108
f 106/106/106 100/100/100 92/92/92
f 112/112/112 92/92/92 100/100/100
f 114/114/114 104/104/104 96/96/96
f 98/98/98 105/105/105 113/113/113
f 101/101/101 115/115/115 91/91/91
f 93/93/93 117/117/117 102/102/102
f 116/116/116 111/111/111 94/94/94
f 90/90/90 110/110/110 118/118/118
f 123/123/123 95/95/95 109/109/109
f 107/107/107 99/99/99 119/119/119
f 104/104/104 114/114/114 125/125/125
f 126/126/126 113/113/113 105/105/105
f 114/114/114 96/96/96 132/132/132
f 131/131/131 98/98/98 113/113/113
f 129/129/129 115/115/115 101/101/101
f 102/102/102 117/117/117 127/127/127
f 111/111/111 116/116/116 122/122/122
f 124/124/124 118/118/118 110/110/110
f 95/95/95 123/123/123 135/135/135
f 134/134/134 119/119/119 99/99/99
f 139/139/139 125/125/125 114/114/114
f 113/113/113 126/126/126 140/140/140
f 136/136/136 132/132/132 96/96/96
f 98/98/98 131/131/131 137/137/137
f 132/132/132 139/139/139 114/114/114
f 113/113/113 140/140/140 131/131/131
f 115/115/115 129/129/129 148/148/148
f 144/144/144 127/127/127 117/117/117
f 122/122/122 116/116/116 146/146/146
f 145/145/145 118/118/118 124/124/124
f 121/121/121 130/130/130 138/138/138
f 133/133/133 128/128/128 120/120/120
f 125/125/125 139/139/139 136/136/136
f 137/137/137 140/140/140 126/126/126
f 136/136/136 150/150/150 132/132/132
f 131/131/131 149/149/149 137/137/137
f 139/139/139 132/132/132 150/150/150
f 149/149/149 131/131/131 140/140/140
f 130/130/130 121/121/121 143/143/143
f 147/147/147 120/120/120 128/128/128
f 136/136/136 139/139/139 150/150/150
f 149/149/149 140/140/140 137/137/137
f 142/142/142 155/155/155 151/151/151
f 152/152/152 156/156/156 141/141/141
f 155/155/155 142/142/142 154/154/154
f 153/153/153 141/141/141 156/156/156
f 157/157/157 159/159/159 161/161/161
f 159/159/159 157/157/157 163/163/163
f 162/162/162 160/160/160 158/158/158
f 164/164/164 158/158/158 160/160/160

