# https://github.com/mikedh/trimesh
mtllib material.mtl
usemtl material_0
v -0.13426200 0.70257600 -0.04977800
v -0.13426200 0.70257600 -0.04977800
v 0.12925100 0.72278600 -0.40007000
v 0.12925100 0.72278600 -0.40007000
v -0.13426200 0.72278600 -0.40007000
v -0.13426200 0.72278600 -0.40007000
v 0.12925100 0.70257600 -0.04977800
v 0.12925100 0.70257600 -0.04977800
v -0.45953500 0.72728000 -0.47798600
v -0.45953500 0.72728000 -0.47798600
v -0.13426200 0.72278600 -0.40007000
v -0.13426200 0.72278600 -0.40007000
v 0.45452400 0.72728000 -0.47798600
v 0.45452400 0.72728000 -0.47798600
v -0.45953500 0.67787200 0.37843000
v -0.45953500 0.67787200 0.37843000
v -0.13426200 0.70257600 -0.04977800
v -0.13426200 0.70257600 -0.04977800
v 0.12925100 0.70257600 -0.04977800
v 0.12925100 0.70257600 -0.04977800
v 0.12925100 0.72278600 -0.40007000
v 0.12925100 0.72278600 -0.40007000
v 0.45452400 0.67787200 0.37843000
v 0.45452400 0.67787200 0.37843000
v -0.45953500 0.72728000 -0.47798600
v -0.45953500 0.72728000 -0.47798600
v -0.45953500 0.67787200 -0.47798600
v -0.45953500 0.67787200 -0.47798600
v -0.45953500 0.67787200 0.37843000
v -0.45953500 0.67787200 0.37843000
v -0.52953100 0.67787200 0.51018600
v -0.52953100 0.67787200 0.51018600
v -0.45953500 0.67787200 -0.47798600
v -0.45953500 0.67787200 -0.47798600
v -0.52953100 0.67787200 -0.47798600
v -0.52953100 0.67787200 -0.47798600
v -0.45953500 0.67787200 0.37843000
v -0.45953500 0.67787200 0.37843000
v 0.45452400 0.67787200 0.37843000
v 0.45452400 0.67787200 0.37843000
v 0.52452000 0.67787200 -0.47798600
v 0.52452000 0.67787200 -0.47798600
v 0.45452400 0.67787200 -0.47798600
v 0.45452400 0.67787200 -0.47798600
v 0.52452000 0.67787200 0.51018600
v 0.52452000 0.67787200 0.51018600
v 0.45452400 0.72728000 -0.47798600
v 0.45452400 0.72728000 -0.47798600
v 0.45452400 0.67787200 0.37843000
v 0.45452400 0.67787200 0.37843000
v 0.45452400 0.67787200 -0.47798600
v 0.45452400 0.67787200 -0.47798600
v -0.45953500 0.67787200 -0.47798600
v -0.45953500 0.67787200 -0.47798600
v -0.52953100 0.62846300 -0.47798600
v -0.52953100 0.62846300 -0.47798600
v -0.52953100 0.67787200 -0.47798600
v -0.52953100 0.67787200 -0.47798600
v -0.51306100 0.62846300 -0.47798600
v -0.51306100 0.62846300 -0.47798600
v 0.50805000 0.62846300 -0.47798600
v 0.50805000 0.62846300 -0.47798600
v 0.45452400 0.67787200 -0.47798600
v 0.45452400 0.67787200 -0.47798600
v 0.52452000 0.67787200 -0.47798600
v 0.52452000 0.67787200 -0.47798600
v 0.52452000 0.62846300 -0.47798600
v 0.52452000 0.62846300 -0.47798600
v -0.52953100 0.67787200 0.51018600
v -0.52953100 0.67787200 0.51018600
v -0.52953100 0.62846300 0.49371700
v -0.52953100 0.62846300 0.49371700
v -0.52953100 0.62846300 0.51018600
v -0.52953100 0.62846300 0.51018600
v -0.52953100 0.62846300 -0.47798600
v -0.52953100 0.62846300 -0.47798600
v -0.52953100 0.67787200 -0.47798600
v -0.52953100 0.67787200 -0.47798600
v 0.52452000 0.62846300 0.51018600
v 0.52452000 0.62846300 0.51018600
v -0.52953100 0.67787200 0.51018600
v -0.52953100 0.67787200 0.51018600
v -0.52953100 0.62846300 0.51018600
v -0.52953100 0.62846300 0.51018600
v 0.52452000 0.67787200 0.51018600
v 0.52452000 0.67787200 0.51018600
v 0.52452000 0.67787200 -0.47798600
v 0.52452000 0.67787200 -0.47798600
v 0.52452000 0.62846300 0.51018600
v 0.52452000 0.62846300 0.51018600
v 0.52452000 0.62846300 -0.47798600
v 0.52452000 0.62846300 -0.47798600
v 0.52452000 0.67787200 0.51018600
v 0.52452000 0.67787200 0.51018600
v 0.45452400 0.67787200 -0.47798600
v 0.45452400 0.72728000 -0.47798600
v -0.45953500 0.67787200 -0.47798600
v -0.45953500 0.72728000 -0.47798600
v 0.45452400 0.72728000 -0.47798600
v -0.45953500 0.67787200 -0.47798600
v -0.45953500 0.72728000 -0.47798600
v 0.45452400 0.67787200 -0.47798600
v 0.50805000 0.62846300 0.49371700
v -0.51306100 0.62846300 0.49371700
v 0.50805000 0.62846300 -0.46151700
v -0.51306100 0.62846300 -0.46151700
v -0.51306100 0.62846300 0.49371700
v 0.50805000 0.62846300 -0.46151700
v -0.51306100 0.62846300 -0.46151700
v 0.50805000 0.62846300 0.49371700
v -0.52953100 0.62846300 0.51018600
v -0.52953100 0.62846300 0.51018600
v -0.51306100 0.62846300 0.49371700
v -0.51306100 0.62846300 0.49371700
v -0.52953100 0.62846300 0.49371700
v -0.52953100 0.62846300 0.49371700
v 0.50805000 0.62846300 0.49371700
v 0.50805000 0.62846300 0.49371700
v 0.50805000 0.62846300 -0.46151700
v 0.50805000 0.62846300 -0.46151700
v 0.52452000 0.62846300 -0.47798600
v 0.52452000 0.62846300 -0.47798600
v 0.50805000 0.62846300 -0.47798600
v 0.50805000 0.62846300 -0.47798600
v 0.52452000 0.62846300 0.51018600
v 0.52452000 0.62846300 0.51018600
v -0.51306100 0.62846300 -0.47798600
v -0.51306100 0.62846300 -0.47798600
v -0.52953100 0.62846300 -0.47798600
v -0.52953100 0.62846300 -0.47798600
v -0.51306100 0.62846300 -0.46151700
v -0.51306100 0.62846300 -0.46151700
vn 0.00000000 0.99833994 0.05759654
vn 0.00000000 -0.99833994 -0.05759654
vn 0.00000000 0.99833994 0.05759654
vn 0.00000000 -0.99833994 -0.05759654
vn 0.00000000 0.99833994 0.05759654
vn 0.00000000 -0.99833994 -0.05759654
vn 0.00000000 0.99833994 0.05759654
vn 0.00000000 -0.99833994 -0.05759654
vn 0.00000000 0.99833994 0.05759654
vn 0.00000000 -0.99833994 -0.05759654
vn 0.00000000 0.99833994 0.05759654
vn 0.00000000 -0.99833994 -0.05759654
vn 0.00000000 0.99833994 0.05759654
vn 0.00000000 -0.99833994 -0.05759654
vn 0.00000000 -0.99833994 -0.05759654
vn 0.00000000 0.99833994 0.05759654
vn 0.00000000 0.99833994 0.05759654
vn 0.00000000 -0.99833994 -0.05759654
vn 0.00000000 0.99833994 0.05759654
vn 0.00000000 -0.99833994 -0.05759654
vn 0.00000000 -0.99833994 -0.05759654
vn 0.00000000 0.99833994 0.05759654
vn 0.00000000 0.99833994 0.05759654
vn 0.00000000 -0.99833994 -0.05759654
vn -1.00000000 0.00000000 0.00000000
vn 1.00000000 0.00000000 0.00000000
vn 1.00000000 0.00000000 0.00000000
vn -1.00000000 0.00000000 0.00000000
vn -1.00000000 0.00000000 0.00000000
vn 1.00000000 0.00000000 0.00000000
vn 0.00000000 -1.00000000 0.00000000
vn 0.00000000 1.00000000 0.00000000
vn 0.00000000 -1.00000000 0.00000000
vn 0.00000000 1.00000000 0.00000000
vn 0.00000000 -1.00000000 0.00000000
vn 0.00000000 1.00000000 0.00000000
vn 0.00000000 -1.00000000 0.00000000
vn 0.00000000 1.00000000 0.00000000
vn 0.00000000 -1.00000000 0.00000000
vn 0.00000000 1.00000000 0.00000000
vn 0.00000000 -1.00000000 0.00000000
vn 0.00000000 1.00000000 0.00000000
vn 0.00000000 -1.00000000 0.00000000
vn 0.00000000 1.00000000 0.00000000
vn 0.00000000 -1.00000000 0.00000000
vn 0.00000000 1.00000000 0.00000000
vn 1.00000000 0.00000000 0.00000000
vn -1.00000000 0.00000000 0.00000000
vn 1.00000000 0.00000000 0.00000000
vn -1.00000000 0.00000000 0.00000000
vn 1.00000000 0.00000000 0.00000000
vn -1.00000000 0.00000000 0.00000000
vn 0.00000000 0.00000000 1.00000000
vn 0.00000000 0.00000000 -1.00000000
vn 0.00000000 0.00000000 -1.00000000
vn 0.00000000 0.00000000 1.00000000
vn 0.00000000 0.00000000 1.00000000
vn 0.00000000 0.00000000 -1.00000000
vn 0.00000000 0.00000000 -1.00000000
vn 0.00000000 0.00000000 1.00000000
vn 0.00000000 0.00000000 1.00000000
vn 0.00000000 0.00000000 -1.00000000
vn 0.00000000 0.00000000 1.00000000
vn 0.00000000 0.00000000 -1.00000000
vn 0.00000000 0.00000000 -1.00000000
vn 0.00000000 0.00000000 1.00000000
vn 0.00000000 0.00000000 -1.00000000
vn 0.00000000 0.00000000 1.00000000
vn -1.00000000 0.00000000 0.00000000
vn 1.00000000 0.00000000 0.00000000
vn -1.00000000 0.00000000 0.00000000
vn 1.00000000 0.00000000 0.00000000
vn 1.00000000 0.00000000 0.00000000
vn -1.00000000 0.00000000 0.00000000
vn 1.00000000 0.00000000 0.00000000
vn -1.00000000 0.00000000 0.00000000
vn -1.00000000 0.00000000 0.00000000
vn 1.00000000 0.00000000 0.00000000
vn 0.00000000 0.00000000 1.00000000
vn 0.00000000 0.00000000 -1.00000000
vn 0.00000000 0.00000000 1.00000000
vn 0.00000000 0.00000000 -1.00000000
vn 0.00000000 0.00000000 -1.00000000
vn 0.00000000 0.00000000 1.00000000
vn 0.00000000 0.00000000 1.00000000
vn 0.00000000 0.00000000 -1.00000000
vn -1.00000000 0.00000000 0.00000000
vn 1.00000000 0.00000000 0.00000000
vn 1.00000000 0.00000000 0.00000000
vn -1.00000000 0.00000000 0.00000000
vn 1.00000000 0.00000000 0.00000000
vn -1.00000000 0.00000000 0.00000000
vn 1.00000000 0.00000000 0.00000000
vn -1.00000000 0.00000000 0.00000000
vn 0.00000000 0.00000000 1.00000000
vn 0.00000000 0.00000000 1.00000000
vn 0.00000000 0.00000000 1.00000000
vn 0.00000000 0.00000000 1.00000000
vn 0.00000000 0.00000000 -1.00000000
vn 0.00000000 0.00000000 -1.00000000
vn 0.00000000 0.00000000 -1.00000000
vn 0.00000000 0.00000000 -1.00000000
vn 0.00000000 -1.00000000 0.00000000
vn 0.00000000 -1.00000000 0.00000000
vn 0.00000000 -1.00000000 0.00000000
vn 0.00000000 -1.00000000 0.00000000
vn 0.00000000 1.00000000 0.00000000
vn 0.00000000 1.00000000 0.00000000
vn 0.00000000 1.00000000 0.00000000
vn 0.00000000 1.00000000 0.00000000
vn 0.00000000 1.00000000 0.00000000
vn 0.00000000 -1.00000000 0.00000000
vn 0.00000000 1.00000000 0.00000000
vn 0.00000000 -1.00000000 0.00000000
vn 0.00000000 1.00000000 0.00000000
vn 0.00000000 -1.00000000 0.00000000
vn 0.00000000 1.00000000 0.00000000
vn 0.00000000 -1.00000000 0.00000000
vn 0.00000000 1.00000000 0.00000000
vn 0.00000000 -1.00000000 0.00000000
vn 0.00000000 1.00000000 0.00000000
vn 0.00000000 -1.00000000 0.00000000
vn 0.00000000 1.00000000 0.00000000
vn 0.00000000 -1.00000000 0.00000000
vn 0.00000000 1.00000000 0.00000000
vn 0.00000000 -1.00000000 0.00000000
vn 0.00000000 -1.00000000 0.00000000
vn 0.00000000 1.00000000 0.00000000
vn 0.00000000 -1.00000000 0.00000000
vn 0.00000000 1.00000000 0.00000000
vn 0.00000000 1.00000000 0.00000000
vn 0.00000000 -1.00000000 0.00000000
vt 0.08014113 0.34821429
vt 0.08014113 0.34821429
vt 0.08014113 0.34821429
vt 0.08014113 0.34821429
vt 0.08014113 0.34821429
vt 0.08014113 0.34821429
vt 0.08014113 0.34821429
vt 0.08014113 0.34821429
vt 0.08014113 0.34821429
vt 0.08014113 0.34821429
vt 0.08014113 0.34821429
vt 0.08014113 0.34821429
vt 0.08014113 0.34821429
vt 0.08014113 0.34821429
vt 0.08014113 0.34821429
vt 0.08014113 0.34821429
vt 0.08014113 0.34821429
vt 0.08014113 0.34821429
vt 0.08014113 0.34821429
vt 0.08014113 0.34821429
vt 0.08014113 0.34821429
vt 0.08014113 0.34821429
vt 0.08014113 0.34821429
vt 0.08014113 0.34821429
vt 0.08014113 0.34821429
vt 0.08014113 0.34821429
vt 0.08014113 0.34821429
vt 0.08014113 0.34821429
vt 0.08014113 0.34821429
vt 0.08014113 0.34821429
vt 0.08014113 0.34821429
vt 0.08014113 0.34821429
vt 0.08014113 0.34821429
vt 0.08014113 0.34821429
vt 0.08014113 0.34821429
vt 0.08014113 0.34821429
vt 0.08014113 0.34821429
vt 0.08014113 0.34821429
vt 0.08014113 0.34821429
vt 0.08014113 0.34821429
vt 0.08014113 0.34821429
vt 0.08014113 0.34821429
vt 0.08014113 0.34821429
vt 0.08014113 0.34821429
vt 0.08014113 0.34821429
vt 0.08014113 0.34821429
vt 0.08014113 0.34821429
vt 0.08014113 0.34821429
vt 0.08014113 0.34821429
vt 0.08014113 0.34821429
vt 0.08014113 0.34821429
vt 0.08014113 0.34821429
vt 0.08014113 0.34821429
vt 0.08014113 0.34821429
vt 0.08014113 0.34821429
vt 0.08014113 0.34821429
vt 0.08014113 0.34821429
vt 0.08014113 0.34821429
vt 0.08014113 0.34821429
vt 0.08014113 0.34821429
vt 0.08014113 0.34821429
vt 0.08014113 0.34821429
vt 0.08014113 0.34821429
vt 0.08014113 0.34821429
vt 0.08014113 0.34821429
vt 0.08014113 0.34821429
vt 0.08014113 0.34821429
vt 0.08014113 0.34821429
vt 0.08014113 0.34821429
vt 0.08014113 0.34821429
vt 0.08014113 0.34821429
vt 0.08014113 0.34821429
vt 0.08014113 0.34821429
vt 0.08014113 0.34821429
vt 0.08014113 0.34821429
vt 0.08014113 0.34821429
vt 0.08014113 0.34821429
vt 0.08014113 0.34821429
vt 0.08014113 0.34821429
vt 0.08014113 0.34821429
vt 0.08014113 0.34821429
vt 0.08014113 0.34821429
vt 0.08014113 0.34821429
vt 0.08014113 0.34821429
vt 0.08014113 0.34821429
vt 0.08014113 0.34821429
vt 0.08014113 0.34821429
vt 0.08014113 0.34821429
vt 0.08014113 0.34821429
vt 0.08014113 0.34821429
vt 0.08014113 0.34821429
vt 0.08014113 0.34821429
vt 0.08014113 0.34821429
vt 0.08014113 0.34821429
vt 0.46723790 0.34821429
vt 0.46723790 0.34821429
vt 0.46723790 0.34821429
vt 0.46723790 0.34821429
vt 0.27368952 0.34821429
vt 0.27368952 0.34821429
vt 0.27368952 0.34821429
vt 0.27368952 0.34821429
vt 0.46723790 0.34821429
vt 0.46723790 0.34821429
vt 0.46723790 0.34821429
vt 0.46723790 0.34821429
vt 0.27368952 0.34821429
vt 0.27368952 0.34821429
vt 0.27368952 0.34821429
vt 0.27368952 0.34821429
vt 0.08014113 0.34821429
vt 0.08014113 0.34821429
vt 0.08014113 0.34821429
vt 0.08014113 0.34821429
vt 0.08014113 0.34821429
vt 0.08014113 0.34821429
vt 0.08014113 0.34821429
vt 0.08014113 0.34821429
vt 0.08014113 0.34821429
vt 0.08014113 0.34821429
vt 0.08014113 0.34821429
vt 0.08014113 0.34821429
vt 0.08014113 0.34821429
vt 0.08014113 0.34821429
vt 0.08014113 0.34821429
vt 0.08014113 0.34821429
vt 0.08014113 0.34821429
vt 0.08014113 0.34821429
vt 0.08014113 0.34821429
vt 0.08014113 0.34821429
vt 0.08014113 0.34821429
vt 0.08014113 0.34821429
f 1/1/1 3/3/3 5/5/5
f 6/6/6 4/4/4 2/2/2
f 3/3/3 1/1/1 7/7/7
f 8/8/8 2/2/2 4/4/4
f 9/9/9 11/11/11 13/13/13
f 14/14/14 12/12/12 10/10/10
f 11/11/11 9/9/9 16/16/16
f 15/15/15 10/10/10 12/12/12
f 11/11/11 16/16/16 17/17/17
f 18/18/18 15/15/15 12/12/12
f 17/17/17 16/16/16 19/19/19
f 20/20/20 15/15/15 18/18/18
f 13/13/13 22/22/22 23/23/23
f 24/24/24 21/21/21 14/14/14
f 22/22/22 13/13/13 11/11/11
f 12/12/12 14/14/14 21/21/21
f 23/23/23 22/22/22 19/19/19
f 20/20/20 21/21/21 24/24/24
f 23/23/23 19/19/19 16/16/16
f 15/15/15 20/20/20 24/24/24
f 25/25/25 28/28/28 29/29/29
f 30/30/30 27/27/27 26/26/26
f 32/32/32 34/34/34 36/36/36
f 35/35/35 33/33/33 31/31/31
f 34/34/34 32/32/32 38/38/38
f 37/37/37 31/31/31 33/33/33
f 38/38/38 32/32/32 40/40/40
f 39/39/39 31/31/31 37/37/37
f 40/40/40 42/42/42 44/44/44
f 43/43/43 41/41/41 39/39/39
f 42/42/42 40/40/40 46/46/46
f 45/45/45 39/39/39 41/41/41
f 46/46/46 40/40/40 32/32/32
f 31/31/31 39/39/39 45/45/45
f 47/47/47 49/49/49 51/51/51
f 52/52/52 50/50/50 48/48/48
f 54/54/54 55/55/55 58/58/58
f 57/57/57 56/56/56 53/53/53
f 55/55/55 54/54/54 59/59/59
f 60/60/60 53/53/53 56/56/56
f 59/59/59 54/54/54 62/62/62
f 61/61/61 53/53/53 60/60/60
f 62/62/62 54/54/54 64/64/64
f 63/63/63 53/53/53 61/61/61
f 62/62/62 64/64/64 65/65/65
f 66/66/66 63/63/63 61/61/61
f 62/62/62 65/65/65 67/67/67
f 68/68/68 66/66/66 61/61/61
f 38/38/38 44/44/44 34/34/34
f 33/33/33 43/43/43 37/37/37
f 44/44/44 38/38/38 40/40/40
f 39/39/39 37/37/37 43/43/43
f 69/69/69 71/71/71 74/74/74
f 73/73/73 72/72/72 70/70/70
f 71/71/71 69/69/69 76/76/76
f 75/75/75 70/70/70 72/72/72
f 76/76/76 69/69/69 77/77/77
f 78/78/78 70/70/70 75/75/75
f 79/79/79 81/81/81 84/84/84
f 83/83/83 82/82/82 80/80/80
f 81/81/81 79/79/79 85/85/85
f 86/86/86 80/80/80 82/82/82
f 88/88/88 89/89/89 91/91/91
f 92/92/92 90/90/90 87/87/87
f 89/89/89 88/88/88 93/93/93
f 94/94/94 87/87/87 90/90/90
f 95/95/95 96/96/96 97/97/97
f 98/98/98 97/97/97 96/96/96
f 99/99/99 100/100/100 101/101/101
f 100/100/100 99/99/99 102/102/102
f 103/103/103 104/104/104 105/105/105
f 106/106/106 105/105/105 104/104/104
f 107/107/107 108/108/108 109/109/109
f 108/108/108 107/107/107 110/110/110
f 111/111/111 113/113/113 115/115/115
f 116/116/116 114/114/114 112/112/112
f 113/113/113 111/111/111 117/117/117
f 118/118/118 112/112/112 114/114/114
f 119/119/119 121/121/121 123/123/123
f 124/124/124 122/122/122 120/120/120
f 121/121/121 119/119/119 125/125/125
f 126/126/126 120/120/120 122/122/122
f 125/125/125 119/119/119 117/117/117
f 118/118/118 120/120/120 126/126/126
f 125/125/125 117/117/117 111/111/111
f 112/112/112 118/118/118 126/126/126
f 115/115/115 128/128/128 130/130/130
f 129/129/129 127/127/127 116/116/116
f 128/128/128 115/115/115 131/131/131
f 132/132/132 116/116/116 127/127/127
f 131/131/131 115/115/115 113/113/113
f 114/114/114 116/116/116 132/132/132
f 131/131/131 123/123/123 128/128/128
f 127/127/127 124/124/124 132/132/132
f 123/123/123 131/131/131 119/119/119
f 120/120/120 132/132/132 124/124/124

