# https://github.com/mikedh/trimesh
mtllib material.mtl
usemtl material_0
v 0.50805000 0.62846300 -0.46151700
v 0.50805000 0.62846300 -0.46151700
v 0.50805000 -0.77144800 0.44881600
v 0.50805000 -0.77144800 0.44881600
v 0.50805000 -0.77144800 -0.46151700
v 0.50805000 -0.77144800 -0.46151700
v 0.50805000 0.55943400 0.44881600
v 0.50805000 0.55943400 0.44881600
v 0.50805000 0.62846300 0.49371700
v 0.50805000 0.62846300 0.49371700
v -0.51306100 0.55943400 0.44881600
v -0.51306100 0.55943400 0.44881600
v 0.50805000 0.62846300 0.49371700
v 0.50805000 0.62846300 0.49371700
v -0.51306100 0.62846300 0.49371700
v -0.51306100 0.62846300 0.49371700
v -0.21660900 0.55943400 0.44881600
v -0.21660900 0.55943400 0.44881600
v 0.21159900 0.55943400 0.44881600
v 0.21159900 0.55943400 0.44881600
v 0.50805000 0.55943400 0.44881600
v 0.50805000 0.55943400 0.44881600
v 0.50805000 -0.77144800 0.44881600
v 0.50805000 -0.77144800 0.44881600
v 0.21159900 0.55943400 0.44881600
v 0.21159900 0.55943400 0.44881600
v 0.21159900 -0.77144800 0.44881600
v 0.21159900 -0.77144800 0.44881600
v 0.50805000 0.55943400 0.44881600
v 0.50805000 0.55943400 0.44881600
v 0.50805000 0.62846300 -0.46151700
v 0.50805000 0.62846300 -0.46151700
v -0.51306100 -0.77144800 -0.46151700
v -0.51306100 -0.77144800 -0.46151700
v -0.51306100 0.62846300 -0.46151700
v -0.51306100 0.62846300 -0.46151700
v 0.50805000 -0.77144800 -0.46151700
v 0.50805000 -0.77144800 -0.46151700
v -0.51306100 -0.77144800 0.44881600
v -0.51306100 -0.77144800 0.44881600
v -0.51306100 0.62846300 -0.46151700
v -0.51306100 0.62846300 -0.46151700
v -0.51306100 -0.77144800 -0.46151700
v -0.51306100 -0.77144800 -0.46151700
v -0.51306100 0.55943400 0.44881600
v -0.51306100 0.55943400 0.44881600
v -0.51306100 0.62846300 0.49371700
v -0.51306100 0.62846300 0.49371700
v -0.21660900 -0.77144800 0.44881600
v -0.21660900 -0.77144800 0.44881600
v -0.51306100 0.55943400 0.44881600
v -0.51306100 0.55943400 0.44881600
v -0.51306100 -0.77144800 0.44881600
v -0.51306100 -0.77144800 0.44881600
v -0.21660900 0.55943400 0.44881600
v -0.21660900 0.55943400 0.44881600
v 0.21159900 -0.50793500 0.40258600
v 0.21159900 -0.50793500 0.40258600
v 0.21159900 0.55943400 0.44881600
v 0.21159900 0.55943400 0.44881600
v -0.21660900 -0.50793500 0.40258600
v -0.21660900 -0.50793500 0.40258600
v -0.21660900 0.55943400 0.44881600
v -0.21660900 0.55943400 0.44881600
v 0.21159900 -0.77144800 0.44881600
v 0.21159900 -0.77144800 0.44881600
v 0.21159900 -0.50793500 0.40258600
v 0.21159900 -0.50793500 0.40258600
v 0.21159900 -0.77144800 0.27082900
v 0.21159900 -0.77144800 0.27082900
v 0.21159900 0.55943400 0.44881600
v 0.21159900 0.55943400 0.44881600
v 0.21159900 -0.50793500 0.27082900
v 0.21159900 -0.50793500 0.27082900
v -0.21660900 -0.50793500 0.40258600
v -0.21660900 -0.50793500 0.40258600
v -0.21660900 -0.77144800 0.27082900
v -0.21660900 -0.77144800 0.27082900
v -0.21660900 -0.50793500 0.27082900
v -0.21660900 -0.50793500 0.27082900
v -0.21660900 0.55943400 0.44881600
v -0.21660900 0.55943400 0.44881600
v -0.21660900 -0.77144800 0.44881600
v -0.21660900 -0.77144800 0.44881600
v -0.21660900 -0.77144800 0.27082900
v -0.21660900 -0.77144800 0.27082900
v -0.17473700 -0.69086400 0.27082900
v -0.17473700 -0.69086400 0.27082900
v -0.21660900 -0.50793500 0.27082900
v -0.21660900 -0.50793500 0.27082900
v 0.21159900 -0.77144800 0.27082900
v 0.21159900 -0.77144800 0.27082900
v 0.17112300 -0.69086400 0.27082900
v 0.17112300 -0.69086400 0.27082900
v 0.17112300 -0.66204300 0.27082900
v 0.17112300 -0.66204300 0.27082900
v -0.17473700 -0.66204300 0.27082900
v -0.17473700 -0.66204300 0.27082900
v 0.21159900 -0.50793500 0.27082900
v 0.21159900 -0.50793500 0.27082900
v -0.21660900 -0.50793500 0.40258600
v 0.21159900 -0.50793500 0.40258600
v -0.21660900 -0.50793500 0.27082900
v 0.21159900 -0.50793500 0.27082900
v 0.21159900 -0.50793500 0.40258600
v -0.21660900 -0.50793500 0.27082900
v 0.21159900 -0.50793500 0.27082900
v -0.21660900 -0.50793500 0.40258600
v -0.21660900 -0.77144800 0.44881600
v -0.21660900 -0.77144800 0.27082900
v -0.51306100 -0.77144800 0.44881600
v 0.21159900 -0.77144800 0.27082900
v -0.51306100 -0.77144800 -0.46151700
v 0.21159900 -0.77144800 0.44881600
v 0.50805000 -0.77144800 0.44881600
v 0.50805000 -0.77144800 -0.46151700
v 0.50805000 -0.77144800 0.44881600
v -0.51306100 -0.77144800 -0.46151700
v 0.50805000 -0.77144800 -0.46151700
v 0.21159900 -0.77144800 0.27082900
v 0.21159900 -0.77144800 0.44881600
v -0.21660900 -0.77144800 0.27082900
v -0.51306100 -0.77144800 0.44881600
v -0.21660900 -0.77144800 0.44881600
vn 1.00000000 0.00000000 0.00000000
vn -1.00000000 0.00000000 0.00000000
vn -1.00000000 0.00000000 0.00000000
vn 1.00000000 0.00000000 0.00000000
vn 1.00000000 0.00000000 0.00000000
vn -1.00000000 0.00000000 0.00000000
vn 1.00000000 0.00000000 0.00000000
vn -1.00000000 0.00000000 0.00000000
vn 1.00000000 0.00000000 0.00000000
vn -1.00000000 0.00000000 0.00000000
vn 0.00000000 0.54526562 -0.83826333
vn 0.00000000 -0.54526562 0.83826333
vn 0.00000000 0.54526562 -0.83826333
vn 0.00000000 -0.54526562 0.83826333
vn 0.00000000 0.54526562 -0.83826333
vn 0.00000000 -0.54526562 0.83826333
vn 0.00000000 -0.54526562 0.83826333
vn 0.00000000 0.54526562 -0.83826333
vn 0.00000000 0.54526562 -0.83826333
vn 0.00000000 -0.54526562 0.83826333
vn 0.00000000 -0.54526562 0.83826333
vn 0.00000000 0.54526562 -0.83826333
vn 0.00000000 0.00000000 -1.00000000
vn 0.00000000 0.00000000 1.00000000
vn 0.00000000 0.00000000 -1.00000000
vn 0.00000000 0.00000000 1.00000000
vn 0.00000000 0.00000000 1.00000000
vn 0.00000000 0.00000000 -1.00000000
vn 0.00000000 0.00000000 1.00000000
vn 0.00000000 0.00000000 -1.00000000
vn 0.00000000 0.00000000 1.00000000
vn 0.00000000 0.00000000 -1.00000000
vn 0.00000000 0.00000000 -1.00000000
vn 0.00000000 0.00000000 1.00000000
vn 0.00000000 0.00000000 -1.00000000
vn 0.00000000 0.00000000 1.00000000
vn 0.00000000 0.00000000 1.00000000
vn 0.00000000 0.00000000 -1.00000000
vn 1.00000000 0.00000000 0.00000000
vn -1.00000000 0.00000000 0.00000000
vn 1.00000000 0.00000000 0.00000000
vn -1.00000000 0.00000000 0.00000000
vn -1.00000000 0.00000000 0.00000000
vn 1.00000000 0.00000000 0.00000000
vn 1.00000000 0.00000000 0.00000000
vn -1.00000000 0.00000000 0.00000000
vn -1.00000000 0.00000000 0.00000000
vn 1.00000000 0.00000000 0.00000000
vn 0.00000000 0.00000000 -1.00000000
vn 0.00000000 0.00000000 1.00000000
vn 0.00000000 0.00000000 -1.00000000
vn 0.00000000 0.00000000 1.00000000
vn 0.00000000 0.00000000 1.00000000
vn 0.00000000 0.00000000 -1.00000000
vn 0.00000000 0.00000000 1.00000000
vn 0.00000000 0.00000000 -1.00000000
vn 0.00000000 0.04327161 -0.99906335
vn 0.00000000 -0.04327161 0.99906335
vn 0.00000000 -0.04327161 0.99906335
vn 0.00000000 0.04327161 -0.99906335
vn 0.00000000 -0.04327161 0.99906335
vn 0.00000000 0.04327161 -0.99906335
vn 0.00000000 -0.04327161 0.99906335
vn 0.00000000 0.04327161 -0.99906335
vn -1.00000000 0.00000000 0.00000000
vn 1.00000000 0.00000000 0.00000000
vn -1.00000000 0.00000000 0.00000000
vn 1.00000000 0.00000000 0.00000000
vn -1.00000000 0.00000000 0.00000000
vn 1.00000000 0.00000000 0.00000000
vn 1.00000000 0.00000000 0.00000000
vn -1.00000000 0.00000000 0.00000000
vn 1.00000000 0.00000000 0.00000000
vn -1.00000000 0.00000000 0.00000000
vn 1.00000000 0.00000000 0.00000000
vn -1.00000000 0.00000000 0.00000000
vn 1.00000000 0.00000000 0.00000000
vn -1.00000000 0.00000000 0.00000000
vn 1.00000000 0.00000000 0.00000000
vn -1.00000000 0.00000000 0.00000000
vn 1.00000000 0.00000000 0.00000000
vn -1.00000000 0.00000000 0.00000000
vn -1.00000000 0.00000000 0.00000000
vn 1.00000000 0.00000000 0.00000000
vn 0.00000000 0.00000000 1.00000000
vn 0.00000000 0.00000000 -1.00000000
vn 0.00000000 0.00000000 -1.00000000
vn 0.00000000 0.00000000 1.00000000
vn 0.00000000 0.00000000 -1.00000000
vn 0.00000000 0.00000000 1.00000000
vn 0.00000000 0.00000000 -1.00000000
vn 0.00000000 0.00000000 1.00000000
vn 0.00000000 0.00000000 -1.00000000
vn 0.00000000 0.00000000 1.00000000
vn 0.00000000 0.00000000 -1.00000000
vn 0.00000000 0.00000000 1.00000000
vn 0.00000000 0.00000000 1.00000000
vn 0.00000000 0.00000000 -1.00000000
vn 0.00000000 0.00000000 -1.00000000
vn 0.00000000 0.00000000 1.00000000
vn 0.00000000 1.00000000 0.00000000
vn 0.00000000 1.00000000 0.00000000
vn 0.00000000 1.00000000 0.00000000
vn 0.00000000 1.00000000 0.00000000
vn 0.00000000 -1.00000000 0.00000000
vn 0.00000000 -1.00000000 0.00000000
vn 0.00000000 -1.00000000 0.00000000
vn 0.00000000 -1.00000000 0.00000000
vn 0.00000000 1.00000000 0.00000000
vn 0.00000000 1.00000000 0.00000000
vn 0.00000000 1.00000000 0.00000000
vn 0.00000000 1.00000000 0.00000000
vn 0.00000000 1.00000000 0.00000000
vn 0.00000000 1.00000000 0.00000000
vn 0.00000000 1.00000000 0.00000000
vn 0.00000000 1.00000000 0.00000000
vn 0.00000000 -1.00000000 0.00000000
vn 0.00000000 -1.00000000 0.00000000
vn 0.00000000 -1.00000000 0.00000000
vn 0.00000000 -1.00000000 0.00000000
vn 0.00000000 -1.00000000 0.00000000
vn 0.00000000 -1.00000000 0.00000000
vn 0.00000000 -1.00000000 0.00000000
vn 0.00000000 -1.00000000 0.00000000
vt 0.08014113 0.34821429
vt 0.08014113 0.34821429
vt 0.08014113 0.34821429
vt 0.08014113 0.34821429
vt 0.08014113 0.34821429
vt 0.08014113 0.34821429
vt 0.08014113 0.34821429
vt 0.08014113 0.34821429
vt 0.08014113 0.34821429
vt 0.08014113 0.34821429
vt 0.08014113 0.34821429
vt 0.08014113 0.34821429
vt 0.08014113 0.34821429
vt 0.08014113 0.34821429
vt 0.08014113 0.34821429
vt 0.08014113 0.34821429
vt 0.08014113 0.34821429
vt 0.08014113 0.34821429
vt 0.08014113 0.34821429
vt 0.08014113 0.34821429
vt 0.08014113 0.34821429
vt 0.08014113 0.34821429
vt 0.08014113 0.34821429
vt 0.08014113 0.34821429
vt 0.08014113 0.34821429
vt 0.08014113 0.34821429
vt 0.08014113 0.34821429
vt 0.08014113 0.34821429
vt 0.08014113 0.34821429
vt 0.08014113 0.34821429
vt 0.08014113 0.34821429
vt 0.08014113 0.34821429
vt 0.08014113 0.34821429
vt 0.08014113 0.34821429
vt 0.08014113 0.34821429
vt 0.08014113 0.34821429
vt 0.08014113 0.34821429
vt 0.08014113 0.34821429
vt 0.08014113 0.34821429
vt 0.08014113 0.34821429
vt 0.08014113 0.34821429
vt 0.08014113 0.34821429
vt 0.08014113 0.34821429
vt 0.08014113 0.34821429
vt 0.08014113 0.34821429
vt 0.08014113 0.34821429
vt 0.08014113 0.34821429
vt 0.08014113 0.34821429
vt 0.08014113 0.34821429
vt 0.08014113 0.34821429
vt 0.08014113 0.34821429
vt 0.08014113 0.34821429
vt 0.08014113 0.34821429
vt 0.08014113 0.34821429
vt 0.08014113 0.34821429
vt 0.08014113 0.34821429
vt 0.08014113 0.34821429
vt 0.08014113 0.34821429
vt 0.08014113 0.34821429
vt 0.08014113 0.34821429
vt 0.08014113 0.34821429
vt 0.08014113 0.34821429
vt 0.08014113 0.34821429
vt 0.08014113 0.34821429
vt 0.08014113 0.34821429
vt 0.08014113 0.34821429
vt 0.08014113 0.34821429
vt 0.08014113 0.34821429
vt 0.08014113 0.34821429
vt 0.08014113 0.34821429
vt 0.08014113 0.34821429
vt 0.08014113 0.34821429
vt 0.08014113 0.34821429
vt 0.08014113 0.34821429
vt 0.08014113 0.34821429
vt 0.08014113 0.34821429
vt 0.08014113 0.34821429
vt 0.08014113 0.34821429
vt 0.08014113 0.34821429
vt 0.08014113 0.34821429
vt 0.08014113 0.34821429
vt 0.08014113 0.34821429
vt 0.08014113 0.34821429
vt 0.08014113 0.34821429
vt 0.08014113 0.34821429
vt 0.08014113 0.34821429
vt 0.08014113 0.34821429
vt 0.08014113 0.34821429
vt 0.08014113 0.34821429
vt 0.08014113 0.34821429
vt 0.08014113 0.34821429
vt 0.08014113 0.34821429
vt 0.08014113 0.34821429
vt 0.08014113 0.34821429
vt 0.08014113 0.34821429
vt 0.08014113 0.34821429
vt 0.08014113 0.34821429
vt 0.08014113 0.34821429
vt 0.08014113 0.34821429
vt 0.08014113 0.34821429
vt 0.46723790 0.34821429
vt 0.46723790 0.34821429
vt 0.46723790 0.34821429
vt 0.46723790 0.34821429
vt 0.27368952 0.34821429
vt 0.27368952 0.34821429
vt 0.27368952 0.34821429
vt 0.27368952 0.34821429
vt 0.46723790 0.34821429
vt 0.46723790 0.34821429
vt 0.46723790 0.34821429
vt 0.46723790 0.34821429
vt 0.46723790 0.34821429
vt 0.46723790 0.34821429
vt 0.46723790 0.34821429
vt 0.46723790 0.34821429
vt 0.27368952 0.34821429
vt 0.27368952 0.34821429
vt 0.27368952 0.34821429
vt 0.27368952 0.34821429
vt 0.27368952 0.34821429
vt 0.27368952 0.34821429
vt 0.27368952 0.34821429
vt 0.27368952 0.34821429
f 1/1/1 4/4/4 5/5/5
f 6/6/6 3/3/3 2/2/2
f 4/4/4 1/1/1 7/7/7
f 8/8/8 2/2/2 3/3/3
f 7/7/7 1/1/1 9/9/9
f 10/10/10 2/2/2 8/8/8
f 12/12/12 14/14/14 16/16/16
f 15/15/15 13/13/13 11/11/11
f 14/14/14 12/12/12 17/17/17
f 18/18/18 11/11/11 13/13/13
f 14/14/14 17/17/17 20/20/20
f 19/19/19 18/18/18 13/13/13
f 14/14/14 20/20/20 21/21/21
f 22/22/22 19/19/19 13/13/13
f 24/24/24 26/26/26 27/27/27
f 28/28/28 25/25/25 23/23/23
f 26/26/26 24/24/24 29/29/29
f 30/30/30 23/23/23 25/25/25
f 32/32/32 33/33/33 35/35/35
f 36/36/36 34/34/34 31/31/31
f 33/33/33 32/32/32 38/38/38
f 37/37/37 31/31/31 34/34/34
f 40/40/40 42/42/42 43/43/43
f 44/44/44 41/41/41 39/39/39
f 42/42/42 40/40/40 46/46/46
f 45/45/45 39/39/39 41/41/41
f 42/42/42 46/46/46 47/47/47
f 48/48/48 45/45/45 41/41/41
f 50/50/50 52/52/52 53/53/53
f 54/54/54 51/51/51 49/49/49
f 52/52/52 50/50/50 55/55/55
f 56/56/56 49/49/49 51/51/51
f 58/58/58 59/59/59 61/61/61
f 62/62/62 60/60/60 57/57/57
f 63/63/63 61/61/61 59/59/59
f 60/60/60 62/62/62 64/64/64
f 65/65/65 67/67/67 69/69/69
f 70/70/70 68/68/68 66/66/66
f 67/67/67 65/65/65 72/72/72
f 71/71/71 66/66/66 68/68/68
f 74/74/74 69/69/69 67/67/67
f 68/68/68 70/70/70 73/73/73
f 75/75/75 77/77/77 79/79/79
f 80/80/80 78/78/78 76/76/76
f 81/81/81 84/84/84 75/75/75
f 76/76/76 83/83/83 82/82/82
f 77/77/77 75/75/75 84/84/84
f 83/83/83 76/76/76 78/78/78
f 85/85/85 88/88/88 90/90/90
f 89/89/89 87/87/87 86/86/86
f 88/88/88 85/85/85 92/92/92
f 91/91/91 86/86/86 87/87/87
f 88/88/88 92/92/92 94/94/94
f 93/93/93 91/91/91 87/87/87
f 94/94/94 92/92/92 96/96/96
f 95/95/95 91/91/91 93/93/93
f 90/90/90 97/97/97 100/100/100
f 99/99/99 98/98/98 89/89/89
f 97/97/97 90/90/90 88/88/88
f 87/87/87 89/89/89 98/98/98
f 100/100/100 97/97/97 96/96/96
f 95/95/95 98/98/98 99/99/99
f 100/100/100 96/96/96 92/92/92
f 91/91/91 95/95/95 99/99/99
f 101/101/101 102/102/102 103/103/103
f 104/104/104 103/103/103 102/102/102
f 105/105/105 106/106/106 107/107/107
f 106/106/106 105/105/105 108/108/108
f 109/109/109 110/110/110 111/111/111
f 112/112/112 113/113/113 110/110/110
f 111/111/111 110/110/110 113/113/113
f 114/114/114 115/115/115 112/112/112
f 112/112/112 115/115/115 113/113/113
f 116/116/116 113/113/113 115/115/115
f 117/117/117 118/118/118 119/119/119
f 118/118/118 117/117/117 120/120/120
f 120/120/120 117/117/117 121/121/121
f 118/118/118 122/122/122 123/123/123
f 122/122/122 118/118/118 120/120/120
f 123/123/123 122/122/122 124/124/124

