# https://github.com/mikedh/trimesh
mtllib material.mtl
usemtl material_0
v 0.32976500 0.82188400 -0.01986300
v 0.32976500 0.82188400 -0.01986300
v 0.32976500 0.82188400 -0.01986300
v 0.32976500 0.82188400 -0.01986300
v 0.32976500 0.82188400 -0.01986300
v 0.32976500 0.82188400 -0.01986300
v -0.33204200 -0.95477800 -0.01986300
v -0.33204200 -0.95477800 -0.01986300
v -0.33204200 -0.95477800 -0.01986300
v -0.33204200 -0.95477800 -0.01986300
v -0.33204200 -0.95477800 -0.01986300
v -0.33204200 -0.95477800 -0.01986300
v -0.33204200 0.82188400 -0.01986300
v -0.33204200 0.82188400 -0.01986300
v -0.33204200 0.82188400 -0.01986300
v -0.33204200 0.82188400 -0.01986300
v -0.33204200 0.82188400 -0.01986300
v -0.33204200 0.82188400 -0.01986300
v 0.32976500 -0.95477800 -0.01986300
v 0.32976500 -0.95477800 -0.01986300
v 0.32976500 -0.95477800 -0.01986300
v 0.32976500 -0.95477800 -0.01986300
v 0.32976500 -0.95477800 -0.01986300
v 0.32976500 -0.95477800 -0.01986300
v -0.33204200 0.82188400 -0.01657600
v -0.33204200 0.82188400 -0.01657600
v -0.33204200 0.82188400 -0.01657600
v -0.33204200 0.82188400 -0.01657600
v -0.33204200 0.82188400 -0.01657600
v -0.33204200 0.82188400 -0.01657600
v 0.32976500 -0.95477800 -0.01657600
v 0.32976500 -0.95477800 -0.01657600
v 0.32976500 -0.95477800 -0.01657600
v 0.32976500 -0.95477800 -0.01657600
v 0.32976500 -0.95477800 -0.01657600
v 0.32976500 -0.95477800 -0.01657600
v -0.33204200 -0.95477800 -0.01657600
v -0.33204200 -0.95477800 -0.01657600
v -0.33204200 -0.95477800 -0.01657600
v -0.33204200 -0.95477800 -0.01657600
v -0.33204200 -0.95477800 -0.01657600
v -0.33204200 -0.95477800 -0.01657600
v 0.32976500 0.82188400 -0.01657600
v 0.32976500 0.82188400 -0.01657600
v 0.32976500 0.82188400 -0.01657600
v 0.32976500 0.82188400 -0.01657600
v 0.32976500 0.82188400 -0.01657600
v 0.32976500 0.82188400 -0.01657600
v 0.27211200 -0.05185400 -0.01657600
v 0.27211200 -0.05185400 -0.01657600
v 0.27211200 -0.05185400 -0.01657600
v 0.27211200 -0.05185400 -0.01657600
v 0.27211200 -0.05185400 -0.01657600
v 0.27211200 -0.05185400 -0.01657600
v 0.30764600 -0.05185400 -0.01657600
v 0.30764600 -0.05185400 -0.01657600
v 0.30764600 -0.05185400 -0.01657600
v 0.30764600 -0.05185400 -0.01657600
v 0.30764600 -0.05185400 -0.01657600
v 0.30764600 -0.05185400 -0.01657600
v 0.27211200 -0.15401200 -0.01657600
v 0.27211200 -0.15401200 -0.01657600
v 0.27211200 -0.15401200 -0.01657600
v 0.27211200 -0.15401200 -0.01657600
v 0.27211200 -0.15401200 -0.01657600
v 0.27211200 -0.15401200 -0.01657600
v 0.27211200 -0.05185400 -0.01469700
v 0.27211200 -0.05185400 -0.01469700
v 0.27211200 -0.05185400 -0.01469700
v 0.27211200 -0.05185400 -0.01469700
v 0.27211200 -0.05185400 -0.01469700
v 0.27211200 -0.05185400 -0.01469700
v 0.30764600 -0.15401200 -0.01657600
v 0.30764600 -0.15401200 -0.01657600
v 0.30764600 -0.15401200 -0.01657600
v 0.30764600 -0.15401200 -0.01657600
v 0.30764600 -0.15401200 -0.01657600
v 0.30764600 -0.15401200 -0.01657600
v 0.30764600 -0.05185400 -0.01469700
v 0.30764600 -0.05185400 -0.01469700
v 0.30764600 -0.05185400 -0.01469700
v 0.30764600 -0.05185400 -0.01469700
v 0.30764600 -0.05185400 -0.01469700
v 0.30764600 -0.05185400 -0.01469700
v 0.30764600 -0.15401200 -0.01469700
v 0.30764600 -0.15401200 -0.01469700
v 0.30764600 -0.15401200 -0.01469700
v 0.30764600 -0.15401200 -0.01469700
v 0.30764600 -0.15401200 -0.01469700
v 0.30764600 -0.15401200 -0.01469700
v 0.27211200 -0.15401200 -0.01469700
v 0.27211200 -0.15401200 -0.01469700
v 0.27211200 -0.15401200 -0.01469700
v 0.27211200 -0.15401200 -0.01469700
v 0.27211200 -0.15401200 -0.01469700
v 0.27211200 -0.15401200 -0.01469700
v 0.27211200 -0.15401200 -0.01986300
v 0.27211200 -0.15401200 -0.01986300
v 0.27211200 -0.15401200 -0.01986300
v 0.27211200 -0.15401200 -0.01986300
v 0.27211200 -0.15401200 -0.01986300
v 0.27211200 -0.15401200 -0.01986300
v 0.30764600 -0.05185400 -0.01986300
v 0.30764600 -0.05185400 -0.01986300
v 0.30764600 -0.05185400 -0.01986300
v 0.30764600 -0.05185400 -0.01986300
v 0.30764600 -0.05185400 -0.01986300
v 0.30764600 -0.05185400 -0.01986300
v 0.27211200 -0.05185400 -0.01986300
v 0.27211200 -0.05185400 -0.01986300
v 0.27211200 -0.05185400 -0.01986300
v 0.27211200 -0.05185400 -0.01986300
v 0.27211200 -0.05185400 -0.01986300
v 0.27211200 -0.05185400 -0.01986300
v 0.30764600 -0.15401200 -0.01986300
v 0.30764600 -0.15401200 -0.01986300
v 0.30764600 -0.15401200 -0.01986300
v 0.30764600 -0.15401200 -0.01986300
v 0.30764600 -0.15401200 -0.01986300
v 0.30764600 -0.15401200 -0.01986300
v 0.27211200 -0.05185400 -0.02174200
v 0.27211200 -0.05185400 -0.02174200
v 0.27211200 -0.05185400 -0.02174200
v 0.27211200 -0.05185400 -0.02174200
v 0.27211200 -0.05185400 -0.02174200
v 0.27211200 -0.05185400 -0.02174200
v 0.30764600 -0.15401200 -0.02174200
v 0.30764600 -0.15401200 -0.02174200
v 0.30764600 -0.15401200 -0.02174200
v 0.30764600 -0.15401200 -0.02174200
v 0.30764600 -0.15401200 -0.02174200
v 0.30764600 -0.15401200 -0.02174200
v 0.30764600 -0.05185400 -0.02174200
v 0.30764600 -0.05185400 -0.02174200
v 0.30764600 -0.05185400 -0.02174200
v 0.30764600 -0.05185400 -0.02174200
v 0.30764600 -0.05185400 -0.02174200
v 0.30764600 -0.05185400 -0.02174200
v 0.27211200 -0.15401200 -0.02174200
v 0.27211200 -0.15401200 -0.02174200
v 0.27211200 -0.15401200 -0.02174200
v 0.27211200 -0.15401200 -0.02174200
v 0.27211200 -0.15401200 -0.02174200
v 0.27211200 -0.15401200 -0.02174200
vn 0.00000000 0.00000000 -1.00000000
vn 0.00000000 1.00000000 0.00000000
vn 1.00000000 0.00000000 0.00000000
vn 0.00000000 -1.00000000 0.00000000
vn -1.00000000 0.00000000 0.00000000
vn 0.00000000 0.00000000 1.00000000
vn 0.00000000 1.00000000 0.00000000
vn 1.00000000 0.00000000 0.00000000
vn -1.00000000 0.00000000 0.00000000
vn 0.00000000 -1.00000000 0.00000000
vn 0.00000000 0.00000000 -1.00000000
vn 0.00000000 0.00000000 1.00000000
vn 0.00000000 0.00000000 1.00000000
vn 0.00000000 -1.00000000 0.00000000
vn 0.00000000 1.00000000 0.00000000
vn 0.00000000 0.00000000 -1.00000000
vn -1.00000000 0.00000000 0.00000000
vn 1.00000000 0.00000000 0.00000000
vn 0.00000000 1.00000000 0.00000000
vn 0.00000000 -1.00000000 0.00000000
vn 1.00000000 0.00000000 0.00000000
vn 0.00000000 0.00000000 -1.00000000
vn 0.00000000 0.00000000 1.00000000
vn -1.00000000 0.00000000 0.00000000
vn -1.00000000 0.00000000 0.00000000
vn 0.00000000 0.00000000 -1.00000000
vn 0.00000000 1.00000000 0.00000000
vn 1.00000000 0.00000000 0.00000000
vn 0.00000000 0.00000000 1.00000000
vn 0.00000000 -1.00000000 0.00000000
vn 0.00000000 1.00000000 0.00000000
vn 0.00000000 0.00000000 1.00000000
vn 0.00000000 -1.00000000 0.00000000
vn 1.00000000 0.00000000 0.00000000
vn 0.00000000 0.00000000 -1.00000000
vn -1.00000000 0.00000000 0.00000000
vn 0.00000000 0.00000000 1.00000000
vn 1.00000000 0.00000000 0.00000000
vn 0.00000000 0.00000000 -1.00000000
vn 0.00000000 1.00000000 0.00000000
vn 0.00000000 -1.00000000 0.00000000
vn -1.00000000 0.00000000 0.00000000
vn -1.00000000 0.00000000 0.00000000
vn 1.00000000 0.00000000 0.00000000
vn 0.00000000 0.00000000 1.00000000
vn 0.00000000 0.00000000 -1.00000000
vn 0.00000000 1.00000000 0.00000000
vn 0.00000000 -1.00000000 0.00000000
vn 0.00000000 0.00000000 -1.00000000
vn -1.00000000 0.00000000 0.00000000
vn 0.00000000 -1.00000000 0.00000000
vn 1.00000000 0.00000000 0.00000000
vn 0.00000000 1.00000000 0.00000000
vn 0.00000000 0.00000000 1.00000000
vn -1.00000000 0.00000000 0.00000000
vn 0.00000000 -1.00000000 0.00000000
vn 0.00000000 1.00000000 0.00000000
vn 1.00000000 0.00000000 0.00000000
vn 0.00000000 0.00000000 -1.00000000
vn 0.00000000 0.00000000 1.00000000
vn 0.00000000 0.00000000 1.00000000
vn 1.00000000 0.00000000 0.00000000
vn -1.00000000 0.00000000 0.00000000
vn 0.00000000 0.00000000 -1.00000000
vn 0.00000000 1.00000000 0.00000000
vn 0.00000000 -1.00000000 0.00000000
vn -1.00000000 0.00000000 0.00000000
vn 1.00000000 0.00000000 0.00000000
vn 0.00000000 -1.00000000 0.00000000
vn 0.00000000 0.00000000 -1.00000000
vn 0.00000000 0.00000000 1.00000000
vn 0.00000000 1.00000000 0.00000000
vn 0.00000000 1.00000000 0.00000000
vn 0.00000000 0.00000000 -1.00000000
vn -1.00000000 0.00000000 0.00000000
vn 0.00000000 -1.00000000 0.00000000
vn 0.00000000 0.00000000 1.00000000
vn 1.00000000 0.00000000 0.00000000
vn -1.00000000 0.00000000 0.00000000
vn 0.00000000 0.00000000 1.00000000
vn 1.00000000 0.00000000 0.00000000
vn 0.00000000 -1.00000000 0.00000000
vn 0.00000000 0.00000000 -1.00000000
vn 0.00000000 1.00000000 0.00000000
vn 0.00000000 0.00000000 1.00000000
vn 0.00000000 -1.00000000 0.00000000
vn 0.00000000 0.00000000 -1.00000000
vn -1.00000000 0.00000000 0.00000000
vn 1.00000000 0.00000000 0.00000000
vn 0.00000000 1.00000000 0.00000000
vn 0.00000000 1.00000000 0.00000000
vn 0.00000000 -1.00000000 0.00000000
vn 0.00000000 0.00000000 1.00000000
vn 0.00000000 0.00000000 -1.00000000
vn -1.00000000 0.00000000 0.00000000
vn 1.00000000 0.00000000 0.00000000
vn 0.00000000 0.00000000 1.00000000
vn -1.00000000 0.00000000 0.00000000
vn 0.00000000 -1.00000000 0.00000000
vn 1.00000000 0.00000000 0.00000000
vn 0.00000000 1.00000000 0.00000000
vn 0.00000000 0.00000000 -1.00000000
vn -1.00000000 0.00000000 0.00000000
vn 0.00000000 -1.00000000 0.00000000
vn 0.00000000 1.00000000 0.00000000
vn 1.00000000 0.00000000 0.00000000
vn 0.00000000 0.00000000 1.00000000
vn 0.00000000 0.00000000 -1.00000000
vn 0.00000000 0.00000000 -1.00000000
vn 1.00000000 0.00000000 0.00000000
vn -1.00000000 0.00000000 0.00000000
vn 0.00000000 0.00000000 1.00000000
vn 0.00000000 1.00000000 0.00000000
vn 0.00000000 -1.00000000 0.00000000
vn -1.00000000 0.00000000 0.00000000
vn 1.00000000 0.00000000 0.00000000
vn 0.00000000 -1.00000000 0.00000000
vn 0.00000000 0.00000000 1.00000000
vn 0.00000000 0.00000000 -1.00000000
vn 0.00000000 1.00000000 0.00000000
vn 0.00000000 1.00000000 0.00000000
vn 0.00000000 0.00000000 1.00000000
vn -1.00000000 0.00000000 0.00000000
vn 0.00000000 -1.00000000 0.00000000
vn 0.00000000 0.00000000 -1.00000000
vn 1.00000000 0.00000000 0.00000000
vn -1.00000000 0.00000000 0.00000000
vn 0.00000000 0.00000000 -1.00000000
vn 1.00000000 0.00000000 0.00000000
vn 0.00000000 -1.00000000 0.00000000
vn 0.00000000 0.00000000 1.00000000
vn 0.00000000 1.00000000 0.00000000
vn 0.00000000 0.00000000 -1.00000000
vn 0.00000000 -1.00000000 0.00000000
vn 0.00000000 0.00000000 1.00000000
vn -1.00000000 0.00000000 0.00000000
vn 1.00000000 0.00000000 0.00000000
vn 0.00000000 1.00000000 0.00000000
vn 0.00000000 1.00000000 0.00000000
vn 0.00000000 -1.00000000 0.00000000
vn 0.00000000 0.00000000 -1.00000000
vn 0.00000000 0.00000000 1.00000000
vn -1.00000000 0.00000000 0.00000000
vn 1.00000000 0.00000000 0.00000000
vt 0.56458333 0.34821429
vt 0.56458333 0.34821429
vt 0.56458333 0.34821429
vt 0.56458333 0.34821429
vt 0.56458333 0.34821429
vt 0.56458333 0.34821429
vt 0.56458333 0.34821429
vt 0.56458333 0.34821429
vt 0.56458333 0.34821429
vt 0.56458333 0.34821429
vt 0.56458333 0.34821429
vt 0.56458333 0.34821429
vt 0.56458333 0.34821429
vt 0.56458333 0.34821429
vt 0.56458333 0.34821429
vt 0.56458333 0.34821429
vt 0.56458333 0.34821429
vt 0.56458333 0.34821429
vt 0.56458333 0.34821429
vt 0.56458333 0.34821429
vt 0.56458333 0.34821429
vt 0.56458333 0.34821429
vt 0.56458333 0.34821429
vt 0.56458333 0.34821429
vt 0.56458333 0.34821429
vt 0.56458333 0.34821429
vt 0.56458333 0.34821429
vt 0.56458333 0.34821429
vt 0.56458333 0.34821429
vt 0.56458333 0.34821429
vt 0.56458333 0.34821429
vt 0.56458333 0.34821429
vt 0.56458333 0.34821429
vt 0.56458333 0.34821429
vt 0.56458333 0.34821429
vt 0.56458333 0.34821429
vt 0.56458333 0.34821429
vt 0.56458333 0.34821429
vt 0.56458333 0.34821429
vt 0.56458333 0.34821429
vt 0.56458333 0.34821429
vt 0.56458333 0.34821429
vt 0.56458333 0.34821429
vt 0.56458333 0.34821429
vt 0.56458333 0.34821429
vt 0.56458333 0.34821429
vt 0.56458333 0.34821429
vt 0.56458333 0.34821429
vt 0.16458333 0.34821429
vt 0.16458333 0.34821429
vt 0.16458333 0.34821429
vt 0.16458333 0.34821429
vt 0.16458333 0.34821429
vt 0.16458333 0.34821429
vt 0.16458333 0.34821429
vt 0.16458333 0.34821429
vt 0.16458333 0.34821429
vt 0.16458333 0.34821429
vt 0.16458333 0.34821429
vt 0.16458333 0.34821429
vt 0.16458333 0.34821429
vt 0.16458333 0.34821429
vt 0.16458333 0.34821429
vt 0.16458333 0.34821429
vt 0.16458333 0.34821429
vt 0.16458333 0.34821429
vt 0.16458333 0.34821429
vt 0.16458333 0.34821429
vt 0.16458333 0.34821429
vt 0.16458333 0.34821429
vt 0.16458333 0.34821429
vt 0.16458333 0.34821429
vt 0.16458333 0.34821429
vt 0.16458333 0.34821429
vt 0.16458333 0.34821429
vt 0.16458333 0.34821429
vt 0.16458333 0.34821429
vt 0.16458333 0.34821429
vt 0.16458333 0.34821429
vt 0.16458333 0.34821429
vt 0.16458333 0.34821429
vt 0.16458333 0.34821429
vt 0.16458333 0.34821429
vt 0.16458333 0.34821429
vt 0.16458333 0.34821429
vt 0.16458333 0.34821429
vt 0.16458333 0.34821429
vt 0.16458333 0.34821429
vt 0.16458333 0.34821429
vt 0.16458333 0.34821429
vt 0.16458333 0.34821429
vt 0.16458333 0.34821429
vt 0.16458333 0.34821429
vt 0.16458333 0.34821429
vt 0.16458333 0.34821429
vt 0.16458333 0.34821429
vt 0.16458333 0.34821429
vt 0.16458333 0.34821429
vt 0.16458333 0.34821429
vt 0.16458333 0.34821429
vt 0.16458333 0.34821429
vt 0.16458333 0.34821429
vt 0.16458333 0.34821429
vt 0.16458333 0.34821429
vt 0.16458333 0.34821429
vt 0.16458333 0.34821429
vt 0.16458333 0.34821429
vt 0.16458333 0.34821429
vt 0.16458333 0.34821429
vt 0.16458333 0.34821429
vt 0.16458333 0.34821429
vt 0.16458333 0.34821429
vt 0.16458333 0.34821429
vt 0.16458333 0.34821429
vt 0.16458333 0.34821429
vt 0.16458333 0.34821429
vt 0.16458333 0.34821429
vt 0.16458333 0.34821429
vt 0.16458333 0.34821429
vt 0.16458333 0.34821429
vt 0.16458333 0.34821429
vt 0.16458333 0.34821429
vt 0.16458333 0.34821429
vt 0.16458333 0.34821429
vt 0.16458333 0.34821429
vt 0.16458333 0.34821429
vt 0.16458333 0.34821429
vt 0.16458333 0.34821429
vt 0.16458333 0.34821429
vt 0.16458333 0.34821429
vt 0.16458333 0.34821429
vt 0.16458333 0.34821429
vt 0.16458333 0.34821429
vt 0.16458333 0.34821429
vt 0.16458333 0.34821429
vt 0.16458333 0.34821429
vt 0.16458333 0.34821429
vt 0.16458333 0.34821429
vt 0.16458333 0.34821429
vt 0.16458333 0.34821429
vt 0.16458333 0.34821429
vt 0.16458333 0.34821429
vt 0.16458333 0.34821429
vt 0.16458333 0.34821429
f 1/1/1 11/11/11 16/16/16
f 11/11/11 1/1/1 22/22/22
f 13/13/13 12/12/12 6/6/6
f 23/23/23 6/6/6 12/12/12
f 9/9/9 25/25/25 17/17/17
f 18/18/18 28/28/28 8/8/8
f 27/27/27 2/2/2 15/15/15
f 14/14/14 4/4/4 30/30/30
f 3/3/3 34/34/34 21/21/21
f 24/24/24 36/36/36 5/5/5
f 20/20/20 41/41/41 10/10/10
f 7/7/7 40/40/40 19/19/19
f 25/25/25 9/9/9 42/42/42
f 38/38/38 8/8/8 28/28/28
f 2/2/2 27/27/27 47/47/47
f 48/48/48 30/30/30 4/4/4
f 34/34/34 3/3/3 44/44/44
f 43/43/43 5/5/5 36/36/36
f 41/41/41 20/20/20 33/33/33
f 31/31/31 19/19/19 40/40/40
f 32/32/32 29/29/29 37/37/37
f 39/39/39 26/26/26 35/35/35
f 29/29/29 32/32/32 45/45/45
f 46/46/46 35/35/35 26/26/26
f 49/49/49 59/59/59 64/64/64
f 61/61/61 60/60/60 54/54/54
f 53/53/53 72/72/72 57/57/57
f 56/56/56 69/69/69 51/51/51
f 74/74/74 64/64/64 59/59/59
f 60/60/60 61/61/61 77/77/77
f 50/50/50 63/63/63 67/67/67
f 68/68/68 62/62/62 52/52/52
f 84/84/84 57/57/57 72/72/72
f 69/69/69 56/56/56 82/82/82
f 76/76/76 86/86/86 66/66/66
f 65/65/65 90/90/90 73/73/73
f 78/78/78 58/58/58 89/89/89
f 88/88/88 55/55/55 75/75/75
f 95/95/95 67/67/67 63/63/63
f 62/62/62 68/68/68 96/96/96
f 81/81/81 89/89/89 58/58/58
f 55/55/55 88/88/88 79/79/79
f 80/80/80 71/71/71 85/85/85
f 87/87/87 70/70/70 83/83/83
f 92/92/92 66/66/66 86/86/86
f 90/90/90 65/65/65 91/91/91
f 93/93/93 85/85/85 71/71/71
f 70/70/70 87/87/87 94/94/94
f 97/97/97 107/107/107 112/112/112
f 107/107/107 97/97/97 118/118/118
f 109/109/109 108/108/108 102/102/102
f 119/119/119 102/102/102 108/108/108
f 105/105/105 121/121/121 113/113/113
f 114/114/114 124/124/124 104/104/104
f 123/123/123 98/98/98 111/111/111
f 110/110/110 100/100/100 126/126/126
f 99/99/99 130/130/130 117/117/117
f 120/120/120 132/132/132 101/101/101
f 129/129/129 106/106/106 116/116/116
f 115/115/115 103/103/103 127/127/127
f 121/121/121 105/105/105 138/138/138
f 134/134/134 104/104/104 124/124/124
f 98/98/98 123/123/123 143/143/143
f 144/144/144 126/126/126 100/100/100
f 130/130/130 99/99/99 140/140/140
f 139/139/139 101/101/101 132/132/132
f 106/106/106 129/129/129 137/137/137
f 136/136/136 127/127/127 103/103/103
f 128/128/128 125/125/125 133/133/133
f 135/135/135 122/122/122 131/131/131
f 125/125/125 128/128/128 141/141/141
f 142/142/142 131/131/131 122/122/122

