# https://github.com/mikedh/trimesh
mtllib material.mtl
usemtl material_0
v 0.54872000 -0.80322500 0.28364300
v 0.54872000 -0.80322500 0.28364300
v 0.54872000 -0.80322500 0.28364300
v 0.54872000 -0.80322500 0.28364300
v 0.54872000 -0.80322500 0.28364300
v 0.54872000 -0.80322500 0.28364300
v 0.46714500 -0.72165100 0.28364300
v 0.46714500 -0.72165100 0.28364300
v -0.43077700 -0.80322500 0.28364300
v -0.43077700 -0.80322500 0.28364300
v 0.54872000 0.84776800 0.28364300
v 0.54872000 0.84776800 0.28364300
v 0.54872000 0.84776800 0.28364300
v 0.54872000 0.84776800 0.28364300
v 0.54872000 0.84776800 0.28364300
v 0.54872000 0.84776800 0.28364300
v 0.46714500 0.76619300 0.28364300
v 0.46714500 0.76619300 0.28364300
v -0.34920300 0.76619300 0.28364300
v -0.34920300 0.76619300 0.28364300
v -0.34920300 -0.72165100 0.28364300
v -0.34920300 -0.72165100 0.28364300
v -0.43077700 0.84776800 0.28364300
v -0.43077700 0.84776800 0.28364300
v -0.43077700 0.84776800 0.28364300
v -0.43077700 0.84776800 0.28364300
v 0.54872000 -0.80322500 0.16985600
v 0.54872000 -0.80322500 0.16985600
v 0.54872000 -0.80322500 0.16985600
v 0.54872000 -0.80322500 0.16985600
v 0.54872000 -0.80322500 0.16985600
v 0.54872000 -0.80322500 0.16985600
v -0.43077700 -0.80322500 0.16985600
v -0.43077700 -0.80322500 0.16985600
v -0.43077700 -0.80322500 0.16985600
v -0.43077700 -0.80322500 0.16985600
v -0.43077700 -0.80322500 0.16985600
v -0.43077700 -0.80322500 0.16985600
v 0.54872000 0.84776800 0.16985600
v 0.54872000 0.84776800 0.16985600
v 0.54872000 0.84776800 0.16985600
v 0.54872000 0.84776800 0.16985600
v 0.54872000 0.84776800 0.16985600
v 0.54872000 0.84776800 0.16985600
v -0.43077700 0.84776800 0.16985600
v -0.43077700 0.84776800 0.16985600
v -0.43077700 0.84776800 0.16985600
v -0.43077700 0.84776800 0.16985600
v -0.43077700 0.84776800 0.16985600
v -0.43077700 0.84776800 0.16985600
v -0.34920300 -0.72165100 0.16985600
v -0.34920300 -0.72165100 0.16985600
v -0.34920300 0.76619300 0.16985600
v -0.34920300 0.76619300 0.16985600
v 0.46714500 0.76619300 0.16985600
v 0.46714500 0.76619300 0.16985600
v 0.46714500 -0.72165100 0.16985600
v 0.46714500 -0.72165100 0.16985600
v -0.34920300 -0.72165100 0.16985600
v -0.34920300 -0.72165100 0.16985600
v -0.34920300 -0.72165100 0.16985600
v -0.34920300 -0.72165100 0.16985600
v -0.34920300 0.76619300 0.28364300
v -0.34920300 0.76619300 0.28364300
v -0.34920300 0.76619300 0.28364300
v -0.34920300 0.76619300 0.28364300
v -0.34920300 -0.72165100 0.28364300
v -0.34920300 -0.72165100 0.28364300
v -0.34920300 -0.72165100 0.28364300
v -0.34920300 -0.72165100 0.28364300
v -0.34920300 0.76619300 0.16985600
v -0.34920300 0.76619300 0.16985600
v -0.34920300 0.76619300 0.16985600
v -0.34920300 0.76619300 0.16985600
v 0.46714500 -0.72165100 0.28364300
v 0.46714500 -0.72165100 0.28364300
v 0.46714500 -0.72165100 0.28364300
v 0.46714500 -0.72165100 0.28364300
v 0.46714500 -0.72165100 0.16985600
v 0.46714500 -0.72165100 0.16985600
v 0.46714500 -0.72165100 0.16985600
v 0.46714500 -0.72165100 0.16985600
v 0.46714500 0.76619300 0.16985600
v 0.46714500 0.76619300 0.16985600
v 0.46714500 0.76619300 0.16985600
v 0.46714500 0.76619300 0.16985600
v 0.46714500 0.76619300 0.28364300
v 0.46714500 0.76619300 0.28364300
v 0.46714500 0.76619300 0.28364300
v 0.46714500 0.76619300 0.28364300
vn 0.57735027 -0.57735027 0.57735027
vn 0.57735027 -0.57735027 0.57735027
vn 0.57735027 -0.57735027 0.57735027
vn -0.57735027 0.57735027 -0.57735027
vn -0.57735027 0.57735027 -0.57735027
vn -0.57735027 0.57735027 -0.57735027
vn -0.30151132 0.30151132 0.90453405
vn 0.30151132 -0.30151132 -0.90453405
vn -0.57735027 -0.57735027 0.57735027
vn 0.57735027 0.57735027 -0.57735027
vn 0.57735027 0.57735027 0.57735027
vn 0.57735027 0.57735027 0.57735027
vn -0.57735027 -0.57735027 -0.57735027
vn 0.57735027 0.57735027 0.57735027
vn -0.57735027 -0.57735027 -0.57735027
vn -0.57735027 -0.57735027 -0.57735027
vn 0.30151132 0.30151132 -0.90453405
vn -0.30151132 -0.30151132 0.90453405
vn -0.30151132 0.30151132 -0.90453405
vn 0.30151132 -0.30151132 0.90453405
vn 0.30151132 0.30151132 0.90453405
vn -0.30151132 -0.30151132 -0.90453405
vn -0.57735027 0.57735027 0.57735027
vn 0.57735027 -0.57735027 -0.57735027
vn 0.57735027 -0.57735027 -0.57735027
vn -0.57735027 0.57735027 0.57735027
vn -0.57735027 0.57735027 0.57735027
vn -0.57735027 0.57735027 0.57735027
vn -0.57735027 0.57735027 0.57735027
vn 0.57735027 -0.57735027 -0.57735027
vn 0.57735027 -0.57735027 -0.57735027
vn 0.57735027 -0.57735027 -0.57735027
vn -0.57735027 -0.57735027 -0.57735027
vn 0.57735027 0.57735027 0.57735027
vn -0.57735027 -0.57735027 -0.57735027
vn 0.57735027 0.57735027 0.57735027
vn 0.57735027 0.57735027 0.57735027
vn -0.57735027 -0.57735027 -0.57735027
vn 0.57735027 0.57735027 -0.57735027
vn 0.57735027 0.57735027 -0.57735027
vn 0.57735027 0.57735027 -0.57735027
vn -0.57735027 -0.57735027 0.57735027
vn -0.57735027 -0.57735027 0.57735027
vn -0.57735027 -0.57735027 0.57735027
vn 0.57735027 -0.57735027 0.57735027
vn 0.57735027 -0.57735027 0.57735027
vn 0.57735027 -0.57735027 0.57735027
vn -0.57735027 0.57735027 -0.57735027
vn -0.57735027 0.57735027 -0.57735027
vn -0.57735027 0.57735027 -0.57735027
vn 0.30151132 0.30151132 -0.90453405
vn -0.30151132 -0.30151132 0.90453405
vn 0.30151132 -0.30151132 -0.90453405
vn -0.30151132 0.30151132 0.90453405
vn 0.30151132 0.30151132 0.90453405
vn -0.30151132 -0.30151132 -0.90453405
vn -0.30151132 0.30151132 -0.90453405
vn 0.30151132 -0.30151132 0.90453405
vn 0.30151132 0.30151132 -0.90453405
vn 0.30151132 0.30151132 -0.90453405
vn -0.30151132 -0.30151132 0.90453405
vn -0.30151132 -0.30151132 0.90453405
vn 0.30151132 -0.30151132 0.90453405
vn 0.30151132 -0.30151132 0.90453405
vn -0.30151132 0.30151132 -0.90453405
vn -0.30151132 0.30151132 -0.90453405
vn -0.30151132 -0.30151132 -0.90453405
vn 0.30151132 0.30151132 0.90453405
vn 0.30151132 0.30151132 0.90453405
vn -0.30151132 -0.30151132 -0.90453405
vn -0.30151132 0.30151132 0.90453405
vn 0.30151132 -0.30151132 -0.90453405
vn 0.30151132 -0.30151132 -0.90453405
vn -0.30151132 0.30151132 0.90453405
vn 0.30151132 -0.30151132 -0.90453405
vn 0.30151132 -0.30151132 -0.90453405
vn -0.30151132 0.30151132 0.90453405
vn -0.30151132 0.30151132 0.90453405
vn -0.30151132 0.30151132 -0.90453405
vn -0.30151132 0.30151132 -0.90453405
vn 0.30151132 -0.30151132 0.90453405
vn 0.30151132 -0.30151132 0.90453405
vn 0.30151132 0.30151132 0.90453405
vn 0.30151132 0.30151132 0.90453405
vn -0.30151132 -0.30151132 -0.90453405
vn -0.30151132 -0.30151132 -0.90453405
vn -0.30151132 -0.30151132 0.90453405
vn 0.30151132 0.30151132 -0.90453405
vn 0.30151132 0.30151132 -0.90453405
vn -0.30151132 -0.30151132 0.90453405
vt 0.73900140 0.00000000
vt 0.00000000 0.00000000
vt -0.73900140 0.00000000
vt -0.73900140 0.00000000
vt 0.73900140 0.00000000
vt 0.00000000 0.00000000
vt 0.67745580 0.06154560
vt 0.67745580 0.06154560
vt 0.00000000 0.00000000
vt 0.00000000 0.00000000
vt 0.00000000 1.24562600
vt 0.73900140 1.24562600
vt 0.00000000 1.24562600
vt 0.73900140 0.00000000
vt 0.73900140 0.00000000
vt 0.73900140 1.24562600
vt 0.67745580 1.18408000
vt 0.67745580 1.18408000
vt 0.06154560 1.18408000
vt 0.06154560 1.18408000
vt 0.06154560 0.06154560
vt 0.06154560 0.06154560
vt 0.00000000 0.00000000
vt 0.00000000 0.00000000
vt 0.00000000 1.24562600
vt 0.00000000 1.24562600
vt -0.73900140 0.08584864
vt -0.73900140 0.00000000
vt 0.08584864 0.00000000
vt -0.73900140 0.08584864
vt 0.08584864 0.00000000
vt -0.73900140 0.00000000
vt 0.00000000 0.00000000
vt -0.08584864 0.00000000
vt -0.08584864 0.00000000
vt 0.00000000 0.08584864
vt 0.00000000 0.00000000
vt 0.00000000 0.08584864
vt -0.73900140 1.24562600
vt 0.73900140 0.08584864
vt 0.08584864 1.24562600
vt 0.08584864 1.24562600
vt 0.73900140 0.08584864
vt -0.73900140 1.24562600
vt 0.00000000 1.24562600
vt 0.00000000 0.08584864
vt -0.08584864 1.24562600
vt 0.00000000 0.08584864
vt 0.00000000 1.24562600
vt -0.08584864 1.24562600
vt -0.06154560 0.06154560
vt -0.06154560 0.06154560
vt -0.06154560 1.18408000
vt -0.06154560 1.18408000
vt -0.67745580 1.18408000
vt -0.67745580 1.18408000
vt -0.67745580 0.06154560
vt -0.67745580 0.06154560
vt 0.08584864 0.06154560
vt 0.06154560 0.08584864
vt 0.08584864 0.06154560
vt 0.06154560 0.08584864
vt 0.00000000 1.18408000
vt -0.06154560 0.00000000
vt -0.06154560 0.00000000
vt 0.00000000 1.18408000
vt 0.06154560 0.00000000
vt 0.00000000 0.06154560
vt 0.06154560 0.00000000
vt 0.00000000 0.06154560
vt 0.08584864 1.18408000
vt -0.06154560 0.08584864
vt 0.08584864 1.18408000
vt -0.06154560 0.08584864
vt 0.00000000 0.06154560
vt 0.67745580 0.00000000
vt 0.00000000 0.06154560
vt 0.67745580 0.00000000
vt 0.67745580 0.08584864
vt -0.08584864 0.06154560
vt -0.08584864 0.06154560
vt 0.67745580 0.08584864
vt -0.08584864 1.18408000
vt -0.67745580 0.08584864
vt -0.67745580 0.08584864
vt -0.08584864 1.18408000
vt 0.00000000 1.18408000
vt -0.67745580 0.00000000
vt 0.00000000 1.18408000
vt -0.67745580 0.00000000
f 1/1/1 7/7/7 9/9/9
f 10/10/10 8/8/8 5/5/5
f 7/7/7 1/1/1 12/12/12
f 16/16/16 5/5/5 8/8/8
f 7/7/7 12/12/12 18/18/18
f 17/17/17 16/16/16 8/8/8
f 18/18/18 12/12/12 20/20/20
f 19/19/19 16/16/16 17/17/17
f 9/9/9 21/21/21 26/26/26
f 25/25/25 22/22/22 10/10/10
f 21/21/21 9/9/9 7/7/7
f 8/8/8 10/10/10 22/22/22
f 26/26/26 21/21/21 20/20/20
f 19/19/19 22/22/22 25/25/25
f 26/26/26 20/20/20 12/12/12
f 16/16/16 19/19/19 25/25/25
f 30/30/30 9/9/9 38/38/38
f 36/36/36 10/10/10 27/27/27
f 9/9/9 30/30/30 3/3/3
f 4/4/4 27/27/27 10/10/10
f 31/31/31 11/11/11 2/2/2
f 6/6/6 13/13/13 29/29/29
f 11/11/11 31/31/31 41/41/41
f 42/42/42 29/29/29 13/13/13
f 14/14/14 48/48/48 23/23/23
f 24/24/24 46/46/46 15/15/15
f 48/48/48 14/14/14 40/40/40
f 43/43/43 15/15/15 46/46/46
f 50/50/50 9/9/9 26/26/26
f 25/25/25 10/10/10 47/47/47
f 9/9/9 50/50/50 35/35/35
f 34/34/34 47/47/47 10/10/10
f 33/33/33 51/51/51 32/32/32
f 28/28/28 52/52/52 37/37/37
f 51/51/51 33/33/33 49/49/49
f 45/45/45 37/37/37 52/52/52
f 51/51/51 49/49/49 53/53/53
f 54/54/54 45/45/45 52/52/52
f 53/53/53 49/49/49 56/56/56
f 55/55/55 45/45/45 54/54/54
f 32/32/32 57/57/57 39/39/39
f 44/44/44 58/58/58 28/28/28
f 57/57/57 32/32/32 51/51/51
f 52/52/52 28/28/28 58/58/58
f 39/39/39 57/57/57 56/56/56
f 55/55/55 58/58/58 44/44/44
f 39/39/39 56/56/56 49/49/49
f 45/45/45 55/55/55 44/44/44
f 59/59/59 63/63/63 68/68/68
f 70/70/70 66/66/66 61/61/61
f 63/63/63 59/59/59 73/73/73
f 71/71/71 61/61/61 66/66/66
f 78/78/78 60/60/60 69/69/69
f 67/67/67 62/62/62 76/76/76
f 60/60/60 78/78/78 79/79/79
f 82/82/82 76/76/76 62/62/62
f 85/85/85 64/64/64 72/72/72
f 74/74/74 65/65/65 84/84/84
f 64/64/64 85/85/85 90/90/90
f 88/88/88 84/84/84 65/65/65
f 86/86/86 77/77/77 87/87/87
f 89/89/89 75/75/75 83/83/83
f 77/77/77 86/86/86 80/80/80
f 81/81/81 83/83/83 75/75/75

