# https://github.com/mikedh/trimesh
mtllib material.mtl
usemtl material_0
v 0.53858000 -0.61288500 -0.00405800
v -0.09888100 -0.61288500 -0.05315200
v 0.53858000 -0.61288500 -0.05315200
v -0.09888100 -0.61288500 -0.00405800
v -0.09888100 -0.61288500 -0.00405800
v -0.06138300 -0.58566600 -0.00405800
v -0.09888100 0.58477100 -0.00405800
v 0.53858000 -0.61288500 -0.00405800
v 0.50108200 -0.58566600 -0.00405800
v 0.50108200 0.55755100 -0.00405800
v -0.06138300 0.55755100 -0.00405800
v 0.53858000 0.58477100 -0.00405800
v -0.09888100 0.58477100 -0.00405800
v -0.09888100 -0.61288500 -0.05315200
v -0.09888100 -0.61288500 -0.00405800
v -0.09888100 0.58477100 -0.05315200
v -0.09888100 0.58477100 -0.05315200
v -0.06138300 0.55755100 -0.05315200
v -0.09888100 -0.61288500 -0.05315200
v 0.53858000 0.58477100 -0.05315200
v 0.50108200 0.55755100 -0.05315200
v 0.50108200 -0.58566600 -0.05315200
v -0.06138300 -0.58566600 -0.05315200
v 0.53858000 -0.61288500 -0.05315200
v 0.53858000 0.58477100 -0.05315200
v 0.53858000 -0.61288500 -0.00405800
v 0.53858000 -0.61288500 -0.05315200
v 0.53858000 0.58477100 -0.00405800
v -0.09888100 0.58477100 -0.05315200
v 0.53858000 0.58477100 -0.00405800
v 0.53858000 0.58477100 -0.05315200
v -0.09888100 0.58477100 -0.00405800
v 0.50108200 -0.58566600 -0.03105900
v -0.06138300 0.55755100 -0.03105900
v -0.06138300 -0.58566600 -0.03105900
v 0.50108200 0.55755100 -0.03105900
v 0.50108200 0.55755100 -0.03105900
v 0.50108200 -0.58566600 -0.03105900
v -0.06138300 0.55755100 -0.03105900
v -0.06138300 -0.58566600 -0.03105900
v -0.06138300 0.55755100 -0.05315200
v -0.06138300 -0.58566600 -0.03105900
v -0.06138300 -0.58566600 -0.05315200
v -0.06138300 0.55755100 -0.03105900
v 0.50108200 0.55755100 -0.03105900
v -0.06138300 0.55755100 -0.05315200
v 0.50108200 0.55755100 -0.05315200
v -0.06138300 0.55755100 -0.03105900
v -0.06138300 -0.58566600 -0.01755900
v -0.06138300 0.55755100 -0.01755900
v -0.06138300 -0.58566600 -0.03105900
v 0.50108200 -0.58566600 -0.05315200
v -0.06138300 -0.58566600 -0.05315200
v 0.50108200 -0.58566600 -0.03105900
v 0.50108200 0.55755100 -0.03105900
v 0.50108200 -0.58566600 -0.05315200
v 0.50108200 -0.58566600 -0.03105900
v 0.50108200 0.55755100 -0.05315200
v 0.50108200 0.55755100 -0.01755900
v -0.06138300 0.55755100 -0.01755900
v -0.06138300 -0.58566600 -0.00405800
v -0.06138300 0.55755100 -0.00405800
v 0.50108200 -0.58566600 -0.01755900
v -0.06138300 -0.58566600 -0.01755900
v 0.50108200 0.55755100 -0.01755900
v 0.50108200 -0.58566600 -0.01755900
v 0.50108200 0.55755100 -0.00405800
v -0.06138300 0.55755100 -0.00405800
v -0.06138300 -0.58566600 -0.00405800
v 0.50108200 -0.58566600 -0.00405800
v 0.50108200 -0.58566600 -0.00405800
v 0.50108200 0.55755100 -0.00405800
v 0.50108200 0.55755100 -0.01755900
v -0.06138300 -0.58566600 -0.01755900
v -0.06138300 0.55755100 -0.01755900
v 0.50108200 -0.58566600 -0.01755900
v 0.50108200 -0.58566600 -0.01755900
v 0.50108200 0.55755100 -0.01755900
v -0.06138300 -0.58566600 -0.01755900
v -0.06138300 0.55755100 -0.01755900
vn 0.00000000 -1.00000000 0.00000000
vn 0.00000000 -1.00000000 0.00000000
vn 0.00000000 -1.00000000 0.00000000
vn 0.00000000 -1.00000000 0.00000000
vn 0.00000000 0.00000000 1.00000000
vn 0.00000000 0.00000000 1.00000000
vn 0.00000000 0.00000000 1.00000000
vn 0.00000000 0.00000000 1.00000000
vn 0.00000000 0.00000000 1.00000000
vn 0.00000000 0.00000000 1.00000000
vn 0.00000000 0.00000000 1.00000000
vn 0.00000000 0.00000000 1.00000000
vn -1.00000000 0.00000000 0.00000000
vn -1.00000000 0.00000000 0.00000000
vn -1.00000000 0.00000000 0.00000000
vn -1.00000000 0.00000000 0.00000000
vn 0.00000000 0.00000000 -1.00000000
vn 0.00000000 0.00000000 -1.00000000
vn 0.00000000 0.00000000 -1.00000000
vn 0.00000000 0.00000000 -1.00000000
vn 0.00000000 0.00000000 -1.00000000
vn 0.00000000 0.00000000 -1.00000000
vn 0.00000000 0.00000000 -1.00000000
vn 0.00000000 0.00000000 -1.00000000
vn 1.00000000 0.00000000 0.00000000
vn 1.00000000 0.00000000 0.00000000
vn 1.00000000 0.00000000 0.00000000
vn 1.00000000 0.00000000 0.00000000
vn 0.00000000 1.00000000 0.00000000
vn 0.00000000 1.00000000 0.00000000
vn 0.00000000 1.00000000 0.00000000
vn 0.00000000 1.00000000 0.00000000
vn 0.00000000 0.00000000 1.00000000
vn 0.00000000 0.00000000 1.00000000
vn 0.00000000 0.00000000 1.00000000
vn 0.00000000 0.00000000 1.00000000
vn 0.00000000 0.00000000 -1.00000000
vn 0.00000000 0.00000000 -1.00000000
vn 0.00000000 0.00000000 -1.00000000
vn 0.00000000 0.00000000 -1.00000000
vn 1.00000000 0.00000000 0.00000000
vn 1.00000000 0.00000000 0.00000000
vn 1.00000000 0.00000000 0.00000000
vn 1.00000000 0.00000000 0.00000000
vn 0.00000000 -1.00000000 0.00000000
vn 0.00000000 -1.00000000 0.00000000
vn 0.00000000 -1.00000000 0.00000000
vn 0.00000000 -1.00000000 0.00000000
vn 1.00000000 0.00000000 0.00000000
vn 1.00000000 0.00000000 0.00000000
vn 0.00000000 1.00000000 0.00000000
vn 0.00000000 1.00000000 0.00000000
vn 0.00000000 1.00000000 0.00000000
vn 0.00000000 1.00000000 0.00000000
vn -1.00000000 0.00000000 0.00000000
vn -1.00000000 0.00000000 0.00000000
vn -1.00000000 0.00000000 0.00000000
vn -1.00000000 0.00000000 0.00000000
vn 0.00000000 -1.00000000 0.00000000
vn 0.00000000 -1.00000000 0.00000000
vn 1.00000000 0.00000000 0.00000000
vn 1.00000000 0.00000000 0.00000000
vn 0.00000000 1.00000000 0.00000000
vn 0.00000000 1.00000000 0.00000000
vn -1.00000000 0.00000000 0.00000000
vn -1.00000000 0.00000000 0.00000000
vn 0.00000000 -1.00000000 0.00000000
vn 0.00000000 -1.00000000 0.00000000
vn 0.00000000 1.00000000 0.00000000
vn 0.00000000 1.00000000 0.00000000
vn -1.00000000 0.00000000 0.00000000
vn -1.00000000 0.00000000 0.00000000
vn 0.00000000 0.00000000 -1.00000000
vn 0.00000000 0.00000000 -1.00000000
vn 0.00000000 0.00000000 -1.00000000
vn 0.00000000 0.00000000 -1.00000000
vn 0.00000000 0.00000000 1.00000000
vn 0.00000000 0.00000000 1.00000000
vn 0.00000000 0.00000000 1.00000000
vn 0.00000000 0.00000000 1.00000000
vt 0.56458333 0.34821429
vt 0.56458333 0.34821429
vt 0.56458333 0.34821429
vt 0.56458333 0.34821429
vt 0.56458333 0.34821429
vt 0.56458333 0.34821429
vt 0.56458333 0.34821429
vt 0.56458333 0.34821429
vt 0.56458333 0.34821429
vt 0.56458333 0.34821429
vt 0.56458333 0.34821429
vt 0.56458333 0.34821429
vt 0.56458333 0.34821429
vt 0.56458333 0.34821429
vt 0.56458333 0.34821429
vt 0.56458333 0.34821429
vt 0.56458333 0.34821429
vt 0.56458333 0.34821429
vt 0.56458333 0.34821429
vt 0.56458333 0.34821429
vt 0.56458333 0.34821429
vt 0.56458333 0.34821429
vt 0.56458333 0.34821429
vt 0.56458333 0.34821429
vt 0.56458333 0.34821429
vt 0.56458333 0.34821429
vt 0.56458333 0.34821429
vt 0.56458333 0.34821429
vt 0.56458333 0.34821429
vt 0.56458333 0.34821429
vt 0.56458333 0.34821429
vt 0.56458333 0.34821429
vt 0.16458333 0.34821429
vt 0.16458333 0.34821429
vt 0.16458333 0.34821429
vt 0.16458333 0.34821429
vt 0.16458333 0.34821429
vt 0.16458333 0.34821429
vt 0.16458333 0.34821429
vt 0.16458333 0.34821429
vt 0.56458333 0.34821429
vt 0.56458333 0.34821429
vt 0.56458333 0.34821429
vt 0.56458333 0.34821429
vt 0.56458333 0.34821429
vt 0.56458333 0.34821429
vt 0.56458333 0.34821429
vt 0.56458333 0.34821429
vt 0.56458333 0.34821429
vt 0.56458333 0.34821429
vt 0.56458333 0.34821429
vt 0.56458333 0.34821429
vt 0.56458333 0.34821429
vt 0.56458333 0.34821429
vt 0.56458333 0.34821429
vt 0.56458333 0.34821429
vt 0.56458333 0.34821429
vt 0.56458333 0.34821429
vt 0.56458333 0.34821429
vt 0.56458333 0.34821429
vt 0.56458333 0.34821429
vt 0.56458333 0.34821429
vt 0.56458333 0.34821429
vt 0.56458333 0.34821429
vt 0.56458333 0.34821429
vt 0.56458333 0.34821429
vt 0.56458333 0.34821429
vt 0.56458333 0.34821429
vt 0.56458333 0.34821429
vt 0.56458333 0.34821429
vt 0.56458333 0.34821429
vt 0.56458333 0.34821429
vt 0.16458333 0.34821429
vt 0.16458333 0.34821429
vt 0.16458333 0.34821429
vt 0.16458333 0.34821429
vt 0.16458333 0.34821429
vt 0.16458333 0.34821429
vt 0.16458333 0.34821429
vt 0.16458333 0.34821429
f 1/1/1 2/2/2 3/3/3
f 2/2/2 1/1/1 4/4/4
f 5/5/5 6/6/6 7/7/7
f 6/6/6 5/5/5 8/8/8
f 6/6/6 8/8/8 9/9/9
f 9/9/9 8/8/8 10/10/10
f 7/7/7 11/11/11 12/12/12
f 11/11/11 7/7/7 6/6/6
f 12/12/12 11/11/11 10/10/10
f 12/12/12 10/10/10 8/8/8
f 13/13/13 14/14/14 15/15/15
f 14/14/14 13/13/13 16/16/16
f 17/17/17 18/18/18 19/19/19
f 18/18/18 17/17/17 20/20/20
f 18/18/18 20/20/20 21/21/21
f 21/21/21 20/20/20 22/22/22
f 19/19/19 23/23/23 24/24/24
f 23/23/23 19/19/19 18/18/18
f 24/24/24 23/23/23 22/22/22
f 24/24/24 22/22/22 20/20/20
f 25/25/25 26/26/26 27/27/27
f 26/26/26 25/25/25 28/28/28
f 29/29/29 30/30/30 31/31/31
f 30/30/30 29/29/29 32/32/32
f 33/33/33 34/34/34 35/35/35
f 34/34/34 33/33/33 36/36/36
f 37/37/37 38/38/38 39/39/39
f 40/40/40 39/39/39 38/38/38
f 41/41/41 42/42/42 43/43/43
f 42/42/42 41/41/41 44/44/44
f 45/45/45 46/46/46 47/47/47
f 46/46/46 45/45/45 48/48/48
f 44/44/44 49/49/49 42/42/42
f 49/49/49 44/44/44 50/50/50
f 51/51/51 52/52/52 53/53/53
f 52/52/52 51/51/51 54/54/54
f 55/55/55 56/56/56 57/57/57
f 56/56/56 55/55/55 58/58/58
f 59/59/59 48/48/48 45/45/45
f 48/48/48 59/59/59 60/60/60
f 50/50/50 61/61/61 49/49/49
f 61/61/61 50/50/50 62/62/62
f 51/51/51 63/63/63 54/54/54
f 63/63/63 51/51/51 64/64/64
f 65/65/65 57/57/57 66/66/66
f 57/57/57 65/65/65 55/55/55
f 67/67/67 60/60/60 59/59/59
f 60/60/60 67/67/67 68/68/68
f 69/69/69 63/63/63 64/64/64
f 63/63/63 69/69/69 70/70/70
f 71/71/71 65/65/65 66/66/66
f 65/65/65 71/71/71 72/72/72
f 73/73/73 74/74/74 75/75/75
f 74/74/74 73/73/73 76/76/76
f 77/77/77 78/78/78 79/79/79
f 80/80/80 79/79/79 78/78/78

