# https://github.com/mikedh/trimesh
mtllib material.mtl
usemtl material_0
v 0.27024900 -0.95222200 0.01055600
v 0.27024900 -0.95222200 0.01055600
v -0.27466300 -0.95222200 -0.02917700
v -0.27466300 -0.95222200 -0.02917700
v 0.27024900 -0.95222200 -0.02917700
v 0.27024900 -0.95222200 -0.02917700
v -0.27466300 -0.95222200 0.01055600
v -0.27466300 -0.95222200 0.01055600
v -0.27466300 0.86415300 0.01055600
v -0.27466300 0.86415300 0.01055600
v -0.27466300 -0.95222200 -0.02917700
v -0.27466300 -0.95222200 -0.02917700
v -0.27466300 -0.95222200 0.01055600
v -0.27466300 -0.95222200 0.01055600
v -0.27466300 0.86415300 -0.02917700
v -0.27466300 0.86415300 -0.02917700
v 0.27024900 0.86415300 -0.02917700
v 0.27024900 0.86415300 -0.02917700
v -0.27466300 -0.95222200 -0.02917700
v -0.27466300 -0.95222200 -0.02917700
v -0.27466300 0.86415300 -0.02917700
v -0.27466300 0.86415300 -0.02917700
v 0.22023200 -0.17071000 -0.02917700
v 0.22023200 -0.17071000 -0.02917700
v 0.22232900 -0.16275500 -0.02917700
v 0.22232900 -0.16275500 -0.02917700
v 0.22985700 -0.15943500 -0.02917700
v 0.22985700 -0.15943500 -0.02917700
v 0.23714600 -0.16325000 -0.02917700
v 0.23714600 -0.16325000 -0.02917700
v 0.23870700 -0.17132700 -0.02917700
v 0.23870700 -0.17132700 -0.02917700
v 0.27024900 -0.95222200 -0.02917700
v 0.27024900 -0.95222200 -0.02917700
v 0.22514400 -0.17731000 -0.02917700
v 0.22514400 -0.17731000 -0.02917700
v 0.23336600 -0.17758400 -0.02917700
v 0.23336600 -0.17758400 -0.02917700
v 0.27024900 0.86415300 -0.02917700
v 0.27024900 0.86415300 -0.02917700
v 0.27024900 -0.95222200 0.01055600
v 0.27024900 -0.95222200 0.01055600
v 0.27024900 -0.95222200 -0.02917700
v 0.27024900 -0.95222200 -0.02917700
v 0.27024900 0.86415300 0.01055600
v 0.27024900 0.86415300 0.01055600
v 0.27024900 -0.95222200 0.01055600
v 0.27024900 -0.95222200 0.01055600
v -0.27466300 0.86415300 0.01055600
v -0.27466300 0.86415300 0.01055600
v -0.27466300 -0.95222200 0.01055600
v -0.27466300 -0.95222200 0.01055600
v 0.21995100 -0.17132700 0.01055600
v 0.21995100 -0.17132700 0.01055600
v 0.22529200 -0.17758400 0.01055600
v 0.22529200 -0.17758400 0.01055600
v 0.23351500 -0.17731000 0.01055600
v 0.23351500 -0.17731000 0.01055600
v 0.23842600 -0.17071000 0.01055600
v 0.23842600 -0.17071000 0.01055600
v 0.27024900 0.86415300 0.01055600
v 0.27024900 0.86415300 0.01055600
v 0.22151200 -0.16325000 0.01055600
v 0.22151200 -0.16325000 0.01055600
v 0.22880100 -0.15943500 0.01055600
v 0.22880100 -0.15943500 0.01055600
v 0.23632900 -0.16275500 0.01055600
v 0.23632900 -0.16275500 0.01055600
v -0.27466300 0.86415300 0.01055600
v -0.27466300 0.86415300 0.01055600
v 0.27024900 0.86415300 -0.02917700
v 0.27024900 0.86415300 -0.02917700
v -0.27466300 0.86415300 -0.02917700
v -0.27466300 0.86415300 -0.02917700
v 0.27024900 0.86415300 0.01055600
v 0.27024900 0.86415300 0.01055600
v 0.23714600 -0.16325000 -0.04053000
v 0.23714600 -0.16325000 -0.04053000
v 0.23714600 -0.16325000 -0.04053000
v 0.23714600 -0.16325000 -0.04053000
v 0.23870700 -0.17132700 -0.02917700
v 0.23870700 -0.17132700 -0.02917700
v 0.23870700 -0.17132700 -0.02917700
v 0.23870700 -0.17132700 -0.02917700
v 0.23870700 -0.17132700 -0.04053000
v 0.23870700 -0.17132700 -0.04053000
v 0.23870700 -0.17132700 -0.04053000
v 0.23870700 -0.17132700 -0.04053000
v 0.23714600 -0.16325000 -0.02917700
v 0.23714600 -0.16325000 -0.02917700
v 0.23714600 -0.16325000 -0.02917700
v 0.23714600 -0.16325000 -0.02917700
v 0.22985700 -0.15943500 -0.02917700
v 0.22985700 -0.15943500 -0.02917700
v 0.22985700 -0.15943500 -0.02917700
v 0.22985700 -0.15943500 -0.02917700
v 0.22985700 -0.15943500 -0.04053000
v 0.22985700 -0.15943500 -0.04053000
v 0.22985700 -0.15943500 -0.04053000
v 0.22985700 -0.15943500 -0.04053000
v 0.23336600 -0.17758400 -0.02917700
v 0.23336600 -0.17758400 -0.02917700
v 0.23336600 -0.17758400 -0.02917700
v 0.23336600 -0.17758400 -0.02917700
v 0.23336600 -0.17758400 -0.04053000
v 0.23336600 -0.17758400 -0.04053000
v 0.23336600 -0.17758400 -0.04053000
v 0.23336600 -0.17758400 -0.04053000
v 0.22232900 -0.16275500 -0.02917700
v 0.22232900 -0.16275500 -0.02917700
v 0.22232900 -0.16275500 -0.02917700
v 0.22232900 -0.16275500 -0.02917700
v 0.22232900 -0.16275500 -0.04053000
v 0.22232900 -0.16275500 -0.04053000
v 0.22232900 -0.16275500 -0.04053000
v 0.22232900 -0.16275500 -0.04053000
v 0.22514300 -0.17731000 -0.04053000
v 0.22514300 -0.17731000 -0.04053000
v 0.22514300 -0.17731000 -0.04053000
v 0.22514300 -0.17731000 -0.04053000
v 0.22514300 -0.17731000 -0.02917700
v 0.22514300 -0.17731000 -0.02917700
v 0.22514300 -0.17731000 -0.02917700
v 0.22514300 -0.17731000 -0.02917700
v 0.22023200 -0.17071000 -0.04053000
v 0.22023200 -0.17071000 -0.04053000
v 0.22023200 -0.17071000 -0.04053000
v 0.22023200 -0.17071000 -0.04053000
v 0.22023200 -0.17071000 -0.02917700
v 0.22023200 -0.17071000 -0.02917700
v 0.22023200 -0.17071000 -0.02917700
v 0.22023200 -0.17071000 -0.02917700
v 0.22151200 -0.16325000 0.02190800
v 0.22151200 -0.16325000 0.02190800
v 0.22151200 -0.16325000 0.02190800
v 0.22151200 -0.16325000 0.02190800
v 0.21995100 -0.17132700 0.01055600
v 0.21995100 -0.17132700 0.01055600
v 0.21995100 -0.17132700 0.01055600
v 0.21995100 -0.17132700 0.01055600
v 0.21995100 -0.17132700 0.02190800
v 0.21995100 -0.17132700 0.02190800
v 0.21995100 -0.17132700 0.02190800
v 0.21995100 -0.17132700 0.02190800
v 0.22151200 -0.16325000 0.01055600
v 0.22151200 -0.16325000 0.01055600
v 0.22151200 -0.16325000 0.01055600
v 0.22151200 -0.16325000 0.01055600
v 0.22880100 -0.15943500 0.01055600
v 0.22880100 -0.15943500 0.01055600
v 0.22880100 -0.15943500 0.01055600
v 0.22880100 -0.15943500 0.01055600
v 0.22880100 -0.15943500 0.02190800
v 0.22880100 -0.15943500 0.02190800
v 0.22880100 -0.15943500 0.02190800
v 0.22880100 -0.15943500 0.02190800
v 0.22529200 -0.17758400 0.01055600
v 0.22529200 -0.17758400 0.01055600
v 0.22529200 -0.17758400 0.01055600
v 0.22529200 -0.17758400 0.01055600
v 0.22529200 -0.17758400 0.02190800
v 0.22529200 -0.17758400 0.02190800
v 0.22529200 -0.17758400 0.02190800
v 0.22529200 -0.17758400 0.02190800
v 0.23632900 -0.16275500 0.01055600
v 0.23632900 -0.16275500 0.01055600
v 0.23632900 -0.16275500 0.01055600
v 0.23632900 -0.16275500 0.01055600
v 0.23632900 -0.16275500 0.02190800
v 0.23632900 -0.16275500 0.02190800
v 0.23632900 -0.16275500 0.02190800
v 0.23632900 -0.16275500 0.02190800
v 0.23351500 -0.17731000 0.02190800
v 0.23351500 -0.17731000 0.02190800
v 0.23351500 -0.17731000 0.02190800
v 0.23351500 -0.17731000 0.02190800
v 0.23351500 -0.17731000 0.01055600
v 0.23351500 -0.17731000 0.01055600
v 0.23351500 -0.17731000 0.01055600
v 0.23351500 -0.17731000 0.01055600
v 0.23842600 -0.17071000 0.02190800
v 0.23842600 -0.17071000 0.02190800
v 0.23842600 -0.17071000 0.02190800
v 0.23842600 -0.17071000 0.02190800
v 0.23842600 -0.17071000 0.01055600
v 0.23842600 -0.17071000 0.01055600
v 0.23842600 -0.17071000 0.01055600
v 0.23842600 -0.17071000 0.01055600
vn 0.00000000 -1.00000000 0.00000000
vn 0.00000000 1.00000000 0.00000000
vn 0.00000000 1.00000000 0.00000000
vn 0.00000000 -1.00000000 0.00000000
vn 0.00000000 1.00000000 0.00000000
vn 0.00000000 -1.00000000 0.00000000
vn 0.00000000 1.00000000 0.00000000
vn 0.00000000 -1.00000000 0.00000000
vn -1.00000000 0.00000000 0.00000000
vn 1.00000000 0.00000000 0.00000000
vn -1.00000000 0.00000000 0.00000000
vn 1.00000000 0.00000000 0.00000000
vn 1.00000000 0.00000000 0.00000000
vn -1.00000000 0.00000000 0.00000000
vn -1.00000000 0.00000000 0.00000000
vn 1.00000000 0.00000000 0.00000000
vn 0.00000000 0.00000000 1.00000000
vn 0.00000000 0.00000000 -1.00000000
vn 0.00000000 0.00000000 1.00000000
vn 0.00000000 0.00000000 -1.00000000
vn 0.00000000 0.00000000 1.00000000
vn 0.00000000 0.00000000 -1.00000000
vn 0.00000000 0.00000000 1.00000000
vn 0.00000000 0.00000000 -1.00000000
vn 0.00000000 0.00000000 1.00000000
vn 0.00000000 0.00000000 -1.00000000
vn 0.00000000 0.00000000 1.00000000
vn 0.00000000 0.00000000 -1.00000000
vn 0.00000000 0.00000000 1.00000000
vn 0.00000000 0.00000000 -1.00000000
vn 0.00000000 0.00000000 1.00000000
vn 0.00000000 0.00000000 -1.00000000
vn 0.00000000 0.00000000 1.00000000
vn 0.00000000 0.00000000 -1.00000000
vn 0.00000000 0.00000000 1.00000000
vn 0.00000000 0.00000000 -1.00000000
vn 0.00000000 0.00000000 1.00000000
vn 0.00000000 0.00000000 -1.00000000
vn -1.00000000 0.00000000 0.00000000
vn 1.00000000 0.00000000 0.00000000
vn 1.00000000 0.00000000 0.00000000
vn -1.00000000 0.00000000 0.00000000
vn 1.00000000 0.00000000 0.00000000
vn -1.00000000 0.00000000 0.00000000
vn -1.00000000 0.00000000 0.00000000
vn 1.00000000 0.00000000 0.00000000
vn 0.00000000 0.00000000 -1.00000000
vn 0.00000000 0.00000000 1.00000000
vn 0.00000000 0.00000000 1.00000000
vn 0.00000000 0.00000000 -1.00000000
vn 0.00000000 0.00000000 1.00000000
vn 0.00000000 0.00000000 -1.00000000
vn 0.00000000 0.00000000 1.00000000
vn 0.00000000 0.00000000 -1.00000000
vn 0.00000000 0.00000000 -1.00000000
vn 0.00000000 0.00000000 1.00000000
vn 0.00000000 0.00000000 -1.00000000
vn 0.00000000 0.00000000 1.00000000
vn 0.00000000 0.00000000 1.00000000
vn 0.00000000 0.00000000 -1.00000000
vn 0.00000000 0.00000000 -1.00000000
vn 0.00000000 0.00000000 1.00000000
vn 0.00000000 0.00000000 -1.00000000
vn 0.00000000 0.00000000 1.00000000
vn 0.00000000 0.00000000 -1.00000000
vn 0.00000000 0.00000000 1.00000000
vn 0.00000000 0.00000000 -1.00000000
vn 0.00000000 0.00000000 1.00000000
vn 0.00000000 -1.00000000 0.00000000
vn 0.00000000 1.00000000 0.00000000
vn 0.00000000 -1.00000000 0.00000000
vn 0.00000000 1.00000000 0.00000000
vn 0.00000000 -1.00000000 0.00000000
vn 0.00000000 1.00000000 0.00000000
vn 0.00000000 1.00000000 0.00000000
vn 0.00000000 -1.00000000 0.00000000
vn 0.80222876 0.59701677 0.00000000
vn 0.80222876 0.59701677 0.00000000
vn -0.80222876 -0.59701677 0.00000000
vn -0.80222876 -0.59701677 0.00000000
vn -0.96694796 0.25497379 0.00000000
vn -0.96694796 0.25497379 0.00000000
vn 0.96694796 -0.25497379 0.00000000
vn 0.96694796 -0.25497379 0.00000000
vn -0.96694796 0.25497379 0.00000000
vn -0.96694796 0.25497379 0.00000000
vn 0.96694796 -0.25497379 0.00000000
vn 0.96694796 -0.25497379 0.00000000
vn -0.80222876 -0.59701677 0.00000000
vn 0.80222876 0.59701677 0.00000000
vn 0.80222876 0.59701677 0.00000000
vn -0.80222876 -0.59701677 0.00000000
vn 0.03341495 0.99944156 0.00000000
vn 0.03341495 0.99944156 0.00000000
vn -0.03341495 -0.99944156 0.00000000
vn -0.03341495 -0.99944156 0.00000000
vn 0.03341495 0.99944156 0.00000000
vn 0.03341495 0.99944156 0.00000000
vn -0.03341495 -0.99944156 0.00000000
vn -0.03341495 -0.99944156 0.00000000
vn -0.40353562 0.91496394 0.00000000
vn -0.40353562 0.91496394 0.00000000
vn 0.40353562 -0.91496394 0.00000000
vn 0.40353562 -0.91496394 0.00000000
vn -0.40353562 0.91496394 0.00000000
vn -0.40353562 0.91496394 0.00000000
vn 0.40353562 -0.91496394 0.00000000
vn 0.40353562 -0.91496394 0.00000000
vn -0.76056099 0.64926649 0.00000000
vn -0.76056099 0.64926649 0.00000000
vn 0.76056099 -0.64926649 0.00000000
vn 0.76056099 -0.64926649 0.00000000
vn 0.76056099 -0.64926649 0.00000000
vn -0.76056099 0.64926649 0.00000000
vn -0.76056099 0.64926649 0.00000000
vn 0.76056099 -0.64926649 0.00000000
vn 0.46374731 0.88596751 0.00000000
vn -0.46374731 -0.88596751 0.00000000
vn -0.46374731 -0.88596751 0.00000000
vn 0.46374731 0.88596751 0.00000000
vn 0.46374731 0.88596751 0.00000000
vn -0.46374731 -0.88596751 0.00000000
vn -0.46374731 -0.88596751 0.00000000
vn 0.46374731 0.88596751 0.00000000
vn 0.98181900 0.18981950 0.00000000
vn -0.98181900 -0.18981950 0.00000000
vn 0.98181900 0.18981950 0.00000000
vn -0.98181900 -0.18981950 0.00000000
vn -0.98181900 -0.18981950 0.00000000
vn 0.98181900 0.18981950 0.00000000
vn -0.98181900 -0.18981950 0.00000000
vn 0.98181900 0.18981950 0.00000000
vn -0.80222876 0.59701677 0.00000000
vn -0.80222876 0.59701677 0.00000000
vn 0.80222876 -0.59701677 0.00000000
vn 0.80222876 -0.59701677 0.00000000
vn 0.96694796 0.25497379 0.00000000
vn 0.96694796 0.25497379 0.00000000
vn -0.96694796 -0.25497379 0.00000000
vn -0.96694796 -0.25497379 0.00000000
vn 0.96694796 0.25497379 0.00000000
vn 0.96694796 0.25497379 0.00000000
vn -0.96694796 -0.25497379 0.00000000
vn -0.96694796 -0.25497379 0.00000000
vn 0.80222876 -0.59701677 0.00000000
vn -0.80222876 0.59701677 0.00000000
vn -0.80222876 0.59701677 0.00000000
vn 0.80222876 -0.59701677 0.00000000
vn -0.03341495 0.99944156 0.00000000
vn -0.03341495 0.99944156 0.00000000
vn 0.03341495 -0.99944156 0.00000000
vn 0.03341495 -0.99944156 0.00000000
vn -0.03341495 0.99944156 0.00000000
vn -0.03341495 0.99944156 0.00000000
vn 0.03341495 -0.99944156 0.00000000
vn 0.03341495 -0.99944156 0.00000000
vn 0.40353562 0.91496394 0.00000000
vn 0.40353562 0.91496394 0.00000000
vn -0.40353562 -0.91496394 0.00000000
vn -0.40353562 -0.91496394 0.00000000
vn 0.40353562 0.91496394 0.00000000
vn 0.40353562 0.91496394 0.00000000
vn -0.40353562 -0.91496394 0.00000000
vn -0.40353562 -0.91496394 0.00000000
vn 0.76056099 0.64926649 0.00000000
vn 0.76056099 0.64926649 0.00000000
vn -0.76056099 -0.64926649 0.00000000
vn -0.76056099 -0.64926649 0.00000000
vn -0.76056099 -0.64926649 0.00000000
vn 0.76056099 0.64926649 0.00000000
vn 0.76056099 0.64926649 0.00000000
vn -0.76056099 -0.64926649 0.00000000
vn -0.46374731 0.88596751 0.00000000
vn 0.46374731 -0.88596751 0.00000000
vn 0.46374731 -0.88596751 0.00000000
vn -0.46374731 0.88596751 0.00000000
vn -0.46374731 0.88596751 0.00000000
vn 0.46374731 -0.88596751 0.00000000
vn 0.46374731 -0.88596751 0.00000000
vn -0.46374731 0.88596751 0.00000000
vn -0.98181900 0.18981950 0.00000000
vn 0.98181900 -0.18981950 0.00000000
vn -0.98181900 0.18981950 0.00000000
vn 0.98181900 -0.18981950 0.00000000
vn 0.98181900 -0.18981950 0.00000000
vn -0.98181900 0.18981950 0.00000000
vn 0.98181900 -0.18981950 0.00000000
vn -0.98181900 0.18981950 0.00000000
vt 0.00000000 0.40000000
vt 0.00000000 0.40000000
vt 0.02916667 0.00000000
vt 0.02916667 0.00000000
vt 0.02916667 0.40000000
vt 0.02916667 0.40000000
vt 0.00000000 0.00000000
vt 0.00000000 0.00000000
vt 0.00000000 1.33333300
vt 0.00000000 1.33333300
vt -0.02916667 0.00000000
vt -0.02916667 0.00000000
vt 0.00000000 0.00000000
vt 0.00000000 0.00000000
vt -0.02916667 1.33333300
vt -0.02916667 1.33333300
vt -0.40000000 1.33333300
vt -0.40000000 1.33333300
vt 0.00000000 0.00000000
vt 0.00000000 0.00000000
vt 0.00000000 1.33333300
vt 0.00000000 1.33333300
vt -0.36328420 0.57367900
vt -0.36328420 0.57367900
vt -0.36482400 0.57951850
vt -0.36482400 0.57951850
vt -0.37034960 0.58195550
vt -0.37034960 0.58195550
vt -0.37570010 0.57915490
vt -0.37570010 0.57915490
vt -0.37684640 0.57322550
vt -0.37684640 0.57322550
vt -0.40000000 0.00000000
vt -0.40000000 0.00000000
vt -0.36688970 0.56883420
vt -0.36688970 0.56883420
vt -0.37292540 0.56863240
vt -0.37292540 0.56863240
vt 0.02916667 1.33333300
vt 0.02916667 1.33333300
vt 0.00000000 0.00000000
vt 0.00000000 0.00000000
vt 0.02916667 0.00000000
vt 0.02916667 0.00000000
vt 0.00000000 1.33333300
vt 0.00000000 1.33333300
vt 0.40000000 0.00000000
vt 0.40000000 0.00000000
vt 0.00000000 1.33333300
vt 0.00000000 1.33333300
vt 0.00000000 0.00000000
vt 0.00000000 0.00000000
vt 0.36307790 0.57322550
vt 0.36307790 0.57322550
vt 0.36699890 0.56863240
vt 0.36699890 0.56863240
vt 0.37303460 0.56883420
vt 0.37303460 0.56883420
vt 0.37664010 0.57367900
vt 0.37664010 0.57367900
vt 0.40000000 1.33333300
vt 0.40000000 1.33333300
vt 0.36422420 0.57915490
vt 0.36422420 0.57915490
vt 0.36957470 0.58195550
vt 0.36957470 0.58195550
vt 0.37510030 0.57951850
vt 0.37510030 0.57951850
vt 0.00000000 0.00000000
vt 0.00000000 0.00000000
vt -0.02916667 0.40000000
vt -0.02916667 0.40000000
vt -0.02916667 0.00000000
vt -0.02916667 0.00000000
vt 0.00000000 0.40000000
vt 0.00000000 0.40000000
vt -0.00301956 0.00833333
vt 0.00301956 0.00833333
vt 0.00301956 0.00833333
vt -0.00301956 0.00833333
vt -0.00301956 0.00000000
vt 0.00301956 0.00000000
vt 0.00301956 0.00000000
vt -0.00301956 0.00000000
vt 0.00301956 0.00833333
vt -0.00301956 0.00833333
vt 0.00301956 0.00833333
vt -0.00301956 0.00833333
vt -0.00301956 0.00000000
vt -0.00301956 0.00000000
vt 0.00301956 0.00000000
vt 0.00301956 0.00000000
vt 0.00301956 0.00000000
vt -0.00301956 0.00000000
vt 0.00301956 0.00000000
vt -0.00301956 0.00000000
vt -0.00301956 0.00833333
vt 0.00301956 0.00833333
vt -0.00301956 0.00833333
vt 0.00301956 0.00833333
vt -0.00301956 0.00000000
vt 0.00301956 0.00000000
vt -0.00301956 0.00000000
vt 0.00301956 0.00000000
vt -0.00301956 0.00833333
vt 0.00301956 0.00833333
vt -0.00301956 0.00833333
vt 0.00301956 0.00833333
vt -0.00301956 0.00000000
vt 0.00301956 0.00000000
vt -0.00301956 0.00000000
vt 0.00301956 0.00000000
vt 0.00301956 0.00833333
vt 0.00301956 0.00833333
vt -0.00301956 0.00833333
vt -0.00301956 0.00833333
vt 0.00301956 0.00833333
vt -0.00301956 0.00833333
vt 0.00301956 0.00833333
vt -0.00301956 0.00833333
vt -0.00301956 0.00000000
vt 0.00301956 0.00000000
vt -0.00301956 0.00000000
vt 0.00301956 0.00000000
vt -0.00301956 0.00833333
vt 0.00301956 0.00833333
vt 0.00301956 0.00833333
vt -0.00301956 0.00833333
vt -0.00301956 0.00000000
vt 0.00301956 0.00000000
vt 0.00301956 0.00000000
vt -0.00301956 0.00000000
vt -0.00301956 0.00833333
vt 0.00301956 0.00833333
vt 0.00301956 0.00833333
vt -0.00301956 0.00833333
vt -0.00301956 0.00000000
vt 0.00301956 0.00000000
vt 0.00301956 0.00000000
vt -0.00301956 0.00000000
vt 0.00301956 0.00833333
vt -0.00301956 0.00833333
vt 0.00301956 0.00833333
vt -0.00301956 0.00833333
vt -0.00301956 0.00000000
vt -0.00301956 0.00000000
vt 0.00301956 0.00000000
vt 0.00301956 0.00000000
vt 0.00301956 0.00000000
vt -0.00301956 0.00000000
vt 0.00301956 0.00000000
vt -0.00301956 0.00000000
vt -0.00301956 0.00833333
vt 0.00301956 0.00833333
vt -0.00301956 0.00833333
vt 0.00301956 0.00833333
vt -0.00301956 0.00000000
vt 0.00301956 0.00000000
vt -0.00301956 0.00000000
vt 0.00301956 0.00000000
vt -0.00301956 0.00833333
vt 0.00301956 0.00833333
vt -0.00301956 0.00833333
vt 0.00301956 0.00833333
vt -0.00301956 0.00000000
vt 0.00301956 0.00000000
vt -0.00301956 0.00000000
vt 0.00301956 0.00000000
vt 0.00301956 0.00833333
vt 0.00301956 0.00833333
vt -0.00301956 0.00833333
vt -0.00301956 0.00833333
vt 0.00301956 0.00833333
vt -0.00301956 0.00833333
vt 0.00301956 0.00833333
vt -0.00301956 0.00833333
vt -0.00301956 0.00000000
vt 0.00301956 0.00000000
vt -0.00301956 0.00000000
vt 0.00301956 0.00000000
vt -0.00301956 0.00833333
vt 0.00301956 0.00833333
vt 0.00301956 0.00833333
vt -0.00301956 0.00833333
vt -0.00301956 0.00000000
vt 0.00301956 0.00000000
vt 0.00301956 0.00000000
vt -0.00301956 0.00000000
f 1/1/1 4/4/4 6/6/6
f 5/5/5 3/3/3 2/2/2
f 4/4/4 1/1/1 8/8/8
f 7/7/7 2/2/2 3/3/3
f 9/9/9 11/11/11 14/14/14
f 13/13/13 12/12/12 10/10/10
f 11/11/11 9/9/9 15/15/15
f 16/16/16 10/10/10 12/12/12
f 18/18/18 20/20/20 22/22/22
f 21/21/21 19/19/19 17/17/17
f 20/20/20 18/18/18 24/24/24
f 23/23/23 17/17/17 19/19/19
f 24/24/24 18/18/18 26/26/26
f 25/25/25 17/17/17 23/23/23
f 26/26/26 18/18/18 28/28/28
f 27/27/27 17/17/17 25/25/25
f 28/28/28 18/18/18 30/30/30
f 29/29/29 17/17/17 27/27/27
f 30/30/30 18/18/18 32/32/32
f 31/31/31 17/17/17 29/29/29
f 24/24/24 34/34/34 20/20/20
f 19/19/19 33/33/33 23/23/23
f 34/34/34 24/24/24 36/36/36
f 35/35/35 23/23/23 33/33/33
f 34/34/34 36/36/36 38/38/38
f 37/37/37 35/35/35 33/33/33
f 34/34/34 38/38/38 32/32/32
f 31/31/31 37/37/37 33/33/33
f 34/34/34 32/32/32 18/18/18
f 17/17/17 31/31/31 33/33/33
f 40/40/40 41/41/41 43/43/43
f 44/44/44 42/42/42 39/39/39
f 41/41/41 40/40/40 46/46/46
f 45/45/45 39/39/39 42/42/42
f 48/48/48 49/49/49 51/51/51
f 52/52/52 50/50/50 47/47/47
f 49/49/49 48/48/48 53/53/53
f 54/54/54 47/47/47 50/50/50
f 53/53/53 48/48/48 56/56/56
f 55/55/55 47/47/47 54/54/54
f 56/56/56 48/48/48 58/58/58
f 57/57/57 47/47/47 55/55/55
f 58/58/58 48/48/48 59/59/59
f 60/60/60 47/47/47 57/57/57
f 53/53/53 62/62/62 49/49/49
f 50/50/50 61/61/61 54/54/54
f 62/62/62 53/53/53 64/64/64
f 63/63/63 54/54/54 61/61/61
f 62/62/62 64/64/64 66/66/66
f 65/65/65 63/63/63 61/61/61
f 62/62/62 66/66/66 68/68/68
f 67/67/67 65/65/65 61/61/61
f 62/62/62 68/68/68 59/59/59
f 60/60/60 67/67/67 61/61/61
f 62/62/62 59/59/59 48/48/48
f 47/47/47 60/60/60 61/61/61
f 70/70/70 72/72/72 74/74/74
f 73/73/73 71/71/71 69/69/69
f 72/72/72 70/70/70 75/75/75
f 76/76/76 69/69/69 71/71/71
f 77/77/77 83/83/83 87/87/87
f 85/85/85 82/82/82 80/80/80
f 83/83/83 77/77/77 90/90/90
f 89/89/89 80/80/80 82/82/82
f 78/78/78 94/94/94 91/91/91
f 92/92/92 96/96/96 79/79/79
f 94/94/94 78/78/78 97/97/97
f 99/99/99 79/79/79 96/96/96
f 88/88/88 104/104/104 108/108/108
f 106/106/106 102/102/102 86/86/86
f 104/104/104 88/88/88 84/84/84
f 81/81/81 86/86/86 102/102/102
f 98/98/98 109/109/109 93/93/93
f 95/95/95 111/111/111 100/100/100
f 109/109/109 98/98/98 115/115/115
f 116/116/116 100/100/100 111/111/111
f 119/119/119 103/103/103 122/122/122
f 124/124/124 101/101/101 117/117/117
f 103/103/103 119/119/119 107/107/107
f 105/105/105 117/117/117 101/101/101
f 110/110/110 128/128/128 129/129/129
f 132/132/132 125/125/125 112/112/112
f 128/128/128 110/110/110 114/114/114
f 113/113/113 112/112/112 125/125/125
f 131/131/131 118/118/118 123/123/123
f 121/121/121 120/120/120 130/130/130
f 118/118/118 131/131/131 126/126/126
f 127/127/127 130/130/130 120/120/120
f 133/133/133 139/139/139 143/143/143
f 141/141/141 138/138/138 136/136/136
f 139/139/139 133/133/133 146/146/146
f 145/145/145 136/136/136 138/138/138
f 134/134/134 150/150/150 147/147/147
f 148/148/148 152/152/152 135/135/135
f 150/150/150 134/134/134 153/153/153
f 155/155/155 135/135/135 152/152/152
f 144/144/144 160/160/160 164/164/164
f 162/162/162 158/158/158 142/142/142
f 160/160/160 144/144/144 140/140/140
f 137/137/137 142/142/142 158/158/158
f 154/154/154 165/165/165 149/149/149
f 151/151/151 167/167/167 156/156/156
f 165/165/165 154/154/154 171/171/171
f 172/172/172 156/156/156 167/167/167
f 175/175/175 159/159/159 178/178/178
f 180/180/180 157/157/157 173/173/173
f 159/159/159 175/175/175 163/163/163
f 161/161/161 173/173/173 157/157/157
f 166/166/166 184/184/184 185/185/185
f 188/188/188 181/181/181 168/168/168
f 184/184/184 166/166/166 170/170/170
f 169/169/169 168/168/168 181/181/181
f 187/187/187 174/174/174 179/179/179
f 177/177/177 176/176/176 186/186/186
f 174/174/174 187/187/187 182/182/182
f 183/183/183 186/186/186 176/176/176

