# https://github.com/mikedh/trimesh
mtllib material.mtl
usemtl material_0
v 0.39188400 -0.88150600 -0.12440900
v 0.39188400 -0.67516300 -0.05736400
v 0.39188400 -0.78922700 -0.05736400
v 0.39188400 -0.58288400 -0.12440900
v 0.39188400 -0.91675300 -0.23288900
v 0.39188400 -0.54763700 -0.23288900
v 0.39188400 -0.88150600 -0.34137000
v 0.39188400 -0.58288400 -0.34137000
v 0.39188400 -0.78922700 -0.40841500
v 0.39188400 -0.67516300 -0.40841500
v 0.39188400 -0.67516300 -0.40841500
v 0.39188400 -0.78922700 -0.40841500
v 0.39188400 -0.58288400 -0.34137000
v 0.39188400 -0.88150600 -0.34137000
v 0.39188400 -0.54763700 -0.23288900
v 0.39188400 -0.91675300 -0.23288900
v 0.39188400 -0.58288400 -0.12440900
v 0.39188400 -0.88150600 -0.12440900
v 0.39188400 -0.67516300 -0.05736400
v 0.39188400 -0.78922700 -0.05736400
v 0.39188400 -0.91675300 -0.23288900
v 0.39188400 -0.91675300 -0.23288900
v 0.39188400 -0.88150600 -0.34137000
v 0.39188400 -0.88150600 -0.34137000
v 0.35804700 -0.91675300 -0.23288900
v 0.35804700 -0.91675300 -0.23288900
v 0.35804700 -0.88150600 -0.34137000
v 0.35804700 -0.88150600 -0.34137000
v 0.39188400 -0.78922700 -0.40841500
v 0.39188400 -0.78922700 -0.40841500
v 0.35804700 -0.78922700 -0.40841500
v 0.35804700 -0.78922700 -0.40841500
v 0.39188400 -0.88150600 -0.12440900
v 0.39188400 -0.88150600 -0.12440900
v 0.35804700 -0.88150600 -0.12440900
v 0.35804700 -0.88150600 -0.12440900
v 0.39188400 -0.67516300 -0.40841500
v 0.39188400 -0.67516300 -0.40841500
v 0.35804700 -0.67516300 -0.40841500
v 0.35804700 -0.67516300 -0.40841500
v 0.39188400 -0.78922700 -0.05736400
v 0.39188400 -0.78922700 -0.05736400
v 0.35804700 -0.78922700 -0.05736400
v 0.35804700 -0.78922700 -0.05736400
v 0.39188400 -0.58288400 -0.34137000
v 0.39188400 -0.58288400 -0.34137000
v 0.35804700 -0.58288400 -0.34137000
v 0.35804700 -0.58288400 -0.34137000
v 0.39188400 -0.67516300 -0.05736400
v 0.39188400 -0.67516300 -0.05736400
v 0.35804700 -0.67516300 -0.05736400
v 0.35804700 -0.67516300 -0.05736400
v 0.39188400 -0.54763700 -0.23288900
v 0.39188400 -0.54763700 -0.23288900
v 0.35804700 -0.54763700 -0.23288900
v 0.35804700 -0.54763700 -0.23288900
v 0.39188400 -0.58288400 -0.12440900
v 0.39188400 -0.58288400 -0.12440900
v 0.35804700 -0.58288400 -0.12440900
v 0.35804700 -0.58288400 -0.12440900
v 0.39188400 -0.88150600 -0.34137000
v 0.35804700 -0.91675300 -0.23288900
v 0.35804700 -0.88150600 -0.34137000
v 0.39188400 -0.91675300 -0.23288900
v 0.35804700 -0.78922700 -0.40841500
v 0.39188400 -0.78922700 -0.40841500
v 0.35804700 -0.88150600 -0.12440900
v 0.39188400 -0.88150600 -0.12440900
v 0.35804700 -0.67516300 -0.40841500
v 0.39188400 -0.67516300 -0.40841500
v 0.35804700 -0.78922700 -0.05736400
v 0.39188400 -0.78922700 -0.05736400
v 0.35804700 -0.58288400 -0.34137000
v 0.39188400 -0.58288400 -0.34137000
v 0.35804700 -0.67516300 -0.05736400
v 0.39188400 -0.67516300 -0.05736400
v 0.39188400 -0.54763700 -0.23288900
v 0.35804700 -0.54763700 -0.23288900
v 0.35804700 -0.58288400 -0.12440900
v 0.39188400 -0.58288400 -0.12440900
v 0.35804700 -0.67516300 -0.40841500
v 0.35804700 -0.78922700 -0.40841500
v 0.35804700 -0.58288400 -0.34137000
v 0.35804700 -0.88150600 -0.34137000
v 0.35804700 -0.54763700 -0.23288900
v 0.35804700 -0.91675300 -0.23288900
v 0.35804700 -0.58288400 -0.12440900
v 0.35804700 -0.88150600 -0.12440900
v 0.35804700 -0.67516300 -0.05736400
v 0.35804700 -0.78922700 -0.05736400
v 0.35804700 -0.88150600 -0.12440900
v 0.35804700 -0.67516300 -0.05736400
v 0.35804700 -0.78922700 -0.05736400
v 0.35804700 -0.58288400 -0.12440900
v 0.35804700 -0.91675300 -0.23288900
v 0.35804700 -0.54763700 -0.23288900
v 0.35804700 -0.88150600 -0.34137000
v 0.35804700 -0.58288400 -0.34137000
v 0.35804700 -0.78922700 -0.40841500
v 0.35804700 -0.67516300 -0.40841500
vn 1.00000000 0.00000000 0.00000000
vn 1.00000000 0.00000000 0.00000000
vn 1.00000000 0.00000000 0.00000000
vn 1.00000000 0.00000000 0.00000000
vn 1.00000000 0.00000000 0.00000000
vn 1.00000000 0.00000000 0.00000000
vn 1.00000000 0.00000000 0.00000000
vn 1.00000000 0.00000000 0.00000000
vn 1.00000000 0.00000000 0.00000000
vn 1.00000000 0.00000000 0.00000000
vn -1.00000000 0.00000000 0.00000000
vn -1.00000000 0.00000000 0.00000000
vn -1.00000000 0.00000000 0.00000000
vn -1.00000000 0.00000000 0.00000000
vn -1.00000000 0.00000000 0.00000000
vn -1.00000000 0.00000000 0.00000000
vn -1.00000000 0.00000000 0.00000000
vn -1.00000000 0.00000000 0.00000000
vn -1.00000000 0.00000000 0.00000000
vn -1.00000000 0.00000000 0.00000000
vn 0.00000000 0.95105726 -0.30901471
vn 0.00000000 0.95105810 0.30901213
vn 0.00000000 0.95105810 0.30901213
vn 0.00000000 0.58778744 0.80901540
vn 0.00000000 0.95105726 -0.30901471
vn 0.00000000 0.95105810 0.30901213
vn 0.00000000 0.58778744 0.80901540
vn 0.00000000 0.95105810 0.30901213
vn 0.00000000 0.58778744 0.80901540
vn 0.00000000 0.00000000 1.00000000
vn 0.00000000 0.58778744 0.80901540
vn 0.00000000 0.00000000 1.00000000
vn 0.00000000 0.58778744 -0.80901540
vn 0.00000000 0.95105726 -0.30901471
vn 0.00000000 0.58778744 -0.80901540
vn 0.00000000 0.95105726 -0.30901471
vn 0.00000000 0.00000000 1.00000000
vn 0.00000000 -0.58778744 0.80901540
vn 0.00000000 -0.58778744 0.80901540
vn 0.00000000 0.00000000 1.00000000
vn 0.00000000 0.58778744 -0.80901540
vn 0.00000000 0.00000000 -1.00000000
vn 0.00000000 0.00000000 -1.00000000
vn 0.00000000 0.58778744 -0.80901540
vn 0.00000000 -0.95105810 0.30901213
vn 0.00000000 -0.58778744 0.80901540
vn 0.00000000 -0.95105810 0.30901213
vn 0.00000000 -0.58778744 0.80901540
vn 0.00000000 -0.58778744 -0.80901540
vn 0.00000000 0.00000000 -1.00000000
vn 0.00000000 -0.58778744 -0.80901540
vn 0.00000000 0.00000000 -1.00000000
vn 0.00000000 -0.95105726 -0.30901471
vn 0.00000000 -0.95105810 0.30901213
vn 0.00000000 -0.95105726 -0.30901471
vn 0.00000000 -0.95105810 0.30901213
vn 0.00000000 -0.95105726 -0.30901471
vn 0.00000000 -0.58778744 -0.80901540
vn 0.00000000 -0.95105726 -0.30901471
vn 0.00000000 -0.58778744 -0.80901540
vn 0.00000000 -0.80901929 -0.58778209
vn 0.00000000 -1.00000000 0.00000135
vn 0.00000000 -0.80901929 -0.58778209
vn 0.00000000 -1.00000000 0.00000135
vn 0.00000000 -0.30901828 -0.95105610
vn 0.00000000 -0.30901828 -0.95105610
vn 0.00000000 -0.80901850 0.58778318
vn 0.00000000 -0.80901850 0.58778318
vn 0.00000000 0.30901828 -0.95105610
vn 0.00000000 0.30901828 -0.95105610
vn 0.00000000 -0.30901828 0.95105610
vn 0.00000000 -0.30901828 0.95105610
vn 0.00000000 0.80901929 -0.58778209
vn 0.00000000 0.80901929 -0.58778209
vn 0.00000000 0.30901828 0.95105610
vn 0.00000000 0.30901828 0.95105610
vn 0.00000000 1.00000000 0.00000135
vn 0.00000000 1.00000000 0.00000135
vn 0.00000000 0.80901850 0.58778318
vn 0.00000000 0.80901850 0.58778318
vn -1.00000000 0.00000000 0.00000000
vn -1.00000000 0.00000000 0.00000000
vn -1.00000000 0.00000000 0.00000000
vn -1.00000000 0.00000000 0.00000000
vn -1.00000000 0.00000000 0.00000000
vn -1.00000000 0.00000000 0.00000000
vn -1.00000000 0.00000000 0.00000000
vn -1.00000000 0.00000000 0.00000000
vn -1.00000000 0.00000000 0.00000000
vn -1.00000000 0.00000000 0.00000000
vn 1.00000000 0.00000000 0.00000000
vn 1.00000000 0.00000000 0.00000000
vn 1.00000000 0.00000000 0.00000000
vn 1.00000000 0.00000000 0.00000000
vn 1.00000000 0.00000000 0.00000000
vn 1.00000000 0.00000000 0.00000000
vn 1.00000000 0.00000000 0.00000000
vn 1.00000000 0.00000000 0.00000000
vn 1.00000000 0.00000000 0.00000000
vn 1.00000000 0.00000000 0.00000000
vt 0.11719280 0.06274702
vt 0.02779186 0.33788967
vt 0.02779186 0.18579389
vt 0.11719280 0.46093655
vt 0.26184178 0.01959325
vt 0.26184178 0.01959325
vt 0.40649077 0.06274702
vt 0.40649077 0.46093655
vt 0.49589170 0.18579389
vt 0.49589170 0.33788967
vt 0.49589170 0.33788967
vt 0.49589170 0.18579389
vt 0.40649077 0.46093655
vt 0.40649077 0.06274702
vt 0.26184178 0.01959325
vt 0.26184178 0.01959325
vt 0.11719280 0.46093655
vt 0.11719280 0.06274702
vt 0.02779186 0.33788967
vt 0.02779186 0.18579389
vt 0.43402373 0.22833858
vt 0.04452623 0.29534498
vt 0.04452623 0.44744077
vt 0.04452623 0.49959295
vt 0.38890491 0.22833858
vt 0.08964506 0.29534498
vt 0.08964506 0.49959295
vt 0.08964506 0.44744077
vt 0.04452623 0.15950123
vt 0.04452623 0.18579389
vt 0.08964506 0.15950123
vt 0.08964506 0.18579389
vt 0.43402373 0.27017944
vt 0.43402373 0.38042944
vt 0.38890491 0.27018436
vt 0.38890491 0.38042944
vt 0.04452623 0.33788967
vt 0.04452623 0.27018436
vt 0.08964506 0.27018436
vt 0.08964506 0.33788967
vt 0.43402373 0.42227522
vt 0.43402373 0.18579389
vt 0.38890491 0.18579389
vt 0.38890491 0.42227522
vt 0.04452623 0.22833858
vt 0.04452623 0.42227522
vt 0.08964506 0.22833858
vt 0.08964506 0.42227522
vt 0.43402373 0.49959295
vt 0.43402373 0.33788967
vt 0.38890491 0.49959295
vt 0.38890491 0.33788967
vt 0.43402373 0.44744077
vt 0.04452623 0.38042944
vt 0.38890491 0.44744077
vt 0.08964506 0.38042944
vt 0.43402373 0.29534498
vt 0.43402373 0.15950123
vt 0.38890491 0.29534498
vt 0.38890491 0.15950123
vt 0.55508735 0.01965428
vt 0.55508735 0.01965428
vt 0.55508735 0.01965428
vt 0.55508735 0.01965428
vt 0.55508735 0.01965428
vt 0.55508735 0.01965428
vt 0.55508735 0.01965428
vt 0.55508735 0.01965428
vt 0.55508735 0.01965428
vt 0.55508735 0.01965428
vt 0.55508735 0.01965428
vt 0.55508735 0.01965428
vt 0.55508735 0.01965428
vt 0.55508735 0.01965428
vt 0.55508735 0.01965428
vt 0.55508735 0.01965428
vt 0.55508735 0.01965428
vt 0.55508735 0.01965428
vt 0.55508735 0.01965428
vt 0.55508735 0.01965428
vt 0.49589170 0.33788967
vt 0.49589170 0.18579389
vt 0.40649077 0.46093655
vt 0.40649077 0.06274702
vt 0.26184178 0.01959325
vt 0.26184178 0.01959325
vt 0.11719280 0.46093655
vt 0.11719280 0.06274702
vt 0.02779186 0.33788967
vt 0.02779186 0.18579389
vt 0.55508735 0.01965428
vt 0.55508735 0.01965428
vt 0.55508735 0.01965428
vt 0.55508735 0.01965428
vt 0.55508735 0.01965428
vt 0.55508735 0.01965428
vt 0.55508735 0.01965428
vt 0.55508735 0.01965428
vt 0.55508735 0.01965428
vt 0.55508735 0.01965428
f 1/1/1 2/2/2 3/3/3
f 2/2/2 1/1/1 4/4/4
f 4/4/4 1/1/1 5/5/5
f 4/4/4 5/5/5 6/6/6
f 6/6/6 5/5/5 7/7/7
f 6/6/6 7/7/7 8/8/8
f 8/8/8 7/7/7 9/9/9
f 8/8/8 9/9/9 10/10/10
f 11/11/11 12/12/12 13/13/13
f 12/12/12 14/14/14 13/13/13
f 13/13/13 14/14/14 15/15/15
f 14/14/14 16/16/16 15/15/15
f 15/15/15 16/16/16 17/17/17
f 16/16/16 18/18/18 17/17/17
f 17/17/17 18/18/18 19/19/19
f 20/20/20 19/19/19 18/18/18
f 22/22/22 23/23/23 26/26/26
f 28/28/28 26/26/26 23/23/23
f 29/29/29 31/31/31 24/24/24
f 27/27/27 24/24/24 31/31/31
f 34/34/34 21/21/21 36/36/36
f 25/25/25 36/36/36 21/21/21
f 37/37/37 40/40/40 30/30/30
f 32/32/32 30/30/30 40/40/40
f 41/41/41 33/33/33 44/44/44
f 35/35/35 44/44/44 33/33/33
f 46/46/46 48/48/48 38/38/38
f 39/39/39 38/38/38 48/48/48
f 50/50/50 42/42/42 52/52/52
f 43/43/43 52/52/52 42/42/42
f 45/45/45 54/54/54 47/47/47
f 56/56/56 47/47/47 54/54/54
f 58/58/58 49/49/49 60/60/60
f 51/51/51 60/60/60 49/49/49
f 53/53/53 57/57/57 55/55/55
f 59/59/59 55/55/55 57/57/57
f 61/61/61 62/62/62 63/63/63
f 62/62/62 61/61/61 64/64/64
f 65/65/65 61/61/61 63/63/63
f 61/61/61 65/65/65 66/66/66
f 64/64/64 67/67/67 62/62/62
f 67/67/67 64/64/64 68/68/68
f 69/69/69 66/66/66 65/65/65
f 66/66/66 69/69/69 70/70/70
f 68/68/68 71/71/71 67/67/67
f 71/71/71 68/68/68 72/72/72
f 73/73/73 70/70/70 69/69/69
f 70/70/70 73/73/73 74/74/74
f 72/72/72 75/75/75 71/71/71
f 75/75/75 72/72/72 76/76/76
f 77/77/77 73/73/73 78/78/78
f 73/73/73 77/77/77 74/74/74
f 76/76/76 79/79/79 75/75/75
f 79/79/79 76/76/76 80/80/80
f 80/80/80 78/78/78 79/79/79
f 78/78/78 80/80/80 77/77/77
f 81/81/81 82/82/82 83/83/83
f 82/82/82 84/84/84 83/83/83
f 83/83/83 84/84/84 85/85/85
f 84/84/84 86/86/86 85/85/85
f 85/85/85 86/86/86 87/87/87
f 86/86/86 88/88/88 87/87/87
f 87/87/87 88/88/88 89/89/89
f 90/90/90 89/89/89 88/88/88
f 91/91/91 92/92/92 93/93/93
f 92/92/92 91/91/91 94/94/94
f 94/94/94 91/91/91 95/95/95
f 94/94/94 95/95/95 96/96/96
f 96/96/96 95/95/95 97/97/97
f 96/96/96 97/97/97 98/98/98
f 98/98/98 97/97/97 99/99/99
f 98/98/98 99/99/99 100/100/100

