# https://github.com/mikedh/trimesh
mtllib material.mtl
usemtl material_0
v 0.34428700 0.71633200 -0.31033700
v -0.33360000 0.69461100 -0.31033700
v -0.33360000 0.71633200 -0.31033700
v 0.34428700 0.69461100 -0.31033700
v 0.34428700 0.69461100 0.25808200
v 0.18625100 0.71941200 0.25808200
v 0.18625100 0.69461100 0.25808200
v 0.34428700 0.71941200 0.25808200
v 0.18625100 0.69461100 0.25808200
v 0.18625100 0.72098000 0.25314200
v 0.18625100 0.69461100 0.25314200
v 0.18625100 0.71941200 0.25808200
v 0.18625100 0.69461100 0.25314200
v -0.13475200 0.72098000 0.25314200
v -0.13475200 0.69461100 0.25314200
v 0.18625100 0.72098000 0.25314200
v -0.13475200 0.72098000 0.25314200
v -0.13475200 0.69461100 0.25808200
v -0.13475200 0.69461100 0.25314200
v -0.13475200 0.71941200 0.25808200
v -0.13475200 0.69461100 0.25808200
v -0.33360000 0.71941200 0.25808200
v -0.33360000 0.69461100 0.25808200
v -0.13475200 0.71941200 0.25808200
v -0.33360000 0.76543200 0.02206600
v 0.34428700 0.76653700 -0.02646900
v -0.33360000 0.76653700 -0.02646900
v 0.34428700 0.76543200 0.02206600
v 0.34428700 0.76490600 -0.07498400
v -0.33360000 0.76490600 -0.07498400
v -0.33360000 0.76159500 0.07042000
v 0.34428700 0.76159500 0.07042000
v 0.34428700 0.76054500 -0.12328100
v -0.33360000 0.76054500 -0.12328100
v -0.33360000 0.75504200 0.11839500
v 0.34428700 0.75504200 0.11839500
v 0.34428700 0.75347300 -0.17116000
v -0.33360000 0.75347300 -0.17116000
v -0.33360000 0.74580000 0.16579300
v 0.34428700 0.74580000 0.16579300
v 0.34428700 0.74371800 -0.21842500
v -0.33360000 0.74371800 -0.21842500
v -0.33360000 0.73390700 0.21241900
v 0.34428700 0.73390700 0.21241900
v 0.34428700 0.73132100 -0.26488100
v -0.33360000 0.73132100 -0.26488100
v -0.33360000 0.71941200 0.25808200
v -0.13475200 0.72098000 0.25314200
v -0.13475200 0.71941200 0.25808200
v 0.18625100 0.72098000 0.25314200
v 0.34428700 0.71941200 0.25808200
v 0.18625100 0.71941200 0.25808200
v 0.34428700 0.71633200 -0.31033700
v -0.33360000 0.71633200 -0.31033700
v 0.03560900 0.75138500 0.11789600
v 0.01562200 0.72098000 0.11789600
v 0.01562200 0.75138500 0.11789600
v 0.03560900 0.72098000 0.11789600
v 0.04490600 0.72098000 0.12130800
v 0.01562200 0.72098000 0.11789600
v 0.03560900 0.72098000 0.11789600
v 0.00632500 0.72098000 0.12130800
v 0.05679900 0.72098000 0.12920400
v -0.00556800 0.72098000 0.12920400
v 0.06653300 0.72098000 0.13964600
v -0.01530100 0.72098000 0.13964600
v 0.07357400 0.72098000 0.15206400
v -0.02234300 0.72098000 0.15206400
v 0.07753800 0.72098000 0.16577800
v -0.02630700 0.72098000 0.16577800
v 0.10030100 0.72098000 0.25314200
v -0.04906900 0.72098000 0.25314200
v -0.01530100 0.75138500 0.13964600
v -0.00556800 0.72098000 0.12920400
v -0.01530100 0.72098000 0.13964600
v -0.00556800 0.75138500 0.12920400
v 0.00632500 0.75138500 0.12130800
v 0.03560900 0.75138500 0.11789600
v 0.01562200 0.75138500 0.11789600
v 0.04490600 0.75138500 0.12130800
v -0.00556800 0.75138500 0.12920400
v 0.05679900 0.75138500 0.12920400
v -0.01530100 0.75138500 0.13964600
v 0.06653300 0.75138500 0.13964600
v -0.02234300 0.75138500 0.15206400
v 0.07357400 0.75138500 0.15206400
v -0.02630700 0.75138500 0.16577800
v 0.07753800 0.75138500 0.16577800
v -0.04906900 0.75138500 0.25314200
v 0.10030100 0.75138500 0.25314200
v -0.03697400 0.75138500 0.25693700
v 0.08820500 0.75138500 0.25693700
v -0.02468700 0.75138500 0.26005800
v 0.07591800 0.75138500 0.26005800
v -0.01224600 0.75138500 0.26249500
v 0.06347800 0.75138500 0.26249500
v 0.05092100 0.75138500 0.26424100
v 0.00031000 0.75138500 0.26424100
v 0.03828800 0.75138500 0.26529100
v 0.01294300 0.75138500 0.26529100
v 0.02561600 0.75138500 0.26564200
v 0.00632500 0.75138500 0.12130800
v 0.00632500 0.72098000 0.12130800
v -0.02234300 0.75138500 0.15206400
v -0.02234300 0.72098000 0.15206400
v -0.02630700 0.75138500 0.16577800
v -0.02630700 0.72098000 0.16577800
v -0.04906900 0.74644300 0.25314200
v -0.04906900 0.72098000 0.25314200
v -0.04906900 0.75138500 0.25314200
v -0.03697400 0.74644300 0.25693700
v -0.04906900 0.75138500 0.25314200
v -0.04906900 0.74644300 0.25314200
v -0.03697400 0.75138500 0.25693700
v -0.02468700 0.74644300 0.26005800
v -0.02468700 0.75138500 0.26005800
v -0.01224600 0.74644300 0.26249500
v -0.01224600 0.75138500 0.26249500
v 0.00031000 0.74644300 0.26424100
v 0.00031000 0.75138500 0.26424100
v 0.01294300 0.74644300 0.26529100
v 0.01294300 0.75138500 0.26529100
v 0.02561600 0.74644300 0.26564200
v 0.02561600 0.75138500 0.26564200
v 0.03828800 0.74644300 0.26529100
v 0.03828800 0.75138500 0.26529100
v 0.05092100 0.74644300 0.26424100
v 0.05092100 0.75138500 0.26424100
v 0.06347800 0.74644300 0.26249500
v 0.06347800 0.75138500 0.26249500
v 0.07591800 0.74644300 0.26005800
v 0.07591800 0.75138500 0.26005800
v 0.08820500 0.74644300 0.25693700
v 0.08820500 0.75138500 0.25693700
v 0.10030100 0.74644300 0.25314200
v 0.10030100 0.75138500 0.25314200
v 0.07753800 0.72098000 0.16577800
v 0.10030100 0.74644300 0.25314200
v 0.10030100 0.72098000 0.25314200
v 0.07753800 0.75138500 0.16577800
v 0.10030100 0.75138500 0.25314200
v 0.07357400 0.75138500 0.15206400
v 0.07357400 0.72098000 0.15206400
v 0.06653300 0.75138500 0.13964600
v 0.06653300 0.72098000 0.13964600
v 0.05679900 0.75138500 0.12920400
v 0.05679900 0.72098000 0.12920400
v 0.04490600 0.72098000 0.12130800
v 0.04490600 0.75138500 0.12130800
v 0.03560900 0.72098000 0.11789600
v 0.03560900 0.75138500 0.11789600
v 0.01562200 0.75138500 0.11789600
v 0.01562200 0.72098000 0.11789600
v -0.04906900 0.72098000 0.25314200
v 0.10030100 0.74644300 0.25314200
v -0.04906900 0.74644300 0.25314200
v 0.10030100 0.72098000 0.25314200
vn 0.00000000 0.00000000 -1.00000000
vn 0.00000000 0.00000000 -1.00000000
vn 0.00000000 0.00000000 -1.00000000
vn 0.00000000 0.00000000 -1.00000000
vn 0.00000000 0.00000000 1.00000000
vn 0.00000000 0.00000000 1.00000000
vn 0.00000000 0.00000000 1.00000000
vn 0.00000000 0.00000000 1.00000000
vn -1.00000000 0.00000000 0.00000000
vn -1.00000000 0.00000000 0.00000000
vn -1.00000000 0.00000000 0.00000000
vn -1.00000000 0.00000000 0.00000000
vn 0.00000000 0.00000000 1.00000000
vn 0.00000000 0.00000000 1.00000000
vn 0.00000000 0.00000000 1.00000000
vn 0.00000000 0.00000000 1.00000000
vn 1.00000000 0.00000000 0.00000000
vn 1.00000000 0.00000000 0.00000000
vn 1.00000000 0.00000000 0.00000000
vn 1.00000000 0.00000000 0.00000000
vn 0.00000000 0.00000000 1.00000000
vn 0.00000000 0.00000000 1.00000000
vn 0.00000000 0.00000000 1.00000000
vn 0.00000000 0.00000000 1.00000000
vn 0.00000000 0.99870107 0.05095267
vn 0.00000000 0.99998530 -0.00542131
vn 0.00000000 0.99998530 -0.00542131
vn 0.00000000 0.99870107 0.05095267
vn 0.00000000 0.99808923 -0.06178915
vn 0.00000000 0.99808923 -0.06178915
vn 0.00000000 0.99423075 0.10726236
vn 0.00000000 0.99423075 0.10726236
vn 0.00000000 0.99300501 -0.11807223
vn 0.00000000 0.99300501 -0.11807223
vn 0.00000000 0.98655575 0.16342504
vn 0.00000000 0.98655575 0.16342504
vn 0.00000000 0.98471112 -0.17419531
vn 0.00000000 0.98471112 -0.17419531
vn 0.00000000 0.97564390 0.21936041
vn 0.00000000 0.97564390 0.21936041
vn 0.00000000 0.97317289 -0.23007505
vn 0.00000000 0.97317289 -0.23007505
vn 0.00000000 0.96145231 0.27497175
vn -0.00000031 0.96145224 0.27497197
vn 0.00000000 0.95834423 -0.28561571
vn 0.00000000 0.95834423 -0.28561571
vn 0.00000003 0.95313143 0.30255656
vn 0.00000062 0.95313104 0.30255779
vn 0.00000000 0.95313840 0.30253462
vn -0.00000005 0.95313319 0.30255102
vn -0.00000074 0.95313158 0.30255610
vn 0.00000000 0.95313840 0.30253462
vn 0.00000000 0.94970000 -0.31316115
vn 0.00000000 0.94970000 -0.31316115
vn 0.00000000 0.00000000 -1.00000000
vn 0.00000000 0.00000000 -1.00000000
vn 0.00000000 0.00000000 -1.00000000
vn 0.00000000 0.00000000 -1.00000000
vn 0.00000000 -1.00000000 0.00000000
vn 0.00000000 -1.00000000 0.00000000
vn 0.00000000 -1.00000000 0.00000000
vn 0.00000000 -1.00000000 0.00000000
vn 0.00000000 -1.00000000 0.00000000
vn 0.00000000 -1.00000000 0.00000000
vn 0.00000000 -1.00000000 0.00000000
vn 0.00000000 -1.00000000 0.00000000
vn 0.00000000 -1.00000000 0.00000000
vn 0.00000000 -1.00000000 0.00000000
vn 0.00000000 -1.00000000 0.00000000
vn 0.00000000 -1.00000000 0.00000000
vn 0.00000000 -1.00000000 0.00000000
vn 0.00000000 -1.00000000 0.00000000
vn -0.80622781 0.00000000 -0.59160521
vn -0.64674647 0.00000000 -0.76270506
vn -0.80622781 0.00000000 -0.59160521
vn -0.64674647 0.00000000 -0.76270506
vn 0.00000000 1.00000000 0.00000000
vn 0.00000000 1.00000000 0.00000000
vn 0.00000000 1.00000000 0.00000000
vn 0.00000000 1.00000000 0.00000000
vn 0.00000000 1.00000000 0.00000000
vn 0.00000000 1.00000000 0.00000000
vn 0.00000000 1.00000000 0.00000000
vn 0.00000000 1.00000000 0.00000000
vn 0.00000000 1.00000000 0.00000000
vn 0.00000000 1.00000000 0.00000000
vn 0.00000000 1.00000000 0.00000000
vn 0.00000000 1.00000000 0.00000000
vn 0.00000000 1.00000000 0.00000000
vn 0.00000000 1.00000000 0.00000000
vn 0.00000000 1.00000000 0.00000000
vn 0.00000000 1.00000000 0.00000000
vn 0.00000000 1.00000000 0.00000000
vn 0.00000000 1.00000000 0.00000000
vn 0.00000000 1.00000000 0.00000000
vn 0.00000000 1.00000000 0.00000000
vn 0.00000000 1.00000000 0.00000000
vn 0.00000000 1.00000000 0.00000000
vn 0.00000000 1.00000000 0.00000000
vn 0.00000000 1.00000000 0.00000000
vn 0.00000000 1.00000000 0.00000000
vn -0.45188201 0.00000000 -0.89207772
vn -0.45188201 0.00000000 -0.89207772
vn -0.92160080 0.00000000 -0.38813910
vn -0.92160080 0.00000000 -0.38813910
vn -0.96426628 0.00000000 -0.26493499
vn -0.96426628 0.00000000 -0.26493499
vn -0.96769358 0.00000000 -0.25212920
vn -0.96769358 0.00000000 -0.25212920
vn -0.96769358 0.00000000 -0.25212920
vn -0.27288210 0.00000000 0.96204748
vn -0.29936430 0.00000000 0.95413889
vn -0.29936430 0.00000000 0.95413889
vn -0.27288210 0.00000000 0.96204748
vn -0.21931280 0.00000000 0.97565460
vn -0.21931280 0.00000000 0.97565460
vn -0.16507349 0.00000000 0.98628127
vn -0.16507349 0.00000000 0.98628127
vn -0.11032990 0.00000000 0.99389502
vn -0.11032990 0.00000000 0.99389502
vn -0.05524936 0.00000000 0.99847259
vn -0.05524936 0.00000000 0.99847259
vn 0.00000000 0.00000000 1.00000000
vn 0.00000000 0.00000000 1.00000000
vn 0.05524936 0.00000000 0.99847259
vn 0.05524936 0.00000000 0.99847259
vn 0.11032990 0.00000000 0.99389502
vn 0.11032990 0.00000000 0.99389502
vn 0.16507349 0.00000000 0.98628127
vn 0.16507349 0.00000000 0.98628127
vn 0.21931280 0.00000000 0.97565460
vn 0.21931280 0.00000000 0.97565460
vn 0.27288210 0.00000000 0.96204748
vn 0.27288210 0.00000000 0.96204748
vn 0.29936430 0.00000000 0.95413889
vn 0.29936430 0.00000000 0.95413889
vn 0.96426628 0.00000000 -0.26493499
vn 0.96769358 0.00000000 -0.25212920
vn 0.96769358 0.00000000 -0.25212920
vn 0.96426628 0.00000000 -0.26493499
vn 0.96769358 0.00000000 -0.25212920
vn 0.92160080 0.00000000 -0.38813910
vn 0.92160080 0.00000000 -0.38813910
vn 0.80622781 0.00000000 -0.59160521
vn 0.80622781 0.00000000 -0.59160521
vn 0.64674647 0.00000000 -0.76270506
vn 0.64674647 0.00000000 -0.76270506
vn 0.45188201 0.00000000 -0.89207772
vn 0.45188201 0.00000000 -0.89207772
vn 0.34445239 0.00000000 -0.93880379
vn 0.34445239 0.00000000 -0.93880379
vn -0.34445239 0.00000000 -0.93880379
vn -0.34445239 0.00000000 -0.93880379
vn 0.00000000 0.00000000 1.00000000
vn 0.00000000 0.00000000 1.00000000
vn 0.00000000 0.00000000 1.00000000
vn 0.00000000 0.00000000 1.00000000
vt 0.52833157 0.09971814
vt 0.00488684 0.00971814
vt 0.52833157 0.00971814
vt 0.00488684 0.09971814
vt 0.14943456 0.43713874
vt 0.00487761 0.49985575
vt 0.00487761 0.43713874
vt 0.14943456 0.49985575
vt 0.28522218 0.43711703
vt 0.28424562 0.48815870
vt 0.28424562 0.43711703
vt 0.28522218 0.48672918
vt 0.31153722 0.33127997
vt 0.00488431 0.41348106
vt 0.00488431 0.33127997
vt 0.31153722 0.41348106
vt 0.29549902 0.48815870
vt 0.29549902 0.43711703
vt 0.29549902 0.43711703
vt 0.29549902 0.48672918
vt 0.47622880 0.33125638
vt 0.32386064 0.39397340
vt 0.32386064 0.33125638
vt 0.47622880 0.39397340
vt 0.31115424 0.12348189
vt 0.26629366 0.30715536
vt 0.26629366 0.12348189
vt 0.31115424 0.30715536
vt 0.22145078 0.30715536
vt 0.22145078 0.12348189
vt 0.35584807 0.12348189
vt 0.35584807 0.30715536
vt 0.17681012 0.30715536
vt 0.17681012 0.12348189
vt 0.40019124 0.12348189
vt 0.40019124 0.30715536
vt 0.13255532 0.30715536
vt 0.13255532 0.12348189
vt 0.44400136 0.12348189
vt 0.44400136 0.30715536
vt 0.08886835 0.30715536
vt 0.08886835 0.12348189
vt 0.48709821 0.12348189
vt 0.48709821 0.30715536
vt 0.04592902 0.30715536
vt 0.04592902 0.12348189
vt 0.52833157 0.12348189
vt 0.52473819 0.17656903
vt 0.52833157 0.17656903
vt 0.52473819 0.26535679
vt 0.52833157 0.30715536
vt 0.52833157 0.26535679
vt 0.00488684 0.30715536
vt 0.00488684 0.12348189
vt 0.16144623 0.49999234
vt 0.16144623 0.49999234
vt 0.16144623 0.49999234
vt 0.16144623 0.49999234
vt 0.16144623 0.49999234
vt 0.16144623 0.49999234
vt 0.16144623 0.49999234
vt 0.16144623 0.49999234
vt 0.16144623 0.49999234
vt 0.16144623 0.49999234
vt 0.16144623 0.49999234
vt 0.16144623 0.49999234
vt 0.16144623 0.49999234
vt 0.16144623 0.49999234
vt 0.16144623 0.49999234
vt 0.16144623 0.49999234
vt 0.16144623 0.49999234
vt 0.16144623 0.49999234
vt 0.17714595 0.44500804
vt 0.16913922 0.44780805
vt 0.17714595 0.44500804
vt 0.16913922 0.44780805
vt 0.16308514 0.45122929
vt 0.16142968 0.45965321
vt 0.16142968 0.45390378
vt 0.16308514 0.46232769
vt 0.16913922 0.44780805
vt 0.16913922 0.46574893
vt 0.17714595 0.44500804
vt 0.17714595 0.46854895
vt 0.18666729 0.44298243
vt 0.18666729 0.47057456
vt 0.19718233 0.44184205
vt 0.19718233 0.47171493
vt 0.26416676 0.43708448
vt 0.26416676 0.47647250
vt 0.26707656 0.43877364
vt 0.26707656 0.47478335
vt 0.26946951 0.44230816
vt 0.26946951 0.47124883
vt 0.27133833 0.44588689
vt 0.27133833 0.46767010
vt 0.27267729 0.46405810
vt 0.27267729 0.44949889
vt 0.27279091 0.46042387
vt 0.27279091 0.45313312
vt 0.27279091 0.45677849
vt 0.16308514 0.45122929
vt 0.16308514 0.45122929
vt 0.18666729 0.44298243
vt 0.18666729 0.44298243
vt 0.19718233 0.44184205
vt 0.19718233 0.44184205
vt 0.26416676 0.43708448
vt 0.26416676 0.43708448
vt 0.26416676 0.43708448
vt 0.26707656 0.43877364
vt 0.26416676 0.43708448
vt 0.26416676 0.43708448
vt 0.26707656 0.43877364
vt 0.26946951 0.44230816
vt 0.26946951 0.44230816
vt 0.27133833 0.44588689
vt 0.27133833 0.44588689
vt 0.27267729 0.44949889
vt 0.27267729 0.44949889
vt 0.27279091 0.45313312
vt 0.27279091 0.45313312
vt 0.27279091 0.45677849
vt 0.27279091 0.45677849
vt 0.27279091 0.46042387
vt 0.27279091 0.46042387
vt 0.27267729 0.46405810
vt 0.27267729 0.46405810
vt 0.27133833 0.46767010
vt 0.27133833 0.46767010
vt 0.26946951 0.47124883
vt 0.26946951 0.47124883
vt 0.26707656 0.47478335
vt 0.26707656 0.47478335
vt 0.26416676 0.47647250
vt 0.26416676 0.47647250
vt 0.19718233 0.47171493
vt 0.26416676 0.47647250
vt 0.26416676 0.47647250
vt 0.19718233 0.47171493
vt 0.26416676 0.47647250
vt 0.18666729 0.47057456
vt 0.18666729 0.47057456
vt 0.17714595 0.46854895
vt 0.17714595 0.46854895
vt 0.16913922 0.46574893
vt 0.16913922 0.46574893
vt 0.16308514 0.46232769
vt 0.16308514 0.46232769
vt 0.16142968 0.45965321
vt 0.16142968 0.45965321
vt 0.16142968 0.45390378
vt 0.16142968 0.45390378
vt 0.26416676 0.43708448
vt 0.26416676 0.47647250
vt 0.26416676 0.43708448
vt 0.26416676 0.47647250
f 1/1/1 2/2/2 3/3/3
f 2/2/2 1/1/1 4/4/4
f 5/5/5 6/6/6 7/7/7
f 6/6/6 5/5/5 8/8/8
f 9/9/9 10/10/10 11/11/11
f 10/10/10 9/9/9 12/12/12
f 13/13/13 14/14/14 15/15/15
f 14/14/14 13/13/13 16/16/16
f 17/17/17 18/18/18 19/19/19
f 18/18/18 17/17/17 20/20/20
f 21/21/21 22/22/22 23/23/23
f 22/22/22 21/21/21 24/24/24
f 25/25/25 26/26/26 27/27/27
f 26/26/26 25/25/25 28/28/28
f 27/27/27 29/29/29 30/30/30
f 29/29/29 27/27/27 26/26/26
f 31/31/31 28/28/28 25/25/25
f 28/28/28 31/31/31 32/32/32
f 30/30/30 33/33/33 34/34/34
f 33/33/33 30/30/30 29/29/29
f 35/35/35 32/32/32 31/31/31
f 32/32/32 35/35/35 36/36/36
f 34/34/34 37/37/37 38/38/38
f 37/37/37 34/34/34 33/33/33
f 39/39/39 36/36/36 35/35/35
f 36/36/36 39/39/39 40/40/40
f 38/38/38 41/41/41 42/42/42
f 41/41/41 38/38/38 37/37/37
f 43/43/43 40/40/40 39/39/39
f 40/40/40 43/43/43 44/44/44
f 42/42/42 45/45/45 46/46/46
f 45/45/45 42/42/42 41/41/41
f 47/47/47 44/44/44 43/43/43
f 44/44/44 47/47/47 48/48/48
f 48/48/48 47/47/47 49/49/49
f 44/44/44 50/50/50 51/51/51
f 50/50/50 44/44/44 48/48/48
f 51/51/51 50/50/50 52/52/52
f 46/46/46 53/53/53 54/54/54
f 53/53/53 46/46/46 45/45/45
f 55/55/55 56/56/56 57/57/57
f 56/56/56 55/55/55 58/58/58
f 59/59/59 60/60/60 61/61/61
f 60/60/60 59/59/59 62/62/62
f 62/62/62 59/59/59 63/63/63
f 62/62/62 63/63/63 64/64/64
f 64/64/64 63/63/63 65/65/65
f 64/64/64 65/65/65 66/66/66
f 66/66/66 65/65/65 67/67/67
f 66/66/66 67/67/67 68/68/68
f 68/68/68 67/67/67 69/69/69
f 68/68/68 69/69/69 70/70/70
f 70/70/70 69/69/69 71/71/71
f 70/70/70 71/71/71 72/72/72
f 73/73/73 74/74/74 75/75/75
f 74/74/74 73/73/73 76/76/76
f 77/77/77 78/78/78 79/79/79
f 78/78/78 77/77/77 80/80/80
f 80/80/80 77/77/77 81/81/81
f 80/80/80 81/81/81 82/82/82
f 82/82/82 81/81/81 83/83/83
f 82/82/82 83/83/83 84/84/84
f 84/84/84 83/83/83 85/85/85
f 84/84/84 85/85/85 86/86/86
f 86/86/86 85/85/85 87/87/87
f 86/86/86 87/87/87 88/88/88
f 88/88/88 87/87/87 89/89/89
f 88/88/88 89/89/89 90/90/90
f 90/90/90 89/89/89 91/91/91
f 90/90/90 91/91/91 92/92/92
f 92/92/92 91/91/91 93/93/93
f 92/92/92 93/93/93 94/94/94
f 94/94/94 93/93/93 95/95/95
f 94/94/94 95/95/95 96/96/96
f 96/96/96 95/95/95 97/97/97
f 97/97/97 95/95/95 98/98/98
f 97/97/97 98/98/98 99/99/99
f 99/99/99 98/98/98 100/100/100
f 99/99/99 100/100/100 101/101/101
f 102/102/102 74/74/74 76/76/76
f 74/74/74 102/102/102 103/103/103
f 104/104/104 75/75/75 105/105/105
f 75/75/75 104/104/104 73/73/73
f 106/106/106 105/105/105 107/107/107
f 105/105/105 106/106/106 104/104/104
f 108/108/108 107/107/107 109/109/109
f 107/107/107 108/108/108 106/106/106
f 106/106/106 108/108/108 110/110/110
f 111/111/111 112/112/112 113/113/113
f 112/112/112 111/111/111 114/114/114
f 115/115/115 114/114/114 111/111/111
f 114/114/114 115/115/115 116/116/116
f 117/117/117 116/116/116 115/115/115
f 116/116/116 117/117/117 118/118/118
f 119/119/119 118/118/118 117/117/117
f 118/118/118 119/119/119 120/120/120
f 121/121/121 120/120/120 119/119/119
f 120/120/120 121/121/121 122/122/122
f 123/123/123 122/122/122 121/121/121
f 122/122/122 123/123/123 124/124/124
f 125/125/125 124/124/124 123/123/123
f 124/124/124 125/125/125 126/126/126
f 127/127/127 126/126/126 125/125/125
f 126/126/126 127/127/127 128/128/128
f 129/129/129 128/128/128 127/127/127
f 128/128/128 129/129/129 130/130/130
f 131/131/131 130/130/130 129/129/129
f 130/130/130 131/131/131 132/132/132
f 133/133/133 132/132/132 131/131/131
f 132/132/132 133/133/133 134/134/134
f 135/135/135 134/134/134 133/133/133
f 134/134/134 135/135/135 136/136/136
f 137/137/137 138/138/138 139/139/139
f 138/138/138 137/137/137 140/140/140
f 138/138/138 140/140/140 141/141/141
f 142/142/142 137/137/137 143/143/143
f 137/137/137 142/142/142 140/140/140
f 144/144/144 143/143/143 145/145/145
f 143/143/143 144/144/144 142/142/142
f 146/146/146 145/145/145 147/147/147
f 145/145/145 146/146/146 144/144/144
f 146/146/146 148/148/148 149/149/149
f 148/148/148 146/146/146 147/147/147
f 149/149/149 150/150/150 151/151/151
f 150/150/150 149/149/149 148/148/148
f 152/152/152 103/103/103 102/102/102
f 103/103/103 152/152/152 153/153/153
f 154/154/154 155/155/155 156/156/156
f 155/155/155 154/154/154 157/157/157

